%TF.GenerationSoftware,KiCad,Pcbnew,8.0.2*%
%TF.CreationDate,2024-05-25T15:23:05+03:00*%
%TF.ProjectId,sos_business_card,736f735f-6275-4736-996e-6573735f6361,A*%
%TF.SameCoordinates,Original*%
%TF.FileFunction,Copper,L1,Top*%
%TF.FilePolarity,Positive*%
%FSLAX46Y46*%
G04 Gerber Fmt 4.6, Leading zero omitted, Abs format (unit mm)*
G04 Created by KiCad (PCBNEW 8.0.2) date 2024-05-25 15:23:05*
%MOMM*%
%LPD*%
G01*
G04 APERTURE LIST*
G04 Aperture macros list*
%AMRoundRect*
0 Rectangle with rounded corners*
0 $1 Rounding radius*
0 $2 $3 $4 $5 $6 $7 $8 $9 X,Y pos of 4 corners*
0 Add a 4 corners polygon primitive as box body*
4,1,4,$2,$3,$4,$5,$6,$7,$8,$9,$2,$3,0*
0 Add four circle primitives for the rounded corners*
1,1,$1+$1,$2,$3*
1,1,$1+$1,$4,$5*
1,1,$1+$1,$6,$7*
1,1,$1+$1,$8,$9*
0 Add four rect primitives between the rounded corners*
20,1,$1+$1,$2,$3,$4,$5,0*
20,1,$1+$1,$4,$5,$6,$7,0*
20,1,$1+$1,$6,$7,$8,$9,0*
20,1,$1+$1,$8,$9,$2,$3,0*%
G04 Aperture macros list end*
%TA.AperFunction,ComponentPad*%
%ADD10C,2.900000*%
%TD*%
%TA.AperFunction,ConnectorPad*%
%ADD11C,5.000000*%
%TD*%
%TA.AperFunction,SMDPad,CuDef*%
%ADD12RoundRect,0.250000X-0.250000X-0.475000X0.250000X-0.475000X0.250000X0.475000X-0.250000X0.475000X0*%
%TD*%
%TA.AperFunction,SMDPad,CuDef*%
%ADD13RoundRect,0.250000X1.400000X1.000000X-1.400000X1.000000X-1.400000X-1.000000X1.400000X-1.000000X0*%
%TD*%
%TA.AperFunction,SMDPad,CuDef*%
%ADD14RoundRect,0.250000X0.450000X-0.262500X0.450000X0.262500X-0.450000X0.262500X-0.450000X-0.262500X0*%
%TD*%
%TA.AperFunction,SMDPad,CuDef*%
%ADD15RoundRect,0.150000X-0.825000X-0.150000X0.825000X-0.150000X0.825000X0.150000X-0.825000X0.150000X0*%
%TD*%
%TA.AperFunction,SMDPad,CuDef*%
%ADD16RoundRect,0.250000X-0.450000X0.262500X-0.450000X-0.262500X0.450000X-0.262500X0.450000X0.262500X0*%
%TD*%
%TA.AperFunction,SMDPad,CuDef*%
%ADD17RoundRect,0.175000X-0.425000X0.175000X-0.425000X-0.175000X0.425000X-0.175000X0.425000X0.175000X0*%
%TD*%
%TA.AperFunction,SMDPad,CuDef*%
%ADD18RoundRect,0.190000X0.410000X-0.190000X0.410000X0.190000X-0.410000X0.190000X-0.410000X-0.190000X0*%
%TD*%
%TA.AperFunction,SMDPad,CuDef*%
%ADD19RoundRect,0.200000X0.400000X-0.200000X0.400000X0.200000X-0.400000X0.200000X-0.400000X-0.200000X0*%
%TD*%
%TA.AperFunction,SMDPad,CuDef*%
%ADD20RoundRect,0.175000X0.425000X-0.175000X0.425000X0.175000X-0.425000X0.175000X-0.425000X-0.175000X0*%
%TD*%
%TA.AperFunction,SMDPad,CuDef*%
%ADD21RoundRect,0.190000X-0.410000X0.190000X-0.410000X-0.190000X0.410000X-0.190000X0.410000X0.190000X0*%
%TD*%
%TA.AperFunction,SMDPad,CuDef*%
%ADD22RoundRect,0.200000X-0.400000X0.200000X-0.400000X-0.200000X0.400000X-0.200000X0.400000X0.200000X0*%
%TD*%
%TA.AperFunction,ComponentPad*%
%ADD23O,1.700000X1.100000*%
%TD*%
%TA.AperFunction,SMDPad,CuDef*%
%ADD24RoundRect,0.250000X0.625000X-0.375000X0.625000X0.375000X-0.625000X0.375000X-0.625000X-0.375000X0*%
%TD*%
%TA.AperFunction,SMDPad,CuDef*%
%ADD25RoundRect,0.150000X0.875000X0.150000X-0.875000X0.150000X-0.875000X-0.150000X0.875000X-0.150000X0*%
%TD*%
%TA.AperFunction,SMDPad,CuDef*%
%ADD26R,1.000000X0.800000*%
%TD*%
%TA.AperFunction,SMDPad,CuDef*%
%ADD27R,0.700000X1.500000*%
%TD*%
%TA.AperFunction,ComponentPad*%
%ADD28R,1.905000X2.000000*%
%TD*%
%TA.AperFunction,ComponentPad*%
%ADD29O,1.905000X2.000000*%
%TD*%
%TA.AperFunction,SMDPad,CuDef*%
%ADD30RoundRect,1.654167X-4.406533X-3.387733X4.406533X-3.387733X4.406533X3.387733X-4.406533X3.387733X0*%
%TD*%
%TA.AperFunction,SMDPad,CuDef*%
%ADD31RoundRect,0.150000X-0.150000X0.587500X-0.150000X-0.587500X0.150000X-0.587500X0.150000X0.587500X0*%
%TD*%
%TA.AperFunction,SMDPad,CuDef*%
%ADD32RoundRect,0.250000X-0.262500X-0.450000X0.262500X-0.450000X0.262500X0.450000X-0.262500X0.450000X0*%
%TD*%
%TA.AperFunction,SMDPad,CuDef*%
%ADD33RoundRect,0.150000X-0.587500X-0.150000X0.587500X-0.150000X0.587500X0.150000X-0.587500X0.150000X0*%
%TD*%
%TA.AperFunction,SMDPad,CuDef*%
%ADD34R,1.270000X5.080000*%
%TD*%
%TA.AperFunction,SMDPad,CuDef*%
%ADD35C,17.800000*%
%TD*%
%TA.AperFunction,ViaPad*%
%ADD36C,0.600000*%
%TD*%
%TA.AperFunction,Conductor*%
%ADD37C,0.500000*%
%TD*%
%TA.AperFunction,Conductor*%
%ADD38C,0.200000*%
%TD*%
%TA.AperFunction,Conductor*%
%ADD39C,2.000000*%
%TD*%
G04 APERTURE END LIST*
D10*
%TO.P,J5,1,Pin_1*%
%TO.N,GND*%
X119380000Y-92710000D03*
D11*
X119380000Y-92710000D03*
%TD*%
D12*
%TO.P,C3,1*%
%TO.N,GND*%
X172532000Y-119761000D03*
%TO.P,C3,2*%
%TO.N,VCC*%
X174432000Y-119761000D03*
%TD*%
D13*
%TO.P,D2,1,K*%
%TO.N,Net-(D2-K)*%
X129540000Y-134210000D03*
%TO.P,D2,2,A*%
%TO.N,PWR*%
X129540000Y-127410000D03*
%TD*%
D12*
%TO.P,C2,1*%
%TO.N,GND*%
X184343000Y-113411000D03*
%TO.P,C2,2*%
%TO.N,VCC*%
X186243000Y-113411000D03*
%TD*%
%TO.P,C6,1*%
%TO.N,GND*%
X138750000Y-117729000D03*
%TO.P,C6,2*%
%TO.N,VCC*%
X140650000Y-117729000D03*
%TD*%
D14*
%TO.P,R4,1*%
%TO.N,Net-(J1-CC1)*%
X125857000Y-110767500D03*
%TO.P,R4,2*%
%TO.N,GND*%
X125857000Y-108942500D03*
%TD*%
D15*
%TO.P,U2,1*%
%TO.N,Net-(U1-Pad2)*%
X158053000Y-121920000D03*
%TO.P,U2,2*%
%TO.N,Net-(U1-Pad4)*%
X158053000Y-123190000D03*
%TO.P,U2,3*%
%TO.N,N/C*%
X158053000Y-124460000D03*
%TO.P,U2,4*%
%TO.N,Net-(U1-Pad10)*%
X158053000Y-125730000D03*
%TO.P,U2,5*%
X158053000Y-127000000D03*
%TO.P,U2,6*%
%TO.N,Net-(U2-Pad6)*%
X158053000Y-128270000D03*
%TO.P,U2,7,GND*%
%TO.N,GND*%
X158053000Y-129540000D03*
%TO.P,U2,8*%
%TO.N,Net-(U2-Pad8)*%
X163003000Y-129540000D03*
%TO.P,U2,9*%
%TO.N,Net-(U1-Pad2)*%
X163003000Y-128270000D03*
%TO.P,U2,10*%
X163003000Y-127000000D03*
%TO.P,U2,11*%
%TO.N,N/C*%
X163003000Y-125730000D03*
%TO.P,U2,12*%
%TO.N,Net-(U1-Pad6)*%
X163003000Y-124460000D03*
%TO.P,U2,13*%
X163003000Y-123190000D03*
%TO.P,U2,14,VCC*%
%TO.N,VCC*%
X163003000Y-121920000D03*
%TD*%
D16*
%TO.P,R2,1*%
%TO.N,Net-(U6-DIS)*%
X151892000Y-127508000D03*
%TO.P,R2,2*%
%TO.N,Net-(U6-THR)*%
X151892000Y-129333000D03*
%TD*%
D12*
%TO.P,C8,1*%
%TO.N,GND*%
X147894000Y-129032000D03*
%TO.P,C8,2*%
%TO.N,Net-(U6-CV)*%
X149794000Y-129032000D03*
%TD*%
D15*
%TO.P,U4,1*%
%TO.N,Net-(U1-Pad4)*%
X169229000Y-121920000D03*
%TO.P,U4,2*%
%TO.N,Net-(U1-Pad6)*%
X169229000Y-123190000D03*
%TO.P,U4,3*%
%TO.N,N/C*%
X169229000Y-124460000D03*
%TO.P,U4,4*%
%TO.N,Net-(U1-Pad8)*%
X169229000Y-125730000D03*
%TO.P,U4,5*%
%TO.N,Net-(U7-Q4)*%
X169229000Y-127000000D03*
%TO.P,U4,6*%
%TO.N,Net-(U4-Pad6)*%
X169229000Y-128270000D03*
%TO.P,U4,7,GND*%
%TO.N,GND*%
X169229000Y-129540000D03*
%TO.P,U4,8*%
%TO.N,Net-(U4-Pad8)*%
X174179000Y-129540000D03*
%TO.P,U4,9*%
%TO.N,Net-(U7-Q4)*%
X174179000Y-128270000D03*
%TO.P,U4,10*%
%TO.N,Net-(U1-Pad8)*%
X174179000Y-127000000D03*
%TO.P,U4,11*%
%TO.N,N/C*%
X174179000Y-125730000D03*
%TO.P,U4,12*%
%TO.N,Net-(U7-Q1)*%
X174179000Y-124460000D03*
%TO.P,U4,13*%
%TO.N,Net-(U1-Pad2)*%
X174179000Y-123190000D03*
%TO.P,U4,14,VCC*%
%TO.N,VCC*%
X174179000Y-121920000D03*
%TD*%
D17*
%TO.P,J1,A5,CC1*%
%TO.N,Net-(J1-CC1)*%
X121600000Y-113038000D03*
D18*
%TO.P,J1,A9,VBUS*%
%TO.N,PWR*%
X121600000Y-115058000D03*
D19*
%TO.P,J1,A12,GND*%
%TO.N,GND*%
X121600000Y-116288000D03*
D20*
%TO.P,J1,B5,CC2*%
%TO.N,Net-(J1-CC2)*%
X121600000Y-114038000D03*
D21*
%TO.P,J1,B9,VBUS*%
%TO.N,PWR*%
X121600000Y-112018000D03*
D22*
%TO.P,J1,B12,GND*%
%TO.N,GND*%
X121600000Y-110788000D03*
D23*
%TO.P,J1,S1,SHIELD*%
X121520000Y-109218000D03*
X117720000Y-109218000D03*
X121520000Y-117858000D03*
X117720000Y-117858000D03*
%TD*%
D12*
%TO.P,C4,1*%
%TO.N,GND*%
X161483000Y-119761000D03*
%TO.P,C4,2*%
%TO.N,VCC*%
X163383000Y-119761000D03*
%TD*%
D16*
%TO.P,R1,1*%
%TO.N,VCC*%
X151892000Y-123952000D03*
%TO.P,R1,2*%
%TO.N,Net-(U6-DIS)*%
X151892000Y-125777000D03*
%TD*%
%TO.P,R7,1*%
%TO.N,SIG_OUT*%
X189484000Y-126214500D03*
%TO.P,R7,2*%
%TO.N,GND*%
X189484000Y-128039500D03*
%TD*%
D10*
%TO.P,J4,1,Pin_1*%
%TO.N,Net-(D2-K)*%
X119380000Y-134366000D03*
D11*
X119380000Y-134366000D03*
%TD*%
D24*
%TO.P,D1,1,K*%
%TO.N,Net-(D1-K)*%
X172593000Y-96650000D03*
%TO.P,D1,2,A*%
%TO.N,Net-(D1-A)*%
X172593000Y-93850000D03*
%TD*%
D25*
%TO.P,U7,1,Q1*%
%TO.N,Net-(U7-Q1)*%
X152351000Y-117729000D03*
%TO.P,U7,2,Q2*%
%TO.N,Net-(U7-Q2)*%
X152351000Y-116459000D03*
%TO.P,U7,3,Q3*%
%TO.N,Net-(U7-Q3)*%
X152351000Y-115189000D03*
%TO.P,U7,4,Q4*%
%TO.N,Net-(U7-Q4)*%
X152351000Y-113919000D03*
%TO.P,U7,5,Q5*%
%TO.N,unconnected-(U7-Q5-Pad5)*%
X152351000Y-112649000D03*
%TO.P,U7,6,Q6*%
%TO.N,unconnected-(U7-Q6-Pad6)*%
X152351000Y-111379000D03*
%TO.P,U7,7,Q7*%
%TO.N,unconnected-(U7-Q7-Pad7)*%
X152351000Y-110109000D03*
%TO.P,U7,8,GND*%
%TO.N,GND*%
X152351000Y-108839000D03*
%TO.P,U7,9,~{RCO}*%
%TO.N,VCC*%
X143051000Y-108839000D03*
%TO.P,U7,10,~{MRC}*%
X143051000Y-110109000D03*
%TO.P,U7,11,CPC*%
%TO.N,CLK*%
X143051000Y-111379000D03*
%TO.P,U7,12,~{CE}*%
%TO.N,GND*%
X143051000Y-112649000D03*
%TO.P,U7,13,CPR*%
%TO.N,CLK*%
X143051000Y-113919000D03*
%TO.P,U7,14,~{OE}*%
%TO.N,GND*%
X143051000Y-115189000D03*
%TO.P,U7,15,Q0*%
%TO.N,Net-(U7-Q0)*%
X143051000Y-116459000D03*
%TO.P,U7,16,VCC*%
%TO.N,VCC*%
X143051000Y-117729000D03*
%TD*%
D12*
%TO.P,C5,1*%
%TO.N,GND*%
X172659000Y-107696000D03*
%TO.P,C5,2*%
%TO.N,VCC*%
X174559000Y-107696000D03*
%TD*%
D15*
%TO.P,U3,1*%
%TO.N,Net-(U1-Pad10)*%
X169229000Y-109982000D03*
%TO.P,U3,2*%
%TO.N,Net-(U1-Pad4)*%
X169229000Y-111252000D03*
%TO.P,U3,3*%
%TO.N,N/C*%
X169229000Y-112522000D03*
%TO.P,U3,4*%
%TO.N,Net-(U1-Pad4)*%
X169229000Y-113792000D03*
%TO.P,U3,5*%
%TO.N,Net-(U7-Q3)*%
X169229000Y-115062000D03*
%TO.P,U3,6*%
%TO.N,Net-(U3-Pad6)*%
X169229000Y-116332000D03*
%TO.P,U3,7,GND*%
%TO.N,GND*%
X169229000Y-117602000D03*
%TO.P,U3,8*%
%TO.N,Net-(U3-Pad8)*%
X174179000Y-117602000D03*
%TO.P,U3,9*%
%TO.N,Net-(U7-Q3)*%
X174179000Y-116332000D03*
%TO.P,U3,10*%
%TO.N,Net-(U1-Pad10)*%
X174179000Y-115062000D03*
%TO.P,U3,11*%
%TO.N,N/C*%
X174179000Y-113792000D03*
%TO.P,U3,12*%
%TO.N,Net-(U1-Pad2)*%
X174179000Y-112522000D03*
%TO.P,U3,13*%
X174179000Y-111252000D03*
%TO.P,U3,14,VCC*%
%TO.N,VCC*%
X174179000Y-109982000D03*
%TD*%
D26*
%TO.P,SW1,*%
%TO.N,*%
X153764000Y-91679000D03*
X153764000Y-89469000D03*
X146464000Y-91679000D03*
X146464000Y-89469000D03*
D27*
%TO.P,SW1,1,A*%
%TO.N,VCC*%
X152364000Y-92329000D03*
%TO.P,SW1,2,B*%
%TO.N,PWR*%
X149364000Y-92329000D03*
%TO.P,SW1,3,C*%
%TO.N,unconnected-(SW1-C-Pad3)*%
X147864000Y-92329000D03*
%TD*%
D16*
%TO.P,R3,1*%
%TO.N,Net-(J1-CC2)*%
X125857000Y-116308500D03*
%TO.P,R3,2*%
%TO.N,GND*%
X125857000Y-118133500D03*
%TD*%
%TO.P,R5,1*%
%TO.N,Net-(D1-K)*%
X181229000Y-110466500D03*
%TO.P,R5,2*%
%TO.N,GND*%
X181229000Y-112291500D03*
%TD*%
D28*
%TO.P,Q2,1,G*%
%TO.N,Net-(Q2-G)*%
X195046600Y-123117650D03*
D29*
%TO.P,Q2,2,D*%
%TO.N,Net-(J3-Pin_1)*%
X197586600Y-123117650D03*
%TO.P,Q2,3,S*%
%TO.N,Net-(D2-K)*%
X200126600Y-123117650D03*
D30*
%TO.P,Q2,4,D*%
%TO.N,Net-(J3-Pin_1)*%
X197485000Y-106455250D03*
%TD*%
D12*
%TO.P,C9,1*%
%TO.N,GND*%
X143830000Y-129032000D03*
%TO.P,C9,2*%
%TO.N,Net-(U6-THR)*%
X145730000Y-129032000D03*
%TD*%
D31*
%TO.P,Q1,1,G*%
%TO.N,SIG_OUT*%
X186243000Y-109044500D03*
%TO.P,Q1,2,S*%
%TO.N,Net-(D1-A)*%
X184343000Y-109044500D03*
%TO.P,Q1,3,D*%
%TO.N,VCC*%
X185293000Y-110919500D03*
%TD*%
D12*
%TO.P,C7,1*%
%TO.N,GND*%
X161483000Y-107823000D03*
%TO.P,C7,2*%
%TO.N,VCC*%
X163383000Y-107823000D03*
%TD*%
D15*
%TO.P,U1,1*%
%TO.N,Net-(U7-Q0)*%
X158053000Y-109982000D03*
%TO.P,U1,2*%
%TO.N,Net-(U1-Pad2)*%
X158053000Y-111252000D03*
%TO.P,U1,3*%
%TO.N,Net-(U7-Q1)*%
X158053000Y-112522000D03*
%TO.P,U1,4*%
%TO.N,Net-(U1-Pad4)*%
X158053000Y-113792000D03*
%TO.P,U1,5*%
%TO.N,Net-(U7-Q2)*%
X158053000Y-115062000D03*
%TO.P,U1,6*%
%TO.N,Net-(U1-Pad6)*%
X158053000Y-116332000D03*
%TO.P,U1,7,GND*%
%TO.N,GND*%
X158053000Y-117602000D03*
%TO.P,U1,8*%
%TO.N,Net-(U1-Pad8)*%
X163003000Y-117602000D03*
%TO.P,U1,9*%
%TO.N,Net-(U7-Q3)*%
X163003000Y-116332000D03*
%TO.P,U1,10*%
%TO.N,Net-(U1-Pad10)*%
X163003000Y-115062000D03*
%TO.P,U1,11*%
%TO.N,Net-(U7-Q4)*%
X163003000Y-113792000D03*
%TO.P,U1,12*%
%TO.N,unconnected-(U1-Pad12)*%
X163003000Y-112522000D03*
%TO.P,U1,13*%
%TO.N,VCC*%
X163003000Y-111252000D03*
%TO.P,U1,14,3.3V*%
X163003000Y-109982000D03*
%TD*%
D32*
%TO.P,R6,1*%
%TO.N,Net-(D2-K)*%
X190095500Y-130429000D03*
%TO.P,R6,2*%
%TO.N,Net-(Q2-G)*%
X191920500Y-130429000D03*
%TD*%
D33*
%TO.P,Q3,1,G*%
%TO.N,SIG_OUT*%
X192229500Y-126243000D03*
%TO.P,Q3,2,S*%
%TO.N,GND*%
X192229500Y-128143000D03*
%TO.P,Q3,3,D*%
%TO.N,Net-(Q2-G)*%
X194104500Y-127193000D03*
%TD*%
D12*
%TO.P,C1,1*%
%TO.N,GND*%
X147386000Y-121031000D03*
%TO.P,C1,2*%
%TO.N,VCC*%
X149286000Y-121031000D03*
%TD*%
D15*
%TO.P,U6,1,GND*%
%TO.N,GND*%
X144337000Y-123063000D03*
%TO.P,U6,2,TR*%
%TO.N,Net-(U6-THR)*%
X144337000Y-124333000D03*
%TO.P,U6,3,Q*%
%TO.N,CLK*%
X144337000Y-125603000D03*
%TO.P,U6,4,R*%
%TO.N,VCC*%
X144337000Y-126873000D03*
%TO.P,U6,5,CV*%
%TO.N,Net-(U6-CV)*%
X149287000Y-126873000D03*
%TO.P,U6,6,THR*%
%TO.N,Net-(U6-THR)*%
X149287000Y-125603000D03*
%TO.P,U6,7,DIS*%
%TO.N,Net-(U6-DIS)*%
X149287000Y-124333000D03*
%TO.P,U6,8,VCC*%
%TO.N,VCC*%
X149287000Y-123063000D03*
%TD*%
%TO.P,U5,1*%
%TO.N,Net-(U2-Pad6)*%
X180848000Y-115824000D03*
%TO.P,U5,2*%
%TO.N,Net-(U2-Pad8)*%
X180848000Y-117094000D03*
%TO.P,U5,3*%
%TO.N,Net-(U3-Pad8)*%
X180848000Y-118364000D03*
%TO.P,U5,4*%
%TO.N,Net-(U4-Pad6)*%
X180848000Y-119634000D03*
%TO.P,U5,5*%
%TO.N,Net-(U4-Pad8)*%
X180848000Y-120904000D03*
%TO.P,U5,6*%
%TO.N,Net-(U5-Pad13)*%
X180848000Y-122174000D03*
%TO.P,U5,7,VSS*%
%TO.N,GND*%
X180848000Y-123444000D03*
%TO.P,U5,8*%
%TO.N,Net-(U3-Pad6)*%
X185798000Y-123444000D03*
%TO.P,U5,9*%
%TO.N,Net-(U5-Pad11)*%
X185798000Y-122174000D03*
%TO.P,U5,10*%
%TO.N,SIG_OUT*%
X185798000Y-120904000D03*
%TO.P,U5,11*%
%TO.N,Net-(U5-Pad11)*%
X185798000Y-119634000D03*
%TO.P,U5,12*%
X185798000Y-118364000D03*
%TO.P,U5,13*%
%TO.N,Net-(U5-Pad13)*%
X185798000Y-117094000D03*
%TO.P,U5,14,VDD*%
%TO.N,VCC*%
X185798000Y-115824000D03*
%TD*%
D10*
%TO.P,J2,1,Pin_1*%
%TO.N,GND*%
X201041000Y-134366000D03*
D11*
X201041000Y-134366000D03*
%TD*%
D10*
%TO.P,J3,1,Pin_1*%
%TO.N,Net-(J3-Pin_1)*%
X201041000Y-92710000D03*
D11*
X201041000Y-92710000D03*
%TD*%
D34*
%TO.P,BT1,1,+*%
%TO.N,PWR*%
X122365000Y-98171000D03*
X144335000Y-98171000D03*
D35*
%TO.P,BT1,2,-*%
%TO.N,GND*%
X133350000Y-98171000D03*
%TD*%
D36*
%TO.N,GND*%
X157988000Y-107569000D03*
X170053000Y-107569000D03*
X165735000Y-129540000D03*
X147701000Y-114681000D03*
X147701000Y-113665000D03*
X168656000Y-107569000D03*
X159131000Y-108458000D03*
X147701000Y-112522000D03*
X192278000Y-95377000D03*
X146431000Y-113665000D03*
X170053000Y-108458000D03*
X138938000Y-122174000D03*
X184404000Y-129032000D03*
X157861000Y-119888000D03*
X182880000Y-129032000D03*
X182880000Y-127889000D03*
X159131000Y-119888000D03*
X140335000Y-121031000D03*
X159131000Y-107569000D03*
X182880000Y-130302000D03*
X140335000Y-123444000D03*
X138938000Y-123444000D03*
X193421000Y-95377000D03*
X193421000Y-93091000D03*
X192278000Y-94234000D03*
X138938000Y-121031000D03*
X193421000Y-94234000D03*
X159131000Y-118872000D03*
X140335000Y-122174000D03*
X184404000Y-130302000D03*
X157861000Y-118872000D03*
X157988000Y-108458000D03*
X156845000Y-107569000D03*
X146431000Y-114681000D03*
X168656000Y-108458000D03*
X192278000Y-93091000D03*
X165735000Y-128524000D03*
X171196000Y-118872000D03*
X146431000Y-112522000D03*
X167386000Y-107569000D03*
X169418000Y-118872000D03*
X170307000Y-118872000D03*
X156845000Y-108458000D03*
X167386000Y-108458000D03*
X184404000Y-127889000D03*
%TO.N,VCC*%
X164846000Y-119761000D03*
X176784000Y-114173000D03*
X176784000Y-117602000D03*
X164846000Y-108966000D03*
%TO.N,Net-(U7-Q1)*%
X154966041Y-117829959D03*
X154117511Y-118678489D03*
%TO.N,Net-(U7-Q0)*%
X147320000Y-110617000D03*
X138811000Y-114427000D03*
%TO.N,Net-(U7-Q4)*%
X166243000Y-116205000D03*
X166243000Y-113030000D03*
%TO.N,Net-(U4-Pad8)*%
X172593000Y-129540000D03*
X172593000Y-131664000D03*
%TO.N,Net-(U4-Pad6)*%
X167005000Y-128270000D03*
X167005000Y-131064000D03*
%TD*%
D37*
%TO.N,PWR*%
X119634000Y-113665000D02*
X119634000Y-108839000D01*
X144335000Y-97790000D02*
X145288000Y-97790000D01*
X121000000Y-112018000D02*
X121600000Y-112018000D01*
X119634000Y-119888000D02*
X119634000Y-113665000D01*
X144335000Y-102934000D02*
X144335000Y-97790000D01*
X139319000Y-107950000D02*
X144335000Y-102934000D01*
X121600000Y-115058000D02*
X121000000Y-115058000D01*
X122365000Y-102934000D02*
X127381000Y-107950000D01*
X127381000Y-107950000D02*
X139319000Y-107950000D01*
X122365000Y-97790000D02*
X122365000Y-102934000D01*
X121000000Y-115058000D02*
X120523000Y-114581000D01*
X119634000Y-108839000D02*
X123952000Y-104521000D01*
X120523000Y-113665000D02*
X120523000Y-112495000D01*
X120523000Y-114581000D02*
X120523000Y-113665000D01*
X127156000Y-127410000D02*
X119634000Y-119888000D01*
X120523000Y-112495000D02*
X121000000Y-112018000D01*
X120523000Y-113665000D02*
X119634000Y-113665000D01*
X149364000Y-93714000D02*
X149364000Y-92075000D01*
X145288000Y-97790000D02*
X149364000Y-93714000D01*
X129540000Y-127410000D02*
X127156000Y-127410000D01*
D38*
%TO.N,VCC*%
X163383000Y-107823000D02*
X163383000Y-106365000D01*
X147447000Y-122301000D02*
X146085000Y-123663000D01*
X143051000Y-108839000D02*
X144461000Y-108839000D01*
X174432000Y-119761000D02*
X174432000Y-118684000D01*
X144780000Y-117348000D02*
X144780000Y-117729000D01*
X144780000Y-110109000D02*
X144780000Y-108839000D01*
X174559000Y-107696000D02*
X174559000Y-108713000D01*
X163003000Y-121158000D02*
X163003000Y-121920000D01*
X186243000Y-113411000D02*
X186243000Y-114428000D01*
X174179000Y-109093000D02*
X174179000Y-109982000D01*
X164846000Y-108966000D02*
X164846000Y-106299000D01*
X185293000Y-112461000D02*
X186243000Y-113411000D01*
X144461000Y-108839000D02*
X148971000Y-108839000D01*
X148525000Y-122301000D02*
X147447000Y-122301000D01*
X148971000Y-108839000D02*
X151511000Y-106299000D01*
X182245000Y-113665000D02*
X176784000Y-113665000D01*
X144461000Y-110109000D02*
X144780000Y-110109000D01*
X174432000Y-120905000D02*
X174179000Y-121158000D01*
X145450000Y-125003000D02*
X145669000Y-125222000D01*
X163383000Y-120778000D02*
X163003000Y-121158000D01*
X176784000Y-107696000D02*
X175387000Y-106299000D01*
X163383000Y-107823000D02*
X163383000Y-108840000D01*
X185798000Y-114684000D02*
X185798000Y-115824000D01*
X148463000Y-119126000D02*
X149291000Y-119954000D01*
X186243000Y-114428000D02*
X186022500Y-114648500D01*
X174559000Y-107696000D02*
X174559000Y-106365000D01*
X174625000Y-118491000D02*
X175895000Y-118491000D01*
X176784000Y-114173000D02*
X176784000Y-113792000D01*
X145311999Y-126873000D02*
X144337000Y-126873000D01*
X184973000Y-114681000D02*
X183261000Y-114681000D01*
X163383000Y-119761000D02*
X164465000Y-119761000D01*
X144780000Y-117348000D02*
X144780000Y-115195552D01*
X176784000Y-113792000D02*
X176784000Y-107696000D01*
X149291000Y-119954000D02*
X149291000Y-122240000D01*
X152400000Y-106299000D02*
X163449000Y-106299000D01*
X184973000Y-114681000D02*
X185990000Y-114681000D01*
X163383000Y-106365000D02*
X163449000Y-106299000D01*
X152364000Y-92075000D02*
X152364000Y-106263000D01*
X174338500Y-108933500D02*
X174179000Y-109093000D01*
X144780000Y-118999000D02*
X144907000Y-119126000D01*
X143062000Y-124673552D02*
X143391448Y-125003000D01*
X163226000Y-108997000D02*
X163003000Y-109220000D01*
X163383000Y-119761000D02*
X163383000Y-120778000D01*
X163003000Y-109982000D02*
X163003000Y-111252000D01*
X146085000Y-123663000D02*
X143391448Y-123663000D01*
X145669000Y-125222000D02*
X145669000Y-126515999D01*
X143051000Y-110109000D02*
X144461000Y-110109000D01*
X163003000Y-109220000D02*
X163003000Y-109982000D01*
X143051000Y-117729000D02*
X141540000Y-117729000D01*
X164465000Y-119761000D02*
X164846000Y-119761000D01*
X163449000Y-106299000D02*
X164846000Y-106299000D01*
X174559000Y-108713000D02*
X174338500Y-108933500D01*
X143391448Y-125003000D02*
X145450000Y-125003000D01*
X143391448Y-123663000D02*
X143062000Y-123992448D01*
X174179000Y-121158000D02*
X174179000Y-121920000D01*
X175895000Y-118491000D02*
X176784000Y-117602000D01*
X174432000Y-119761000D02*
X174432000Y-120905000D01*
X149287000Y-123063000D02*
X149287000Y-122366000D01*
X144780000Y-108839000D02*
X144461000Y-108839000D01*
X185990000Y-114681000D02*
X186022500Y-114648500D01*
X151511000Y-106299000D02*
X152400000Y-106299000D01*
X144780000Y-115195552D02*
X144780000Y-110109000D01*
X143051000Y-117729000D02*
X144780000Y-117729000D01*
X145669000Y-126515999D02*
X145311999Y-126873000D01*
X175387000Y-106299000D02*
X174625000Y-106299000D01*
X152364000Y-106263000D02*
X152400000Y-106299000D01*
X149352000Y-122301000D02*
X150241000Y-122301000D01*
X164846000Y-106299000D02*
X174625000Y-106299000D01*
X163383000Y-108840000D02*
X163226000Y-108997000D01*
X185293000Y-110919500D02*
X185293000Y-112461000D01*
X148525000Y-122301000D02*
X149352000Y-122301000D01*
X141540000Y-117729000D02*
X140331000Y-117729000D01*
X174559000Y-106365000D02*
X174625000Y-106299000D01*
X163226000Y-108997000D02*
X163289500Y-108933500D01*
X150241000Y-122301000D02*
X151892000Y-123952000D01*
X144907000Y-119126000D02*
X148463000Y-119126000D01*
X174432000Y-118684000D02*
X174625000Y-118491000D01*
X183261000Y-114681000D02*
X182245000Y-113665000D01*
X144780000Y-117729000D02*
X144780000Y-118999000D01*
X143062000Y-123992448D02*
X143062000Y-124673552D01*
%TO.N,Net-(U6-CV)*%
X149794000Y-127950000D02*
X149794000Y-129032000D01*
X149287000Y-126873000D02*
X149287000Y-127443000D01*
X149287000Y-127443000D02*
X149794000Y-127950000D01*
%TO.N,Net-(U6-THR)*%
X149287000Y-125603000D02*
X146239000Y-125603000D01*
X145604000Y-124333000D02*
X144337000Y-124333000D01*
X146239000Y-124968000D02*
X145604000Y-124333000D01*
X146239000Y-125603000D02*
X146239000Y-124968000D01*
X151892000Y-129333000D02*
X150749000Y-128190000D01*
X145730000Y-127255000D02*
X146239000Y-126746000D01*
X150749000Y-126111000D02*
X150241000Y-125603000D01*
X150241000Y-125603000D02*
X149287000Y-125603000D01*
X146239000Y-126746000D02*
X146239000Y-125603000D01*
X150749000Y-128190000D02*
X150749000Y-126111000D01*
X145730000Y-129032000D02*
X145730000Y-127255000D01*
%TO.N,Net-(D1-A)*%
X184343000Y-101920000D02*
X176974500Y-94551500D01*
X184343000Y-109044500D02*
X184343000Y-101920000D01*
X176273000Y-93850000D02*
X176974500Y-94551500D01*
X172593000Y-93850000D02*
X176273000Y-93850000D01*
%TO.N,Net-(D1-K)*%
X172593000Y-99314000D02*
X181229000Y-107950000D01*
X172593000Y-96650000D02*
X172593000Y-99314000D01*
X181229000Y-107950000D02*
X181229000Y-110466500D01*
%TO.N,Net-(J1-CC2)*%
X124470500Y-116308500D02*
X125857000Y-116308500D01*
X121600000Y-114038000D02*
X122200000Y-114038000D01*
X122200000Y-114038000D02*
X124470500Y-116308500D01*
%TO.N,Net-(U6-DIS)*%
X151892000Y-127508000D02*
X151892000Y-125777000D01*
X150448000Y-124333000D02*
X151892000Y-125777000D01*
X149287000Y-124333000D02*
X150448000Y-124333000D01*
%TO.N,Net-(U7-Q3)*%
X161352000Y-116332000D02*
X163003000Y-116332000D01*
X169229000Y-115062000D02*
X165481000Y-115062000D01*
X164211000Y-116332000D02*
X163003000Y-116332000D01*
X174179000Y-116332000D02*
X173204001Y-116332000D01*
X159482000Y-114462000D02*
X161352000Y-116332000D01*
X171934001Y-115062000D02*
X169229000Y-115062000D01*
X155891000Y-115189000D02*
X156618000Y-114462000D01*
X165481000Y-115062000D02*
X164211000Y-116332000D01*
X156618000Y-114462000D02*
X159482000Y-114462000D01*
X152351000Y-115189000D02*
X155891000Y-115189000D01*
X173204001Y-116332000D02*
X171934001Y-115062000D01*
%TO.N,Net-(U7-Q1)*%
X150476000Y-113938000D02*
X151130000Y-113284000D01*
X156778000Y-115991448D02*
X157037448Y-115732000D01*
X152351000Y-117729000D02*
X151326001Y-117729000D01*
X170561000Y-120142000D02*
X172231000Y-121812000D01*
X173204001Y-124460000D02*
X174179000Y-124460000D01*
X157037448Y-115732000D02*
X159547000Y-115732000D01*
X172231000Y-121812000D02*
X172231000Y-123486999D01*
X151130000Y-113284000D02*
X155979538Y-113284000D01*
X156778000Y-116018000D02*
X156778000Y-115991448D01*
X160753157Y-116938157D02*
X165960157Y-116938157D01*
X154966041Y-117829959D02*
X156778000Y-116018000D01*
X172231000Y-123486999D02*
X173204001Y-124460000D01*
X152351000Y-118315000D02*
X152351000Y-117729000D01*
X165960157Y-116938157D02*
X169164000Y-120142000D01*
X156741538Y-112522000D02*
X158053000Y-112522000D01*
X159547000Y-115732000D02*
X160753157Y-116938157D01*
X152714489Y-118678489D02*
X152351000Y-118315000D01*
X154117511Y-118678489D02*
X152714489Y-118678489D01*
X155979538Y-113284000D02*
X156741538Y-112522000D01*
X169164000Y-120142000D02*
X170561000Y-120142000D01*
X150476000Y-116878999D02*
X150476000Y-113938000D01*
X151326001Y-117729000D02*
X150476000Y-116878999D01*
%TO.N,Net-(U1-Pad6)*%
X163003000Y-123825000D02*
X163003000Y-123190000D01*
X168694000Y-120942000D02*
X170160314Y-120942000D01*
X158053000Y-116332000D02*
X159131000Y-116332000D01*
X170160314Y-120942000D02*
X170815000Y-121596686D01*
X159131000Y-116332000D02*
X161290000Y-118491000D01*
X163003000Y-124460000D02*
X163003000Y-123825000D01*
X170815000Y-122682000D02*
X170307000Y-123190000D01*
X166751000Y-123190000D02*
X166116000Y-123825000D01*
X170307000Y-123190000D02*
X169229000Y-123190000D01*
X169229000Y-123190000D02*
X166751000Y-123190000D01*
X170815000Y-121596686D02*
X170815000Y-122682000D01*
X161290000Y-118491000D02*
X166243000Y-118491000D01*
X166243000Y-118491000D02*
X168694000Y-120942000D01*
X166116000Y-123825000D02*
X163003000Y-123825000D01*
%TO.N,Net-(U1-Pad2)*%
X150076000Y-113258448D02*
X151320448Y-112014000D01*
X150076000Y-117119552D02*
X150076000Y-113258448D01*
X171796000Y-111852000D02*
X173355000Y-111852000D01*
X156740686Y-123790000D02*
X155603843Y-122653157D01*
X160897999Y-123790000D02*
X156740686Y-123790000D01*
X158053000Y-111252000D02*
X159385000Y-111252000D01*
X161417000Y-124309001D02*
X160897999Y-123790000D01*
X161417000Y-128016000D02*
X161417000Y-127000000D01*
X155691500Y-111252000D02*
X158053000Y-111252000D01*
X166488552Y-110652000D02*
X170596000Y-110652000D01*
X164465000Y-127635000D02*
X161417000Y-127635000D01*
X161255000Y-113122000D02*
X164018552Y-113122000D01*
X172050686Y-127670000D02*
X170745686Y-126365000D01*
X163003000Y-127000000D02*
X161417000Y-127000000D01*
X161417000Y-127000000D02*
X161417000Y-124309001D01*
X156337000Y-121920000D02*
X155603843Y-122653157D01*
X175641000Y-127223552D02*
X175194552Y-127670000D01*
X154876448Y-121920000D02*
X150076000Y-117119552D01*
X170745686Y-126365000D02*
X165735000Y-126365000D01*
X163003000Y-128270000D02*
X161671000Y-128270000D01*
X164018552Y-113122000D02*
X166488552Y-110652000D01*
X175641000Y-123677001D02*
X175641000Y-127223552D01*
X154929500Y-112014000D02*
X155691500Y-111252000D01*
X151320448Y-112014000D02*
X154929500Y-112014000D01*
X155603843Y-122653157D02*
X154870686Y-121920000D01*
X170596000Y-110652000D02*
X171796000Y-111852000D01*
X161671000Y-128270000D02*
X161417000Y-128016000D01*
X158053000Y-121920000D02*
X156337000Y-121920000D01*
X174179000Y-123190000D02*
X175153999Y-123190000D01*
X175153999Y-123190000D02*
X175641000Y-123677001D01*
X165735000Y-126365000D02*
X164465000Y-127635000D01*
X159385000Y-111252000D02*
X161255000Y-113122000D01*
X174179000Y-112522000D02*
X174179000Y-111252000D01*
X175194552Y-127670000D02*
X172050686Y-127670000D01*
X173355000Y-111852000D02*
X174179000Y-111852000D01*
%TO.N,Net-(U7-Q0)*%
X148428000Y-109509000D02*
X154783000Y-109509000D01*
X155256000Y-109982000D02*
X158053000Y-109982000D01*
X143051000Y-116459000D02*
X140843000Y-116459000D01*
X147320000Y-110617000D02*
X148428000Y-109509000D01*
X154783000Y-109509000D02*
X155256000Y-109982000D01*
X140843000Y-116459000D02*
X138811000Y-114427000D01*
%TO.N,Net-(U1-Pad4)*%
X151320448Y-117094000D02*
X150876000Y-116649552D01*
X160020000Y-123190000D02*
X158053000Y-123190000D01*
X164618552Y-113792000D02*
X164018552Y-114392000D01*
X155960314Y-114554000D02*
X156722314Y-113792000D01*
X156722314Y-113792000D02*
X158053000Y-113792000D01*
X164018552Y-114392000D02*
X160112000Y-114392000D01*
X150876000Y-116649552D02*
X150876000Y-114998448D01*
X159512000Y-113792000D02*
X158053000Y-113792000D01*
X170688000Y-111736001D02*
X170688000Y-113284000D01*
X169229000Y-113792000D02*
X164618552Y-113792000D01*
X160112000Y-114392000D02*
X159512000Y-113792000D01*
X170180000Y-113792000D02*
X169229000Y-113792000D01*
X160690000Y-122520000D02*
X160020000Y-123190000D01*
X159766000Y-121031000D02*
X157318552Y-121031000D01*
X167294000Y-122520000D02*
X160690000Y-122520000D01*
X150876000Y-114998448D02*
X151320448Y-114554000D01*
X157318552Y-121031000D02*
X153381552Y-117094000D01*
X169229000Y-121920000D02*
X167894000Y-121920000D01*
X169229000Y-111252000D02*
X170203999Y-111252000D01*
X160690000Y-121955000D02*
X159766000Y-121031000D01*
X160690000Y-122520000D02*
X160690000Y-121955000D01*
X151320448Y-114554000D02*
X155960314Y-114554000D01*
X170203999Y-111252000D02*
X170688000Y-111736001D01*
X170688000Y-113284000D02*
X170180000Y-113792000D01*
X167894000Y-121920000D02*
X167294000Y-122520000D01*
X153381552Y-117094000D02*
X151320448Y-117094000D01*
%TO.N,Net-(U1-Pad10)*%
X165065000Y-114462000D02*
X164465000Y-115062000D01*
X175768000Y-111225448D02*
X175124552Y-110582000D01*
X149676000Y-117291000D02*
X149676000Y-112388448D01*
X160401000Y-110617000D02*
X161636000Y-111852000D01*
X172374000Y-114462000D02*
X165065000Y-114462000D01*
X174179000Y-115062000D02*
X175153999Y-115062000D01*
X170815000Y-109982000D02*
X169229000Y-109982000D01*
X175768000Y-114447999D02*
X175768000Y-111225448D01*
X158053000Y-125730000D02*
X156845000Y-125730000D01*
X156845000Y-125730000D02*
X156591000Y-125476000D01*
X155194000Y-110617000D02*
X160401000Y-110617000D01*
X165888552Y-109982000D02*
X169229000Y-109982000D01*
X175153999Y-115062000D02*
X175768000Y-114447999D01*
X156591000Y-125476000D02*
X156591000Y-124206000D01*
X156591000Y-124206000D02*
X149676000Y-117291000D01*
X161636000Y-111852000D02*
X164018552Y-111852000D01*
X172974000Y-115062000D02*
X172374000Y-114462000D01*
X149676000Y-112388448D02*
X151333724Y-110730724D01*
X164018552Y-111852000D02*
X165888552Y-109982000D01*
X175124552Y-110582000D02*
X171415000Y-110582000D01*
X171415000Y-110582000D02*
X170815000Y-109982000D01*
X174179000Y-115062000D02*
X172974000Y-115062000D01*
X151333724Y-110730724D02*
X155080276Y-110730724D01*
X155080276Y-110730724D02*
X155194000Y-110617000D01*
X164465000Y-115062000D02*
X163003000Y-115062000D01*
X158053000Y-125730000D02*
X158053000Y-127000000D01*
%TO.N,Net-(U7-Q4)*%
X167005000Y-116967000D02*
X166243000Y-116205000D01*
X170815000Y-127000000D02*
X172085000Y-128270000D01*
X159674000Y-113192000D02*
X160274000Y-113792000D01*
X160274000Y-113792000D02*
X163003000Y-113792000D01*
X173482000Y-119086238D02*
X171362762Y-116967000D01*
X155910224Y-113919000D02*
X156637224Y-113192000D01*
X173482000Y-121001448D02*
X173482000Y-119086238D01*
X173233448Y-122590000D02*
X172904000Y-122260552D01*
X152351000Y-113919000D02*
X155910224Y-113919000D01*
X172085000Y-128270000D02*
X174179000Y-128270000D01*
X176149000Y-127281238D02*
X176149000Y-123544448D01*
X163003000Y-113792000D02*
X164052866Y-113792000D01*
X156637224Y-113192000D02*
X159674000Y-113192000D01*
X174179000Y-128270000D02*
X175160238Y-128270000D01*
X175160238Y-128270000D02*
X176149000Y-127281238D01*
X164052866Y-113792000D02*
X164814866Y-113030000D01*
X164814866Y-113030000D02*
X166243000Y-113030000D01*
X175194552Y-122590000D02*
X173233448Y-122590000D01*
X176149000Y-123544448D02*
X175194552Y-122590000D01*
X172904000Y-122260552D02*
X172904000Y-121579448D01*
X169229000Y-127000000D02*
X170815000Y-127000000D01*
X171362762Y-116967000D02*
X167005000Y-116967000D01*
X172904000Y-121579448D02*
X173482000Y-121001448D01*
%TO.N,Net-(U7-Q2)*%
X156780000Y-115062000D02*
X158053000Y-115062000D01*
X155383000Y-116459000D02*
X156780000Y-115062000D01*
X152351000Y-116459000D02*
X155383000Y-116459000D01*
%TO.N,Net-(U1-Pad8)*%
X163003000Y-117602000D02*
X165989000Y-117602000D01*
X170326000Y-120542000D02*
X171831000Y-122047000D01*
X171831000Y-125730000D02*
X173101000Y-127000000D01*
X173101000Y-127000000D02*
X174179000Y-127000000D01*
X171831000Y-122047000D02*
X171831000Y-125730000D01*
X169229000Y-125730000D02*
X171831000Y-125730000D01*
X165989000Y-117602000D02*
X168929000Y-120542000D01*
X168929000Y-120542000D02*
X170326000Y-120542000D01*
%TO.N,Net-(U2-Pad6)*%
X176657000Y-119040001D02*
X176657000Y-127407552D01*
X170174552Y-127600000D02*
X165288552Y-127600000D01*
X160147000Y-128270000D02*
X158053000Y-128270000D01*
X175194552Y-128870000D02*
X171444552Y-128870000D01*
X164018552Y-128870000D02*
X160747000Y-128870000D01*
X179873001Y-115824000D02*
X176657000Y-119040001D01*
X160747000Y-128870000D02*
X160147000Y-128270000D01*
X180848000Y-115824000D02*
X179873001Y-115824000D01*
X176657000Y-127407552D02*
X175194552Y-128870000D01*
X171444552Y-128870000D02*
X170174552Y-127600000D01*
X165288552Y-127600000D02*
X164018552Y-128870000D01*
%TO.N,Net-(U2-Pad8)*%
X177165000Y-119802001D02*
X177165000Y-128169552D01*
X165227000Y-130429000D02*
X164338000Y-129540000D01*
X164338000Y-129540000D02*
X163003000Y-129540000D01*
X180848000Y-117094000D02*
X179873001Y-117094000D01*
X177165000Y-128169552D02*
X174905552Y-130429000D01*
X174905552Y-130429000D02*
X165227000Y-130429000D01*
X179873001Y-117094000D02*
X177165000Y-119802001D01*
%TO.N,Net-(U3-Pad8)*%
X181864000Y-114935000D02*
X182372000Y-115443000D01*
X182372000Y-115443000D02*
X182372000Y-117983000D01*
X174179000Y-117602000D02*
X175514000Y-117602000D01*
X181991000Y-118364000D02*
X180848000Y-118364000D01*
X182372000Y-117983000D02*
X181991000Y-118364000D01*
X175514000Y-117602000D02*
X178181000Y-114935000D01*
X178181000Y-114935000D02*
X181864000Y-114935000D01*
%TO.N,Net-(U3-Pad6)*%
X171293448Y-116332000D02*
X169229000Y-116332000D01*
X184531000Y-123444000D02*
X182861000Y-121774000D01*
X182861000Y-115043000D02*
X182118000Y-114300000D01*
X178054000Y-114300000D02*
X175422000Y-116932000D01*
X182118000Y-114300000D02*
X178054000Y-114300000D01*
X185798000Y-123444000D02*
X184531000Y-123444000D01*
X175422000Y-116932000D02*
X171893448Y-116932000D01*
X171893448Y-116932000D02*
X171293448Y-116332000D01*
X182861000Y-121774000D02*
X182861000Y-115043000D01*
%TO.N,Net-(U4-Pad8)*%
X178562000Y-120904000D02*
X180848000Y-120904000D01*
X175254530Y-131664000D02*
X178181000Y-128737530D01*
X178181000Y-128737530D02*
X178181000Y-121285000D01*
X174179000Y-129540000D02*
X172593000Y-129540000D01*
X178181000Y-121285000D02*
X178562000Y-120904000D01*
X172593000Y-131664000D02*
X175254530Y-131664000D01*
%TO.N,Net-(U4-Pad6)*%
X177673000Y-128397000D02*
X177673000Y-120523000D01*
X167005000Y-128270000D02*
X169229000Y-128270000D01*
X178562000Y-119634000D02*
X180848000Y-119634000D01*
X167005000Y-131064000D02*
X175006000Y-131064000D01*
X175006000Y-131064000D02*
X177673000Y-128397000D01*
X177673000Y-120523000D02*
X178562000Y-119634000D01*
%TO.N,Net-(U5-Pad11)*%
X184150000Y-121793000D02*
X184150000Y-119634000D01*
X185798000Y-122174000D02*
X184531000Y-122174000D01*
X184150000Y-119634000D02*
X184150000Y-118872000D01*
X184658000Y-118364000D02*
X185798000Y-118364000D01*
X184531000Y-122174000D02*
X184150000Y-121793000D01*
X185798000Y-119634000D02*
X184150000Y-119634000D01*
X184150000Y-118872000D02*
X184658000Y-118364000D01*
%TO.N,Net-(U5-Pad13)*%
X183515000Y-117856000D02*
X184277000Y-117094000D01*
X187073000Y-123950000D02*
X187073000Y-123103448D01*
X184277000Y-117094000D02*
X185798000Y-117094000D01*
X183515000Y-121723686D02*
X183515000Y-117856000D01*
X180848000Y-122174000D02*
X182314314Y-122174000D01*
X186813552Y-122844000D02*
X184635314Y-122844000D01*
X184635314Y-122844000D02*
X183515000Y-121723686D01*
X184346314Y-124206000D02*
X186817000Y-124206000D01*
X187073000Y-123103448D02*
X186813552Y-122844000D01*
X186817000Y-124206000D02*
X187073000Y-123950000D01*
X182314314Y-122174000D02*
X184346314Y-124206000D01*
%TO.N,CLK*%
X134239000Y-122301000D02*
X134239000Y-114554000D01*
X144376000Y-111610000D02*
X144376000Y-113688000D01*
X137414000Y-111379000D02*
X143051000Y-111379000D01*
X137541000Y-125603000D02*
X134239000Y-122301000D01*
X144337000Y-125603000D02*
X137541000Y-125603000D01*
X144145000Y-111379000D02*
X144376000Y-111610000D01*
X134239000Y-114554000D02*
X137414000Y-111379000D01*
X144376000Y-113688000D02*
X144145000Y-113919000D01*
X143051000Y-111379000D02*
X144145000Y-111379000D01*
X144145000Y-113919000D02*
X143051000Y-113919000D01*
%TO.N,Net-(J1-CC1)*%
X124470500Y-110767500D02*
X125857000Y-110767500D01*
X122200000Y-113038000D02*
X124470500Y-110767500D01*
X121600000Y-113038000D02*
X122200000Y-113038000D01*
D39*
%TO.N,Net-(J3-Pin_1)*%
X197586600Y-106556850D02*
X197485000Y-106455250D01*
X197485000Y-106455250D02*
X197485000Y-96266000D01*
X197586600Y-123117650D02*
X197586600Y-106556850D01*
X197485000Y-96266000D02*
X201041000Y-92710000D01*
D38*
%TO.N,Net-(D2-K)*%
X190095500Y-130429000D02*
X190095500Y-134262500D01*
D39*
X119380000Y-134366000D02*
X120015000Y-135001000D01*
X120015000Y-135001000D02*
X191243250Y-135001000D01*
X191243250Y-135001000D02*
X200126600Y-126117650D01*
X200126600Y-126117650D02*
X200126600Y-123117650D01*
D38*
%TO.N,SIG_OUT*%
X189484000Y-126214500D02*
X192201000Y-126214500D01*
X189484000Y-111760000D02*
X189484000Y-126214500D01*
X185798000Y-120904000D02*
X189484000Y-120904000D01*
X186768500Y-109044500D02*
X189484000Y-111760000D01*
X192201000Y-126214500D02*
X192229500Y-126243000D01*
X186243000Y-109044500D02*
X186768500Y-109044500D01*
%TO.N,Net-(Q2-G)*%
X195046600Y-124866400D02*
X195046600Y-123117650D01*
X191920500Y-130429000D02*
X192786000Y-130429000D01*
X194104500Y-127193000D02*
X194104500Y-125808500D01*
X194104500Y-125808500D02*
X195046600Y-124866400D01*
X194104500Y-129110500D02*
X194104500Y-127193000D01*
X192786000Y-130429000D02*
X194104500Y-129110500D01*
%TD*%
%TA.AperFunction,Conductor*%
%TO.N,GND*%
G36*
X166147830Y-128220185D02*
G01*
X166193585Y-128272989D01*
X166204011Y-128310617D01*
X166219630Y-128449249D01*
X166219631Y-128449254D01*
X166279211Y-128619523D01*
X166348212Y-128729336D01*
X166375184Y-128772262D01*
X166502738Y-128899816D01*
X166571463Y-128942999D01*
X166646382Y-128990074D01*
X166655478Y-128995789D01*
X166786127Y-129041505D01*
X166825745Y-129055368D01*
X166825750Y-129055369D01*
X167004996Y-129075565D01*
X167005000Y-129075565D01*
X167005004Y-129075565D01*
X167184249Y-129055369D01*
X167184252Y-129055368D01*
X167184255Y-129055368D01*
X167354522Y-128995789D01*
X167507262Y-128899816D01*
X167507267Y-128899810D01*
X167510097Y-128897555D01*
X167512275Y-128896665D01*
X167513158Y-128896111D01*
X167513255Y-128896265D01*
X167574783Y-128871145D01*
X167587412Y-128870500D01*
X167738674Y-128870500D01*
X167805713Y-128890185D01*
X167851468Y-128942989D01*
X167861412Y-129012147D01*
X167845406Y-129057621D01*
X167802718Y-129129801D01*
X167756899Y-129287513D01*
X167756704Y-129289998D01*
X167756705Y-129290000D01*
X170701295Y-129290000D01*
X170701295Y-129289999D01*
X170700842Y-129284231D01*
X170715208Y-129215854D01*
X170764260Y-129166098D01*
X170832426Y-129150761D01*
X170898062Y-129174712D01*
X170912141Y-129186824D01*
X170959691Y-129234374D01*
X170959701Y-129234385D01*
X170964031Y-129238715D01*
X170964032Y-129238716D01*
X171075836Y-129350520D01*
X171075838Y-129350521D01*
X171075842Y-129350524D01*
X171132406Y-129383181D01*
X171132409Y-129383182D01*
X171152498Y-129394780D01*
X171212761Y-129429574D01*
X171212762Y-129429574D01*
X171212767Y-129429577D01*
X171365494Y-129470500D01*
X171365495Y-129470500D01*
X171668791Y-129470500D01*
X171735830Y-129490185D01*
X171781585Y-129542989D01*
X171792011Y-129580616D01*
X171804405Y-129690616D01*
X171792351Y-129759438D01*
X171745002Y-129810818D01*
X171681185Y-129828500D01*
X170791123Y-129828500D01*
X170724084Y-129808815D01*
X170701652Y-129790000D01*
X167755711Y-129790000D01*
X167697972Y-129824538D01*
X167666877Y-129828500D01*
X165527097Y-129828500D01*
X165460058Y-129808815D01*
X165439416Y-129792181D01*
X164825590Y-129178355D01*
X164825587Y-129178351D01*
X164780191Y-129132954D01*
X164746706Y-129071631D01*
X164751692Y-129001939D01*
X164780190Y-128957596D01*
X165500968Y-128236819D01*
X165562291Y-128203334D01*
X165588649Y-128200500D01*
X166080791Y-128200500D01*
X166147830Y-128220185D01*
G37*
%TD.AperFunction*%
%TA.AperFunction,Conductor*%
G36*
X141577713Y-111999185D02*
G01*
X141623468Y-112051989D01*
X141633412Y-112121147D01*
X141617406Y-112166621D01*
X141574718Y-112238801D01*
X141528899Y-112396513D01*
X141528704Y-112398998D01*
X141528705Y-112399000D01*
X143177000Y-112399000D01*
X143244039Y-112418685D01*
X143289794Y-112471489D01*
X143301000Y-112523000D01*
X143301000Y-112775000D01*
X143281315Y-112842039D01*
X143228511Y-112887794D01*
X143177000Y-112899000D01*
X141528705Y-112899000D01*
X141528704Y-112899001D01*
X141528899Y-112901486D01*
X141574718Y-113059198D01*
X141658314Y-113200552D01*
X141663100Y-113206722D01*
X141660640Y-113208629D01*
X141687210Y-113257288D01*
X141682226Y-113326980D01*
X141661162Y-113359781D01*
X141662699Y-113360974D01*
X141657915Y-113367140D01*
X141574255Y-113508603D01*
X141574254Y-113508606D01*
X141528402Y-113666426D01*
X141528401Y-113666432D01*
X141525500Y-113703298D01*
X141525500Y-114134701D01*
X141528401Y-114171567D01*
X141528402Y-114171573D01*
X141574254Y-114329393D01*
X141574255Y-114329396D01*
X141574256Y-114329398D01*
X141589194Y-114354657D01*
X141657917Y-114470862D01*
X141662702Y-114477031D01*
X141660369Y-114478840D01*
X141687210Y-114527995D01*
X141682226Y-114597687D01*
X141661470Y-114630021D01*
X141663097Y-114631283D01*
X141658313Y-114637449D01*
X141574718Y-114778801D01*
X141528899Y-114936513D01*
X141528704Y-114938998D01*
X141528705Y-114939000D01*
X143177000Y-114939000D01*
X143244039Y-114958685D01*
X143289794Y-115011489D01*
X143301000Y-115063000D01*
X143301000Y-115315000D01*
X143281315Y-115382039D01*
X143228511Y-115427794D01*
X143177000Y-115439000D01*
X141528705Y-115439000D01*
X141528704Y-115439001D01*
X141528899Y-115441486D01*
X141574718Y-115599198D01*
X141617406Y-115671379D01*
X141634589Y-115739103D01*
X141612429Y-115805365D01*
X141557963Y-115849129D01*
X141510674Y-115858500D01*
X141143097Y-115858500D01*
X141076058Y-115838815D01*
X141055416Y-115822181D01*
X139641700Y-114408465D01*
X139608215Y-114347142D01*
X139606163Y-114334686D01*
X139596368Y-114247745D01*
X139536789Y-114077478D01*
X139440816Y-113924738D01*
X139313262Y-113797184D01*
X139300255Y-113789011D01*
X139160523Y-113701211D01*
X138990254Y-113641631D01*
X138990249Y-113641630D01*
X138811004Y-113621435D01*
X138810996Y-113621435D01*
X138631750Y-113641630D01*
X138631745Y-113641631D01*
X138461476Y-113701211D01*
X138308737Y-113797184D01*
X138181184Y-113924737D01*
X138085211Y-114077476D01*
X138025631Y-114247745D01*
X138025630Y-114247750D01*
X138005435Y-114426996D01*
X138005435Y-114427003D01*
X138025630Y-114606249D01*
X138025631Y-114606254D01*
X138085211Y-114776523D01*
X138181184Y-114929262D01*
X138308738Y-115056816D01*
X138461478Y-115152789D01*
X138631745Y-115212368D01*
X138718669Y-115222161D01*
X138783080Y-115249226D01*
X138792465Y-115257700D01*
X139984176Y-116449411D01*
X140017661Y-116510734D01*
X140012677Y-116580426D01*
X139970805Y-116636359D01*
X139961593Y-116642630D01*
X139931344Y-116661287D01*
X139807288Y-116785343D01*
X139807283Y-116785349D01*
X139805241Y-116788661D01*
X139803247Y-116790453D01*
X139802807Y-116791011D01*
X139802711Y-116790935D01*
X139753291Y-116835383D01*
X139684328Y-116846602D01*
X139620247Y-116818755D01*
X139594168Y-116788656D01*
X139592319Y-116785659D01*
X139592316Y-116785655D01*
X139468345Y-116661684D01*
X139319124Y-116569643D01*
X139319119Y-116569641D01*
X139152697Y-116514494D01*
X139152690Y-116514493D01*
X139049986Y-116504000D01*
X139000000Y-116504000D01*
X139000000Y-118953999D01*
X139049972Y-118953999D01*
X139049986Y-118953998D01*
X139152697Y-118943505D01*
X139319119Y-118888358D01*
X139319124Y-118888356D01*
X139468345Y-118796315D01*
X139592318Y-118672342D01*
X139594165Y-118669348D01*
X139595969Y-118667724D01*
X139596798Y-118666677D01*
X139596976Y-118666818D01*
X139646110Y-118622621D01*
X139715073Y-118611396D01*
X139779156Y-118639236D01*
X139805243Y-118669341D01*
X139807288Y-118672656D01*
X139931344Y-118796712D01*
X140080666Y-118888814D01*
X140247203Y-118943999D01*
X140349991Y-118954500D01*
X140950008Y-118954499D01*
X140950016Y-118954498D01*
X140950019Y-118954498D01*
X141006302Y-118948748D01*
X141052797Y-118943999D01*
X141219334Y-118888814D01*
X141368656Y-118796712D01*
X141492712Y-118672656D01*
X141584814Y-118523334D01*
X141602422Y-118470194D01*
X141642191Y-118412754D01*
X141706706Y-118385930D01*
X141775482Y-118398244D01*
X141783247Y-118402470D01*
X141915602Y-118480744D01*
X141922218Y-118482666D01*
X142073426Y-118526597D01*
X142073429Y-118526597D01*
X142073431Y-118526598D01*
X142110306Y-118529500D01*
X142110314Y-118529500D01*
X143991686Y-118529500D01*
X143991694Y-118529500D01*
X144028569Y-118526598D01*
X144028579Y-118526595D01*
X144033213Y-118525749D01*
X144102698Y-118533064D01*
X144157199Y-118576784D01*
X144179411Y-118643029D01*
X144179500Y-118647730D01*
X144179500Y-118912330D01*
X144179499Y-118912348D01*
X144179499Y-119078054D01*
X144179498Y-119078054D01*
X144194302Y-119133302D01*
X144220423Y-119230785D01*
X144224622Y-119238058D01*
X144224625Y-119238068D01*
X144224627Y-119238067D01*
X144299475Y-119367709D01*
X144299481Y-119367717D01*
X144418349Y-119486585D01*
X144418355Y-119486590D01*
X144422139Y-119490374D01*
X144422149Y-119490385D01*
X144426479Y-119494715D01*
X144426480Y-119494716D01*
X144538284Y-119606520D01*
X144538286Y-119606521D01*
X144538287Y-119606522D01*
X144606343Y-119645813D01*
X144606345Y-119645815D01*
X144606346Y-119645815D01*
X144675215Y-119685577D01*
X144827943Y-119726500D01*
X146614953Y-119726500D01*
X146681992Y-119746185D01*
X146727747Y-119798989D01*
X146737691Y-119868147D01*
X146708666Y-119931703D01*
X146680049Y-119956039D01*
X146667656Y-119963682D01*
X146543684Y-120087654D01*
X146451643Y-120236875D01*
X146451641Y-120236880D01*
X146396494Y-120403302D01*
X146396493Y-120403309D01*
X146386000Y-120506013D01*
X146386000Y-120781000D01*
X147512000Y-120781000D01*
X147579039Y-120800685D01*
X147624794Y-120853489D01*
X147636000Y-120905000D01*
X147636000Y-121157000D01*
X147616315Y-121224039D01*
X147563511Y-121269794D01*
X147512000Y-121281000D01*
X146386001Y-121281000D01*
X146386001Y-121555986D01*
X146396494Y-121658697D01*
X146451641Y-121825119D01*
X146451643Y-121825124D01*
X146543684Y-121974345D01*
X146646370Y-122077031D01*
X146679855Y-122138354D01*
X146674871Y-122208046D01*
X146646370Y-122252393D01*
X146019395Y-122879369D01*
X145958072Y-122912854D01*
X145888381Y-122907870D01*
X145832447Y-122865999D01*
X145810876Y-122816590D01*
X145810868Y-122816593D01*
X145810848Y-122816527D01*
X145809732Y-122813969D01*
X145809099Y-122810504D01*
X145763283Y-122652806D01*
X145763282Y-122652803D01*
X145679685Y-122511447D01*
X145679678Y-122511438D01*
X145563561Y-122395321D01*
X145563552Y-122395314D01*
X145422196Y-122311717D01*
X145422193Y-122311716D01*
X145264495Y-122265900D01*
X145264489Y-122265899D01*
X145227649Y-122263000D01*
X144587000Y-122263000D01*
X144587000Y-122938500D01*
X144567315Y-123005539D01*
X144514511Y-123051294D01*
X144463000Y-123062500D01*
X143478117Y-123062500D01*
X143478101Y-123062499D01*
X143470505Y-123062499D01*
X143312391Y-123062499D01*
X143205035Y-123091265D01*
X143159658Y-123103424D01*
X143159657Y-123103425D01*
X143109544Y-123132359D01*
X143109543Y-123132360D01*
X143066137Y-123157420D01*
X143022733Y-123182479D01*
X143022730Y-123182481D01*
X142928531Y-123276681D01*
X142867443Y-123310037D01*
X142852935Y-123325732D01*
X142847858Y-123349895D01*
X142826290Y-123378921D01*
X142790116Y-123415096D01*
X142693286Y-123511926D01*
X142581481Y-123623730D01*
X142581479Y-123623733D01*
X142532540Y-123708500D01*
X142532538Y-123708502D01*
X142502425Y-123760657D01*
X142502424Y-123760658D01*
X142497192Y-123780186D01*
X142461499Y-123913391D01*
X142461499Y-123913393D01*
X142461499Y-124081494D01*
X142461500Y-124081507D01*
X142461500Y-124586882D01*
X142461499Y-124586900D01*
X142461499Y-124752606D01*
X142461498Y-124752606D01*
X142464973Y-124765574D01*
X142486632Y-124846408D01*
X142484970Y-124916256D01*
X142445808Y-124974118D01*
X142381580Y-125001623D01*
X142366858Y-125002500D01*
X137841097Y-125002500D01*
X137774058Y-124982815D01*
X137753416Y-124966181D01*
X135600233Y-122812998D01*
X142864704Y-122812998D01*
X142864705Y-122813000D01*
X144087000Y-122813000D01*
X144087000Y-122263000D01*
X143446350Y-122263000D01*
X143409510Y-122265899D01*
X143409504Y-122265900D01*
X143251806Y-122311716D01*
X143251803Y-122311717D01*
X143110447Y-122395314D01*
X143110438Y-122395321D01*
X142994321Y-122511438D01*
X142994314Y-122511447D01*
X142910718Y-122652801D01*
X142864899Y-122810513D01*
X142864704Y-122812998D01*
X135600233Y-122812998D01*
X134875819Y-122088584D01*
X134842334Y-122027261D01*
X134839500Y-122000903D01*
X134839500Y-118253986D01*
X137750001Y-118253986D01*
X137760494Y-118356697D01*
X137815641Y-118523119D01*
X137815643Y-118523124D01*
X137907684Y-118672345D01*
X138031654Y-118796315D01*
X138180875Y-118888356D01*
X138180880Y-118888358D01*
X138347302Y-118943505D01*
X138347309Y-118943506D01*
X138450019Y-118953999D01*
X138499999Y-118953998D01*
X138500000Y-118953998D01*
X138500000Y-117979000D01*
X137750001Y-117979000D01*
X137750001Y-118253986D01*
X134839500Y-118253986D01*
X134839500Y-117204013D01*
X137750000Y-117204013D01*
X137750000Y-117479000D01*
X138500000Y-117479000D01*
X138500000Y-116504000D01*
X138499999Y-116503999D01*
X138450029Y-116504000D01*
X138450011Y-116504001D01*
X138347302Y-116514494D01*
X138180880Y-116569641D01*
X138180875Y-116569643D01*
X138031654Y-116661684D01*
X137907684Y-116785654D01*
X137815643Y-116934875D01*
X137815641Y-116934880D01*
X137760494Y-117101302D01*
X137760493Y-117101309D01*
X137750000Y-117204013D01*
X134839500Y-117204013D01*
X134839500Y-114854097D01*
X134859185Y-114787058D01*
X134875819Y-114766416D01*
X137626416Y-112015819D01*
X137687739Y-111982334D01*
X137714097Y-111979500D01*
X141510674Y-111979500D01*
X141577713Y-111999185D01*
G37*
%TD.AperFunction*%
%TA.AperFunction,Conductor*%
G36*
X156498606Y-117249141D02*
G01*
X156554539Y-117291013D01*
X156574973Y-117345799D01*
X156580705Y-117352000D01*
X158179000Y-117352000D01*
X158246039Y-117371685D01*
X158291794Y-117424489D01*
X158303000Y-117476000D01*
X158303000Y-118402000D01*
X158943634Y-118402000D01*
X158943649Y-118401999D01*
X158980489Y-118399100D01*
X158980495Y-118399099D01*
X159138193Y-118353283D01*
X159138196Y-118353282D01*
X159279552Y-118269685D01*
X159279561Y-118269678D01*
X159395678Y-118153561D01*
X159395685Y-118153552D01*
X159479282Y-118012196D01*
X159479283Y-118012193D01*
X159525099Y-117854492D01*
X159525732Y-117851032D01*
X159526615Y-117849276D01*
X159526868Y-117848407D01*
X159527029Y-117848453D01*
X159557141Y-117788620D01*
X159617307Y-117753097D01*
X159687126Y-117755741D01*
X159735395Y-117785630D01*
X160619703Y-118669938D01*
X160653188Y-118731261D01*
X160648204Y-118800953D01*
X160637561Y-118822715D01*
X160548645Y-118966871D01*
X160548641Y-118966880D01*
X160493494Y-119133302D01*
X160493493Y-119133309D01*
X160483000Y-119236013D01*
X160483000Y-119511000D01*
X161609000Y-119511000D01*
X161676039Y-119530685D01*
X161721794Y-119583489D01*
X161733000Y-119635000D01*
X161733000Y-120985999D01*
X161772514Y-120985999D01*
X161839553Y-121005684D01*
X161885308Y-121058488D01*
X161895252Y-121127646D01*
X161866227Y-121191202D01*
X161835635Y-121216731D01*
X161776137Y-121251917D01*
X161776129Y-121251923D01*
X161659923Y-121368129D01*
X161659917Y-121368137D01*
X161576255Y-121509603D01*
X161576254Y-121509606D01*
X161530402Y-121667426D01*
X161530401Y-121667432D01*
X161527500Y-121704298D01*
X161527500Y-121795500D01*
X161507815Y-121862539D01*
X161455011Y-121908294D01*
X161403500Y-121919500D01*
X161397319Y-121919500D01*
X161330280Y-121899815D01*
X161284525Y-121847011D01*
X161277546Y-121827600D01*
X161249577Y-121723216D01*
X161249573Y-121723209D01*
X161170524Y-121586290D01*
X161170521Y-121586286D01*
X161170520Y-121586284D01*
X161058716Y-121474480D01*
X161058715Y-121474479D01*
X161054385Y-121470149D01*
X161054374Y-121470139D01*
X160253590Y-120669355D01*
X160253588Y-120669352D01*
X160134717Y-120550481D01*
X160134716Y-120550480D01*
X160024400Y-120486789D01*
X160024398Y-120486788D01*
X159997785Y-120471423D01*
X159997784Y-120471422D01*
X159997783Y-120471422D01*
X159941881Y-120456443D01*
X159845057Y-120430499D01*
X159686943Y-120430499D01*
X159679347Y-120430499D01*
X159679331Y-120430500D01*
X157618650Y-120430500D01*
X157551611Y-120410815D01*
X157530969Y-120394181D01*
X157422774Y-120285986D01*
X160483001Y-120285986D01*
X160493494Y-120388697D01*
X160548641Y-120555119D01*
X160548643Y-120555124D01*
X160640684Y-120704345D01*
X160764654Y-120828315D01*
X160913875Y-120920356D01*
X160913880Y-120920358D01*
X161080302Y-120975505D01*
X161080309Y-120975506D01*
X161183019Y-120985999D01*
X161232999Y-120985998D01*
X161233000Y-120985998D01*
X161233000Y-120011000D01*
X160483001Y-120011000D01*
X160483001Y-120285986D01*
X157422774Y-120285986D01*
X156600645Y-119463857D01*
X155616831Y-118480044D01*
X155583347Y-118418722D01*
X155588331Y-118349030D01*
X155599520Y-118326392D01*
X155691829Y-118179484D01*
X155697151Y-118164274D01*
X155751409Y-118009214D01*
X155761202Y-117922288D01*
X155788267Y-117857877D01*
X155793572Y-117852001D01*
X156580704Y-117852001D01*
X156580899Y-117854486D01*
X156626718Y-118012198D01*
X156710314Y-118153552D01*
X156710321Y-118153561D01*
X156826438Y-118269678D01*
X156826447Y-118269685D01*
X156967803Y-118353282D01*
X156967806Y-118353283D01*
X157125504Y-118399099D01*
X157125510Y-118399100D01*
X157162350Y-118401999D01*
X157162366Y-118402000D01*
X157803000Y-118402000D01*
X157803000Y-117852000D01*
X156580705Y-117852000D01*
X156580704Y-117852001D01*
X155793572Y-117852001D01*
X155796731Y-117848502D01*
X156367593Y-117277640D01*
X156428914Y-117244157D01*
X156498606Y-117249141D01*
G37*
%TD.AperFunction*%
%TA.AperFunction,Conductor*%
G36*
X171129704Y-117587185D02*
G01*
X171150346Y-117603819D01*
X171966589Y-118420062D01*
X172000074Y-118481385D01*
X171995090Y-118551077D01*
X171953218Y-118607010D01*
X171944006Y-118613281D01*
X171813656Y-118693682D01*
X171689684Y-118817654D01*
X171597643Y-118966875D01*
X171597641Y-118966880D01*
X171542494Y-119133302D01*
X171542493Y-119133309D01*
X171532000Y-119236013D01*
X171532000Y-119511000D01*
X172658000Y-119511000D01*
X172725039Y-119530685D01*
X172770794Y-119583489D01*
X172782000Y-119635000D01*
X172782000Y-119887000D01*
X172762315Y-119954039D01*
X172709511Y-119999794D01*
X172658000Y-120011000D01*
X171532002Y-120011000D01*
X171512618Y-120030382D01*
X171512301Y-120031464D01*
X171506594Y-120036406D01*
X171495682Y-120047319D01*
X171494899Y-120046536D01*
X171459488Y-120077208D01*
X171390327Y-120087137D01*
X171326778Y-120058099D01*
X171320319Y-120052084D01*
X171048590Y-119780355D01*
X171048588Y-119780352D01*
X170929717Y-119661481D01*
X170929712Y-119661477D01*
X170822363Y-119599500D01*
X170822361Y-119599499D01*
X170792787Y-119582424D01*
X170792786Y-119582423D01*
X170792785Y-119582423D01*
X170640057Y-119541499D01*
X170481943Y-119541499D01*
X170474347Y-119541499D01*
X170474331Y-119541500D01*
X169464097Y-119541500D01*
X169397058Y-119521815D01*
X169376416Y-119505181D01*
X168484916Y-118613681D01*
X168451431Y-118552358D01*
X168456415Y-118482666D01*
X168498287Y-118426733D01*
X168563751Y-118402316D01*
X168572597Y-118402000D01*
X168979000Y-118402000D01*
X169479000Y-118402000D01*
X170119634Y-118402000D01*
X170119649Y-118401999D01*
X170156489Y-118399100D01*
X170156495Y-118399099D01*
X170314193Y-118353283D01*
X170314196Y-118353282D01*
X170455552Y-118269685D01*
X170455561Y-118269678D01*
X170571678Y-118153561D01*
X170571685Y-118153552D01*
X170655281Y-118012198D01*
X170701100Y-117854486D01*
X170701295Y-117852001D01*
X170701295Y-117852000D01*
X169479000Y-117852000D01*
X169479000Y-118402000D01*
X168979000Y-118402000D01*
X168979000Y-117691500D01*
X168998685Y-117624461D01*
X169051489Y-117578706D01*
X169103000Y-117567500D01*
X171062665Y-117567500D01*
X171129704Y-117587185D01*
G37*
%TD.AperFunction*%
%TA.AperFunction,Conductor*%
G36*
X152313347Y-106899501D02*
G01*
X152320943Y-106899501D01*
X152486654Y-106899501D01*
X152486670Y-106899500D01*
X160419794Y-106899500D01*
X160486833Y-106919185D01*
X160532588Y-106971989D01*
X160542532Y-107041147D01*
X160537500Y-107062504D01*
X160493494Y-107195302D01*
X160493493Y-107195309D01*
X160483000Y-107298013D01*
X160483000Y-107573000D01*
X161609000Y-107573000D01*
X161676039Y-107592685D01*
X161721794Y-107645489D01*
X161733000Y-107697000D01*
X161733000Y-109047999D01*
X161772514Y-109047999D01*
X161839553Y-109067684D01*
X161885308Y-109120488D01*
X161895252Y-109189646D01*
X161866227Y-109253202D01*
X161835635Y-109278731D01*
X161776137Y-109313917D01*
X161776129Y-109313923D01*
X161659923Y-109430129D01*
X161659917Y-109430137D01*
X161576255Y-109571603D01*
X161576254Y-109571606D01*
X161530402Y-109729426D01*
X161530401Y-109729432D01*
X161527500Y-109766298D01*
X161527500Y-110197701D01*
X161530401Y-110234567D01*
X161530402Y-110234573D01*
X161576254Y-110392393D01*
X161576255Y-110392396D01*
X161659917Y-110533862D01*
X161664702Y-110540031D01*
X161662256Y-110541927D01*
X161688857Y-110590642D01*
X161683873Y-110660334D01*
X161663069Y-110692703D01*
X161664702Y-110693969D01*
X161659919Y-110700135D01*
X161619941Y-110767734D01*
X161568871Y-110815417D01*
X161500130Y-110827920D01*
X161435540Y-110801274D01*
X161425535Y-110792300D01*
X160888589Y-110255354D01*
X160888588Y-110255352D01*
X160769717Y-110136481D01*
X160769716Y-110136480D01*
X160657344Y-110071602D01*
X160657344Y-110071601D01*
X160657339Y-110071600D01*
X160648770Y-110066652D01*
X160632786Y-110057423D01*
X160594603Y-110047192D01*
X160480057Y-110016499D01*
X160321943Y-110016499D01*
X160314347Y-110016499D01*
X160314331Y-110016500D01*
X159652500Y-110016500D01*
X159585461Y-109996815D01*
X159539706Y-109944011D01*
X159528500Y-109892500D01*
X159528500Y-109766313D01*
X159528499Y-109766298D01*
X159528001Y-109759974D01*
X159525598Y-109729431D01*
X159521512Y-109715368D01*
X159479745Y-109571606D01*
X159479744Y-109571603D01*
X159479744Y-109571602D01*
X159396081Y-109430135D01*
X159396079Y-109430133D01*
X159396076Y-109430129D01*
X159279870Y-109313923D01*
X159279862Y-109313917D01*
X159201681Y-109267681D01*
X159138398Y-109230256D01*
X159138397Y-109230255D01*
X159138396Y-109230255D01*
X159138393Y-109230254D01*
X158980573Y-109184402D01*
X158980567Y-109184401D01*
X158943701Y-109181500D01*
X158943694Y-109181500D01*
X157162306Y-109181500D01*
X157162298Y-109181500D01*
X157125432Y-109184401D01*
X157125426Y-109184402D01*
X156967606Y-109230254D01*
X156967603Y-109230255D01*
X156826137Y-109313917D01*
X156826129Y-109313923D01*
X156794874Y-109345180D01*
X156733552Y-109378666D01*
X156707192Y-109381500D01*
X155556097Y-109381500D01*
X155489058Y-109361815D01*
X155468416Y-109345181D01*
X155270590Y-109147355D01*
X155270588Y-109147352D01*
X155151717Y-109028481D01*
X155151716Y-109028480D01*
X155064904Y-108978360D01*
X155064904Y-108978359D01*
X155064900Y-108978358D01*
X155014785Y-108949423D01*
X154862057Y-108908499D01*
X154703943Y-108908499D01*
X154696347Y-108908499D01*
X154696331Y-108908500D01*
X150050097Y-108908500D01*
X149983058Y-108888815D01*
X149937303Y-108836011D01*
X149927359Y-108766853D01*
X149956384Y-108703297D01*
X149962416Y-108696819D01*
X150070237Y-108588998D01*
X150828704Y-108588998D01*
X150828705Y-108589000D01*
X152101000Y-108589000D01*
X152601000Y-108589000D01*
X153873295Y-108589000D01*
X153873295Y-108588998D01*
X153873100Y-108586513D01*
X153827281Y-108428801D01*
X153779487Y-108347986D01*
X160483001Y-108347986D01*
X160493494Y-108450697D01*
X160548641Y-108617119D01*
X160548643Y-108617124D01*
X160640684Y-108766345D01*
X160764654Y-108890315D01*
X160913875Y-108982356D01*
X160913880Y-108982358D01*
X161080302Y-109037505D01*
X161080309Y-109037506D01*
X161183019Y-109047999D01*
X161232999Y-109047998D01*
X161233000Y-109047998D01*
X161233000Y-108073000D01*
X160483001Y-108073000D01*
X160483001Y-108347986D01*
X153779487Y-108347986D01*
X153743685Y-108287447D01*
X153743678Y-108287438D01*
X153627561Y-108171321D01*
X153627552Y-108171314D01*
X153486196Y-108087717D01*
X153486193Y-108087716D01*
X153328495Y-108041900D01*
X153328489Y-108041899D01*
X153291649Y-108039000D01*
X152601000Y-108039000D01*
X152601000Y-108589000D01*
X152101000Y-108589000D01*
X152101000Y-108039000D01*
X151410350Y-108039000D01*
X151373510Y-108041899D01*
X151373504Y-108041900D01*
X151215806Y-108087716D01*
X151215803Y-108087717D01*
X151074447Y-108171314D01*
X151074438Y-108171321D01*
X150958321Y-108287438D01*
X150958314Y-108287447D01*
X150874718Y-108428801D01*
X150828899Y-108586513D01*
X150828704Y-108588998D01*
X150070237Y-108588998D01*
X151723416Y-106935819D01*
X151784739Y-106902334D01*
X151811097Y-106899500D01*
X152313331Y-106899500D01*
X152313347Y-106899501D01*
G37*
%TD.AperFunction*%
%TA.AperFunction,Conductor*%
G36*
X171620749Y-106919185D02*
G01*
X171666504Y-106971989D01*
X171676448Y-107041147D01*
X171671417Y-107062501D01*
X171669495Y-107068300D01*
X171669493Y-107068309D01*
X171659000Y-107171013D01*
X171659000Y-107446000D01*
X172785000Y-107446000D01*
X172852039Y-107465685D01*
X172897794Y-107518489D01*
X172909000Y-107570000D01*
X172909000Y-108920999D01*
X172958972Y-108920999D01*
X172958986Y-108920998D01*
X173061697Y-108910505D01*
X173228119Y-108855358D01*
X173228124Y-108855356D01*
X173377345Y-108763315D01*
X173419018Y-108721642D01*
X173480341Y-108688156D01*
X173550032Y-108693140D01*
X173605966Y-108735011D01*
X173630384Y-108800475D01*
X173621265Y-108856766D01*
X173619424Y-108861209D01*
X173604207Y-108918000D01*
X173578499Y-109013943D01*
X173578499Y-109013945D01*
X173578499Y-109057500D01*
X173558814Y-109124539D01*
X173506010Y-109170294D01*
X173454499Y-109181500D01*
X173288298Y-109181500D01*
X173251432Y-109184401D01*
X173251426Y-109184402D01*
X173093606Y-109230254D01*
X173093603Y-109230255D01*
X172952137Y-109313917D01*
X172952129Y-109313923D01*
X172835923Y-109430129D01*
X172835917Y-109430137D01*
X172752255Y-109571603D01*
X172752254Y-109571606D01*
X172706402Y-109729426D01*
X172706401Y-109729432D01*
X172703500Y-109766298D01*
X172703500Y-109857500D01*
X172683815Y-109924539D01*
X172631011Y-109970294D01*
X172579500Y-109981500D01*
X171715097Y-109981500D01*
X171648058Y-109961815D01*
X171627416Y-109945181D01*
X171302590Y-109620355D01*
X171302588Y-109620352D01*
X171183717Y-109501481D01*
X171183709Y-109501475D01*
X171088523Y-109446520D01*
X171088521Y-109446519D01*
X171046790Y-109422425D01*
X171046789Y-109422424D01*
X171034263Y-109419067D01*
X170894057Y-109381499D01*
X170735943Y-109381499D01*
X170728347Y-109381499D01*
X170728331Y-109381500D01*
X170574808Y-109381500D01*
X170507769Y-109361815D01*
X170487126Y-109345180D01*
X170455870Y-109313923D01*
X170455862Y-109313917D01*
X170377681Y-109267681D01*
X170314398Y-109230256D01*
X170314397Y-109230255D01*
X170314396Y-109230255D01*
X170314393Y-109230254D01*
X170156573Y-109184402D01*
X170156567Y-109184401D01*
X170119701Y-109181500D01*
X170119694Y-109181500D01*
X168338306Y-109181500D01*
X168338298Y-109181500D01*
X168301432Y-109184401D01*
X168301426Y-109184402D01*
X168143606Y-109230254D01*
X168143603Y-109230255D01*
X168002137Y-109313917D01*
X168002129Y-109313923D01*
X167970874Y-109345180D01*
X167909552Y-109378666D01*
X167883192Y-109381500D01*
X165809493Y-109381500D01*
X165774543Y-109390865D01*
X165774540Y-109390866D01*
X165748342Y-109397885D01*
X165678493Y-109396220D01*
X165620631Y-109357056D01*
X165593129Y-109292827D01*
X165599211Y-109237153D01*
X165601625Y-109230256D01*
X165621990Y-109172057D01*
X165631367Y-109145259D01*
X165631369Y-109145249D01*
X165651565Y-108966003D01*
X165651565Y-108965996D01*
X165631369Y-108786750D01*
X165631368Y-108786745D01*
X165602168Y-108703297D01*
X165571789Y-108616478D01*
X165570914Y-108615086D01*
X165512213Y-108521663D01*
X165475816Y-108463738D01*
X165475814Y-108463736D01*
X165475813Y-108463734D01*
X165473550Y-108460896D01*
X165472659Y-108458715D01*
X165472111Y-108457842D01*
X165472264Y-108457745D01*
X165447144Y-108396209D01*
X165446500Y-108383587D01*
X165446500Y-108220986D01*
X171659001Y-108220986D01*
X171669494Y-108323697D01*
X171724641Y-108490119D01*
X171724643Y-108490124D01*
X171816684Y-108639345D01*
X171940654Y-108763315D01*
X172089875Y-108855356D01*
X172089880Y-108855358D01*
X172256302Y-108910505D01*
X172256309Y-108910506D01*
X172359019Y-108920999D01*
X172408999Y-108920998D01*
X172409000Y-108920998D01*
X172409000Y-107946000D01*
X171659001Y-107946000D01*
X171659001Y-108220986D01*
X165446500Y-108220986D01*
X165446500Y-107023500D01*
X165466185Y-106956461D01*
X165518989Y-106910706D01*
X165570500Y-106899500D01*
X171553710Y-106899500D01*
X171620749Y-106919185D01*
G37*
%TD.AperFunction*%
%TA.AperFunction,Conductor*%
G36*
X130418194Y-89023820D02*
G01*
X130463949Y-89076624D01*
X130473893Y-89145782D01*
X130444868Y-89209338D01*
X130387150Y-89246796D01*
X130326855Y-89265086D01*
X130326840Y-89265091D01*
X129750867Y-89481872D01*
X129750844Y-89481881D01*
X129190267Y-89735876D01*
X129190240Y-89735889D01*
X128647495Y-90025991D01*
X128647473Y-90026004D01*
X128124854Y-90350989D01*
X128124844Y-90350995D01*
X127624577Y-90709482D01*
X127148838Y-91099912D01*
X127148835Y-91099914D01*
X126882198Y-91349645D01*
X133349999Y-97817446D01*
X139817801Y-91349645D01*
X139551181Y-91099929D01*
X139551161Y-91099912D01*
X139075422Y-90709482D01*
X139075423Y-90709482D01*
X138575155Y-90350995D01*
X138575145Y-90350989D01*
X138052526Y-90026004D01*
X138052504Y-90025991D01*
X137509759Y-89735889D01*
X137509732Y-89735876D01*
X136949155Y-89481881D01*
X136949132Y-89481872D01*
X136373159Y-89265091D01*
X136373144Y-89265086D01*
X136312850Y-89246796D01*
X136254411Y-89208498D01*
X136225955Y-89144686D01*
X136236515Y-89075619D01*
X136282739Y-89023225D01*
X136348845Y-89004135D01*
X145339500Y-89004135D01*
X145406539Y-89023820D01*
X145452294Y-89076624D01*
X145463500Y-89128135D01*
X145463500Y-89916870D01*
X145463501Y-89916876D01*
X145469908Y-89976483D01*
X145520202Y-90111328D01*
X145520206Y-90111335D01*
X145606452Y-90226544D01*
X145606455Y-90226547D01*
X145721664Y-90312793D01*
X145721671Y-90312797D01*
X145856517Y-90363091D01*
X145856516Y-90363091D01*
X145863444Y-90363835D01*
X145916127Y-90369500D01*
X147011872Y-90369499D01*
X147071483Y-90363091D01*
X147206331Y-90312796D01*
X147321546Y-90226546D01*
X147407796Y-90111331D01*
X147458091Y-89976483D01*
X147464500Y-89916873D01*
X147464499Y-89128134D01*
X147484183Y-89061096D01*
X147536987Y-89015341D01*
X147588499Y-89004135D01*
X152639500Y-89004135D01*
X152706539Y-89023820D01*
X152752294Y-89076624D01*
X152763500Y-89128135D01*
X152763500Y-89916870D01*
X152763501Y-89916876D01*
X152769908Y-89976483D01*
X152820202Y-90111328D01*
X152820206Y-90111335D01*
X152906452Y-90226544D01*
X152906455Y-90226547D01*
X153021664Y-90312793D01*
X153021671Y-90312797D01*
X153156517Y-90363091D01*
X153156516Y-90363091D01*
X153163444Y-90363835D01*
X153216127Y-90369500D01*
X154311872Y-90369499D01*
X154371483Y-90363091D01*
X154506331Y-90312796D01*
X154621546Y-90226546D01*
X154707796Y-90111331D01*
X154758091Y-89976483D01*
X154764500Y-89916873D01*
X154764499Y-89128134D01*
X154784183Y-89061096D01*
X154836987Y-89015341D01*
X154888499Y-89004135D01*
X200975108Y-89004135D01*
X201037949Y-89004135D01*
X201044032Y-89004283D01*
X201398160Y-89021681D01*
X201410262Y-89022873D01*
X201757954Y-89074448D01*
X201769880Y-89076820D01*
X202110854Y-89162229D01*
X202122481Y-89165756D01*
X202453452Y-89284180D01*
X202464664Y-89288824D01*
X202782434Y-89439118D01*
X202793162Y-89444853D01*
X203094638Y-89625551D01*
X203104753Y-89632309D01*
X203372227Y-89830681D01*
X203387087Y-89841702D01*
X203396493Y-89849422D01*
X203656935Y-90085473D01*
X203665526Y-90094064D01*
X203785599Y-90226544D01*
X203901577Y-90354506D01*
X203909297Y-90363912D01*
X204118688Y-90646243D01*
X204125448Y-90656361D01*
X204306146Y-90957837D01*
X204311883Y-90968569D01*
X204462172Y-91286328D01*
X204466823Y-91297557D01*
X204585238Y-91628503D01*
X204588770Y-91640147D01*
X204674177Y-91981111D01*
X204676551Y-91993047D01*
X204728125Y-92340733D01*
X204729318Y-92352842D01*
X204746716Y-92706966D01*
X204746865Y-92713051D01*
X204746865Y-134362948D01*
X204746716Y-134369033D01*
X204729318Y-134723157D01*
X204728125Y-134735266D01*
X204676551Y-135082952D01*
X204674177Y-135094888D01*
X204588770Y-135435852D01*
X204585238Y-135447496D01*
X204489557Y-135714908D01*
X204466829Y-135778428D01*
X204462172Y-135789671D01*
X204311883Y-136107430D01*
X204306146Y-136118162D01*
X204125448Y-136419638D01*
X204118688Y-136429756D01*
X203909297Y-136712087D01*
X203901577Y-136721493D01*
X203665533Y-136981928D01*
X203656928Y-136990533D01*
X203396493Y-137226577D01*
X203387087Y-137234297D01*
X203104756Y-137443688D01*
X203094638Y-137450448D01*
X202793162Y-137631146D01*
X202782430Y-137636883D01*
X202464671Y-137787172D01*
X202453435Y-137791826D01*
X202318449Y-137840125D01*
X202122496Y-137910238D01*
X202110852Y-137913770D01*
X201769888Y-137999177D01*
X201757952Y-138001551D01*
X201410266Y-138053125D01*
X201398157Y-138054318D01*
X201067579Y-138070559D01*
X201044031Y-138071716D01*
X201037949Y-138071865D01*
X119383049Y-138071865D01*
X119376966Y-138071716D01*
X119022921Y-138054327D01*
X119010828Y-138053136D01*
X118663204Y-138001583D01*
X118651291Y-137999214D01*
X118310393Y-137913844D01*
X118298751Y-137910313D01*
X117967876Y-137791955D01*
X117956635Y-137787300D01*
X117638950Y-137637085D01*
X117628221Y-137631352D01*
X117477501Y-137541040D01*
X117326775Y-137450725D01*
X117316670Y-137443975D01*
X117048728Y-137245318D01*
X117034377Y-137234678D01*
X117024971Y-137226961D01*
X116764553Y-136991013D01*
X116755950Y-136982412D01*
X116519906Y-136722081D01*
X116512185Y-136712678D01*
X116511746Y-136712087D01*
X116385936Y-136542529D01*
X116302787Y-136430466D01*
X116296026Y-136420352D01*
X116115297Y-136118989D01*
X116109559Y-136108262D01*
X115959220Y-135790617D01*
X115954565Y-135779386D01*
X115931472Y-135714904D01*
X115836083Y-135448548D01*
X115832549Y-135436910D01*
X115821779Y-135393972D01*
X115747057Y-135096055D01*
X115744680Y-135084124D01*
X115709251Y-134845833D01*
X115692998Y-134736518D01*
X115691805Y-134724435D01*
X115674286Y-134370450D01*
X115674175Y-134365996D01*
X116374415Y-134365996D01*
X116374415Y-134366003D01*
X116394738Y-134714927D01*
X116394739Y-134714938D01*
X116455428Y-135059127D01*
X116455430Y-135059134D01*
X116555674Y-135393972D01*
X116694107Y-135714895D01*
X116694113Y-135714908D01*
X116868870Y-136017597D01*
X117077584Y-136297949D01*
X117077589Y-136297955D01*
X117165907Y-136391566D01*
X117317442Y-136552183D01*
X117493903Y-136700251D01*
X117585186Y-136776847D01*
X117585194Y-136776853D01*
X117877203Y-136968911D01*
X117877207Y-136968913D01*
X118189549Y-137125777D01*
X118517989Y-137245319D01*
X118858086Y-137325923D01*
X119205241Y-137366500D01*
X119205248Y-137366500D01*
X119554752Y-137366500D01*
X119554759Y-137366500D01*
X119901914Y-137325923D01*
X120242011Y-137245319D01*
X120570451Y-137125777D01*
X120882793Y-136968913D01*
X121174811Y-136776849D01*
X121442558Y-136552183D01*
X121453670Y-136540405D01*
X121513994Y-136505151D01*
X121543863Y-136501500D01*
X191361347Y-136501500D01*
X191594618Y-136464553D01*
X191819242Y-136391568D01*
X192029684Y-136284343D01*
X192220760Y-136145517D01*
X194000281Y-134365996D01*
X198035916Y-134365996D01*
X198035916Y-134366003D01*
X198056235Y-134714869D01*
X198056236Y-134714880D01*
X198116914Y-135059002D01*
X198116916Y-135059011D01*
X198217145Y-135393800D01*
X198355555Y-135714670D01*
X198355561Y-135714683D01*
X198530289Y-136017322D01*
X198738967Y-136297625D01*
X198747148Y-136306296D01*
X199997320Y-135056125D01*
X200087554Y-135180320D01*
X200226680Y-135319446D01*
X200350873Y-135409678D01*
X199103818Y-136656733D01*
X199103819Y-136656734D01*
X199246484Y-136776445D01*
X199538461Y-136968480D01*
X199850739Y-137125314D01*
X199850745Y-137125316D01*
X200179130Y-137244838D01*
X200179133Y-137244839D01*
X200519171Y-137325429D01*
X200866276Y-137365999D01*
X200866277Y-137366000D01*
X201215723Y-137366000D01*
X201215723Y-137365999D01*
X201562827Y-137325429D01*
X201562829Y-137325429D01*
X201902866Y-137244839D01*
X201902869Y-137244838D01*
X202231254Y-137125316D01*
X202231260Y-137125314D01*
X202543538Y-136968480D01*
X202835509Y-136776449D01*
X202835510Y-136776448D01*
X202978179Y-136656734D01*
X202978180Y-136656733D01*
X201731126Y-135409678D01*
X201855320Y-135319446D01*
X201994446Y-135180320D01*
X202084678Y-135056126D01*
X203334849Y-136306297D01*
X203334851Y-136306296D01*
X203343022Y-136297636D01*
X203343033Y-136297623D01*
X203551710Y-136017322D01*
X203726438Y-135714683D01*
X203726444Y-135714670D01*
X203864854Y-135393800D01*
X203965083Y-135059011D01*
X203965085Y-135059002D01*
X204025763Y-134714880D01*
X204025764Y-134714869D01*
X204046084Y-134366003D01*
X204046084Y-134365996D01*
X204025764Y-134017130D01*
X204025763Y-134017119D01*
X203965085Y-133672997D01*
X203965083Y-133672988D01*
X203864854Y-133338199D01*
X203726444Y-133017329D01*
X203726438Y-133017316D01*
X203551710Y-132714677D01*
X203343032Y-132434374D01*
X203334850Y-132425702D01*
X202084678Y-133675873D01*
X201994446Y-133551680D01*
X201855320Y-133412554D01*
X201731125Y-133322320D01*
X202978180Y-132075265D01*
X202978179Y-132075264D01*
X202835519Y-131955557D01*
X202543538Y-131763519D01*
X202231260Y-131606685D01*
X202231254Y-131606683D01*
X201902869Y-131487161D01*
X201902866Y-131487160D01*
X201562828Y-131406570D01*
X201215723Y-131366000D01*
X200866277Y-131366000D01*
X200519172Y-131406570D01*
X200519170Y-131406570D01*
X200179133Y-131487160D01*
X200179130Y-131487161D01*
X199850745Y-131606683D01*
X199850739Y-131606685D01*
X199538461Y-131763519D01*
X199246480Y-131955557D01*
X199103819Y-132075264D01*
X199103818Y-132075265D01*
X200350874Y-133322320D01*
X200226680Y-133412554D01*
X200087554Y-133551680D01*
X199997320Y-133675873D01*
X198747148Y-132425701D01*
X198747147Y-132425702D01*
X198738976Y-132434363D01*
X198738972Y-132434368D01*
X198530289Y-132714677D01*
X198355561Y-133017316D01*
X198355555Y-133017329D01*
X198217145Y-133338199D01*
X198116916Y-133672988D01*
X198116914Y-133672997D01*
X198056236Y-134017119D01*
X198056235Y-134017130D01*
X198035916Y-134365996D01*
X194000281Y-134365996D01*
X201271117Y-127095160D01*
X201409943Y-126904084D01*
X201517168Y-126693642D01*
X201590153Y-126469018D01*
X201601813Y-126395402D01*
X201627100Y-126235747D01*
X201627100Y-122999552D01*
X201590153Y-122766281D01*
X201531053Y-122584393D01*
X201517168Y-122541658D01*
X201517166Y-122541655D01*
X201517166Y-122541653D01*
X201443494Y-122397064D01*
X201409943Y-122331217D01*
X201271117Y-122140140D01*
X201104110Y-121973133D01*
X200913033Y-121834307D01*
X200899856Y-121827593D01*
X200702596Y-121727083D01*
X200477968Y-121654096D01*
X200244697Y-121617150D01*
X200244692Y-121617150D01*
X200008508Y-121617150D01*
X200008503Y-121617150D01*
X199775231Y-121654096D01*
X199550603Y-121727083D01*
X199340163Y-121834309D01*
X199283985Y-121875125D01*
X199218179Y-121898605D01*
X199150125Y-121882780D01*
X199101430Y-121832674D01*
X199087100Y-121774807D01*
X199087100Y-112121649D01*
X199106785Y-112054610D01*
X199159589Y-112008855D01*
X199211100Y-111997649D01*
X201989734Y-111997649D01*
X201989742Y-111997649D01*
X202024876Y-111995848D01*
X202112386Y-111991363D01*
X202112389Y-111991362D01*
X202112393Y-111991362D01*
X202402874Y-111941278D01*
X202683829Y-111852107D01*
X202950025Y-111725510D01*
X203196504Y-111563845D01*
X203418673Y-111370123D01*
X203612395Y-111147954D01*
X203774060Y-110901475D01*
X203900657Y-110635279D01*
X203989828Y-110354324D01*
X204039912Y-110063843D01*
X204042577Y-110011860D01*
X204046199Y-109941225D01*
X204046199Y-109941212D01*
X204046200Y-109941193D01*
X204046199Y-102969308D01*
X204044756Y-102941168D01*
X204039913Y-102846663D01*
X204039912Y-102846659D01*
X203997061Y-102598128D01*
X203989828Y-102556176D01*
X203900657Y-102275221D01*
X203774060Y-102009025D01*
X203612395Y-101762546D01*
X203418673Y-101540377D01*
X203196504Y-101346655D01*
X202950025Y-101184990D01*
X202886532Y-101154794D01*
X202683834Y-101058395D01*
X202683821Y-101058390D01*
X202402878Y-100969223D01*
X202402869Y-100969221D01*
X202112389Y-100919137D01*
X201989775Y-100912850D01*
X201989743Y-100912850D01*
X199109500Y-100912850D01*
X199042461Y-100893165D01*
X198996706Y-100840361D01*
X198985500Y-100788850D01*
X198985500Y-96938888D01*
X199005185Y-96871849D01*
X199021814Y-96851212D01*
X200214709Y-95658316D01*
X200276030Y-95624833D01*
X200330984Y-95625341D01*
X200360169Y-95632259D01*
X200519070Y-95669920D01*
X200519077Y-95669921D01*
X200519086Y-95669923D01*
X200866241Y-95710500D01*
X200866248Y-95710500D01*
X201215752Y-95710500D01*
X201215759Y-95710500D01*
X201562914Y-95669923D01*
X201903011Y-95589319D01*
X202231451Y-95469777D01*
X202543793Y-95312913D01*
X202659017Y-95237129D01*
X202835805Y-95120853D01*
X202835805Y-95120852D01*
X202835811Y-95120849D01*
X203103558Y-94896183D01*
X203343412Y-94641953D01*
X203552130Y-94361596D01*
X203726889Y-94058904D01*
X203865326Y-93737971D01*
X203965569Y-93403136D01*
X203971504Y-93369481D01*
X204026260Y-93058938D01*
X204026259Y-93058938D01*
X204026262Y-93058927D01*
X204045129Y-92735000D01*
X204046585Y-92710003D01*
X204046585Y-92709996D01*
X204040855Y-92611623D01*
X204026262Y-92361073D01*
X204019255Y-92321335D01*
X203965571Y-92016872D01*
X203965569Y-92016865D01*
X203958790Y-91994221D01*
X203865326Y-91682029D01*
X203726889Y-91361096D01*
X203596472Y-91135206D01*
X203552129Y-91058402D01*
X203343415Y-90778050D01*
X203343410Y-90778044D01*
X203219061Y-90646243D01*
X203103558Y-90523817D01*
X202919649Y-90369499D01*
X202835813Y-90299152D01*
X202835805Y-90299146D01*
X202543796Y-90107088D01*
X202231458Y-89950226D01*
X202231452Y-89950223D01*
X201903012Y-89830681D01*
X201903009Y-89830680D01*
X201562915Y-89750077D01*
X201519519Y-89745004D01*
X201215759Y-89709500D01*
X200866241Y-89709500D01*
X200562480Y-89745004D01*
X200519085Y-89750077D01*
X200519083Y-89750077D01*
X200178990Y-89830680D01*
X200178987Y-89830681D01*
X199850547Y-89950223D01*
X199850541Y-89950226D01*
X199538203Y-90107088D01*
X199246194Y-90299146D01*
X199246186Y-90299152D01*
X198978442Y-90523817D01*
X198978440Y-90523819D01*
X198738589Y-90778044D01*
X198738584Y-90778050D01*
X198529870Y-91058402D01*
X198355113Y-91361091D01*
X198355107Y-91361104D01*
X198216674Y-91682027D01*
X198116430Y-92016865D01*
X198116428Y-92016872D01*
X198055739Y-92361061D01*
X198055738Y-92361072D01*
X198035415Y-92709996D01*
X198035415Y-92710003D01*
X198055738Y-93058927D01*
X198055739Y-93058938D01*
X198116428Y-93403127D01*
X198116433Y-93403147D01*
X198120409Y-93416425D01*
X198120780Y-93486293D01*
X198089300Y-93539671D01*
X196340485Y-95288487D01*
X196340484Y-95288488D01*
X196201659Y-95479562D01*
X196201658Y-95479564D01*
X196145294Y-95590186D01*
X196094433Y-95690003D01*
X196021446Y-95914631D01*
X195984500Y-96147902D01*
X195984500Y-100788850D01*
X195964815Y-100855889D01*
X195912011Y-100901644D01*
X195860500Y-100912850D01*
X192980265Y-100912850D01*
X192980223Y-100912852D01*
X192857613Y-100919136D01*
X192857609Y-100919137D01*
X192567130Y-100969221D01*
X192567121Y-100969223D01*
X192286178Y-101058390D01*
X192286165Y-101058395D01*
X192019976Y-101184989D01*
X191773493Y-101346657D01*
X191551327Y-101540377D01*
X191357607Y-101762543D01*
X191195939Y-102009026D01*
X191069345Y-102275215D01*
X191069340Y-102275228D01*
X190980173Y-102556171D01*
X190980171Y-102556180D01*
X190930087Y-102846658D01*
X190930087Y-102846661D01*
X190923800Y-102969274D01*
X190923800Y-109941184D01*
X190923802Y-109941226D01*
X190930086Y-110063836D01*
X190930087Y-110063840D01*
X190980171Y-110354319D01*
X190980173Y-110354328D01*
X191069340Y-110635271D01*
X191069345Y-110635284D01*
X191194513Y-110898475D01*
X191195940Y-110901475D01*
X191357605Y-111147954D01*
X191551327Y-111370123D01*
X191773496Y-111563845D01*
X192019975Y-111725510D01*
X192286171Y-111852107D01*
X192567126Y-111941278D01*
X192857607Y-111991362D01*
X192879910Y-111992505D01*
X192980224Y-111997649D01*
X192980237Y-111997649D01*
X192980257Y-111997650D01*
X195962100Y-111997649D01*
X196029139Y-112017334D01*
X196074894Y-112070138D01*
X196086100Y-112121649D01*
X196086100Y-121493150D01*
X196066415Y-121560189D01*
X196013611Y-121605944D01*
X195962100Y-121617150D01*
X194046229Y-121617150D01*
X194046223Y-121617151D01*
X193986616Y-121623558D01*
X193851771Y-121673852D01*
X193851764Y-121673856D01*
X193736555Y-121760102D01*
X193736554Y-121760104D01*
X193650306Y-121875314D01*
X193650302Y-121875321D01*
X193600008Y-122010167D01*
X193593601Y-122069766D01*
X193593600Y-122069785D01*
X193593600Y-124165520D01*
X193593601Y-124165526D01*
X193600008Y-124225133D01*
X193650302Y-124359978D01*
X193650306Y-124359985D01*
X193736552Y-124475194D01*
X193736555Y-124475197D01*
X193851764Y-124561443D01*
X193851771Y-124561447D01*
X193887340Y-124574713D01*
X193986617Y-124611741D01*
X194046227Y-124618150D01*
X194146252Y-124618149D01*
X194213289Y-124637833D01*
X194259045Y-124690636D01*
X194268989Y-124759795D01*
X194239965Y-124823351D01*
X194233932Y-124829830D01*
X193735786Y-125327978D01*
X193623981Y-125439782D01*
X193623980Y-125439784D01*
X193580955Y-125514306D01*
X193570485Y-125532441D01*
X193544922Y-125576715D01*
X193544922Y-125576716D01*
X193531985Y-125624997D01*
X193495620Y-125684657D01*
X193432772Y-125715185D01*
X193363397Y-125706890D01*
X193324530Y-125680583D01*
X193218870Y-125574923D01*
X193218862Y-125574917D01*
X193116375Y-125514307D01*
X193077398Y-125491256D01*
X193077397Y-125491255D01*
X193077396Y-125491255D01*
X193077393Y-125491254D01*
X192919573Y-125445402D01*
X192919567Y-125445401D01*
X192882701Y-125442500D01*
X192882694Y-125442500D01*
X191576306Y-125442500D01*
X191576298Y-125442500D01*
X191539432Y-125445401D01*
X191539426Y-125445402D01*
X191381606Y-125491254D01*
X191381603Y-125491255D01*
X191240137Y-125574917D01*
X191240129Y-125574923D01*
X191237372Y-125577681D01*
X191234678Y-125579151D01*
X191233969Y-125579702D01*
X191233880Y-125579587D01*
X191176049Y-125611166D01*
X191149691Y-125614000D01*
X190676508Y-125614000D01*
X190609469Y-125594315D01*
X190570969Y-125555097D01*
X190526712Y-125483344D01*
X190402656Y-125359288D01*
X190253334Y-125267186D01*
X190169495Y-125239404D01*
X190112051Y-125199632D01*
X190085228Y-125135116D01*
X190084500Y-125121699D01*
X190084500Y-111849059D01*
X190084501Y-111849046D01*
X190084501Y-111680945D01*
X190084501Y-111680943D01*
X190043577Y-111528215D01*
X190000973Y-111454423D01*
X189964520Y-111391284D01*
X189852716Y-111279480D01*
X189852715Y-111279479D01*
X189848385Y-111275149D01*
X189848374Y-111275139D01*
X187256090Y-108682855D01*
X187256088Y-108682852D01*
X187137218Y-108563982D01*
X187137216Y-108563980D01*
X187126300Y-108557678D01*
X187105498Y-108545667D01*
X187057284Y-108495099D01*
X187043500Y-108438281D01*
X187043500Y-108391304D01*
X187043499Y-108391298D01*
X187042892Y-108383587D01*
X187040598Y-108354431D01*
X187031697Y-108323795D01*
X187001828Y-108220986D01*
X186994744Y-108196602D01*
X186911081Y-108055135D01*
X186911079Y-108055133D01*
X186911076Y-108055129D01*
X186794870Y-107938923D01*
X186794862Y-107938917D01*
X186653396Y-107855255D01*
X186653393Y-107855254D01*
X186495573Y-107809402D01*
X186495567Y-107809401D01*
X186458701Y-107806500D01*
X186458694Y-107806500D01*
X186027306Y-107806500D01*
X186027298Y-107806500D01*
X185990432Y-107809401D01*
X185990426Y-107809402D01*
X185832606Y-107855254D01*
X185832603Y-107855255D01*
X185691137Y-107938917D01*
X185691129Y-107938923D01*
X185574923Y-108055129D01*
X185574917Y-108055137D01*
X185491255Y-108196603D01*
X185491254Y-108196606D01*
X185445402Y-108354426D01*
X185445401Y-108354432D01*
X185442500Y-108391298D01*
X185442500Y-109557500D01*
X185422815Y-109624539D01*
X185370011Y-109670294D01*
X185318500Y-109681500D01*
X185267500Y-109681500D01*
X185200461Y-109661815D01*
X185154706Y-109609011D01*
X185143500Y-109557500D01*
X185143500Y-108391304D01*
X185143499Y-108391298D01*
X185142892Y-108383587D01*
X185140598Y-108354431D01*
X185131697Y-108323795D01*
X185101828Y-108220986D01*
X185094744Y-108196602D01*
X185011081Y-108055135D01*
X185011079Y-108055133D01*
X185011076Y-108055129D01*
X184979819Y-108023872D01*
X184946334Y-107962549D01*
X184943500Y-107936191D01*
X184943500Y-102009060D01*
X184943501Y-102009047D01*
X184943501Y-101840944D01*
X184924533Y-101770155D01*
X184902577Y-101688216D01*
X184902573Y-101688209D01*
X184823524Y-101551290D01*
X184823518Y-101551282D01*
X177343216Y-94070981D01*
X176760590Y-93488355D01*
X176760588Y-93488352D01*
X176641717Y-93369481D01*
X176641716Y-93369480D01*
X176554904Y-93319360D01*
X176554904Y-93319359D01*
X176554900Y-93319358D01*
X176504785Y-93290423D01*
X176352057Y-93249499D01*
X176193943Y-93249499D01*
X176186347Y-93249499D01*
X176186331Y-93249500D01*
X174023449Y-93249500D01*
X173956410Y-93229815D01*
X173910655Y-93177011D01*
X173905744Y-93164507D01*
X173904267Y-93160053D01*
X173902814Y-93155666D01*
X173810712Y-93006344D01*
X173686656Y-92882288D01*
X173593888Y-92825069D01*
X173537336Y-92790187D01*
X173537331Y-92790185D01*
X173535862Y-92789698D01*
X173370797Y-92735001D01*
X173370795Y-92735000D01*
X173268010Y-92724500D01*
X171917998Y-92724500D01*
X171917981Y-92724501D01*
X171815203Y-92735000D01*
X171815200Y-92735001D01*
X171648668Y-92790185D01*
X171648663Y-92790187D01*
X171499342Y-92882289D01*
X171375289Y-93006342D01*
X171283187Y-93155663D01*
X171283185Y-93155668D01*
X171272974Y-93186483D01*
X171228001Y-93322203D01*
X171228001Y-93322204D01*
X171228000Y-93322204D01*
X171217500Y-93424983D01*
X171217500Y-94275001D01*
X171217501Y-94275019D01*
X171228000Y-94377796D01*
X171228001Y-94377799D01*
X171258615Y-94470185D01*
X171283186Y-94544334D01*
X171375288Y-94693656D01*
X171499344Y-94817712D01*
X171648666Y-94909814D01*
X171815203Y-94964999D01*
X171917991Y-94975500D01*
X173268008Y-94975499D01*
X173370797Y-94964999D01*
X173537334Y-94909814D01*
X173686656Y-94817712D01*
X173810712Y-94693656D01*
X173902814Y-94544334D01*
X173905744Y-94535493D01*
X173945518Y-94478049D01*
X174010035Y-94451228D01*
X174023449Y-94450500D01*
X175972903Y-94450500D01*
X176039942Y-94470185D01*
X176060584Y-94486819D01*
X183706181Y-102132416D01*
X183739666Y-102193739D01*
X183742500Y-102220097D01*
X183742500Y-107936191D01*
X183722815Y-108003230D01*
X183706181Y-108023872D01*
X183674923Y-108055129D01*
X183674917Y-108055137D01*
X183591255Y-108196603D01*
X183591254Y-108196606D01*
X183545402Y-108354426D01*
X183545401Y-108354432D01*
X183542500Y-108391298D01*
X183542500Y-109697701D01*
X183545401Y-109734567D01*
X183545402Y-109734573D01*
X183591254Y-109892393D01*
X183591255Y-109892396D01*
X183591256Y-109892398D01*
X183591788Y-109893298D01*
X183674917Y-110033862D01*
X183674923Y-110033870D01*
X183791129Y-110150076D01*
X183791133Y-110150079D01*
X183791135Y-110150081D01*
X183932602Y-110233744D01*
X183944553Y-110237216D01*
X184090426Y-110279597D01*
X184090429Y-110279597D01*
X184090431Y-110279598D01*
X184127306Y-110282500D01*
X184368500Y-110282500D01*
X184435539Y-110302185D01*
X184481294Y-110354989D01*
X184492500Y-110406500D01*
X184492500Y-111572701D01*
X184495401Y-111609567D01*
X184495402Y-111609573D01*
X184541254Y-111767393D01*
X184541255Y-111767396D01*
X184541256Y-111767398D01*
X184566469Y-111810031D01*
X184624917Y-111908862D01*
X184624923Y-111908870D01*
X184656180Y-111940126D01*
X184689666Y-112001448D01*
X184692500Y-112027808D01*
X184692500Y-112062000D01*
X184672815Y-112129039D01*
X184620011Y-112174794D01*
X184599811Y-112179188D01*
X184593000Y-112186000D01*
X184593000Y-113537000D01*
X184573315Y-113604039D01*
X184520511Y-113649794D01*
X184469000Y-113661000D01*
X183343002Y-113661000D01*
X183323618Y-113680382D01*
X183323301Y-113681464D01*
X183317594Y-113686406D01*
X183306682Y-113697319D01*
X183305899Y-113696536D01*
X183270488Y-113727208D01*
X183201327Y-113737137D01*
X183137778Y-113708099D01*
X183131319Y-113702084D01*
X182732590Y-113303355D01*
X182732588Y-113303352D01*
X182613717Y-113184481D01*
X182613716Y-113184480D01*
X182516623Y-113128424D01*
X182516622Y-113128423D01*
X182476783Y-113105422D01*
X182438713Y-113095221D01*
X182417366Y-113089501D01*
X182357707Y-113053136D01*
X182327178Y-112990289D01*
X182335473Y-112920914D01*
X182343924Y-112904628D01*
X182355406Y-112886013D01*
X183343000Y-112886013D01*
X183343000Y-113161000D01*
X184093000Y-113161000D01*
X184093000Y-112186000D01*
X184092999Y-112185999D01*
X184043029Y-112186000D01*
X184043011Y-112186001D01*
X183940302Y-112196494D01*
X183773880Y-112251641D01*
X183773875Y-112251643D01*
X183624654Y-112343684D01*
X183500684Y-112467654D01*
X183408643Y-112616875D01*
X183408641Y-112616880D01*
X183353494Y-112783302D01*
X183353493Y-112783309D01*
X183343000Y-112886013D01*
X182355406Y-112886013D01*
X182363354Y-112873127D01*
X182363358Y-112873119D01*
X182418505Y-112706697D01*
X182418506Y-112706690D01*
X182428999Y-112603986D01*
X182429000Y-112603973D01*
X182429000Y-112541500D01*
X180029001Y-112541500D01*
X180029001Y-112603986D01*
X180039494Y-112706697D01*
X180094641Y-112873119D01*
X180094646Y-112873129D01*
X180096051Y-112875407D01*
X180096537Y-112877185D01*
X180097696Y-112879670D01*
X180097271Y-112879867D01*
X180114489Y-112942800D01*
X180093564Y-113009463D01*
X180039920Y-113054231D01*
X179990510Y-113064500D01*
X177508500Y-113064500D01*
X177441461Y-113044815D01*
X177395706Y-112992011D01*
X177384500Y-112940500D01*
X177384500Y-107616942D01*
X177377606Y-107591216D01*
X177377605Y-107591213D01*
X177344987Y-107469479D01*
X177344986Y-107469473D01*
X177343579Y-107464222D01*
X177343577Y-107464217D01*
X177343577Y-107464216D01*
X177264520Y-107327284D01*
X177152716Y-107215480D01*
X177152715Y-107215479D01*
X177148385Y-107211149D01*
X177148374Y-107211139D01*
X175874590Y-105937355D01*
X175874588Y-105937352D01*
X175755717Y-105818481D01*
X175755716Y-105818480D01*
X175662219Y-105764500D01*
X175618785Y-105739423D01*
X175466057Y-105698499D01*
X175307943Y-105698499D01*
X175300347Y-105698499D01*
X175300331Y-105698500D01*
X153088500Y-105698500D01*
X153021461Y-105678815D01*
X152975706Y-105626011D01*
X152964500Y-105574500D01*
X152964500Y-96224983D01*
X171217500Y-96224983D01*
X171217500Y-97075001D01*
X171217501Y-97075019D01*
X171228000Y-97177796D01*
X171228001Y-97177799D01*
X171283185Y-97344331D01*
X171283186Y-97344334D01*
X171375288Y-97493656D01*
X171499344Y-97617712D01*
X171648666Y-97709814D01*
X171815203Y-97764999D01*
X171881103Y-97771731D01*
X171945794Y-97798127D01*
X171985945Y-97855307D01*
X171992500Y-97895089D01*
X171992500Y-99227330D01*
X171992499Y-99227348D01*
X171992499Y-99393054D01*
X171992498Y-99393054D01*
X172033423Y-99545785D01*
X172062358Y-99595900D01*
X172062359Y-99595904D01*
X172062360Y-99595904D01*
X172112479Y-99682714D01*
X172112481Y-99682717D01*
X172231349Y-99801585D01*
X172231355Y-99801590D01*
X180592181Y-108162416D01*
X180625666Y-108223739D01*
X180628500Y-108250097D01*
X180628500Y-109373699D01*
X180608815Y-109440738D01*
X180556011Y-109486493D01*
X180543507Y-109491403D01*
X180524941Y-109497556D01*
X180459668Y-109519185D01*
X180459663Y-109519187D01*
X180310342Y-109611289D01*
X180186289Y-109735342D01*
X180094187Y-109884663D01*
X180094185Y-109884668D01*
X180080973Y-109924539D01*
X180039001Y-110051203D01*
X180039001Y-110051204D01*
X180039000Y-110051204D01*
X180028500Y-110153983D01*
X180028500Y-110779001D01*
X180028501Y-110779019D01*
X180039000Y-110881796D01*
X180039001Y-110881799D01*
X180067076Y-110966522D01*
X180094186Y-111048334D01*
X180183853Y-111193709D01*
X180186289Y-111197657D01*
X180280304Y-111291672D01*
X180313789Y-111352995D01*
X180308805Y-111422687D01*
X180280305Y-111467034D01*
X180186682Y-111560657D01*
X180094643Y-111709875D01*
X180094641Y-111709880D01*
X180039494Y-111876302D01*
X180039493Y-111876309D01*
X180029000Y-111979013D01*
X180029000Y-112041500D01*
X182428999Y-112041500D01*
X182428999Y-111979028D01*
X182428998Y-111979013D01*
X182418505Y-111876302D01*
X182363358Y-111709880D01*
X182363356Y-111709875D01*
X182271315Y-111560654D01*
X182177695Y-111467034D01*
X182144210Y-111405711D01*
X182149194Y-111336019D01*
X182177691Y-111291676D01*
X182271712Y-111197656D01*
X182363814Y-111048334D01*
X182418999Y-110881797D01*
X182429500Y-110779009D01*
X182429499Y-110153992D01*
X182429099Y-110150081D01*
X182418999Y-110051203D01*
X182418998Y-110051200D01*
X182363814Y-109884666D01*
X182271712Y-109735344D01*
X182147656Y-109611288D01*
X182047810Y-109549703D01*
X181998336Y-109519187D01*
X181998331Y-109519185D01*
X181944901Y-109501480D01*
X181914495Y-109491404D01*
X181857051Y-109451632D01*
X181830228Y-109387116D01*
X181829500Y-109373699D01*
X181829500Y-107870945D01*
X181829500Y-107870943D01*
X181788577Y-107718216D01*
X181776328Y-107697000D01*
X181709524Y-107581290D01*
X181709521Y-107581286D01*
X181709520Y-107581284D01*
X181597716Y-107469480D01*
X181597715Y-107469479D01*
X181593385Y-107465149D01*
X181593374Y-107465139D01*
X173229819Y-99101584D01*
X173196334Y-99040261D01*
X173193500Y-99013903D01*
X173193500Y-97895088D01*
X173213185Y-97828049D01*
X173265989Y-97782294D01*
X173304897Y-97771730D01*
X173370797Y-97764999D01*
X173537334Y-97709814D01*
X173686656Y-97617712D01*
X173810712Y-97493656D01*
X173902814Y-97344334D01*
X173957999Y-97177797D01*
X173968500Y-97075009D01*
X173968499Y-96224992D01*
X173957999Y-96122203D01*
X173902814Y-95955666D01*
X173810712Y-95806344D01*
X173686656Y-95682288D01*
X173537334Y-95590186D01*
X173370797Y-95535001D01*
X173370795Y-95535000D01*
X173268010Y-95524500D01*
X171917998Y-95524500D01*
X171917981Y-95524501D01*
X171815203Y-95535000D01*
X171815200Y-95535001D01*
X171648668Y-95590185D01*
X171648663Y-95590187D01*
X171499342Y-95682289D01*
X171375289Y-95806342D01*
X171283187Y-95955663D01*
X171283186Y-95955666D01*
X171228001Y-96122203D01*
X171228001Y-96122204D01*
X171228000Y-96122204D01*
X171217500Y-96224983D01*
X152964500Y-96224983D01*
X152964500Y-93578749D01*
X152984185Y-93511710D01*
X153014190Y-93479482D01*
X153028867Y-93468495D01*
X153071546Y-93436546D01*
X153157796Y-93321331D01*
X153208091Y-93186483D01*
X153214500Y-93126873D01*
X153214499Y-92703498D01*
X153234183Y-92636460D01*
X153286987Y-92590705D01*
X153338494Y-92579499D01*
X154311872Y-92579499D01*
X154371483Y-92573091D01*
X154506331Y-92522796D01*
X154621546Y-92436546D01*
X154707796Y-92321331D01*
X154758091Y-92186483D01*
X154764500Y-92126873D01*
X154764499Y-91231128D01*
X154758091Y-91171517D01*
X154744546Y-91135202D01*
X154707797Y-91036671D01*
X154707793Y-91036664D01*
X154621547Y-90921455D01*
X154621544Y-90921452D01*
X154506335Y-90835206D01*
X154506328Y-90835202D01*
X154371482Y-90784908D01*
X154371483Y-90784908D01*
X154311883Y-90778501D01*
X154311881Y-90778500D01*
X154311873Y-90778500D01*
X154311864Y-90778500D01*
X153216129Y-90778500D01*
X153216123Y-90778501D01*
X153156516Y-90784908D01*
X153021671Y-90835202D01*
X153021664Y-90835206D01*
X152906456Y-90921452D01*
X152906455Y-90921453D01*
X152906454Y-90921454D01*
X152826087Y-91028811D01*
X152770153Y-91070682D01*
X152726820Y-91078500D01*
X152346680Y-91078500D01*
X152279641Y-91058815D01*
X152233886Y-91006011D01*
X152223942Y-90936853D01*
X152233738Y-90906976D01*
X152232444Y-90906440D01*
X152285437Y-90778501D01*
X152287580Y-90773328D01*
X152310702Y-90657086D01*
X152314500Y-90637995D01*
X152314500Y-90500004D01*
X152287581Y-90364677D01*
X152287580Y-90364676D01*
X152287580Y-90364672D01*
X152266093Y-90312797D01*
X152234778Y-90237195D01*
X152234771Y-90237182D01*
X152158114Y-90122458D01*
X152158111Y-90122454D01*
X152060545Y-90024888D01*
X152060541Y-90024885D01*
X151945817Y-89948228D01*
X151945804Y-89948221D01*
X151818332Y-89895421D01*
X151818322Y-89895418D01*
X151682995Y-89868500D01*
X151682993Y-89868500D01*
X151545007Y-89868500D01*
X151545005Y-89868500D01*
X151409677Y-89895418D01*
X151409667Y-89895421D01*
X151282195Y-89948221D01*
X151282182Y-89948228D01*
X151167458Y-90024885D01*
X151167454Y-90024888D01*
X151069888Y-90122454D01*
X151069885Y-90122458D01*
X150993228Y-90237182D01*
X150993221Y-90237195D01*
X150940421Y-90364667D01*
X150940418Y-90364677D01*
X150913500Y-90500004D01*
X150913500Y-90500007D01*
X150913500Y-90637993D01*
X150913500Y-90637995D01*
X150913499Y-90637995D01*
X150940418Y-90773322D01*
X150940421Y-90773332D01*
X150993221Y-90900804D01*
X150993228Y-90900817D01*
X151069885Y-91015541D01*
X151069888Y-91015545D01*
X151167454Y-91113111D01*
X151167458Y-91113114D01*
X151282182Y-91189771D01*
X151282195Y-91189778D01*
X151358664Y-91221452D01*
X151409672Y-91242580D01*
X151448876Y-91250378D01*
X151510785Y-91282762D01*
X151545359Y-91343478D01*
X151541620Y-91413247D01*
X151540866Y-91415327D01*
X151519908Y-91471519D01*
X151513501Y-91531116D01*
X151513501Y-91531123D01*
X151513500Y-91531135D01*
X151513500Y-93126870D01*
X151513501Y-93126876D01*
X151519908Y-93186483D01*
X151570202Y-93321328D01*
X151570203Y-93321329D01*
X151570204Y-93321331D01*
X151656454Y-93436546D01*
X151699103Y-93468473D01*
X151713810Y-93479482D01*
X151755682Y-93535415D01*
X151763500Y-93578749D01*
X151763500Y-105574500D01*
X151743815Y-105641539D01*
X151691011Y-105687294D01*
X151639500Y-105698500D01*
X151431941Y-105698500D01*
X151413569Y-105703422D01*
X151413570Y-105703423D01*
X151279214Y-105739423D01*
X151279209Y-105739426D01*
X151142290Y-105818475D01*
X151142282Y-105818481D01*
X151030480Y-105930284D01*
X151030478Y-105930286D01*
X149892456Y-107068309D01*
X148758584Y-108202181D01*
X148697261Y-108235666D01*
X148670903Y-108238500D01*
X144446808Y-108238500D01*
X144379769Y-108218815D01*
X144359126Y-108202180D01*
X144327870Y-108170923D01*
X144327862Y-108170917D01*
X144249681Y-108124681D01*
X144186398Y-108087256D01*
X144186397Y-108087255D01*
X144186396Y-108087255D01*
X144186393Y-108087254D01*
X144028573Y-108041402D01*
X144028567Y-108041401D01*
X143991701Y-108038500D01*
X143991694Y-108038500D01*
X142110306Y-108038500D01*
X142110298Y-108038500D01*
X142073432Y-108041401D01*
X142073426Y-108041402D01*
X141915606Y-108087254D01*
X141915603Y-108087255D01*
X141774137Y-108170917D01*
X141774129Y-108170923D01*
X141657923Y-108287129D01*
X141657917Y-108287137D01*
X141574255Y-108428603D01*
X141574254Y-108428606D01*
X141528402Y-108586426D01*
X141528401Y-108586432D01*
X141525500Y-108623298D01*
X141525500Y-109054701D01*
X141528401Y-109091567D01*
X141528402Y-109091573D01*
X141574254Y-109249393D01*
X141574255Y-109249396D01*
X141574256Y-109249398D01*
X141599940Y-109292827D01*
X141657917Y-109390862D01*
X141662702Y-109397031D01*
X141660256Y-109398927D01*
X141686857Y-109447642D01*
X141681873Y-109517334D01*
X141661069Y-109549703D01*
X141662702Y-109550969D01*
X141657917Y-109557137D01*
X141574255Y-109698603D01*
X141574254Y-109698606D01*
X141528402Y-109856426D01*
X141528401Y-109856432D01*
X141525500Y-109893298D01*
X141525500Y-110324701D01*
X141528401Y-110361567D01*
X141528402Y-110361573D01*
X141574254Y-110519393D01*
X141574257Y-110519400D01*
X141616825Y-110591380D01*
X141634008Y-110659104D01*
X141611848Y-110725366D01*
X141557381Y-110769129D01*
X141510093Y-110778500D01*
X137334943Y-110778500D01*
X137182214Y-110819423D01*
X137168860Y-110827134D01*
X137168857Y-110827135D01*
X137045290Y-110898475D01*
X137045282Y-110898481D01*
X133758481Y-114185282D01*
X133758479Y-114185285D01*
X133722301Y-114247949D01*
X133722300Y-114247951D01*
X133679423Y-114322214D01*
X133677499Y-114329396D01*
X133638499Y-114474943D01*
X133638499Y-114474945D01*
X133638499Y-114643046D01*
X133638500Y-114643059D01*
X133638500Y-122214330D01*
X133638499Y-122214348D01*
X133638499Y-122380054D01*
X133638498Y-122380054D01*
X133679423Y-122532785D01*
X133708358Y-122582900D01*
X133708359Y-122582904D01*
X133708360Y-122582904D01*
X133748715Y-122652803D01*
X133758479Y-122669714D01*
X133758481Y-122669717D01*
X133877349Y-122788585D01*
X133877355Y-122788590D01*
X137056139Y-125967374D01*
X137056149Y-125967385D01*
X137060479Y-125971715D01*
X137060480Y-125971716D01*
X137172284Y-126083520D01*
X137258359Y-126133215D01*
X137258360Y-126133216D01*
X137309209Y-126162574D01*
X137309210Y-126162574D01*
X137309215Y-126162577D01*
X137461943Y-126203500D01*
X142846093Y-126203500D01*
X142913132Y-126223185D01*
X142958887Y-126275989D01*
X142968831Y-126345147D01*
X142952825Y-126390620D01*
X142910257Y-126462599D01*
X142910254Y-126462606D01*
X142864402Y-126620426D01*
X142864401Y-126620432D01*
X142861500Y-126657298D01*
X142861500Y-127088701D01*
X142864401Y-127125567D01*
X142864402Y-127125573D01*
X142910254Y-127283393D01*
X142910255Y-127283396D01*
X142993917Y-127424862D01*
X142993923Y-127424870D01*
X143110129Y-127541076D01*
X143110133Y-127541079D01*
X143110135Y-127541081D01*
X143251602Y-127624744D01*
X143272067Y-127630689D01*
X143330952Y-127668293D01*
X143360160Y-127731765D01*
X143350416Y-127800952D01*
X143304814Y-127853888D01*
X143276483Y-127867470D01*
X143260885Y-127872639D01*
X143260875Y-127872643D01*
X143111654Y-127964684D01*
X142987684Y-128088654D01*
X142895643Y-128237875D01*
X142895641Y-128237880D01*
X142840494Y-128404302D01*
X142840493Y-128404309D01*
X142830000Y-128507013D01*
X142830000Y-128782000D01*
X143956000Y-128782000D01*
X144023039Y-128801685D01*
X144068794Y-128854489D01*
X144080000Y-128906000D01*
X144080000Y-130256999D01*
X144129972Y-130256999D01*
X144129986Y-130256998D01*
X144232697Y-130246505D01*
X144399119Y-130191358D01*
X144399124Y-130191356D01*
X144548345Y-130099315D01*
X144672318Y-129975342D01*
X144674165Y-129972348D01*
X144675969Y-129970724D01*
X144676798Y-129969677D01*
X144676976Y-129969818D01*
X144726110Y-129925621D01*
X144795073Y-129914396D01*
X144859156Y-129942236D01*
X144885243Y-129972341D01*
X144887288Y-129975656D01*
X145011344Y-130099712D01*
X145160666Y-130191814D01*
X145327203Y-130246999D01*
X145429991Y-130257500D01*
X146030008Y-130257499D01*
X146030016Y-130257498D01*
X146030019Y-130257498D01*
X146086302Y-130251748D01*
X146132797Y-130246999D01*
X146299334Y-130191814D01*
X146448656Y-130099712D01*
X146572712Y-129975656D01*
X146664814Y-129826334D01*
X146694558Y-129736572D01*
X146734329Y-129679129D01*
X146798845Y-129652306D01*
X146867621Y-129664621D01*
X146918821Y-129712164D01*
X146929969Y-129736574D01*
X146959641Y-129826119D01*
X146959643Y-129826124D01*
X147051684Y-129975345D01*
X147175654Y-130099315D01*
X147324875Y-130191356D01*
X147324880Y-130191358D01*
X147491302Y-130246505D01*
X147491309Y-130246506D01*
X147594019Y-130256999D01*
X147643999Y-130256998D01*
X147644000Y-130256998D01*
X147644000Y-127807000D01*
X147643999Y-127806999D01*
X147594029Y-127807000D01*
X147594011Y-127807001D01*
X147491302Y-127817494D01*
X147324880Y-127872641D01*
X147324875Y-127872643D01*
X147175654Y-127964684D01*
X147051684Y-128088654D01*
X146959643Y-128237875D01*
X146959641Y-128237880D01*
X146929969Y-128327425D01*
X146890196Y-128384870D01*
X146825680Y-128411693D01*
X146756904Y-128399378D01*
X146705704Y-128351835D01*
X146694557Y-128327425D01*
X146664814Y-128237666D01*
X146572712Y-128088344D01*
X146448656Y-127964288D01*
X146448655Y-127964287D01*
X146389402Y-127927739D01*
X146342678Y-127875791D01*
X146330500Y-127822201D01*
X146330500Y-127555097D01*
X146350185Y-127488058D01*
X146366819Y-127467416D01*
X146502441Y-127331794D01*
X146719520Y-127114716D01*
X146798577Y-126977784D01*
X146839501Y-126825057D01*
X146839501Y-126666942D01*
X146839501Y-126659347D01*
X146839500Y-126659329D01*
X146839500Y-126327500D01*
X146859185Y-126260461D01*
X146911989Y-126214706D01*
X146963500Y-126203500D01*
X147796093Y-126203500D01*
X147863132Y-126223185D01*
X147908887Y-126275989D01*
X147918831Y-126345147D01*
X147902825Y-126390620D01*
X147860257Y-126462599D01*
X147860254Y-126462606D01*
X147814402Y-126620426D01*
X147814401Y-126620432D01*
X147811500Y-126657298D01*
X147811500Y-127088701D01*
X147814401Y-127125567D01*
X147814402Y-127125573D01*
X147860254Y-127283393D01*
X147860255Y-127283396D01*
X147943917Y-127424862D01*
X147943923Y-127424870D01*
X148060129Y-127541076D01*
X148060138Y-127541083D01*
X148142333Y-127589693D01*
X148190017Y-127640762D01*
X148202520Y-127709504D01*
X148175875Y-127774093D01*
X148166894Y-127784106D01*
X148144000Y-127807000D01*
X148144000Y-130256999D01*
X148193972Y-130256999D01*
X148193986Y-130256998D01*
X148296697Y-130246505D01*
X148463119Y-130191358D01*
X148463124Y-130191356D01*
X148612345Y-130099315D01*
X148736318Y-129975342D01*
X148738165Y-129972348D01*
X148739969Y-129970724D01*
X148740798Y-129969677D01*
X148740976Y-129969818D01*
X148790110Y-129925621D01*
X148859073Y-129914396D01*
X148923156Y-129942236D01*
X148949243Y-129972341D01*
X148951288Y-129975656D01*
X149075344Y-130099712D01*
X149224666Y-130191814D01*
X149391203Y-130246999D01*
X149493991Y-130257500D01*
X150094008Y-130257499D01*
X150094016Y-130257498D01*
X150094019Y-130257498D01*
X150150302Y-130251748D01*
X150196797Y-130246999D01*
X150363334Y-130191814D01*
X150512656Y-130099712D01*
X150623540Y-129988827D01*
X150684859Y-129955345D01*
X150754551Y-129960329D01*
X150810485Y-130002200D01*
X150816753Y-130011408D01*
X150849288Y-130064156D01*
X150973344Y-130188212D01*
X151122666Y-130280314D01*
X151289203Y-130335499D01*
X151391991Y-130346000D01*
X152392008Y-130345999D01*
X152392016Y-130345998D01*
X152392019Y-130345998D01*
X152450745Y-130339999D01*
X152494797Y-130335499D01*
X152661334Y-130280314D01*
X152810656Y-130188212D01*
X152934712Y-130064156D01*
X153026814Y-129914834D01*
X153068180Y-129790001D01*
X156580704Y-129790001D01*
X156580899Y-129792486D01*
X156626718Y-129950198D01*
X156710314Y-130091552D01*
X156710321Y-130091561D01*
X156826438Y-130207678D01*
X156826447Y-130207685D01*
X156967803Y-130291282D01*
X156967806Y-130291283D01*
X157125504Y-130337099D01*
X157125510Y-130337100D01*
X157162350Y-130339999D01*
X157162366Y-130340000D01*
X157803000Y-130340000D01*
X158303000Y-130340000D01*
X158943634Y-130340000D01*
X158943649Y-130339999D01*
X158980489Y-130337100D01*
X158980495Y-130337099D01*
X159138193Y-130291283D01*
X159138196Y-130291282D01*
X159279552Y-130207685D01*
X159279561Y-130207678D01*
X159395678Y-130091561D01*
X159395685Y-130091552D01*
X159479281Y-129950198D01*
X159525100Y-129792486D01*
X159525295Y-129790001D01*
X159525295Y-129790000D01*
X158303000Y-129790000D01*
X158303000Y-130340000D01*
X157803000Y-130340000D01*
X157803000Y-129790000D01*
X156580705Y-129790000D01*
X156580704Y-129790001D01*
X153068180Y-129790001D01*
X153081999Y-129748297D01*
X153092500Y-129645509D01*
X153092499Y-129020492D01*
X153089975Y-128995788D01*
X153081999Y-128917703D01*
X153081998Y-128917700D01*
X153066357Y-128870500D01*
X153026814Y-128751166D01*
X152934712Y-128601844D01*
X152841049Y-128508181D01*
X152807564Y-128446858D01*
X152812548Y-128377166D01*
X152841049Y-128332819D01*
X152884368Y-128289500D01*
X152934712Y-128239156D01*
X153026814Y-128089834D01*
X153081999Y-127923297D01*
X153092500Y-127820509D01*
X153092499Y-127195492D01*
X153081999Y-127092703D01*
X153026814Y-126926166D01*
X152934712Y-126776844D01*
X152888049Y-126730181D01*
X152854564Y-126668858D01*
X152859548Y-126599166D01*
X152888049Y-126554819D01*
X152934712Y-126508156D01*
X153026814Y-126358834D01*
X153081999Y-126192297D01*
X153092500Y-126089509D01*
X153092499Y-125464492D01*
X153090483Y-125444760D01*
X153081999Y-125361703D01*
X153081998Y-125361700D01*
X153070824Y-125327980D01*
X153026814Y-125195166D01*
X152934712Y-125045844D01*
X152841049Y-124952181D01*
X152807564Y-124890858D01*
X152812548Y-124821166D01*
X152841049Y-124776819D01*
X152881659Y-124736209D01*
X152934712Y-124683156D01*
X153026814Y-124533834D01*
X153081999Y-124367297D01*
X153092500Y-124264509D01*
X153092499Y-123639492D01*
X153081999Y-123536703D01*
X153026814Y-123370166D01*
X152934712Y-123220844D01*
X152810656Y-123096788D01*
X152661334Y-123004686D01*
X152494797Y-122949501D01*
X152494795Y-122949500D01*
X152392016Y-122939000D01*
X152392009Y-122939000D01*
X151779598Y-122939000D01*
X151712559Y-122919315D01*
X151691917Y-122902681D01*
X150728590Y-121939355D01*
X150728588Y-121939352D01*
X150609717Y-121820481D01*
X150609709Y-121820475D01*
X150505142Y-121760104D01*
X150505141Y-121760103D01*
X150505141Y-121760104D01*
X150472785Y-121741423D01*
X150375022Y-121715227D01*
X150315361Y-121678861D01*
X150284833Y-121616014D01*
X150283758Y-121582849D01*
X150286499Y-121556016D01*
X150286500Y-121556009D01*
X150286499Y-120505992D01*
X150284537Y-120486790D01*
X150275999Y-120403203D01*
X150275998Y-120403200D01*
X150271192Y-120388697D01*
X150220814Y-120236666D01*
X150128712Y-120087344D01*
X150004656Y-119963288D01*
X149939380Y-119923025D01*
X149892658Y-119871079D01*
X149884708Y-119849592D01*
X149850577Y-119722215D01*
X149806467Y-119645815D01*
X149771520Y-119585284D01*
X149659716Y-119473480D01*
X149659715Y-119473479D01*
X149655385Y-119469149D01*
X149655374Y-119469139D01*
X148950590Y-118764355D01*
X148950588Y-118764352D01*
X148831717Y-118645481D01*
X148831712Y-118645477D01*
X148724363Y-118583500D01*
X148724361Y-118583499D01*
X148694787Y-118566424D01*
X148694786Y-118566423D01*
X148694785Y-118566423D01*
X148542057Y-118525499D01*
X148383943Y-118525499D01*
X148376347Y-118525499D01*
X148376331Y-118525500D01*
X145504500Y-118525500D01*
X145437461Y-118505815D01*
X145391706Y-118453011D01*
X145380500Y-118401500D01*
X145380500Y-109563500D01*
X145400185Y-109496461D01*
X145452989Y-109450706D01*
X145504500Y-109439500D01*
X147348902Y-109439500D01*
X147415941Y-109459185D01*
X147461696Y-109511989D01*
X147471640Y-109581147D01*
X147442615Y-109644703D01*
X147436596Y-109651167D01*
X147358338Y-109729426D01*
X147301465Y-109786299D01*
X147240142Y-109819783D01*
X147227668Y-109821837D01*
X147140750Y-109831630D01*
X146970478Y-109891210D01*
X146817737Y-109987184D01*
X146690184Y-110114737D01*
X146594211Y-110267476D01*
X146534631Y-110437745D01*
X146534630Y-110437750D01*
X146514435Y-110616996D01*
X146514435Y-110617003D01*
X146534630Y-110796249D01*
X146534631Y-110796254D01*
X146594211Y-110966523D01*
X146643253Y-111044572D01*
X146690184Y-111119262D01*
X146817738Y-111246816D01*
X146871279Y-111280458D01*
X146959703Y-111336019D01*
X146970478Y-111342789D01*
X147131200Y-111399028D01*
X147140745Y-111402368D01*
X147140750Y-111402369D01*
X147319996Y-111422565D01*
X147320000Y-111422565D01*
X147320004Y-111422565D01*
X147499249Y-111402369D01*
X147499252Y-111402368D01*
X147499255Y-111402368D01*
X147669522Y-111342789D01*
X147822262Y-111246816D01*
X147949816Y-111119262D01*
X148045789Y-110966522D01*
X148105368Y-110796255D01*
X148115161Y-110709329D01*
X148142226Y-110644918D01*
X148150680Y-110635553D01*
X148640418Y-110145816D01*
X148701740Y-110112334D01*
X148728098Y-110109500D01*
X150701500Y-110109500D01*
X150768539Y-110129185D01*
X150814294Y-110181989D01*
X150825500Y-110233500D01*
X150825500Y-110324706D01*
X150825759Y-110327992D01*
X150811387Y-110396368D01*
X150789821Y-110425389D01*
X149307286Y-111907926D01*
X149195481Y-112019730D01*
X149195475Y-112019738D01*
X149153146Y-112093056D01*
X149153146Y-112093057D01*
X149116423Y-112156663D01*
X149075499Y-112309391D01*
X149075499Y-112309393D01*
X149075499Y-112477494D01*
X149075500Y-112477507D01*
X149075500Y-117204330D01*
X149075499Y-117204348D01*
X149075499Y-117370054D01*
X149075498Y-117370054D01*
X149116424Y-117522789D01*
X149116425Y-117522790D01*
X149142239Y-117567500D01*
X149142240Y-117567502D01*
X149195475Y-117659709D01*
X149195481Y-117659717D01*
X149314349Y-117778585D01*
X149314355Y-117778590D01*
X155954181Y-124418416D01*
X155987666Y-124479739D01*
X155990500Y-124506097D01*
X155990500Y-125389330D01*
X155990499Y-125389348D01*
X155990499Y-125555054D01*
X155990498Y-125555054D01*
X156031424Y-125707789D01*
X156031425Y-125707790D01*
X156051340Y-125742283D01*
X156051341Y-125742284D01*
X156110477Y-125844712D01*
X156110481Y-125844717D01*
X156229349Y-125963585D01*
X156229355Y-125963590D01*
X156360139Y-126094374D01*
X156360149Y-126094385D01*
X156364479Y-126098715D01*
X156364480Y-126098716D01*
X156476284Y-126210520D01*
X156519971Y-126235742D01*
X156563095Y-126260639D01*
X156563097Y-126260641D01*
X156599853Y-126281862D01*
X156613215Y-126289577D01*
X156619837Y-126291351D01*
X156679498Y-126327716D01*
X156710027Y-126390563D01*
X156701732Y-126459938D01*
X156694476Y-126474246D01*
X156626257Y-126589599D01*
X156626254Y-126589606D01*
X156580402Y-126747426D01*
X156580401Y-126747432D01*
X156577500Y-126784298D01*
X156577500Y-127215701D01*
X156580401Y-127252567D01*
X156580402Y-127252573D01*
X156626254Y-127410393D01*
X156626255Y-127410396D01*
X156709917Y-127551862D01*
X156714702Y-127558031D01*
X156712256Y-127559927D01*
X156738857Y-127608642D01*
X156733873Y-127678334D01*
X156713069Y-127710703D01*
X156714702Y-127711969D01*
X156709917Y-127718137D01*
X156626255Y-127859603D01*
X156626254Y-127859606D01*
X156580402Y-128017426D01*
X156580401Y-128017432D01*
X156577500Y-128054298D01*
X156577500Y-128485701D01*
X156580401Y-128522567D01*
X156580402Y-128522573D01*
X156626254Y-128680393D01*
X156626255Y-128680396D01*
X156709917Y-128821862D01*
X156714702Y-128828031D01*
X156712369Y-128829840D01*
X156739210Y-128878995D01*
X156734226Y-128948687D01*
X156713470Y-128981021D01*
X156715097Y-128982283D01*
X156710313Y-128988449D01*
X156626718Y-129129801D01*
X156580899Y-129287513D01*
X156580704Y-129289998D01*
X156580705Y-129290000D01*
X159525295Y-129290000D01*
X159525295Y-129289998D01*
X159525100Y-129287513D01*
X159479281Y-129129801D01*
X159436594Y-129057621D01*
X159419411Y-128989897D01*
X159441571Y-128923635D01*
X159496037Y-128879871D01*
X159543326Y-128870500D01*
X159846903Y-128870500D01*
X159913942Y-128890185D01*
X159934584Y-128906819D01*
X160262139Y-129234374D01*
X160262149Y-129234385D01*
X160266479Y-129238715D01*
X160266480Y-129238716D01*
X160378284Y-129350520D01*
X160378286Y-129350521D01*
X160378290Y-129350524D01*
X160434854Y-129383181D01*
X160434857Y-129383182D01*
X160454946Y-129394780D01*
X160515209Y-129429574D01*
X160515210Y-129429574D01*
X160515215Y-129429577D01*
X160667943Y-129470500D01*
X160826057Y-129470500D01*
X161403500Y-129470500D01*
X161470539Y-129490185D01*
X161516294Y-129542989D01*
X161527500Y-129594500D01*
X161527500Y-129755701D01*
X161530401Y-129792567D01*
X161530402Y-129792573D01*
X161576254Y-129950393D01*
X161576255Y-129950396D01*
X161576256Y-129950398D01*
X161612341Y-130011414D01*
X161659917Y-130091862D01*
X161659923Y-130091870D01*
X161776129Y-130208076D01*
X161776133Y-130208079D01*
X161776135Y-130208081D01*
X161917602Y-130291744D01*
X161917609Y-130291746D01*
X162075426Y-130337597D01*
X162075429Y-130337597D01*
X162075431Y-130337598D01*
X162112306Y-130340500D01*
X162112314Y-130340500D01*
X163893686Y-130340500D01*
X163893694Y-130340500D01*
X163930569Y-130337598D01*
X163930571Y-130337597D01*
X163930573Y-130337597D01*
X164088392Y-130291746D01*
X164088392Y-130291745D01*
X164088398Y-130291744D01*
X164101191Y-130284177D01*
X164168910Y-130266994D01*
X164235174Y-130289151D01*
X164251993Y-130303228D01*
X164742139Y-130793374D01*
X164742149Y-130793385D01*
X164746479Y-130797715D01*
X164746480Y-130797716D01*
X164858284Y-130909520D01*
X164858286Y-130909521D01*
X164858290Y-130909524D01*
X164907976Y-130938210D01*
X164907981Y-130938212D01*
X164995209Y-130988574D01*
X164995210Y-130988575D01*
X164995212Y-130988575D01*
X164995215Y-130988577D01*
X165147943Y-131029501D01*
X165147946Y-131029501D01*
X165313653Y-131029501D01*
X165313669Y-131029500D01*
X166084734Y-131029500D01*
X166151773Y-131049185D01*
X166197528Y-131101989D01*
X166207954Y-131139616D01*
X166219630Y-131243250D01*
X166219631Y-131243254D01*
X166279211Y-131413523D01*
X166366411Y-131552300D01*
X166375184Y-131566262D01*
X166502738Y-131693816D01*
X166593080Y-131750582D01*
X166613669Y-131763519D01*
X166655478Y-131789789D01*
X166783832Y-131834702D01*
X166825745Y-131849368D01*
X166825750Y-131849369D01*
X167004996Y-131869565D01*
X167005000Y-131869565D01*
X167005004Y-131869565D01*
X167184249Y-131849369D01*
X167184252Y-131849368D01*
X167184255Y-131849368D01*
X167354522Y-131789789D01*
X167507262Y-131693816D01*
X167507267Y-131693810D01*
X167510097Y-131691555D01*
X167512275Y-131690665D01*
X167513158Y-131690111D01*
X167513255Y-131690265D01*
X167574783Y-131665145D01*
X167587412Y-131664500D01*
X171676678Y-131664500D01*
X171743717Y-131684185D01*
X171789472Y-131736989D01*
X171799898Y-131774617D01*
X171807630Y-131843249D01*
X171867210Y-132013521D01*
X171879271Y-132032716D01*
X171963184Y-132166262D01*
X172090738Y-132293816D01*
X172243478Y-132389789D01*
X172370895Y-132434374D01*
X172413745Y-132449368D01*
X172413750Y-132449369D01*
X172592996Y-132469565D01*
X172593000Y-132469565D01*
X172593004Y-132469565D01*
X172772249Y-132449369D01*
X172772252Y-132449368D01*
X172772255Y-132449368D01*
X172942522Y-132389789D01*
X173095262Y-132293816D01*
X173095267Y-132293810D01*
X173098097Y-132291555D01*
X173100275Y-132290665D01*
X173101158Y-132290111D01*
X173101255Y-132290265D01*
X173162783Y-132265145D01*
X173175412Y-132264500D01*
X175167861Y-132264500D01*
X175167877Y-132264501D01*
X175175473Y-132264501D01*
X175333584Y-132264501D01*
X175333587Y-132264501D01*
X175486315Y-132223577D01*
X175562109Y-132179817D01*
X175623246Y-132144520D01*
X175735050Y-132032716D01*
X175735050Y-132032714D01*
X175745254Y-132022511D01*
X175745257Y-132022506D01*
X178661520Y-129106246D01*
X178740577Y-128969314D01*
X178781501Y-128816587D01*
X178781501Y-128658472D01*
X178781501Y-128650877D01*
X178781500Y-128650859D01*
X178781500Y-128351986D01*
X188284001Y-128351986D01*
X188294494Y-128454697D01*
X188349641Y-128621119D01*
X188349643Y-128621124D01*
X188441684Y-128770345D01*
X188565654Y-128894315D01*
X188714875Y-128986356D01*
X188714880Y-128986358D01*
X188881302Y-129041505D01*
X188881309Y-129041506D01*
X188984019Y-129051999D01*
X189233999Y-129051999D01*
X189234000Y-129051998D01*
X189234000Y-128289500D01*
X188284001Y-128289500D01*
X188284001Y-128351986D01*
X178781500Y-128351986D01*
X178781500Y-127892998D01*
X190994704Y-127892998D01*
X190994705Y-127893000D01*
X191979500Y-127893000D01*
X191979500Y-127343000D01*
X191576350Y-127343000D01*
X191539510Y-127345899D01*
X191539504Y-127345900D01*
X191381806Y-127391716D01*
X191381803Y-127391717D01*
X191240447Y-127475314D01*
X191240438Y-127475321D01*
X191124321Y-127591438D01*
X191124314Y-127591447D01*
X191040718Y-127732801D01*
X190994899Y-127890513D01*
X190994704Y-127892998D01*
X178781500Y-127892998D01*
X178781500Y-123694001D01*
X179375704Y-123694001D01*
X179375899Y-123696486D01*
X179421718Y-123854198D01*
X179505314Y-123995552D01*
X179505321Y-123995561D01*
X179621438Y-124111678D01*
X179621447Y-124111685D01*
X179762803Y-124195282D01*
X179762806Y-124195283D01*
X179920504Y-124241099D01*
X179920510Y-124241100D01*
X179957350Y-124243999D01*
X179957366Y-124244000D01*
X180598000Y-124244000D01*
X181098000Y-124244000D01*
X181738634Y-124244000D01*
X181738649Y-124243999D01*
X181775489Y-124241100D01*
X181775495Y-124241099D01*
X181933193Y-124195283D01*
X181933196Y-124195282D01*
X182074552Y-124111685D01*
X182074561Y-124111678D01*
X182190678Y-123995561D01*
X182190685Y-123995552D01*
X182274281Y-123854198D01*
X182320100Y-123696486D01*
X182320295Y-123694001D01*
X182320295Y-123694000D01*
X181098000Y-123694000D01*
X181098000Y-124244000D01*
X180598000Y-124244000D01*
X180598000Y-123694000D01*
X179375705Y-123694000D01*
X179375704Y-123694001D01*
X178781500Y-123694001D01*
X178781500Y-121628500D01*
X178801185Y-121561461D01*
X178853989Y-121515706D01*
X178905500Y-121504500D01*
X179357093Y-121504500D01*
X179424132Y-121524185D01*
X179469887Y-121576989D01*
X179479831Y-121646147D01*
X179463825Y-121691620D01*
X179421257Y-121763599D01*
X179421254Y-121763606D01*
X179375402Y-121921426D01*
X179375401Y-121921432D01*
X179372500Y-121958298D01*
X179372500Y-122389701D01*
X179375401Y-122426567D01*
X179375402Y-122426573D01*
X179421254Y-122584393D01*
X179421255Y-122584396D01*
X179421256Y-122584398D01*
X179453036Y-122638135D01*
X179504917Y-122725862D01*
X179509702Y-122732031D01*
X179507369Y-122733840D01*
X179534210Y-122782995D01*
X179529226Y-122852687D01*
X179508470Y-122885021D01*
X179510097Y-122886283D01*
X179505313Y-122892449D01*
X179421718Y-123033801D01*
X179375899Y-123191513D01*
X179375704Y-123193998D01*
X179375705Y-123194000D01*
X182327076Y-123194000D01*
X182371864Y-123167208D01*
X182441698Y-123169450D01*
X182490643Y-123199564D01*
X183861453Y-124570374D01*
X183861463Y-124570385D01*
X183865793Y-124574715D01*
X183865794Y-124574716D01*
X183977598Y-124686520D01*
X183977600Y-124686521D01*
X184022717Y-124712569D01*
X184022716Y-124712569D01*
X184022719Y-124712570D01*
X184114523Y-124765574D01*
X184114524Y-124765575D01*
X184114526Y-124765575D01*
X184114529Y-124765577D01*
X184267257Y-124806501D01*
X184267260Y-124806501D01*
X184432967Y-124806501D01*
X184432983Y-124806500D01*
X186730331Y-124806500D01*
X186730347Y-124806501D01*
X186737943Y-124806501D01*
X186896054Y-124806501D01*
X186896057Y-124806501D01*
X187048785Y-124765577D01*
X187140597Y-124712569D01*
X187185716Y-124686520D01*
X187297520Y-124574716D01*
X187297520Y-124574715D01*
X187314948Y-124557287D01*
X187314953Y-124557280D01*
X187553520Y-124318716D01*
X187561138Y-124305522D01*
X187598332Y-124241099D01*
X187632577Y-124181784D01*
X187673501Y-124029057D01*
X187673501Y-123870942D01*
X187673501Y-123863347D01*
X187673500Y-123863329D01*
X187673500Y-123192507D01*
X187673501Y-123192494D01*
X187673501Y-123024393D01*
X187673501Y-123024391D01*
X187632577Y-122871663D01*
X187590958Y-122799577D01*
X187553520Y-122734732D01*
X187441716Y-122622928D01*
X187441715Y-122622927D01*
X187437385Y-122618597D01*
X187437374Y-122618587D01*
X187309178Y-122490391D01*
X187275693Y-122429068D01*
X187273242Y-122392976D01*
X187273326Y-122391897D01*
X187273500Y-122389694D01*
X187273500Y-121958306D01*
X187270598Y-121921431D01*
X187266781Y-121908294D01*
X187224745Y-121763606D01*
X187224744Y-121763602D01*
X187213589Y-121744740D01*
X187182175Y-121691620D01*
X187164992Y-121623896D01*
X187187152Y-121557634D01*
X187241619Y-121513871D01*
X187288907Y-121504500D01*
X188759500Y-121504500D01*
X188826539Y-121524185D01*
X188872294Y-121576989D01*
X188883500Y-121628500D01*
X188883500Y-125121699D01*
X188863815Y-125188738D01*
X188811011Y-125234493D01*
X188798507Y-125239403D01*
X188765962Y-125250188D01*
X188714668Y-125267185D01*
X188714663Y-125267187D01*
X188565342Y-125359289D01*
X188441289Y-125483342D01*
X188349187Y-125632663D01*
X188349186Y-125632666D01*
X188294001Y-125799203D01*
X188294001Y-125799204D01*
X188294000Y-125799204D01*
X188283500Y-125901983D01*
X188283500Y-126527001D01*
X188283501Y-126527019D01*
X188294000Y-126629796D01*
X188294001Y-126629799D01*
X188327265Y-126730181D01*
X188349186Y-126796334D01*
X188438065Y-126940431D01*
X188441289Y-126945657D01*
X188535304Y-127039672D01*
X188568789Y-127100995D01*
X188563805Y-127170687D01*
X188535305Y-127215034D01*
X188441682Y-127308657D01*
X188349643Y-127457875D01*
X188349641Y-127457880D01*
X188294494Y-127624302D01*
X188294493Y-127624309D01*
X188284000Y-127727013D01*
X188284000Y-127789500D01*
X190683999Y-127789500D01*
X190683999Y-127727028D01*
X190683998Y-127727013D01*
X190673505Y-127624302D01*
X190618358Y-127457880D01*
X190618356Y-127457875D01*
X190526315Y-127308654D01*
X190432695Y-127215034D01*
X190399210Y-127153711D01*
X190404194Y-127084019D01*
X190432691Y-127039676D01*
X190526712Y-126945656D01*
X190570970Y-126873902D01*
X190622917Y-126827179D01*
X190676508Y-126815000D01*
X191092692Y-126815000D01*
X191159731Y-126834685D01*
X191180368Y-126851314D01*
X191240135Y-126911081D01*
X191381602Y-126994744D01*
X191397972Y-126999500D01*
X191539426Y-127040597D01*
X191539429Y-127040597D01*
X191539431Y-127040598D01*
X191576306Y-127043500D01*
X192742500Y-127043500D01*
X192809539Y-127063185D01*
X192855294Y-127115989D01*
X192866500Y-127167500D01*
X192866500Y-127219000D01*
X192846815Y-127286039D01*
X192794011Y-127331794D01*
X192742500Y-127343000D01*
X192479500Y-127343000D01*
X192479500Y-128943000D01*
X192882634Y-128943000D01*
X192882649Y-128942999D01*
X192919489Y-128940100D01*
X192919495Y-128940099D01*
X193077193Y-128894283D01*
X193077196Y-128894282D01*
X193197287Y-128823261D01*
X193265011Y-128806078D01*
X193331273Y-128828238D01*
X193375037Y-128882704D01*
X193382406Y-128952184D01*
X193351042Y-129014618D01*
X193348089Y-129017674D01*
X192903247Y-129462517D01*
X192841924Y-129496002D01*
X192772233Y-129491018D01*
X192727885Y-129462517D01*
X192651657Y-129386289D01*
X192651656Y-129386288D01*
X192502334Y-129294186D01*
X192335797Y-129239001D01*
X192335795Y-129239000D01*
X192233010Y-129228500D01*
X191607998Y-129228500D01*
X191607980Y-129228501D01*
X191505203Y-129239000D01*
X191505200Y-129239001D01*
X191338668Y-129294185D01*
X191338663Y-129294187D01*
X191189342Y-129386289D01*
X191095681Y-129479951D01*
X191034358Y-129513436D01*
X190964666Y-129508452D01*
X190920319Y-129479951D01*
X190826657Y-129386289D01*
X190826656Y-129386288D01*
X190677334Y-129294186D01*
X190510797Y-129239001D01*
X190510795Y-129239000D01*
X190408016Y-129228500D01*
X190290808Y-129228500D01*
X190223769Y-129208815D01*
X190178014Y-129156011D01*
X190168070Y-129086853D01*
X190197095Y-129023297D01*
X190246889Y-128990074D01*
X190246579Y-128989408D01*
X190250927Y-128987380D01*
X190251808Y-128986793D01*
X190253118Y-128986358D01*
X190253124Y-128986356D01*
X190402345Y-128894315D01*
X190526315Y-128770345D01*
X190618356Y-128621124D01*
X190618358Y-128621119D01*
X190673505Y-128454697D01*
X190673506Y-128454690D01*
X190679809Y-128393001D01*
X190994704Y-128393001D01*
X190994899Y-128395486D01*
X191040718Y-128553198D01*
X191124314Y-128694552D01*
X191124321Y-128694561D01*
X191240438Y-128810678D01*
X191240447Y-128810685D01*
X191381803Y-128894282D01*
X191381806Y-128894283D01*
X191539504Y-128940099D01*
X191539510Y-128940100D01*
X191576350Y-128942999D01*
X191576366Y-128943000D01*
X191979500Y-128943000D01*
X191979500Y-128393000D01*
X190994705Y-128393000D01*
X190994704Y-128393001D01*
X190679809Y-128393001D01*
X190683999Y-128351986D01*
X190684000Y-128351973D01*
X190684000Y-128289500D01*
X189734000Y-128289500D01*
X189734000Y-129064539D01*
X189752401Y-129098238D01*
X189747417Y-129167930D01*
X189705545Y-129223863D01*
X189670240Y-129242302D01*
X189513666Y-129294186D01*
X189513663Y-129294187D01*
X189364342Y-129386289D01*
X189240289Y-129510342D01*
X189148187Y-129659663D01*
X189148185Y-129659668D01*
X189137930Y-129690616D01*
X189093001Y-129826203D01*
X189093001Y-129826204D01*
X189093000Y-129826204D01*
X189082500Y-129928983D01*
X189082500Y-130929001D01*
X189082501Y-130929019D01*
X189093000Y-131031796D01*
X189093001Y-131031799D01*
X189103672Y-131064000D01*
X189148186Y-131198334D01*
X189240288Y-131347656D01*
X189364344Y-131471712D01*
X189436096Y-131515968D01*
X189482821Y-131567915D01*
X189495000Y-131621507D01*
X189495000Y-133376500D01*
X189475315Y-133443539D01*
X189422511Y-133489294D01*
X189371000Y-133500500D01*
X131814499Y-133500500D01*
X131747460Y-133480815D01*
X131701705Y-133428011D01*
X131690499Y-133376500D01*
X131690499Y-133159998D01*
X131690498Y-133159981D01*
X131679999Y-133057203D01*
X131679998Y-133057200D01*
X131666707Y-133017091D01*
X131624814Y-132890666D01*
X131532712Y-132741344D01*
X131408656Y-132617288D01*
X131259334Y-132525186D01*
X131092797Y-132470001D01*
X131092795Y-132470000D01*
X130990010Y-132459500D01*
X128089998Y-132459500D01*
X128089981Y-132459501D01*
X127987203Y-132470000D01*
X127987200Y-132470001D01*
X127820668Y-132525185D01*
X127820663Y-132525187D01*
X127671342Y-132617289D01*
X127547289Y-132741342D01*
X127455187Y-132890663D01*
X127455186Y-132890666D01*
X127400001Y-133057203D01*
X127400001Y-133057204D01*
X127400000Y-133057204D01*
X127389500Y-133159983D01*
X127389500Y-133376500D01*
X127369815Y-133443539D01*
X127317011Y-133489294D01*
X127265500Y-133500500D01*
X122345282Y-133500500D01*
X122278243Y-133480815D01*
X122232488Y-133428011D01*
X122226492Y-133412065D01*
X122204327Y-133338032D01*
X122165502Y-133248026D01*
X122065889Y-133017096D01*
X121891130Y-132714404D01*
X121818830Y-132617288D01*
X121682415Y-132434050D01*
X121682410Y-132434044D01*
X121550109Y-132293814D01*
X121442558Y-132179817D01*
X121244374Y-132013521D01*
X121174813Y-131955152D01*
X121174805Y-131955146D01*
X120882796Y-131763088D01*
X120570458Y-131606226D01*
X120570452Y-131606223D01*
X120242012Y-131486681D01*
X120242009Y-131486680D01*
X119901915Y-131406077D01*
X119858519Y-131401004D01*
X119554759Y-131365500D01*
X119205241Y-131365500D01*
X118901480Y-131401004D01*
X118858085Y-131406077D01*
X118858083Y-131406077D01*
X118517990Y-131486680D01*
X118517987Y-131486681D01*
X118189547Y-131606223D01*
X118189541Y-131606226D01*
X117877203Y-131763088D01*
X117585194Y-131955146D01*
X117585186Y-131955152D01*
X117317442Y-132179817D01*
X117317440Y-132179819D01*
X117077589Y-132434044D01*
X117077584Y-132434050D01*
X116868870Y-132714402D01*
X116694113Y-133017091D01*
X116694107Y-133017104D01*
X116555674Y-133338027D01*
X116455430Y-133672865D01*
X116455428Y-133672872D01*
X116394739Y-134017061D01*
X116394738Y-134017072D01*
X116374415Y-134365996D01*
X115674175Y-134365996D01*
X115674135Y-134364369D01*
X115674108Y-134291495D01*
X115674107Y-134291485D01*
X115674098Y-134267623D01*
X115672361Y-129556986D01*
X142830001Y-129556986D01*
X142840494Y-129659697D01*
X142895641Y-129826119D01*
X142895643Y-129826124D01*
X142987684Y-129975345D01*
X143111654Y-130099315D01*
X143260875Y-130191356D01*
X143260880Y-130191358D01*
X143427302Y-130246505D01*
X143427309Y-130246506D01*
X143530019Y-130256999D01*
X143579999Y-130256998D01*
X143580000Y-130256998D01*
X143580000Y-129282000D01*
X142830001Y-129282000D01*
X142830001Y-129556986D01*
X115672361Y-129556986D01*
X115664767Y-108968000D01*
X116399157Y-108968000D01*
X117253012Y-108968000D01*
X117235795Y-108977940D01*
X117179940Y-109033795D01*
X117140444Y-109102204D01*
X117120000Y-109178504D01*
X117120000Y-109257496D01*
X117140444Y-109333796D01*
X117179940Y-109402205D01*
X117235795Y-109458060D01*
X117253012Y-109468000D01*
X116399157Y-109468000D01*
X116410350Y-109524274D01*
X116410351Y-109524276D01*
X116489500Y-109715358D01*
X116489505Y-109715368D01*
X116604410Y-109887335D01*
X116604413Y-109887339D01*
X116750660Y-110033586D01*
X116750664Y-110033589D01*
X116922631Y-110148494D01*
X116922641Y-110148499D01*
X117113725Y-110227649D01*
X117113733Y-110227651D01*
X117316579Y-110267999D01*
X117316583Y-110268000D01*
X117470000Y-110268000D01*
X117470000Y-109518000D01*
X117970000Y-109518000D01*
X117970000Y-110268000D01*
X118123417Y-110268000D01*
X118123420Y-110267999D01*
X118326266Y-110227651D01*
X118326274Y-110227649D01*
X118517358Y-110148499D01*
X118517368Y-110148494D01*
X118690609Y-110032738D01*
X118757286Y-110011860D01*
X118824667Y-110030344D01*
X118871357Y-110082323D01*
X118883500Y-110135840D01*
X118883500Y-116940159D01*
X118863815Y-117007198D01*
X118811011Y-117052953D01*
X118741853Y-117062897D01*
X118690609Y-117043261D01*
X118517368Y-116927505D01*
X118517358Y-116927500D01*
X118326274Y-116848350D01*
X118326266Y-116848348D01*
X118123420Y-116808000D01*
X117970000Y-116808000D01*
X117970000Y-117558000D01*
X117470000Y-117558000D01*
X117470000Y-116808000D01*
X117316579Y-116808000D01*
X117113733Y-116848348D01*
X117113725Y-116848350D01*
X116922641Y-116927500D01*
X116922631Y-116927505D01*
X116750664Y-117042410D01*
X116750660Y-117042413D01*
X116604413Y-117188660D01*
X116604410Y-117188664D01*
X116489505Y-117360631D01*
X116489500Y-117360641D01*
X116410351Y-117551723D01*
X116410350Y-117551725D01*
X116399157Y-117608000D01*
X117253012Y-117608000D01*
X117235795Y-117617940D01*
X117179940Y-117673795D01*
X117140444Y-117742204D01*
X117120000Y-117818504D01*
X117120000Y-117897496D01*
X117140444Y-117973796D01*
X117179940Y-118042205D01*
X117235795Y-118098060D01*
X117253012Y-118108000D01*
X116399157Y-118108000D01*
X116410350Y-118164274D01*
X116410351Y-118164276D01*
X116489500Y-118355358D01*
X116489505Y-118355368D01*
X116604410Y-118527335D01*
X116604413Y-118527339D01*
X116750660Y-118673586D01*
X116750664Y-118673589D01*
X116922631Y-118788494D01*
X116922641Y-118788499D01*
X117113725Y-118867649D01*
X117113733Y-118867651D01*
X117316579Y-118907999D01*
X117316583Y-118908000D01*
X117470000Y-118908000D01*
X117470000Y-118158000D01*
X117970000Y-118158000D01*
X117970000Y-118908000D01*
X118123417Y-118908000D01*
X118123420Y-118907999D01*
X118326266Y-118867651D01*
X118326274Y-118867649D01*
X118517358Y-118788499D01*
X118517368Y-118788494D01*
X118690609Y-118672738D01*
X118757286Y-118651860D01*
X118824667Y-118670344D01*
X118871357Y-118722323D01*
X118883500Y-118775840D01*
X118883500Y-119961918D01*
X118883500Y-119961920D01*
X118883499Y-119961920D01*
X118912340Y-120106907D01*
X118912343Y-120106917D01*
X118968913Y-120243490D01*
X118968914Y-120243491D01*
X118968916Y-120243495D01*
X118982124Y-120263262D01*
X118997327Y-120286016D01*
X119051051Y-120366420D01*
X119051052Y-120366421D01*
X124705549Y-126020916D01*
X126573048Y-127888415D01*
X126573049Y-127888416D01*
X126629377Y-127944744D01*
X126677585Y-127992952D01*
X126800498Y-128075080D01*
X126800511Y-128075087D01*
X126913179Y-128121755D01*
X126937087Y-128131658D01*
X126937091Y-128131658D01*
X126937092Y-128131659D01*
X127082079Y-128160500D01*
X127082082Y-128160500D01*
X127265501Y-128160500D01*
X127332540Y-128180185D01*
X127378295Y-128232989D01*
X127389501Y-128284500D01*
X127389501Y-128460018D01*
X127400000Y-128562796D01*
X127400001Y-128562799D01*
X127438970Y-128680398D01*
X127455186Y-128729334D01*
X127547288Y-128878656D01*
X127671344Y-129002712D01*
X127820666Y-129094814D01*
X127987203Y-129149999D01*
X128089991Y-129160500D01*
X130990008Y-129160499D01*
X131092797Y-129149999D01*
X131259334Y-129094814D01*
X131408656Y-129002712D01*
X131532712Y-128878656D01*
X131624814Y-128729334D01*
X131679999Y-128562797D01*
X131690500Y-128460009D01*
X131690499Y-126359992D01*
X131690380Y-126358831D01*
X131679999Y-126257203D01*
X131679998Y-126257200D01*
X131672889Y-126235747D01*
X131624814Y-126090666D01*
X131532712Y-125941344D01*
X131408656Y-125817288D01*
X131304858Y-125753265D01*
X131259336Y-125725187D01*
X131259331Y-125725185D01*
X131206821Y-125707785D01*
X131092797Y-125670001D01*
X131092795Y-125670000D01*
X130990010Y-125659500D01*
X128089998Y-125659500D01*
X128089981Y-125659501D01*
X127987203Y-125670000D01*
X127987200Y-125670001D01*
X127820668Y-125725185D01*
X127820663Y-125725187D01*
X127671342Y-125817289D01*
X127547289Y-125941342D01*
X127455187Y-126090663D01*
X127455185Y-126090668D01*
X127441086Y-126133216D01*
X127400001Y-126257203D01*
X127400001Y-126257204D01*
X127400000Y-126257204D01*
X127395429Y-126301947D01*
X127369031Y-126366638D01*
X127311850Y-126406788D01*
X127242039Y-126409650D01*
X127184390Y-126377023D01*
X123883617Y-123076250D01*
X120420819Y-119613451D01*
X120387334Y-119552128D01*
X120384500Y-119525770D01*
X120384500Y-118794549D01*
X120404185Y-118727510D01*
X120456989Y-118681755D01*
X120526147Y-118671811D01*
X120577391Y-118691447D01*
X120722631Y-118788494D01*
X120722641Y-118788499D01*
X120913725Y-118867649D01*
X120913733Y-118867651D01*
X121116579Y-118907999D01*
X121116583Y-118908000D01*
X121270000Y-118908000D01*
X121270000Y-118158000D01*
X121770000Y-118158000D01*
X121770000Y-118908000D01*
X121923417Y-118908000D01*
X121923420Y-118907999D01*
X122126266Y-118867651D01*
X122126274Y-118867649D01*
X122317358Y-118788499D01*
X122317368Y-118788494D01*
X122489335Y-118673589D01*
X122489339Y-118673586D01*
X122635586Y-118527339D01*
X122635589Y-118527335D01*
X122689945Y-118445986D01*
X124657001Y-118445986D01*
X124667494Y-118548697D01*
X124722641Y-118715119D01*
X124722643Y-118715124D01*
X124814684Y-118864345D01*
X124938654Y-118988315D01*
X125087875Y-119080356D01*
X125087880Y-119080358D01*
X125254302Y-119135505D01*
X125254309Y-119135506D01*
X125357019Y-119145999D01*
X125606999Y-119145999D01*
X126107000Y-119145999D01*
X126356972Y-119145999D01*
X126356986Y-119145998D01*
X126459697Y-119135505D01*
X126626119Y-119080358D01*
X126626124Y-119080356D01*
X126775345Y-118988315D01*
X126899315Y-118864345D01*
X126991356Y-118715124D01*
X126991358Y-118715119D01*
X127046505Y-118548697D01*
X127046506Y-118548690D01*
X127056999Y-118445986D01*
X127057000Y-118445973D01*
X127057000Y-118383500D01*
X126107000Y-118383500D01*
X126107000Y-119145999D01*
X125606999Y-119145999D01*
X125607000Y-119145998D01*
X125607000Y-118383500D01*
X124657001Y-118383500D01*
X124657001Y-118445986D01*
X122689945Y-118445986D01*
X122750494Y-118355368D01*
X122750499Y-118355358D01*
X122829648Y-118164276D01*
X122829649Y-118164274D01*
X122840843Y-118108000D01*
X121986988Y-118108000D01*
X122004205Y-118098060D01*
X122060060Y-118042205D01*
X122099556Y-117973796D01*
X122120000Y-117897496D01*
X122120000Y-117818504D01*
X122099556Y-117742204D01*
X122060060Y-117673795D01*
X122004205Y-117617940D01*
X121986988Y-117608000D01*
X122840843Y-117608000D01*
X122829649Y-117551725D01*
X122829648Y-117551723D01*
X122750499Y-117360641D01*
X122750494Y-117360631D01*
X122635589Y-117188664D01*
X122635586Y-117188660D01*
X122550118Y-117103192D01*
X122516633Y-117041869D01*
X122521617Y-116972177D01*
X122550126Y-116927821D01*
X122555075Y-116922872D01*
X122643019Y-116777395D01*
X122693590Y-116615106D01*
X122700000Y-116544572D01*
X122700000Y-116538000D01*
X121850000Y-116538000D01*
X121850000Y-117107000D01*
X121830315Y-117174039D01*
X121805190Y-117195809D01*
X121770000Y-117231000D01*
X121770000Y-117558000D01*
X121270000Y-117558000D01*
X121270000Y-116889000D01*
X121289685Y-116821961D01*
X121314809Y-116800190D01*
X121350000Y-116765000D01*
X121350000Y-116162000D01*
X121369685Y-116094961D01*
X121422489Y-116049206D01*
X121474000Y-116038000D01*
X122699999Y-116038000D01*
X122699999Y-116031417D01*
X122693591Y-115960897D01*
X122693590Y-115960892D01*
X122643018Y-115798603D01*
X122602295Y-115731238D01*
X122584459Y-115663683D01*
X122602293Y-115602944D01*
X122638497Y-115543054D01*
X122690022Y-115495870D01*
X122758882Y-115484032D01*
X122823210Y-115511301D01*
X122832292Y-115519527D01*
X123985639Y-116672874D01*
X123985649Y-116672885D01*
X123989979Y-116677215D01*
X123989980Y-116677216D01*
X124101784Y-116789020D01*
X124101786Y-116789021D01*
X124101790Y-116789024D01*
X124151450Y-116817695D01*
X124151455Y-116817697D01*
X124238709Y-116868074D01*
X124238710Y-116868075D01*
X124238712Y-116868075D01*
X124238715Y-116868077D01*
X124391443Y-116909001D01*
X124391446Y-116909001D01*
X124557153Y-116909001D01*
X124557169Y-116909000D01*
X124664492Y-116909000D01*
X124731531Y-116928685D01*
X124770029Y-116967901D01*
X124789878Y-117000081D01*
X124814289Y-117039657D01*
X124908304Y-117133672D01*
X124941789Y-117194995D01*
X124936805Y-117264687D01*
X124908305Y-117309034D01*
X124814682Y-117402657D01*
X124722643Y-117551875D01*
X124722641Y-117551880D01*
X124667494Y-117718302D01*
X124667493Y-117718309D01*
X124657000Y-117821013D01*
X124657000Y-117883500D01*
X127056999Y-117883500D01*
X127056999Y-117821028D01*
X127056998Y-117821013D01*
X127046505Y-117718302D01*
X126991358Y-117551880D01*
X126991356Y-117551875D01*
X126899315Y-117402654D01*
X126805695Y-117309034D01*
X126772210Y-117247711D01*
X126777194Y-117178019D01*
X126805691Y-117133676D01*
X126899712Y-117039656D01*
X126991814Y-116890334D01*
X127046999Y-116723797D01*
X127057500Y-116621009D01*
X127057499Y-115995992D01*
X127053913Y-115960892D01*
X127046999Y-115893203D01*
X127046998Y-115893200D01*
X127043383Y-115882291D01*
X126991814Y-115726666D01*
X126899712Y-115577344D01*
X126775656Y-115453288D01*
X126626334Y-115361186D01*
X126459797Y-115306001D01*
X126459795Y-115306000D01*
X126357010Y-115295500D01*
X125356998Y-115295500D01*
X125356980Y-115295501D01*
X125254203Y-115306000D01*
X125254200Y-115306001D01*
X125087668Y-115361185D01*
X125087663Y-115361187D01*
X124938342Y-115453289D01*
X124814288Y-115577343D01*
X124814286Y-115577346D01*
X124810505Y-115583476D01*
X124758555Y-115630197D01*
X124689591Y-115641416D01*
X124625511Y-115613569D01*
X124617289Y-115606054D01*
X122690005Y-113678770D01*
X122659301Y-113627979D01*
X122643281Y-113576569D01*
X122646017Y-113575716D01*
X122638268Y-113519700D01*
X122644140Y-113499701D01*
X122643280Y-113499433D01*
X122645512Y-113492270D01*
X122659299Y-113448024D01*
X122670161Y-113430068D01*
X122667499Y-113428737D01*
X122667503Y-113428729D01*
X122689096Y-113398770D01*
X122690063Y-113397172D01*
X122690723Y-113396512D01*
X122690726Y-113396507D01*
X124617291Y-111469943D01*
X124678612Y-111436460D01*
X124748304Y-111441444D01*
X124804237Y-111483316D01*
X124810507Y-111492527D01*
X124814285Y-111498653D01*
X124814288Y-111498656D01*
X124938344Y-111622712D01*
X125087666Y-111714814D01*
X125254203Y-111769999D01*
X125356991Y-111780500D01*
X126357008Y-111780499D01*
X126357016Y-111780498D01*
X126357019Y-111780498D01*
X126413302Y-111774748D01*
X126459797Y-111769999D01*
X126626334Y-111714814D01*
X126775656Y-111622712D01*
X126899712Y-111498656D01*
X126991814Y-111349334D01*
X127046999Y-111182797D01*
X127057500Y-111080009D01*
X127057499Y-110454992D01*
X127052545Y-110406500D01*
X127046999Y-110352203D01*
X127046998Y-110352200D01*
X127036744Y-110321256D01*
X126991814Y-110185666D01*
X126899712Y-110036344D01*
X126805695Y-109942327D01*
X126772210Y-109881004D01*
X126777194Y-109811312D01*
X126805695Y-109766964D01*
X126899317Y-109673342D01*
X126991356Y-109524124D01*
X126991358Y-109524119D01*
X127046505Y-109357697D01*
X127046506Y-109357690D01*
X127056999Y-109254986D01*
X127057000Y-109254973D01*
X127057000Y-109192500D01*
X124657001Y-109192500D01*
X124657001Y-109254986D01*
X124667494Y-109357697D01*
X124722641Y-109524119D01*
X124722643Y-109524124D01*
X124814684Y-109673345D01*
X124908304Y-109766965D01*
X124941789Y-109828288D01*
X124936805Y-109897980D01*
X124908305Y-109942327D01*
X124814287Y-110036345D01*
X124770031Y-110108097D01*
X124718083Y-110154821D01*
X124664492Y-110167000D01*
X124557169Y-110167000D01*
X124557153Y-110166999D01*
X124549557Y-110166999D01*
X124391443Y-110166999D01*
X124284087Y-110195765D01*
X124238710Y-110207924D01*
X124238709Y-110207925D01*
X124193993Y-110233743D01*
X124193991Y-110233744D01*
X124101790Y-110286975D01*
X124101782Y-110286981D01*
X123989978Y-110398786D01*
X122832292Y-111556471D01*
X122770969Y-111589956D01*
X122701277Y-111584972D01*
X122645344Y-111543100D01*
X122638494Y-111532940D01*
X122635638Y-111528215D01*
X122602294Y-111473057D01*
X122584459Y-111405506D01*
X122602296Y-111344759D01*
X122643018Y-111277398D01*
X122643020Y-111277393D01*
X122693590Y-111115106D01*
X122700000Y-111044572D01*
X122700000Y-111038000D01*
X121474000Y-111038000D01*
X121406961Y-111018315D01*
X121361206Y-110965511D01*
X121350000Y-110914000D01*
X121350000Y-110311000D01*
X121331709Y-110292709D01*
X121326961Y-110291315D01*
X121281206Y-110238511D01*
X121270000Y-110187000D01*
X121270000Y-109518000D01*
X121770000Y-109518000D01*
X121770000Y-109845000D01*
X121788290Y-109863290D01*
X121793039Y-109864685D01*
X121838794Y-109917489D01*
X121850000Y-109969000D01*
X121850000Y-110538000D01*
X122699999Y-110538000D01*
X122699999Y-110531417D01*
X122693591Y-110460897D01*
X122693590Y-110460892D01*
X122643018Y-110298603D01*
X122555072Y-110153122D01*
X122550118Y-110148168D01*
X122516633Y-110086845D01*
X122521617Y-110017153D01*
X122550119Y-109972805D01*
X122635586Y-109887339D01*
X122635589Y-109887335D01*
X122750494Y-109715368D01*
X122750499Y-109715358D01*
X122829648Y-109524276D01*
X122829649Y-109524274D01*
X122840843Y-109468000D01*
X121986988Y-109468000D01*
X122004205Y-109458060D01*
X122060060Y-109402205D01*
X122099556Y-109333796D01*
X122120000Y-109257496D01*
X122120000Y-109178504D01*
X122099556Y-109102204D01*
X122060060Y-109033795D01*
X122004205Y-108977940D01*
X121986988Y-108968000D01*
X122840843Y-108968000D01*
X122829649Y-108911725D01*
X122829648Y-108911723D01*
X122750499Y-108720641D01*
X122750494Y-108720631D01*
X122689945Y-108630013D01*
X124657000Y-108630013D01*
X124657000Y-108692500D01*
X125607000Y-108692500D01*
X125607000Y-107930000D01*
X125357029Y-107930000D01*
X125357012Y-107930001D01*
X125254302Y-107940494D01*
X125087880Y-107995641D01*
X125087875Y-107995643D01*
X124938654Y-108087684D01*
X124814684Y-108211654D01*
X124722643Y-108360875D01*
X124722641Y-108360880D01*
X124667494Y-108527302D01*
X124667493Y-108527309D01*
X124657000Y-108630013D01*
X122689945Y-108630013D01*
X122635589Y-108548664D01*
X122635586Y-108548660D01*
X122489339Y-108402413D01*
X122489335Y-108402410D01*
X122317368Y-108287505D01*
X122317358Y-108287500D01*
X122126274Y-108208350D01*
X122126266Y-108208348D01*
X121923420Y-108168000D01*
X121665729Y-108168000D01*
X121598690Y-108148315D01*
X121552935Y-108095511D01*
X121542991Y-108026353D01*
X121572016Y-107962797D01*
X121578048Y-107956319D01*
X123864318Y-105670048D01*
X123925641Y-105636563D01*
X123995333Y-105641547D01*
X124039680Y-105670048D01*
X126115635Y-107746003D01*
X126149120Y-107807326D01*
X126144136Y-107877018D01*
X126115635Y-107921365D01*
X126107000Y-107930000D01*
X126107000Y-108692500D01*
X127067013Y-108692500D01*
X127106271Y-108671062D01*
X127156824Y-108670611D01*
X127162086Y-108671657D01*
X127162087Y-108671658D01*
X127178158Y-108674854D01*
X127307079Y-108700500D01*
X127307082Y-108700500D01*
X139392920Y-108700500D01*
X139490462Y-108681096D01*
X139537913Y-108671658D01*
X139674495Y-108615084D01*
X139723729Y-108582186D01*
X139797416Y-108532952D01*
X144917951Y-103412416D01*
X145000084Y-103289495D01*
X145056658Y-103152913D01*
X145085500Y-103007918D01*
X145085500Y-102860083D01*
X145085500Y-101288195D01*
X145105185Y-101221156D01*
X145157989Y-101175401D01*
X145166145Y-101172021D01*
X145212331Y-101154796D01*
X145327546Y-101068546D01*
X145413796Y-100953331D01*
X145464091Y-100818483D01*
X145470500Y-100758873D01*
X145470499Y-98609594D01*
X145490184Y-98542556D01*
X145542987Y-98496801D01*
X145547047Y-98495034D01*
X145643490Y-98455086D01*
X145643489Y-98455086D01*
X145643495Y-98455084D01*
X145692729Y-98422186D01*
X145766416Y-98372952D01*
X149946951Y-94192416D01*
X150029084Y-94069495D01*
X150033563Y-94058683D01*
X150085656Y-93932917D01*
X150085658Y-93932913D01*
X150086425Y-93929057D01*
X150098487Y-93868420D01*
X150114500Y-93787920D01*
X150114500Y-93420438D01*
X150134185Y-93353399D01*
X150139234Y-93346126D01*
X150157796Y-93321331D01*
X150208091Y-93186483D01*
X150214500Y-93126873D01*
X150214499Y-91531128D01*
X150208091Y-91471517D01*
X150203795Y-91460000D01*
X150157797Y-91336671D01*
X150157793Y-91336664D01*
X150071547Y-91221455D01*
X150071544Y-91221452D01*
X149956335Y-91135206D01*
X149956328Y-91135202D01*
X149821482Y-91084908D01*
X149821483Y-91084908D01*
X149761883Y-91078501D01*
X149761881Y-91078500D01*
X149761873Y-91078500D01*
X149761865Y-91078500D01*
X149346680Y-91078500D01*
X149279641Y-91058815D01*
X149233886Y-91006011D01*
X149223942Y-90936853D01*
X149233738Y-90906976D01*
X149232444Y-90906440D01*
X149285437Y-90778501D01*
X149287580Y-90773328D01*
X149310702Y-90657086D01*
X149314500Y-90637995D01*
X149314500Y-90500004D01*
X149287581Y-90364677D01*
X149287580Y-90364676D01*
X149287580Y-90364672D01*
X149266093Y-90312797D01*
X149234778Y-90237195D01*
X149234771Y-90237182D01*
X149158114Y-90122458D01*
X149158111Y-90122454D01*
X149060545Y-90024888D01*
X149060541Y-90024885D01*
X148945817Y-89948228D01*
X148945804Y-89948221D01*
X148818332Y-89895421D01*
X148818322Y-89895418D01*
X148682995Y-89868500D01*
X148682993Y-89868500D01*
X148545007Y-89868500D01*
X148545005Y-89868500D01*
X148409677Y-89895418D01*
X148409667Y-89895421D01*
X148282195Y-89948221D01*
X148282182Y-89948228D01*
X148167458Y-90024885D01*
X148167454Y-90024888D01*
X148069888Y-90122454D01*
X148069885Y-90122458D01*
X147993228Y-90237182D01*
X147993221Y-90237195D01*
X147940421Y-90364667D01*
X147940418Y-90364677D01*
X147913500Y-90500004D01*
X147913500Y-90500007D01*
X147913500Y-90637993D01*
X147913500Y-90637995D01*
X147913499Y-90637995D01*
X147940418Y-90773322D01*
X147940421Y-90773332D01*
X147995556Y-90906440D01*
X147993057Y-90907475D01*
X148004920Y-90964447D01*
X147979922Y-91029691D01*
X147923617Y-91071063D01*
X147881320Y-91078500D01*
X147501181Y-91078500D01*
X147434142Y-91058815D01*
X147401915Y-91028812D01*
X147353325Y-90963905D01*
X147321546Y-90921454D01*
X147321544Y-90921453D01*
X147321544Y-90921452D01*
X147206335Y-90835206D01*
X147206328Y-90835202D01*
X147071482Y-90784908D01*
X147071483Y-90784908D01*
X147011883Y-90778501D01*
X147011881Y-90778500D01*
X147011873Y-90778500D01*
X147011864Y-90778500D01*
X145916129Y-90778500D01*
X145916123Y-90778501D01*
X145856516Y-90784908D01*
X145721671Y-90835202D01*
X145721664Y-90835206D01*
X145606455Y-90921452D01*
X145606452Y-90921455D01*
X145520206Y-91036664D01*
X145520202Y-91036671D01*
X145469908Y-91171517D01*
X145464540Y-91221452D01*
X145463501Y-91231123D01*
X145463500Y-91231135D01*
X145463500Y-92126870D01*
X145463501Y-92126876D01*
X145469908Y-92186483D01*
X145520202Y-92321328D01*
X145520206Y-92321335D01*
X145606452Y-92436544D01*
X145606455Y-92436547D01*
X145721664Y-92522793D01*
X145721671Y-92522797D01*
X145856517Y-92573091D01*
X145856516Y-92573091D01*
X145863444Y-92573835D01*
X145916127Y-92579500D01*
X146889500Y-92579499D01*
X146956539Y-92599183D01*
X147002294Y-92651987D01*
X147013500Y-92703499D01*
X147013500Y-93126870D01*
X147013501Y-93126876D01*
X147019908Y-93186483D01*
X147070202Y-93321328D01*
X147070206Y-93321335D01*
X147156452Y-93436544D01*
X147156455Y-93436547D01*
X147271664Y-93522793D01*
X147271671Y-93522797D01*
X147406517Y-93573091D01*
X147406516Y-93573091D01*
X147413444Y-93573835D01*
X147466127Y-93579500D01*
X148137770Y-93579499D01*
X148204809Y-93599183D01*
X148250564Y-93651987D01*
X148260508Y-93721146D01*
X148231483Y-93784702D01*
X148225451Y-93791180D01*
X145682180Y-96334451D01*
X145620857Y-96367936D01*
X145551165Y-96362952D01*
X145495232Y-96321080D01*
X145470815Y-96255616D01*
X145470499Y-96246770D01*
X145470499Y-95583129D01*
X145470498Y-95583123D01*
X145470497Y-95583116D01*
X145464091Y-95523517D01*
X145447698Y-95479566D01*
X145413797Y-95388671D01*
X145413793Y-95388664D01*
X145327547Y-95273455D01*
X145327544Y-95273452D01*
X145212335Y-95187206D01*
X145212328Y-95187202D01*
X145077482Y-95136908D01*
X145077483Y-95136908D01*
X145017883Y-95130501D01*
X145017881Y-95130500D01*
X145017873Y-95130500D01*
X145017864Y-95130500D01*
X143652129Y-95130500D01*
X143652123Y-95130501D01*
X143592516Y-95136908D01*
X143457671Y-95187202D01*
X143457664Y-95187206D01*
X143342455Y-95273452D01*
X143342452Y-95273455D01*
X143256206Y-95388664D01*
X143256202Y-95388671D01*
X143205908Y-95523517D01*
X143199501Y-95583116D01*
X143199501Y-95583123D01*
X143199500Y-95583135D01*
X143199500Y-100758870D01*
X143199501Y-100758876D01*
X143205908Y-100818483D01*
X143256202Y-100953328D01*
X143256206Y-100953335D01*
X143342452Y-101068544D01*
X143342455Y-101068547D01*
X143457666Y-101154794D01*
X143457667Y-101154794D01*
X143457669Y-101154796D01*
X143503833Y-101172013D01*
X143559765Y-101213882D01*
X143584184Y-101279346D01*
X143584500Y-101288195D01*
X143584500Y-102571770D01*
X143564815Y-102638809D01*
X143548181Y-102659451D01*
X139044451Y-107163181D01*
X138983128Y-107196666D01*
X138956770Y-107199500D01*
X136728924Y-107199500D01*
X136661885Y-107179815D01*
X136616130Y-107127011D01*
X136606186Y-107057853D01*
X136635211Y-106994297D01*
X136685245Y-106959448D01*
X136949132Y-106860127D01*
X136949155Y-106860118D01*
X137509732Y-106606123D01*
X137509759Y-106606110D01*
X138052504Y-106316008D01*
X138052526Y-106315995D01*
X138575145Y-105991010D01*
X138575155Y-105991004D01*
X139075422Y-105632517D01*
X139551161Y-105242087D01*
X139551181Y-105242070D01*
X139817800Y-104992354D01*
X139817801Y-104992354D01*
X133350000Y-98524553D01*
X126882198Y-104992354D01*
X127148818Y-105242070D01*
X127148838Y-105242087D01*
X127624577Y-105632517D01*
X127624576Y-105632517D01*
X128124844Y-105991004D01*
X128124854Y-105991010D01*
X128647473Y-106315995D01*
X128647495Y-106316008D01*
X129190240Y-106606110D01*
X129190267Y-106606123D01*
X129750844Y-106860118D01*
X129750867Y-106860127D01*
X130014755Y-106959448D01*
X130070564Y-107001485D01*
X130094786Y-107067022D01*
X130079731Y-107135250D01*
X130030179Y-107184509D01*
X129971076Y-107199500D01*
X127743229Y-107199500D01*
X127676190Y-107179815D01*
X127655548Y-107163181D01*
X123151819Y-102659451D01*
X123118334Y-102598128D01*
X123115500Y-102571770D01*
X123115500Y-101288195D01*
X123135185Y-101221156D01*
X123187989Y-101175401D01*
X123196145Y-101172021D01*
X123242331Y-101154796D01*
X123357546Y-101068546D01*
X123443796Y-100953331D01*
X123494091Y-100818483D01*
X123500500Y-100758873D01*
X123500499Y-98171000D01*
X123944964Y-98171000D01*
X123965101Y-98786130D01*
X124025424Y-99398598D01*
X124125678Y-100005828D01*
X124265432Y-100605201D01*
X124265435Y-100605209D01*
X124444086Y-101194144D01*
X124444091Y-101194159D01*
X124660872Y-101770132D01*
X124660881Y-101770155D01*
X124914876Y-102330732D01*
X124914889Y-102330759D01*
X125204991Y-102873504D01*
X125205004Y-102873526D01*
X125529989Y-103396145D01*
X125529995Y-103396155D01*
X125888482Y-103896422D01*
X126278912Y-104372161D01*
X126278929Y-104372181D01*
X126528645Y-104638801D01*
X132996447Y-98171000D01*
X132996447Y-98170999D01*
X133703553Y-98170999D01*
X133703553Y-98171000D01*
X140171353Y-104638801D01*
X140171354Y-104638800D01*
X140421070Y-104372181D01*
X140421087Y-104372161D01*
X140811517Y-103896422D01*
X141170004Y-103396155D01*
X141170010Y-103396145D01*
X141494995Y-102873526D01*
X141495008Y-102873504D01*
X141785110Y-102330759D01*
X141785123Y-102330732D01*
X142039118Y-101770155D01*
X142039127Y-101770132D01*
X142255908Y-101194159D01*
X142255913Y-101194144D01*
X142434564Y-100605209D01*
X142434567Y-100605201D01*
X142574321Y-100005828D01*
X142674575Y-99398598D01*
X142734898Y-98786130D01*
X142755035Y-98171000D01*
X142734898Y-97555869D01*
X142674575Y-96943401D01*
X142574321Y-96336171D01*
X142434567Y-95736798D01*
X142434564Y-95736790D01*
X142255913Y-95147855D01*
X142255908Y-95147840D01*
X142039127Y-94571867D01*
X142039118Y-94571844D01*
X141785123Y-94011267D01*
X141785110Y-94011240D01*
X141495008Y-93468495D01*
X141494995Y-93468473D01*
X141170010Y-92945854D01*
X141170004Y-92945844D01*
X140811517Y-92445577D01*
X140421087Y-91969838D01*
X140421070Y-91969818D01*
X140171354Y-91703198D01*
X133703553Y-98170999D01*
X132996447Y-98170999D01*
X126528645Y-91703198D01*
X126278914Y-91969835D01*
X126278912Y-91969838D01*
X125888482Y-92445577D01*
X125529995Y-92945844D01*
X125529989Y-92945854D01*
X125205004Y-93468473D01*
X125204991Y-93468495D01*
X124914889Y-94011240D01*
X124914876Y-94011267D01*
X124660881Y-94571844D01*
X124660872Y-94571867D01*
X124444091Y-95147840D01*
X124444086Y-95147855D01*
X124265435Y-95736790D01*
X124265432Y-95736798D01*
X124125678Y-96336171D01*
X124025424Y-96943401D01*
X123965101Y-97555869D01*
X123944964Y-98171000D01*
X123500499Y-98171000D01*
X123500499Y-95583128D01*
X123494091Y-95523517D01*
X123477698Y-95479566D01*
X123443797Y-95388671D01*
X123443793Y-95388664D01*
X123357547Y-95273455D01*
X123357544Y-95273452D01*
X123242335Y-95187206D01*
X123242328Y-95187202D01*
X123107482Y-95136908D01*
X123107483Y-95136908D01*
X123047883Y-95130501D01*
X123047881Y-95130500D01*
X123047873Y-95130500D01*
X123047864Y-95130500D01*
X121682129Y-95130500D01*
X121682123Y-95130501D01*
X121622516Y-95136908D01*
X121487671Y-95187202D01*
X121487665Y-95187206D01*
X121420976Y-95237129D01*
X121380879Y-95252084D01*
X121375671Y-95268837D01*
X121371697Y-95274465D01*
X121286204Y-95388669D01*
X121286202Y-95388671D01*
X121235908Y-95523517D01*
X121229501Y-95583116D01*
X121229501Y-95583123D01*
X121229500Y-95583135D01*
X121229500Y-100758870D01*
X121229501Y-100758876D01*
X121235908Y-100818483D01*
X121286202Y-100953328D01*
X121286206Y-100953335D01*
X121372452Y-101068544D01*
X121372455Y-101068547D01*
X121487666Y-101154794D01*
X121487667Y-101154794D01*
X121487669Y-101154796D01*
X121533833Y-101172013D01*
X121589765Y-101213882D01*
X121614184Y-101279346D01*
X121614500Y-101288195D01*
X121614500Y-103007918D01*
X121614500Y-103007920D01*
X121614499Y-103007920D01*
X121643340Y-103152907D01*
X121643343Y-103152917D01*
X121699914Y-103289492D01*
X121732812Y-103338727D01*
X121732813Y-103338730D01*
X121782046Y-103412414D01*
X121782052Y-103412421D01*
X122802950Y-104433319D01*
X122836435Y-104494642D01*
X122831451Y-104564334D01*
X122802950Y-104608681D01*
X119051049Y-108360582D01*
X119051048Y-108360584D01*
X119030521Y-108391306D01*
X119023102Y-108402410D01*
X118973357Y-108476858D01*
X118919744Y-108521663D01*
X118850419Y-108530370D01*
X118787392Y-108500215D01*
X118782574Y-108495648D01*
X118689339Y-108402413D01*
X118689335Y-108402410D01*
X118517368Y-108287505D01*
X118517358Y-108287500D01*
X118326274Y-108208350D01*
X118326266Y-108208348D01*
X118123420Y-108168000D01*
X117970000Y-108168000D01*
X117970000Y-108918000D01*
X117470000Y-108918000D01*
X117470000Y-108168000D01*
X117316579Y-108168000D01*
X117113733Y-108208348D01*
X117113725Y-108208350D01*
X116922641Y-108287500D01*
X116922631Y-108287505D01*
X116750664Y-108402410D01*
X116750660Y-108402413D01*
X116604413Y-108548660D01*
X116604410Y-108548664D01*
X116489505Y-108720631D01*
X116489500Y-108720641D01*
X116410351Y-108911723D01*
X116410350Y-108911725D01*
X116399157Y-108968000D01*
X115664767Y-108968000D01*
X115658772Y-92714402D01*
X115658879Y-92709996D01*
X116374916Y-92709996D01*
X116374916Y-92710003D01*
X116395235Y-93058869D01*
X116395236Y-93058880D01*
X116455914Y-93403002D01*
X116455916Y-93403011D01*
X116556145Y-93737800D01*
X116694555Y-94058670D01*
X116694561Y-94058683D01*
X116869289Y-94361322D01*
X117077967Y-94641625D01*
X117086148Y-94650296D01*
X118336320Y-93400125D01*
X118426554Y-93524320D01*
X118565680Y-93663446D01*
X118689873Y-93753678D01*
X117442818Y-95000733D01*
X117442819Y-95000734D01*
X117585484Y-95120445D01*
X117877461Y-95312480D01*
X118189739Y-95469314D01*
X118189745Y-95469316D01*
X118518130Y-95588838D01*
X118518133Y-95588839D01*
X118858171Y-95669429D01*
X119205276Y-95709999D01*
X119205277Y-95710000D01*
X119554723Y-95710000D01*
X119554723Y-95709999D01*
X119901827Y-95669429D01*
X119901829Y-95669429D01*
X120241866Y-95588839D01*
X120241869Y-95588838D01*
X120570254Y-95469316D01*
X120570260Y-95469314D01*
X120882538Y-95312480D01*
X121174509Y-95120449D01*
X121174513Y-95120446D01*
X121192722Y-95105167D01*
X121239516Y-95084685D01*
X121247399Y-95063552D01*
X121266961Y-95042872D01*
X121317179Y-95000733D01*
X121317180Y-95000733D01*
X120070126Y-93753678D01*
X120194320Y-93663446D01*
X120333446Y-93524320D01*
X120423678Y-93400126D01*
X121673849Y-94650297D01*
X121673851Y-94650296D01*
X121682022Y-94641636D01*
X121682033Y-94641623D01*
X121890710Y-94361322D01*
X122065438Y-94058683D01*
X122065444Y-94058670D01*
X122203854Y-93737800D01*
X122304083Y-93403011D01*
X122304085Y-93403002D01*
X122364763Y-93058880D01*
X122364764Y-93058869D01*
X122385084Y-92710003D01*
X122385084Y-92709996D01*
X122364764Y-92361130D01*
X122364763Y-92361119D01*
X122304085Y-92016997D01*
X122304083Y-92016988D01*
X122203854Y-91682199D01*
X122065444Y-91361329D01*
X122065438Y-91361316D01*
X121890710Y-91058677D01*
X121682032Y-90778374D01*
X121673850Y-90769702D01*
X120423678Y-92019873D01*
X120333446Y-91895680D01*
X120194320Y-91756554D01*
X120070125Y-91666320D01*
X121317180Y-90419265D01*
X121317179Y-90419264D01*
X121174519Y-90299557D01*
X120882538Y-90107519D01*
X120570260Y-89950685D01*
X120570254Y-89950683D01*
X120241869Y-89831161D01*
X120241866Y-89831160D01*
X119901828Y-89750570D01*
X119554723Y-89710000D01*
X119205277Y-89710000D01*
X118858172Y-89750570D01*
X118858170Y-89750570D01*
X118518133Y-89831160D01*
X118518130Y-89831161D01*
X118189745Y-89950683D01*
X118189739Y-89950685D01*
X117877461Y-90107519D01*
X117585480Y-90299557D01*
X117442819Y-90419264D01*
X117442818Y-90419265D01*
X118689874Y-91666320D01*
X118565680Y-91756554D01*
X118426554Y-91895680D01*
X118336320Y-92019873D01*
X117086148Y-90769701D01*
X117086147Y-90769702D01*
X117077976Y-90778363D01*
X117077972Y-90778368D01*
X116869289Y-91058677D01*
X116694561Y-91361316D01*
X116694555Y-91361329D01*
X116556145Y-91682199D01*
X116455916Y-92016988D01*
X116455914Y-92016997D01*
X116395236Y-92361119D01*
X116395235Y-92361130D01*
X116374916Y-92709996D01*
X115658879Y-92709996D01*
X115658919Y-92708322D01*
X115659833Y-92689580D01*
X115676193Y-92354119D01*
X115677382Y-92342010D01*
X115680442Y-92321335D01*
X115728855Y-91994208D01*
X115731221Y-91982296D01*
X115816546Y-91641211D01*
X115820069Y-91629583D01*
X115938420Y-91298517D01*
X115943072Y-91287277D01*
X115947379Y-91278165D01*
X116093319Y-90969389D01*
X116099029Y-90958701D01*
X116279731Y-90657054D01*
X116286459Y-90646981D01*
X116495851Y-90364520D01*
X116503560Y-90355122D01*
X116739634Y-90094555D01*
X116748210Y-90085976D01*
X117008695Y-89849806D01*
X117018084Y-89842099D01*
X117300448Y-89632619D01*
X117310555Y-89625863D01*
X117612122Y-89445061D01*
X117622825Y-89439340D01*
X117940657Y-89288978D01*
X117951861Y-89284336D01*
X118282905Y-89165859D01*
X118294531Y-89162332D01*
X118635590Y-89076883D01*
X118647502Y-89074513D01*
X118995281Y-89022915D01*
X119007379Y-89021722D01*
X119362343Y-89004283D01*
X119368402Y-89004135D01*
X119430523Y-89004136D01*
X119430527Y-89004135D01*
X130351155Y-89004135D01*
X130418194Y-89023820D01*
G37*
%TD.AperFunction*%
%TD*%
M02*
