%TF.GenerationSoftware,KiCad,Pcbnew,8.0.2*%
%TF.CreationDate,2024-05-25T15:23:05+03:00*%
%TF.ProjectId,sos_business_card,736f735f-6275-4736-996e-6573735f6361,A*%
%TF.SameCoordinates,Original*%
%TF.FileFunction,Copper,L2,Bot*%
%TF.FilePolarity,Positive*%
%FSLAX46Y46*%
G04 Gerber Fmt 4.6, Leading zero omitted, Abs format (unit mm)*
G04 Created by KiCad (PCBNEW 8.0.2) date 2024-05-25 15:23:05*
%MOMM*%
%LPD*%
G01*
G04 APERTURE LIST*
%TA.AperFunction,ComponentPad*%
%ADD10C,2.900000*%
%TD*%
%TA.AperFunction,ConnectorPad*%
%ADD11C,5.000000*%
%TD*%
%TA.AperFunction,ComponentPad*%
%ADD12O,1.700000X1.100000*%
%TD*%
%TA.AperFunction,ComponentPad*%
%ADD13R,1.905000X2.000000*%
%TD*%
%TA.AperFunction,ComponentPad*%
%ADD14O,1.905000X2.000000*%
%TD*%
%TA.AperFunction,ViaPad*%
%ADD15C,0.600000*%
%TD*%
%TA.AperFunction,Conductor*%
%ADD16C,0.200000*%
%TD*%
G04 APERTURE END LIST*
D10*
%TO.P,J5,1,Pin_1*%
%TO.N,GND*%
X119380000Y-92710000D03*
D11*
X119380000Y-92710000D03*
%TD*%
D12*
%TO.P,J1,S1,SHIELD*%
%TO.N,GND*%
X121520000Y-109218000D03*
X117720000Y-109218000D03*
X121520000Y-117858000D03*
X117720000Y-117858000D03*
%TD*%
D10*
%TO.P,J4,1,Pin_1*%
%TO.N,Net-(D2-K)*%
X119380000Y-134366000D03*
D11*
X119380000Y-134366000D03*
%TD*%
D13*
%TO.P,Q2,1,G*%
%TO.N,Net-(Q2-G)*%
X195046600Y-123117650D03*
D14*
%TO.P,Q2,2,D*%
%TO.N,Net-(J3-Pin_1)*%
X197586600Y-123117650D03*
%TO.P,Q2,3,S*%
%TO.N,Net-(D2-K)*%
X200126600Y-123117650D03*
%TD*%
D10*
%TO.P,J2,1,Pin_1*%
%TO.N,GND*%
X201041000Y-134366000D03*
D11*
X201041000Y-134366000D03*
%TD*%
D10*
%TO.P,J3,1,Pin_1*%
%TO.N,Net-(J3-Pin_1)*%
X201041000Y-92710000D03*
D11*
X201041000Y-92710000D03*
%TD*%
D15*
%TO.N,GND*%
X157988000Y-107569000D03*
X170053000Y-107569000D03*
X165735000Y-129540000D03*
X147701000Y-114681000D03*
X147701000Y-113665000D03*
X168656000Y-107569000D03*
X159131000Y-108458000D03*
X147701000Y-112522000D03*
X192278000Y-95377000D03*
X146431000Y-113665000D03*
X170053000Y-108458000D03*
X138938000Y-122174000D03*
X184404000Y-129032000D03*
X157861000Y-119888000D03*
X182880000Y-129032000D03*
X182880000Y-127889000D03*
X159131000Y-119888000D03*
X140335000Y-121031000D03*
X159131000Y-107569000D03*
X182880000Y-130302000D03*
X140335000Y-123444000D03*
X138938000Y-123444000D03*
X193421000Y-95377000D03*
X193421000Y-93091000D03*
X192278000Y-94234000D03*
X138938000Y-121031000D03*
X193421000Y-94234000D03*
X159131000Y-118872000D03*
X140335000Y-122174000D03*
X184404000Y-130302000D03*
X157861000Y-118872000D03*
X157988000Y-108458000D03*
X156845000Y-107569000D03*
X146431000Y-114681000D03*
X168656000Y-108458000D03*
X192278000Y-93091000D03*
X165735000Y-128524000D03*
X171196000Y-118872000D03*
X146431000Y-112522000D03*
X167386000Y-107569000D03*
X169418000Y-118872000D03*
X170307000Y-118872000D03*
X156845000Y-108458000D03*
X167386000Y-108458000D03*
X184404000Y-127889000D03*
%TO.N,VCC*%
X164846000Y-119761000D03*
X176784000Y-114173000D03*
X176784000Y-117602000D03*
X164846000Y-108966000D03*
%TO.N,Net-(U7-Q1)*%
X154966041Y-117829959D03*
X154117511Y-118678489D03*
%TO.N,Net-(U7-Q0)*%
X147320000Y-110617000D03*
X138811000Y-114427000D03*
%TO.N,Net-(U7-Q4)*%
X166243000Y-116205000D03*
X166243000Y-113030000D03*
%TO.N,Net-(U4-Pad8)*%
X172593000Y-129540000D03*
X172593000Y-131664000D03*
%TO.N,Net-(U4-Pad6)*%
X167005000Y-128270000D03*
X167005000Y-131064000D03*
%TD*%
D16*
%TO.N,VCC*%
X164846000Y-119761000D02*
X164846000Y-108966000D01*
X176784000Y-114427000D02*
X176784000Y-114173000D01*
X176784000Y-117602000D02*
X176784000Y-114427000D01*
%TO.N,Net-(U7-Q1)*%
X154117511Y-118678489D02*
X154966041Y-117829959D01*
%TO.N,Net-(U7-Q0)*%
X142113000Y-110617000D02*
X147320000Y-110617000D01*
X138811000Y-113919000D02*
X142113000Y-110617000D01*
X138811000Y-114427000D02*
X138811000Y-113919000D01*
%TO.N,Net-(U7-Q4)*%
X166243000Y-116205000D02*
X166243000Y-113030000D01*
%TO.N,Net-(U4-Pad8)*%
X172593000Y-131664000D02*
X172593000Y-129540000D01*
%TO.N,Net-(U4-Pad6)*%
X167005000Y-131064000D02*
X167005000Y-128270000D01*
%TD*%
%TA.AperFunction,Conductor*%
%TO.N,GND*%
G36*
X201044032Y-89004283D02*
G01*
X201398160Y-89021681D01*
X201410262Y-89022873D01*
X201757954Y-89074448D01*
X201769880Y-89076820D01*
X202110854Y-89162229D01*
X202122481Y-89165756D01*
X202453452Y-89284180D01*
X202464664Y-89288824D01*
X202782434Y-89439118D01*
X202793162Y-89444853D01*
X203094638Y-89625551D01*
X203104753Y-89632309D01*
X203372227Y-89830681D01*
X203387087Y-89841702D01*
X203396493Y-89849422D01*
X203656935Y-90085473D01*
X203665526Y-90094064D01*
X203795241Y-90237182D01*
X203901577Y-90354506D01*
X203909297Y-90363912D01*
X204118688Y-90646243D01*
X204125448Y-90656361D01*
X204306146Y-90957837D01*
X204311883Y-90968569D01*
X204462172Y-91286328D01*
X204466823Y-91297557D01*
X204585238Y-91628503D01*
X204588770Y-91640147D01*
X204674177Y-91981111D01*
X204676551Y-91993047D01*
X204728125Y-92340733D01*
X204729318Y-92352842D01*
X204746716Y-92706966D01*
X204746865Y-92713051D01*
X204746865Y-134362948D01*
X204746716Y-134369033D01*
X204729318Y-134723157D01*
X204728125Y-134735266D01*
X204676551Y-135082952D01*
X204674177Y-135094888D01*
X204588770Y-135435852D01*
X204585238Y-135447496D01*
X204489557Y-135714908D01*
X204466829Y-135778428D01*
X204462172Y-135789671D01*
X204311883Y-136107430D01*
X204306146Y-136118162D01*
X204125448Y-136419638D01*
X204118688Y-136429756D01*
X203909297Y-136712087D01*
X203901577Y-136721493D01*
X203665533Y-136981928D01*
X203656928Y-136990533D01*
X203396493Y-137226577D01*
X203387087Y-137234297D01*
X203104756Y-137443688D01*
X203094638Y-137450448D01*
X202793162Y-137631146D01*
X202782430Y-137636883D01*
X202464671Y-137787172D01*
X202453435Y-137791826D01*
X202318449Y-137840125D01*
X202122496Y-137910238D01*
X202110852Y-137913770D01*
X201769888Y-137999177D01*
X201757952Y-138001551D01*
X201410266Y-138053125D01*
X201398157Y-138054318D01*
X201067579Y-138070559D01*
X201044031Y-138071716D01*
X201037949Y-138071865D01*
X119383049Y-138071865D01*
X119376966Y-138071716D01*
X119022921Y-138054327D01*
X119010828Y-138053136D01*
X118663204Y-138001583D01*
X118651291Y-137999214D01*
X118310393Y-137913844D01*
X118298751Y-137910313D01*
X117967876Y-137791955D01*
X117956635Y-137787300D01*
X117638950Y-137637085D01*
X117628221Y-137631352D01*
X117477501Y-137541040D01*
X117326775Y-137450725D01*
X117316670Y-137443975D01*
X117048728Y-137245318D01*
X117034377Y-137234678D01*
X117024971Y-137226961D01*
X116764553Y-136991013D01*
X116755950Y-136982412D01*
X116519906Y-136722081D01*
X116512185Y-136712678D01*
X116511746Y-136712087D01*
X116385936Y-136542529D01*
X116302787Y-136430466D01*
X116296026Y-136420352D01*
X116115297Y-136118989D01*
X116109559Y-136108262D01*
X115959220Y-135790617D01*
X115954565Y-135779386D01*
X115931472Y-135714904D01*
X115836083Y-135448548D01*
X115832549Y-135436910D01*
X115821779Y-135393972D01*
X115747057Y-135096055D01*
X115744680Y-135084124D01*
X115709251Y-134845833D01*
X115692998Y-134736518D01*
X115691805Y-134724435D01*
X115674286Y-134370450D01*
X115674175Y-134365996D01*
X116374415Y-134365996D01*
X116374415Y-134366003D01*
X116394738Y-134714927D01*
X116394739Y-134714938D01*
X116455428Y-135059127D01*
X116455430Y-135059134D01*
X116555674Y-135393972D01*
X116694107Y-135714895D01*
X116694113Y-135714908D01*
X116868870Y-136017597D01*
X117077584Y-136297949D01*
X117077589Y-136297955D01*
X117192392Y-136419638D01*
X117317442Y-136552183D01*
X117493903Y-136700251D01*
X117585186Y-136776847D01*
X117585194Y-136776853D01*
X117877203Y-136968911D01*
X117877207Y-136968913D01*
X118189549Y-137125777D01*
X118517989Y-137245319D01*
X118858086Y-137325923D01*
X119205241Y-137366500D01*
X119205248Y-137366500D01*
X119554752Y-137366500D01*
X119554759Y-137366500D01*
X119901914Y-137325923D01*
X120242011Y-137245319D01*
X120570451Y-137125777D01*
X120882793Y-136968913D01*
X121174811Y-136776849D01*
X121442558Y-136552183D01*
X121682412Y-136297953D01*
X121891130Y-136017596D01*
X122065889Y-135714904D01*
X122204326Y-135393971D01*
X122304569Y-135059136D01*
X122311269Y-135021143D01*
X122365260Y-134714938D01*
X122365259Y-134714938D01*
X122365262Y-134714927D01*
X122385326Y-134370452D01*
X122385585Y-134366003D01*
X122385585Y-134365996D01*
X198035916Y-134365996D01*
X198035916Y-134366003D01*
X198056235Y-134714869D01*
X198056236Y-134714880D01*
X198116914Y-135059002D01*
X198116916Y-135059011D01*
X198217145Y-135393800D01*
X198355555Y-135714670D01*
X198355561Y-135714683D01*
X198530289Y-136017322D01*
X198738967Y-136297625D01*
X198747148Y-136306296D01*
X199997320Y-135056125D01*
X200087554Y-135180320D01*
X200226680Y-135319446D01*
X200350873Y-135409678D01*
X199103818Y-136656733D01*
X199103819Y-136656734D01*
X199246484Y-136776445D01*
X199538461Y-136968480D01*
X199850739Y-137125314D01*
X199850745Y-137125316D01*
X200179130Y-137244838D01*
X200179133Y-137244839D01*
X200519171Y-137325429D01*
X200866276Y-137365999D01*
X200866277Y-137366000D01*
X201215723Y-137366000D01*
X201215723Y-137365999D01*
X201562827Y-137325429D01*
X201562829Y-137325429D01*
X201902866Y-137244839D01*
X201902869Y-137244838D01*
X202231254Y-137125316D01*
X202231260Y-137125314D01*
X202543538Y-136968480D01*
X202835509Y-136776449D01*
X202835510Y-136776448D01*
X202978179Y-136656734D01*
X202978180Y-136656733D01*
X201731126Y-135409678D01*
X201855320Y-135319446D01*
X201994446Y-135180320D01*
X202084678Y-135056126D01*
X203334849Y-136306297D01*
X203334851Y-136306296D01*
X203343022Y-136297636D01*
X203343033Y-136297623D01*
X203551710Y-136017322D01*
X203726438Y-135714683D01*
X203726444Y-135714670D01*
X203864854Y-135393800D01*
X203965083Y-135059011D01*
X203965085Y-135059002D01*
X204025763Y-134714880D01*
X204025764Y-134714869D01*
X204046084Y-134366003D01*
X204046084Y-134365996D01*
X204025764Y-134017130D01*
X204025763Y-134017119D01*
X203965085Y-133672997D01*
X203965083Y-133672988D01*
X203864854Y-133338199D01*
X203726444Y-133017329D01*
X203726438Y-133017316D01*
X203551710Y-132714677D01*
X203343032Y-132434374D01*
X203334850Y-132425702D01*
X202084678Y-133675873D01*
X201994446Y-133551680D01*
X201855320Y-133412554D01*
X201731125Y-133322320D01*
X202978180Y-132075265D01*
X202978179Y-132075264D01*
X202835519Y-131955557D01*
X202543538Y-131763519D01*
X202231260Y-131606685D01*
X202231254Y-131606683D01*
X201902869Y-131487161D01*
X201902866Y-131487160D01*
X201562828Y-131406570D01*
X201215723Y-131366000D01*
X200866277Y-131366000D01*
X200519172Y-131406570D01*
X200519170Y-131406570D01*
X200179133Y-131487160D01*
X200179130Y-131487161D01*
X199850745Y-131606683D01*
X199850739Y-131606685D01*
X199538461Y-131763519D01*
X199246480Y-131955557D01*
X199103819Y-132075264D01*
X199103818Y-132075265D01*
X200350874Y-133322320D01*
X200226680Y-133412554D01*
X200087554Y-133551680D01*
X199997320Y-133675873D01*
X198747148Y-132425701D01*
X198747147Y-132425702D01*
X198738976Y-132434363D01*
X198738972Y-132434368D01*
X198530289Y-132714677D01*
X198355561Y-133017316D01*
X198355555Y-133017329D01*
X198217145Y-133338199D01*
X198116916Y-133672988D01*
X198116914Y-133672997D01*
X198056236Y-134017119D01*
X198056235Y-134017130D01*
X198035916Y-134365996D01*
X122385585Y-134365996D01*
X122381554Y-134296796D01*
X122365262Y-134017073D01*
X122342180Y-133886167D01*
X122304571Y-133672872D01*
X122304569Y-133672865D01*
X122226637Y-133412554D01*
X122204326Y-133338029D01*
X122065889Y-133017096D01*
X121891130Y-132714404D01*
X121891129Y-132714402D01*
X121682415Y-132434050D01*
X121682410Y-132434044D01*
X121550110Y-132293815D01*
X121442558Y-132179817D01*
X121294488Y-132055572D01*
X121174813Y-131955152D01*
X121174805Y-131955146D01*
X120882796Y-131763088D01*
X120570458Y-131606226D01*
X120570452Y-131606223D01*
X120242012Y-131486681D01*
X120242009Y-131486680D01*
X119901915Y-131406077D01*
X119858519Y-131401004D01*
X119554759Y-131365500D01*
X119205241Y-131365500D01*
X118901480Y-131401004D01*
X118858085Y-131406077D01*
X118858083Y-131406077D01*
X118517990Y-131486680D01*
X118517987Y-131486681D01*
X118189547Y-131606223D01*
X118189541Y-131606226D01*
X117877203Y-131763088D01*
X117585194Y-131955146D01*
X117585186Y-131955152D01*
X117317442Y-132179817D01*
X117317440Y-132179819D01*
X117077589Y-132434044D01*
X117077584Y-132434050D01*
X116868870Y-132714402D01*
X116694113Y-133017091D01*
X116694107Y-133017104D01*
X116555674Y-133338027D01*
X116455430Y-133672865D01*
X116455428Y-133672872D01*
X116394739Y-134017061D01*
X116394738Y-134017072D01*
X116374415Y-134365996D01*
X115674175Y-134365996D01*
X115674135Y-134364369D01*
X115674108Y-134291495D01*
X115674107Y-134291485D01*
X115674098Y-134267623D01*
X115671886Y-128269996D01*
X166199435Y-128269996D01*
X166199435Y-128270003D01*
X166219630Y-128449249D01*
X166219631Y-128449254D01*
X166279211Y-128619523D01*
X166339515Y-128715496D01*
X166364106Y-128754632D01*
X166375185Y-128772263D01*
X166377445Y-128775097D01*
X166378334Y-128777275D01*
X166378889Y-128778158D01*
X166378734Y-128778255D01*
X166403855Y-128839783D01*
X166404500Y-128852412D01*
X166404500Y-130481587D01*
X166384815Y-130548626D01*
X166377450Y-130558896D01*
X166375186Y-130561734D01*
X166279211Y-130714476D01*
X166219631Y-130884745D01*
X166219630Y-130884750D01*
X166199435Y-131063996D01*
X166199435Y-131064003D01*
X166219630Y-131243249D01*
X166219631Y-131243254D01*
X166279211Y-131413523D01*
X166325179Y-131486680D01*
X166375184Y-131566262D01*
X166502738Y-131693816D01*
X166593080Y-131750582D01*
X166613669Y-131763519D01*
X166655478Y-131789789D01*
X166808258Y-131843249D01*
X166825745Y-131849368D01*
X166825750Y-131849369D01*
X167004996Y-131869565D01*
X167005000Y-131869565D01*
X167005004Y-131869565D01*
X167184249Y-131849369D01*
X167184252Y-131849368D01*
X167184255Y-131849368D01*
X167354522Y-131789789D01*
X167507262Y-131693816D01*
X167634816Y-131566262D01*
X167730789Y-131413522D01*
X167790368Y-131243255D01*
X167802856Y-131132422D01*
X167810565Y-131064003D01*
X167810565Y-131063996D01*
X167790369Y-130884750D01*
X167790368Y-130884745D01*
X167730788Y-130714476D01*
X167634813Y-130561734D01*
X167632550Y-130558896D01*
X167631659Y-130556715D01*
X167631111Y-130555842D01*
X167631264Y-130555745D01*
X167606144Y-130494209D01*
X167605500Y-130481587D01*
X167605500Y-129539996D01*
X171787435Y-129539996D01*
X171787435Y-129540003D01*
X171807630Y-129719249D01*
X171807631Y-129719254D01*
X171867211Y-129889523D01*
X171963185Y-130042263D01*
X171965445Y-130045097D01*
X171966334Y-130047275D01*
X171966889Y-130048158D01*
X171966734Y-130048255D01*
X171991855Y-130109783D01*
X171992500Y-130122412D01*
X171992500Y-131081587D01*
X171972815Y-131148626D01*
X171965450Y-131158896D01*
X171963186Y-131161734D01*
X171867211Y-131314476D01*
X171807631Y-131484745D01*
X171807630Y-131484750D01*
X171787435Y-131663996D01*
X171787435Y-131664003D01*
X171807630Y-131843249D01*
X171807631Y-131843254D01*
X171867211Y-132013523D01*
X171963184Y-132166262D01*
X172090738Y-132293816D01*
X172243478Y-132389789D01*
X172370895Y-132434374D01*
X172413745Y-132449368D01*
X172413750Y-132449369D01*
X172592996Y-132469565D01*
X172593000Y-132469565D01*
X172593004Y-132469565D01*
X172772249Y-132449369D01*
X172772252Y-132449368D01*
X172772255Y-132449368D01*
X172942522Y-132389789D01*
X173095262Y-132293816D01*
X173222816Y-132166262D01*
X173318789Y-132013522D01*
X173378368Y-131843255D01*
X173384392Y-131789789D01*
X173398565Y-131664003D01*
X173398565Y-131663996D01*
X173378369Y-131484750D01*
X173378368Y-131484745D01*
X173318788Y-131314476D01*
X173285645Y-131261730D01*
X173222816Y-131161738D01*
X173222814Y-131161736D01*
X173222813Y-131161734D01*
X173220550Y-131158896D01*
X173219659Y-131156715D01*
X173219111Y-131155842D01*
X173219264Y-131155745D01*
X173194144Y-131094209D01*
X173193500Y-131081587D01*
X173193500Y-130122412D01*
X173213185Y-130055373D01*
X173220555Y-130045097D01*
X173222810Y-130042267D01*
X173222816Y-130042262D01*
X173318789Y-129889522D01*
X173378368Y-129719255D01*
X173398565Y-129540000D01*
X173378368Y-129360745D01*
X173318789Y-129190478D01*
X173222816Y-129037738D01*
X173095262Y-128910184D01*
X172942523Y-128814211D01*
X172772254Y-128754631D01*
X172772249Y-128754630D01*
X172593004Y-128734435D01*
X172592996Y-128734435D01*
X172413750Y-128754630D01*
X172413745Y-128754631D01*
X172243476Y-128814211D01*
X172090737Y-128910184D01*
X171963184Y-129037737D01*
X171867211Y-129190476D01*
X171807631Y-129360745D01*
X171807630Y-129360750D01*
X171787435Y-129539996D01*
X167605500Y-129539996D01*
X167605500Y-128852412D01*
X167625185Y-128785373D01*
X167632555Y-128775097D01*
X167634810Y-128772267D01*
X167634816Y-128772262D01*
X167730789Y-128619522D01*
X167790368Y-128449255D01*
X167810565Y-128270000D01*
X167790368Y-128090745D01*
X167730789Y-127920478D01*
X167634816Y-127767738D01*
X167507262Y-127640184D01*
X167354523Y-127544211D01*
X167184254Y-127484631D01*
X167184249Y-127484630D01*
X167005004Y-127464435D01*
X167004996Y-127464435D01*
X166825750Y-127484630D01*
X166825745Y-127484631D01*
X166655476Y-127544211D01*
X166502737Y-127640184D01*
X166375184Y-127767737D01*
X166279211Y-127920476D01*
X166219631Y-128090745D01*
X166219630Y-128090750D01*
X166199435Y-128269996D01*
X115671886Y-128269996D01*
X115669599Y-122069785D01*
X193593600Y-122069785D01*
X193593600Y-124165520D01*
X193593601Y-124165526D01*
X193600008Y-124225133D01*
X193650302Y-124359978D01*
X193650306Y-124359985D01*
X193736552Y-124475194D01*
X193736555Y-124475197D01*
X193851764Y-124561443D01*
X193851771Y-124561447D01*
X193986617Y-124611741D01*
X193986616Y-124611741D01*
X193993544Y-124612485D01*
X194046227Y-124618150D01*
X196046972Y-124618149D01*
X196106583Y-124611741D01*
X196241431Y-124561446D01*
X196356646Y-124475196D01*
X196442896Y-124359981D01*
X196453290Y-124332110D01*
X196495160Y-124276177D01*
X196560623Y-124251758D01*
X196628897Y-124266608D01*
X196642346Y-124275115D01*
X196825062Y-124407867D01*
X196957199Y-124475194D01*
X197028844Y-124511699D01*
X197246351Y-124582371D01*
X197246352Y-124582371D01*
X197246355Y-124582372D01*
X197472246Y-124618150D01*
X197472247Y-124618150D01*
X197700953Y-124618150D01*
X197700954Y-124618150D01*
X197926845Y-124582372D01*
X197926848Y-124582371D01*
X197926849Y-124582371D01*
X198144355Y-124511699D01*
X198144355Y-124511698D01*
X198144358Y-124511698D01*
X198348138Y-124407867D01*
X198533166Y-124273436D01*
X198694886Y-124111716D01*
X198756283Y-124027209D01*
X198811612Y-123984546D01*
X198881225Y-123978567D01*
X198943020Y-124011173D01*
X198956914Y-124027206D01*
X199018314Y-124111716D01*
X199180034Y-124273436D01*
X199365062Y-124407867D01*
X199497199Y-124475194D01*
X199568844Y-124511699D01*
X199786351Y-124582371D01*
X199786352Y-124582371D01*
X199786355Y-124582372D01*
X200012246Y-124618150D01*
X200012247Y-124618150D01*
X200240953Y-124618150D01*
X200240954Y-124618150D01*
X200466845Y-124582372D01*
X200466848Y-124582371D01*
X200466849Y-124582371D01*
X200684355Y-124511699D01*
X200684355Y-124511698D01*
X200684358Y-124511698D01*
X200888138Y-124407867D01*
X201073166Y-124273436D01*
X201234886Y-124111716D01*
X201369317Y-123926688D01*
X201473148Y-123722908D01*
X201543822Y-123505395D01*
X201579600Y-123279504D01*
X201579600Y-122955796D01*
X201543822Y-122729905D01*
X201543821Y-122729901D01*
X201543821Y-122729900D01*
X201473149Y-122512394D01*
X201473148Y-122512392D01*
X201369317Y-122308612D01*
X201234886Y-122123584D01*
X201073166Y-121961864D01*
X200888138Y-121827433D01*
X200684355Y-121723600D01*
X200466848Y-121652928D01*
X200281412Y-121623558D01*
X200240954Y-121617150D01*
X200012246Y-121617150D01*
X199971788Y-121623558D01*
X199786353Y-121652928D01*
X199786350Y-121652928D01*
X199568844Y-121723600D01*
X199365061Y-121827433D01*
X199299150Y-121875321D01*
X199180034Y-121961864D01*
X199180032Y-121961866D01*
X199180031Y-121961866D01*
X199018315Y-122123582D01*
X198956918Y-122208088D01*
X198901587Y-122250753D01*
X198831974Y-122256732D01*
X198770179Y-122224126D01*
X198756282Y-122208088D01*
X198745373Y-122193073D01*
X198694886Y-122123584D01*
X198533166Y-121961864D01*
X198348138Y-121827433D01*
X198144355Y-121723600D01*
X197926848Y-121652928D01*
X197741412Y-121623558D01*
X197700954Y-121617150D01*
X197472246Y-121617150D01*
X197431788Y-121623558D01*
X197246353Y-121652928D01*
X197246350Y-121652928D01*
X197028844Y-121723600D01*
X196825061Y-121827433D01*
X196642359Y-121960175D01*
X196576552Y-121983655D01*
X196508498Y-121967830D01*
X196459803Y-121917724D01*
X196453290Y-121903188D01*
X196442896Y-121875319D01*
X196442893Y-121875314D01*
X196356647Y-121760105D01*
X196356644Y-121760102D01*
X196241435Y-121673856D01*
X196241428Y-121673852D01*
X196106582Y-121623558D01*
X196106583Y-121623558D01*
X196046983Y-121617151D01*
X196046981Y-121617150D01*
X196046973Y-121617150D01*
X196046964Y-121617150D01*
X194046229Y-121617150D01*
X194046223Y-121617151D01*
X193986616Y-121623558D01*
X193851771Y-121673852D01*
X193851764Y-121673856D01*
X193736555Y-121760102D01*
X193736552Y-121760105D01*
X193650306Y-121875314D01*
X193650302Y-121875321D01*
X193600008Y-122010167D01*
X193593601Y-122069766D01*
X193593600Y-122069785D01*
X115669599Y-122069785D01*
X115667954Y-117608000D01*
X116399157Y-117608000D01*
X117253012Y-117608000D01*
X117235795Y-117617940D01*
X117179940Y-117673795D01*
X117140444Y-117742204D01*
X117120000Y-117818504D01*
X117120000Y-117897496D01*
X117140444Y-117973796D01*
X117179940Y-118042205D01*
X117235795Y-118098060D01*
X117253012Y-118108000D01*
X116399157Y-118108000D01*
X116410350Y-118164274D01*
X116410351Y-118164276D01*
X116489500Y-118355358D01*
X116489505Y-118355368D01*
X116604410Y-118527335D01*
X116604413Y-118527339D01*
X116750660Y-118673586D01*
X116750664Y-118673589D01*
X116922631Y-118788494D01*
X116922641Y-118788499D01*
X117113725Y-118867649D01*
X117113733Y-118867651D01*
X117316579Y-118907999D01*
X117316583Y-118908000D01*
X117470000Y-118908000D01*
X117470000Y-118158000D01*
X117970000Y-118158000D01*
X117970000Y-118908000D01*
X118123417Y-118908000D01*
X118123420Y-118907999D01*
X118326266Y-118867651D01*
X118326274Y-118867649D01*
X118517358Y-118788499D01*
X118517368Y-118788494D01*
X118689335Y-118673589D01*
X118689339Y-118673586D01*
X118835586Y-118527339D01*
X118835589Y-118527335D01*
X118950494Y-118355368D01*
X118950499Y-118355358D01*
X119029648Y-118164276D01*
X119029649Y-118164274D01*
X119040843Y-118108000D01*
X118186988Y-118108000D01*
X118204205Y-118098060D01*
X118260060Y-118042205D01*
X118299556Y-117973796D01*
X118320000Y-117897496D01*
X118320000Y-117818504D01*
X118299556Y-117742204D01*
X118260060Y-117673795D01*
X118204205Y-117617940D01*
X118186988Y-117608000D01*
X119040843Y-117608000D01*
X120199157Y-117608000D01*
X121053012Y-117608000D01*
X121035795Y-117617940D01*
X120979940Y-117673795D01*
X120940444Y-117742204D01*
X120920000Y-117818504D01*
X120920000Y-117897496D01*
X120940444Y-117973796D01*
X120979940Y-118042205D01*
X121035795Y-118098060D01*
X121053012Y-118108000D01*
X120199157Y-118108000D01*
X120210350Y-118164274D01*
X120210351Y-118164276D01*
X120289500Y-118355358D01*
X120289505Y-118355368D01*
X120404410Y-118527335D01*
X120404413Y-118527339D01*
X120550660Y-118673586D01*
X120550664Y-118673589D01*
X120722631Y-118788494D01*
X120722641Y-118788499D01*
X120913725Y-118867649D01*
X120913733Y-118867651D01*
X121116579Y-118907999D01*
X121116583Y-118908000D01*
X121270000Y-118908000D01*
X121270000Y-118158000D01*
X121770000Y-118158000D01*
X121770000Y-118908000D01*
X121923417Y-118908000D01*
X121923420Y-118907999D01*
X122126266Y-118867651D01*
X122126274Y-118867649D01*
X122317358Y-118788499D01*
X122317368Y-118788494D01*
X122482008Y-118678485D01*
X153311946Y-118678485D01*
X153311946Y-118678492D01*
X153332141Y-118857738D01*
X153332142Y-118857743D01*
X153391722Y-119028012D01*
X153486335Y-119178587D01*
X153487695Y-119180751D01*
X153615249Y-119308305D01*
X153767989Y-119404278D01*
X153938256Y-119463857D01*
X153938261Y-119463858D01*
X154117507Y-119484054D01*
X154117511Y-119484054D01*
X154117515Y-119484054D01*
X154296760Y-119463858D01*
X154296763Y-119463857D01*
X154296766Y-119463857D01*
X154467033Y-119404278D01*
X154619773Y-119308305D01*
X154747327Y-119180751D01*
X154843300Y-119028011D01*
X154902879Y-118857744D01*
X154912672Y-118770818D01*
X154939737Y-118706407D01*
X154948201Y-118697032D01*
X154984576Y-118660657D01*
X155045897Y-118627174D01*
X155058352Y-118625122D01*
X155145296Y-118615327D01*
X155315563Y-118555748D01*
X155468303Y-118459775D01*
X155595857Y-118332221D01*
X155691830Y-118179481D01*
X155751409Y-118009214D01*
X155757909Y-117951523D01*
X155771606Y-117829962D01*
X155771606Y-117829955D01*
X155751410Y-117650709D01*
X155751409Y-117650704D01*
X155691829Y-117480435D01*
X155595856Y-117327696D01*
X155468303Y-117200143D01*
X155315564Y-117104170D01*
X155145295Y-117044590D01*
X155145290Y-117044589D01*
X154966045Y-117024394D01*
X154966037Y-117024394D01*
X154786791Y-117044589D01*
X154786786Y-117044590D01*
X154616517Y-117104170D01*
X154463778Y-117200143D01*
X154336225Y-117327696D01*
X154240251Y-117480437D01*
X154180671Y-117650709D01*
X154170878Y-117737627D01*
X154143811Y-117802041D01*
X154135339Y-117811424D01*
X154098976Y-117847787D01*
X154037653Y-117881272D01*
X154025179Y-117883326D01*
X153938261Y-117893119D01*
X153767989Y-117952699D01*
X153615248Y-118048673D01*
X153487695Y-118176226D01*
X153391722Y-118328965D01*
X153332142Y-118499234D01*
X153332141Y-118499239D01*
X153311946Y-118678485D01*
X122482008Y-118678485D01*
X122489335Y-118673589D01*
X122489339Y-118673586D01*
X122635586Y-118527339D01*
X122635589Y-118527335D01*
X122750494Y-118355368D01*
X122750499Y-118355358D01*
X122829648Y-118164276D01*
X122829649Y-118164274D01*
X122840843Y-118108000D01*
X121986988Y-118108000D01*
X122004205Y-118098060D01*
X122060060Y-118042205D01*
X122099556Y-117973796D01*
X122120000Y-117897496D01*
X122120000Y-117818504D01*
X122099556Y-117742204D01*
X122060060Y-117673795D01*
X122004205Y-117617940D01*
X121986988Y-117608000D01*
X122840843Y-117608000D01*
X122829649Y-117551725D01*
X122829648Y-117551723D01*
X122750499Y-117360641D01*
X122750494Y-117360631D01*
X122635589Y-117188664D01*
X122635586Y-117188660D01*
X122489339Y-117042413D01*
X122489335Y-117042410D01*
X122317368Y-116927505D01*
X122317358Y-116927500D01*
X122126274Y-116848350D01*
X122126266Y-116848348D01*
X121923420Y-116808000D01*
X121770000Y-116808000D01*
X121770000Y-117558000D01*
X121270000Y-117558000D01*
X121270000Y-116808000D01*
X121116579Y-116808000D01*
X120913733Y-116848348D01*
X120913725Y-116848350D01*
X120722641Y-116927500D01*
X120722631Y-116927505D01*
X120550664Y-117042410D01*
X120550660Y-117042413D01*
X120404413Y-117188660D01*
X120404410Y-117188664D01*
X120289505Y-117360631D01*
X120289500Y-117360641D01*
X120210351Y-117551723D01*
X120210350Y-117551725D01*
X120199157Y-117608000D01*
X119040843Y-117608000D01*
X119029649Y-117551725D01*
X119029648Y-117551723D01*
X118950499Y-117360641D01*
X118950494Y-117360631D01*
X118835589Y-117188664D01*
X118835586Y-117188660D01*
X118689339Y-117042413D01*
X118689335Y-117042410D01*
X118517368Y-116927505D01*
X118517358Y-116927500D01*
X118326274Y-116848350D01*
X118326266Y-116848348D01*
X118123420Y-116808000D01*
X117970000Y-116808000D01*
X117970000Y-117558000D01*
X117470000Y-117558000D01*
X117470000Y-116808000D01*
X117316579Y-116808000D01*
X117113733Y-116848348D01*
X117113725Y-116848350D01*
X116922641Y-116927500D01*
X116922631Y-116927505D01*
X116750664Y-117042410D01*
X116750660Y-117042413D01*
X116604413Y-117188660D01*
X116604410Y-117188664D01*
X116489505Y-117360631D01*
X116489500Y-117360641D01*
X116410351Y-117551723D01*
X116410350Y-117551725D01*
X116399157Y-117608000D01*
X115667954Y-117608000D01*
X115666781Y-114426996D01*
X138005435Y-114426996D01*
X138005435Y-114427003D01*
X138025630Y-114606249D01*
X138025631Y-114606254D01*
X138085211Y-114776523D01*
X138181184Y-114929262D01*
X138308738Y-115056816D01*
X138461478Y-115152789D01*
X138631745Y-115212368D01*
X138631750Y-115212369D01*
X138810996Y-115232565D01*
X138811000Y-115232565D01*
X138811004Y-115232565D01*
X138990249Y-115212369D01*
X138990252Y-115212368D01*
X138990255Y-115212368D01*
X139160522Y-115152789D01*
X139313262Y-115056816D01*
X139440816Y-114929262D01*
X139536789Y-114776522D01*
X139596368Y-114606255D01*
X139596369Y-114606249D01*
X139616565Y-114427003D01*
X139616565Y-114426996D01*
X139596369Y-114247750D01*
X139596367Y-114247740D01*
X139575750Y-114188822D01*
X139553440Y-114125066D01*
X139549878Y-114055290D01*
X139582799Y-113996434D01*
X142325416Y-111253819D01*
X142386739Y-111220334D01*
X142413097Y-111217500D01*
X146737588Y-111217500D01*
X146804627Y-111237185D01*
X146814903Y-111244555D01*
X146817736Y-111246814D01*
X146817738Y-111246816D01*
X146970478Y-111342789D01*
X147140745Y-111402368D01*
X147140750Y-111402369D01*
X147319996Y-111422565D01*
X147320000Y-111422565D01*
X147320004Y-111422565D01*
X147499249Y-111402369D01*
X147499252Y-111402368D01*
X147499255Y-111402368D01*
X147669522Y-111342789D01*
X147822262Y-111246816D01*
X147949816Y-111119262D01*
X148045789Y-110966522D01*
X148105368Y-110796255D01*
X148125565Y-110617000D01*
X148105368Y-110437745D01*
X148045789Y-110267478D01*
X147949816Y-110114738D01*
X147822262Y-109987184D01*
X147669523Y-109891211D01*
X147499254Y-109831631D01*
X147499249Y-109831630D01*
X147320004Y-109811435D01*
X147319996Y-109811435D01*
X147140750Y-109831630D01*
X147140745Y-109831631D01*
X146970476Y-109891211D01*
X146817736Y-109987185D01*
X146814903Y-109989445D01*
X146812724Y-109990334D01*
X146811842Y-109990889D01*
X146811744Y-109990734D01*
X146750217Y-110015855D01*
X146737588Y-110016500D01*
X142192057Y-110016500D01*
X142033943Y-110016500D01*
X141881215Y-110057423D01*
X141881214Y-110057423D01*
X141881212Y-110057424D01*
X141881209Y-110057425D01*
X141846066Y-110077716D01*
X141846064Y-110077717D01*
X141744290Y-110136475D01*
X141744282Y-110136481D01*
X138330481Y-113550282D01*
X138282310Y-113633717D01*
X138251424Y-113687212D01*
X138251423Y-113687213D01*
X138230961Y-113763579D01*
X138210499Y-113839943D01*
X138210499Y-113839945D01*
X138210499Y-113844589D01*
X138190814Y-113911628D01*
X138183445Y-113921903D01*
X138181184Y-113924737D01*
X138085211Y-114077476D01*
X138025631Y-114247745D01*
X138025630Y-114247750D01*
X138005435Y-114426996D01*
X115666781Y-114426996D01*
X115664767Y-108968000D01*
X116399157Y-108968000D01*
X117253012Y-108968000D01*
X117235795Y-108977940D01*
X117179940Y-109033795D01*
X117140444Y-109102204D01*
X117120000Y-109178504D01*
X117120000Y-109257496D01*
X117140444Y-109333796D01*
X117179940Y-109402205D01*
X117235795Y-109458060D01*
X117253012Y-109468000D01*
X116399157Y-109468000D01*
X116410350Y-109524274D01*
X116410351Y-109524276D01*
X116489500Y-109715358D01*
X116489505Y-109715368D01*
X116604410Y-109887335D01*
X116604413Y-109887339D01*
X116750660Y-110033586D01*
X116750664Y-110033589D01*
X116922631Y-110148494D01*
X116922641Y-110148499D01*
X117113725Y-110227649D01*
X117113733Y-110227651D01*
X117316579Y-110267999D01*
X117316583Y-110268000D01*
X117470000Y-110268000D01*
X117470000Y-109518000D01*
X117970000Y-109518000D01*
X117970000Y-110268000D01*
X118123417Y-110268000D01*
X118123420Y-110267999D01*
X118326266Y-110227651D01*
X118326274Y-110227649D01*
X118517358Y-110148499D01*
X118517368Y-110148494D01*
X118689335Y-110033589D01*
X118689339Y-110033586D01*
X118835586Y-109887339D01*
X118835589Y-109887335D01*
X118950494Y-109715368D01*
X118950499Y-109715358D01*
X119029648Y-109524276D01*
X119029649Y-109524274D01*
X119040843Y-109468000D01*
X118186988Y-109468000D01*
X118204205Y-109458060D01*
X118260060Y-109402205D01*
X118299556Y-109333796D01*
X118320000Y-109257496D01*
X118320000Y-109178504D01*
X118299556Y-109102204D01*
X118260060Y-109033795D01*
X118204205Y-108977940D01*
X118186988Y-108968000D01*
X119040843Y-108968000D01*
X120199157Y-108968000D01*
X121053012Y-108968000D01*
X121035795Y-108977940D01*
X120979940Y-109033795D01*
X120940444Y-109102204D01*
X120920000Y-109178504D01*
X120920000Y-109257496D01*
X120940444Y-109333796D01*
X120979940Y-109402205D01*
X121035795Y-109458060D01*
X121053012Y-109468000D01*
X120199157Y-109468000D01*
X120210350Y-109524274D01*
X120210351Y-109524276D01*
X120289500Y-109715358D01*
X120289505Y-109715368D01*
X120404410Y-109887335D01*
X120404413Y-109887339D01*
X120550660Y-110033586D01*
X120550664Y-110033589D01*
X120722631Y-110148494D01*
X120722641Y-110148499D01*
X120913725Y-110227649D01*
X120913733Y-110227651D01*
X121116579Y-110267999D01*
X121116583Y-110268000D01*
X121270000Y-110268000D01*
X121270000Y-109518000D01*
X121770000Y-109518000D01*
X121770000Y-110268000D01*
X121923417Y-110268000D01*
X121923420Y-110267999D01*
X122126266Y-110227651D01*
X122126274Y-110227649D01*
X122317358Y-110148499D01*
X122317368Y-110148494D01*
X122489335Y-110033589D01*
X122489339Y-110033586D01*
X122635586Y-109887339D01*
X122635589Y-109887335D01*
X122750494Y-109715368D01*
X122750499Y-109715358D01*
X122829648Y-109524276D01*
X122829649Y-109524274D01*
X122840843Y-109468000D01*
X121986988Y-109468000D01*
X122004205Y-109458060D01*
X122060060Y-109402205D01*
X122099556Y-109333796D01*
X122120000Y-109257496D01*
X122120000Y-109178504D01*
X122099556Y-109102204D01*
X122060060Y-109033795D01*
X122004205Y-108977940D01*
X121986988Y-108968000D01*
X122840843Y-108968000D01*
X122840444Y-108965996D01*
X164040435Y-108965996D01*
X164040435Y-108966003D01*
X164060630Y-109145249D01*
X164060631Y-109145254D01*
X164120211Y-109315523D01*
X164131693Y-109333796D01*
X164216019Y-109468000D01*
X164216185Y-109468263D01*
X164218445Y-109471097D01*
X164219334Y-109473275D01*
X164219889Y-109474158D01*
X164219734Y-109474255D01*
X164244855Y-109535783D01*
X164245500Y-109548412D01*
X164245500Y-119178587D01*
X164225815Y-119245626D01*
X164218450Y-119255896D01*
X164216186Y-119258734D01*
X164120211Y-119411476D01*
X164060631Y-119581745D01*
X164060630Y-119581750D01*
X164040435Y-119760996D01*
X164040435Y-119761003D01*
X164060630Y-119940249D01*
X164060631Y-119940254D01*
X164120211Y-120110523D01*
X164216184Y-120263262D01*
X164343738Y-120390816D01*
X164496478Y-120486789D01*
X164666745Y-120546368D01*
X164666750Y-120546369D01*
X164845996Y-120566565D01*
X164846000Y-120566565D01*
X164846004Y-120566565D01*
X165025249Y-120546369D01*
X165025252Y-120546368D01*
X165025255Y-120546368D01*
X165195522Y-120486789D01*
X165348262Y-120390816D01*
X165475816Y-120263262D01*
X165571789Y-120110522D01*
X165631368Y-119940255D01*
X165651565Y-119761000D01*
X165631368Y-119581745D01*
X165571789Y-119411478D01*
X165567264Y-119404277D01*
X165475813Y-119258734D01*
X165473550Y-119255896D01*
X165472659Y-119253715D01*
X165472111Y-119252842D01*
X165472264Y-119252745D01*
X165447144Y-119191209D01*
X165446500Y-119178587D01*
X165446500Y-116839940D01*
X165466185Y-116772901D01*
X165518989Y-116727146D01*
X165588147Y-116717202D01*
X165651703Y-116746227D01*
X165658181Y-116752259D01*
X165740738Y-116834816D01*
X165831080Y-116891582D01*
X165888251Y-116927505D01*
X165893478Y-116930789D01*
X166063745Y-116990368D01*
X166063750Y-116990369D01*
X166242996Y-117010565D01*
X166243000Y-117010565D01*
X166243004Y-117010565D01*
X166422249Y-116990369D01*
X166422252Y-116990368D01*
X166422255Y-116990368D01*
X166592522Y-116930789D01*
X166745262Y-116834816D01*
X166872816Y-116707262D01*
X166968789Y-116554522D01*
X167028368Y-116384255D01*
X167048565Y-116205000D01*
X167028368Y-116025745D01*
X166968789Y-115855478D01*
X166872816Y-115702738D01*
X166872814Y-115702736D01*
X166872813Y-115702734D01*
X166870550Y-115699896D01*
X166869659Y-115697715D01*
X166869111Y-115696842D01*
X166869264Y-115696745D01*
X166844144Y-115635209D01*
X166843500Y-115622587D01*
X166843500Y-114172996D01*
X175978435Y-114172996D01*
X175978435Y-114173003D01*
X175998630Y-114352249D01*
X175998631Y-114352254D01*
X176058211Y-114522523D01*
X176154185Y-114675263D01*
X176156445Y-114678097D01*
X176157334Y-114680275D01*
X176157889Y-114681158D01*
X176157734Y-114681255D01*
X176182855Y-114742783D01*
X176183500Y-114755412D01*
X176183500Y-117019587D01*
X176163815Y-117086626D01*
X176156450Y-117096896D01*
X176154186Y-117099734D01*
X176058211Y-117252476D01*
X175998631Y-117422745D01*
X175998630Y-117422750D01*
X175978435Y-117601996D01*
X175978435Y-117602003D01*
X175998630Y-117781249D01*
X175998631Y-117781254D01*
X176058211Y-117951523D01*
X176094461Y-118009214D01*
X176154184Y-118104262D01*
X176281738Y-118231816D01*
X176434478Y-118327789D01*
X176604745Y-118387368D01*
X176604750Y-118387369D01*
X176783996Y-118407565D01*
X176784000Y-118407565D01*
X176784004Y-118407565D01*
X176963249Y-118387369D01*
X176963252Y-118387368D01*
X176963255Y-118387368D01*
X177133522Y-118327789D01*
X177286262Y-118231816D01*
X177413816Y-118104262D01*
X177509789Y-117951522D01*
X177569368Y-117781255D01*
X177584077Y-117650709D01*
X177589565Y-117602003D01*
X177589565Y-117601996D01*
X177569369Y-117422750D01*
X177569368Y-117422745D01*
X177509788Y-117252476D01*
X177469689Y-117188660D01*
X177413816Y-117099738D01*
X177413814Y-117099736D01*
X177413813Y-117099734D01*
X177411550Y-117096896D01*
X177410659Y-117094715D01*
X177410111Y-117093842D01*
X177410264Y-117093745D01*
X177385144Y-117032209D01*
X177384500Y-117019587D01*
X177384500Y-114755412D01*
X177404185Y-114688373D01*
X177411555Y-114678097D01*
X177413810Y-114675267D01*
X177413816Y-114675262D01*
X177509789Y-114522522D01*
X177569368Y-114352255D01*
X177581143Y-114247750D01*
X177589565Y-114173003D01*
X177589565Y-114172996D01*
X177569369Y-113993750D01*
X177569368Y-113993745D01*
X177540634Y-113911628D01*
X177509789Y-113823478D01*
X177413816Y-113670738D01*
X177286262Y-113543184D01*
X177268880Y-113532262D01*
X177133523Y-113447211D01*
X176963254Y-113387631D01*
X176963249Y-113387630D01*
X176784004Y-113367435D01*
X176783996Y-113367435D01*
X176604750Y-113387630D01*
X176604745Y-113387631D01*
X176434476Y-113447211D01*
X176281737Y-113543184D01*
X176154184Y-113670737D01*
X176058211Y-113823476D01*
X175998631Y-113993745D01*
X175998630Y-113993750D01*
X175978435Y-114172996D01*
X166843500Y-114172996D01*
X166843500Y-113612412D01*
X166863185Y-113545373D01*
X166870555Y-113535097D01*
X166872810Y-113532267D01*
X166872816Y-113532262D01*
X166968789Y-113379522D01*
X167028368Y-113209255D01*
X167048565Y-113030000D01*
X167028368Y-112850745D01*
X166968789Y-112680478D01*
X166872816Y-112527738D01*
X166745262Y-112400184D01*
X166737107Y-112395060D01*
X166592523Y-112304211D01*
X166422254Y-112244631D01*
X166422249Y-112244630D01*
X166243004Y-112224435D01*
X166242996Y-112224435D01*
X166063750Y-112244630D01*
X166063745Y-112244631D01*
X165893476Y-112304211D01*
X165740737Y-112400184D01*
X165658181Y-112482741D01*
X165596858Y-112516226D01*
X165527166Y-112511242D01*
X165471233Y-112469370D01*
X165446816Y-112403906D01*
X165446500Y-112395060D01*
X165446500Y-109548412D01*
X165466185Y-109481373D01*
X165473555Y-109471097D01*
X165475810Y-109468267D01*
X165475816Y-109468262D01*
X165571789Y-109315522D01*
X165631368Y-109145255D01*
X165636219Y-109102204D01*
X165651565Y-108966003D01*
X165651565Y-108965996D01*
X165631369Y-108786750D01*
X165631368Y-108786745D01*
X165571788Y-108616476D01*
X165475815Y-108463737D01*
X165348262Y-108336184D01*
X165195523Y-108240211D01*
X165025254Y-108180631D01*
X165025249Y-108180630D01*
X164846004Y-108160435D01*
X164845996Y-108160435D01*
X164666750Y-108180630D01*
X164666745Y-108180631D01*
X164496476Y-108240211D01*
X164343737Y-108336184D01*
X164216184Y-108463737D01*
X164120211Y-108616476D01*
X164060631Y-108786745D01*
X164060630Y-108786750D01*
X164040435Y-108965996D01*
X122840444Y-108965996D01*
X122829649Y-108911725D01*
X122829648Y-108911723D01*
X122750499Y-108720641D01*
X122750494Y-108720631D01*
X122635589Y-108548664D01*
X122635586Y-108548660D01*
X122489339Y-108402413D01*
X122489335Y-108402410D01*
X122317368Y-108287505D01*
X122317358Y-108287500D01*
X122126274Y-108208350D01*
X122126266Y-108208348D01*
X121923420Y-108168000D01*
X121770000Y-108168000D01*
X121770000Y-108918000D01*
X121270000Y-108918000D01*
X121270000Y-108168000D01*
X121116579Y-108168000D01*
X120913733Y-108208348D01*
X120913725Y-108208350D01*
X120722641Y-108287500D01*
X120722631Y-108287505D01*
X120550664Y-108402410D01*
X120550660Y-108402413D01*
X120404413Y-108548660D01*
X120404410Y-108548664D01*
X120289505Y-108720631D01*
X120289500Y-108720641D01*
X120210351Y-108911723D01*
X120210350Y-108911725D01*
X120199157Y-108968000D01*
X119040843Y-108968000D01*
X119029649Y-108911725D01*
X119029648Y-108911723D01*
X118950499Y-108720641D01*
X118950494Y-108720631D01*
X118835589Y-108548664D01*
X118835586Y-108548660D01*
X118689339Y-108402413D01*
X118689335Y-108402410D01*
X118517368Y-108287505D01*
X118517358Y-108287500D01*
X118326274Y-108208350D01*
X118326266Y-108208348D01*
X118123420Y-108168000D01*
X117970000Y-108168000D01*
X117970000Y-108918000D01*
X117470000Y-108918000D01*
X117470000Y-108168000D01*
X117316579Y-108168000D01*
X117113733Y-108208348D01*
X117113725Y-108208350D01*
X116922641Y-108287500D01*
X116922631Y-108287505D01*
X116750664Y-108402410D01*
X116750660Y-108402413D01*
X116604413Y-108548660D01*
X116604410Y-108548664D01*
X116489505Y-108720631D01*
X116489500Y-108720641D01*
X116410351Y-108911723D01*
X116410350Y-108911725D01*
X116399157Y-108968000D01*
X115664767Y-108968000D01*
X115658772Y-92714402D01*
X115658879Y-92709996D01*
X116374916Y-92709996D01*
X116374916Y-92710003D01*
X116395235Y-93058869D01*
X116395236Y-93058880D01*
X116455914Y-93403002D01*
X116455916Y-93403011D01*
X116556145Y-93737800D01*
X116694555Y-94058670D01*
X116694561Y-94058683D01*
X116869289Y-94361322D01*
X117077967Y-94641625D01*
X117086148Y-94650296D01*
X118336320Y-93400125D01*
X118426554Y-93524320D01*
X118565680Y-93663446D01*
X118689873Y-93753678D01*
X117442818Y-95000733D01*
X117442819Y-95000734D01*
X117585484Y-95120445D01*
X117877461Y-95312480D01*
X118189739Y-95469314D01*
X118189745Y-95469316D01*
X118518130Y-95588838D01*
X118518133Y-95588839D01*
X118858171Y-95669429D01*
X119205276Y-95709999D01*
X119205277Y-95710000D01*
X119554723Y-95710000D01*
X119554723Y-95709999D01*
X119901827Y-95669429D01*
X119901829Y-95669429D01*
X120241866Y-95588839D01*
X120241869Y-95588838D01*
X120570254Y-95469316D01*
X120570260Y-95469314D01*
X120882538Y-95312480D01*
X121174509Y-95120449D01*
X121174510Y-95120448D01*
X121317179Y-95000734D01*
X121317180Y-95000733D01*
X120070126Y-93753678D01*
X120194320Y-93663446D01*
X120333446Y-93524320D01*
X120423678Y-93400126D01*
X121673849Y-94650297D01*
X121673851Y-94650296D01*
X121682022Y-94641636D01*
X121682033Y-94641623D01*
X121890710Y-94361322D01*
X122065438Y-94058683D01*
X122065444Y-94058670D01*
X122203854Y-93737800D01*
X122304083Y-93403011D01*
X122304085Y-93403002D01*
X122364763Y-93058880D01*
X122364764Y-93058869D01*
X122385084Y-92710003D01*
X122385084Y-92709996D01*
X198035415Y-92709996D01*
X198035415Y-92710003D01*
X198055738Y-93058927D01*
X198055739Y-93058938D01*
X198116428Y-93403127D01*
X198116430Y-93403134D01*
X198216674Y-93737972D01*
X198355107Y-94058895D01*
X198355113Y-94058908D01*
X198529870Y-94361597D01*
X198738584Y-94641949D01*
X198738589Y-94641955D01*
X198862463Y-94773253D01*
X198978442Y-94896183D01*
X199154903Y-95044251D01*
X199246186Y-95120847D01*
X199246194Y-95120853D01*
X199538203Y-95312911D01*
X199538207Y-95312913D01*
X199850549Y-95469777D01*
X200178989Y-95589319D01*
X200519086Y-95669923D01*
X200866241Y-95710500D01*
X200866248Y-95710500D01*
X201215752Y-95710500D01*
X201215759Y-95710500D01*
X201562914Y-95669923D01*
X201903011Y-95589319D01*
X202231451Y-95469777D01*
X202543793Y-95312913D01*
X202835811Y-95120849D01*
X203103558Y-94896183D01*
X203343412Y-94641953D01*
X203552130Y-94361596D01*
X203726889Y-94058904D01*
X203865326Y-93737971D01*
X203965569Y-93403136D01*
X203972269Y-93365143D01*
X204026260Y-93058938D01*
X204026259Y-93058938D01*
X204026262Y-93058927D01*
X204046585Y-92710000D01*
X204046408Y-92706966D01*
X204040855Y-92611623D01*
X204026262Y-92361073D01*
X204003180Y-92230167D01*
X203965571Y-92016872D01*
X203965569Y-92016865D01*
X203958790Y-91994221D01*
X203865326Y-91682029D01*
X203726889Y-91361096D01*
X203552130Y-91058404D01*
X203520223Y-91015545D01*
X203343415Y-90778050D01*
X203343410Y-90778044D01*
X203219061Y-90646243D01*
X203103558Y-90523817D01*
X202913890Y-90364667D01*
X202835813Y-90299152D01*
X202835805Y-90299146D01*
X202543796Y-90107088D01*
X202231458Y-89950226D01*
X202231452Y-89950223D01*
X201903012Y-89830681D01*
X201903009Y-89830680D01*
X201562915Y-89750077D01*
X201519519Y-89745004D01*
X201215759Y-89709500D01*
X200866241Y-89709500D01*
X200562480Y-89745004D01*
X200519085Y-89750077D01*
X200519083Y-89750077D01*
X200178990Y-89830680D01*
X200178987Y-89830681D01*
X199850547Y-89950223D01*
X199850541Y-89950226D01*
X199538203Y-90107088D01*
X199246194Y-90299146D01*
X199246186Y-90299152D01*
X198978442Y-90523817D01*
X198978440Y-90523819D01*
X198738589Y-90778044D01*
X198738584Y-90778050D01*
X198529870Y-91058402D01*
X198355113Y-91361091D01*
X198355107Y-91361104D01*
X198216674Y-91682027D01*
X198116430Y-92016865D01*
X198116428Y-92016872D01*
X198055739Y-92361061D01*
X198055738Y-92361072D01*
X198035415Y-92709996D01*
X122385084Y-92709996D01*
X122364764Y-92361130D01*
X122364763Y-92361119D01*
X122304085Y-92016997D01*
X122304083Y-92016988D01*
X122203854Y-91682199D01*
X122065444Y-91361329D01*
X122065438Y-91361316D01*
X121890710Y-91058677D01*
X121682032Y-90778374D01*
X121673850Y-90769702D01*
X120423678Y-92019873D01*
X120333446Y-91895680D01*
X120194320Y-91756554D01*
X120070125Y-91666320D01*
X121098450Y-90637995D01*
X147913499Y-90637995D01*
X147940418Y-90773322D01*
X147940421Y-90773332D01*
X147993221Y-90900804D01*
X147993228Y-90900817D01*
X148069885Y-91015541D01*
X148069888Y-91015545D01*
X148167454Y-91113111D01*
X148167458Y-91113114D01*
X148282182Y-91189771D01*
X148282195Y-91189778D01*
X148409667Y-91242578D01*
X148409672Y-91242580D01*
X148409676Y-91242580D01*
X148409677Y-91242581D01*
X148545004Y-91269500D01*
X148545007Y-91269500D01*
X148682995Y-91269500D01*
X148774041Y-91251389D01*
X148818328Y-91242580D01*
X148945811Y-91189775D01*
X149060542Y-91113114D01*
X149158114Y-91015542D01*
X149234775Y-90900811D01*
X149287580Y-90773328D01*
X149310702Y-90657086D01*
X149314500Y-90637995D01*
X150913499Y-90637995D01*
X150940418Y-90773322D01*
X150940421Y-90773332D01*
X150993221Y-90900804D01*
X150993228Y-90900817D01*
X151069885Y-91015541D01*
X151069888Y-91015545D01*
X151167454Y-91113111D01*
X151167458Y-91113114D01*
X151282182Y-91189771D01*
X151282195Y-91189778D01*
X151409667Y-91242578D01*
X151409672Y-91242580D01*
X151409676Y-91242580D01*
X151409677Y-91242581D01*
X151545004Y-91269500D01*
X151545007Y-91269500D01*
X151682995Y-91269500D01*
X151774041Y-91251389D01*
X151818328Y-91242580D01*
X151945811Y-91189775D01*
X152060542Y-91113114D01*
X152158114Y-91015542D01*
X152234775Y-90900811D01*
X152287580Y-90773328D01*
X152310702Y-90657086D01*
X152314500Y-90637995D01*
X152314500Y-90500004D01*
X152287581Y-90364677D01*
X152287580Y-90364676D01*
X152287580Y-90364672D01*
X152260441Y-90299152D01*
X152234778Y-90237195D01*
X152234771Y-90237182D01*
X152158114Y-90122458D01*
X152158111Y-90122454D01*
X152060545Y-90024888D01*
X152060541Y-90024885D01*
X151945817Y-89948228D01*
X151945804Y-89948221D01*
X151818332Y-89895421D01*
X151818322Y-89895418D01*
X151682995Y-89868500D01*
X151682993Y-89868500D01*
X151545007Y-89868500D01*
X151545005Y-89868500D01*
X151409677Y-89895418D01*
X151409667Y-89895421D01*
X151282195Y-89948221D01*
X151282182Y-89948228D01*
X151167458Y-90024885D01*
X151167454Y-90024888D01*
X151069888Y-90122454D01*
X151069885Y-90122458D01*
X150993228Y-90237182D01*
X150993221Y-90237195D01*
X150940421Y-90364667D01*
X150940418Y-90364677D01*
X150913500Y-90500004D01*
X150913500Y-90500007D01*
X150913500Y-90637993D01*
X150913500Y-90637995D01*
X150913499Y-90637995D01*
X149314500Y-90637995D01*
X149314500Y-90500004D01*
X149287581Y-90364677D01*
X149287580Y-90364676D01*
X149287580Y-90364672D01*
X149260441Y-90299152D01*
X149234778Y-90237195D01*
X149234771Y-90237182D01*
X149158114Y-90122458D01*
X149158111Y-90122454D01*
X149060545Y-90024888D01*
X149060541Y-90024885D01*
X148945817Y-89948228D01*
X148945804Y-89948221D01*
X148818332Y-89895421D01*
X148818322Y-89895418D01*
X148682995Y-89868500D01*
X148682993Y-89868500D01*
X148545007Y-89868500D01*
X148545005Y-89868500D01*
X148409677Y-89895418D01*
X148409667Y-89895421D01*
X148282195Y-89948221D01*
X148282182Y-89948228D01*
X148167458Y-90024885D01*
X148167454Y-90024888D01*
X148069888Y-90122454D01*
X148069885Y-90122458D01*
X147993228Y-90237182D01*
X147993221Y-90237195D01*
X147940421Y-90364667D01*
X147940418Y-90364677D01*
X147913500Y-90500004D01*
X147913500Y-90500007D01*
X147913500Y-90637993D01*
X147913500Y-90637995D01*
X147913499Y-90637995D01*
X121098450Y-90637995D01*
X121317180Y-90419265D01*
X121317179Y-90419264D01*
X121174519Y-90299557D01*
X120882538Y-90107519D01*
X120570260Y-89950685D01*
X120570254Y-89950683D01*
X120241869Y-89831161D01*
X120241866Y-89831160D01*
X119901828Y-89750570D01*
X119554723Y-89710000D01*
X119205277Y-89710000D01*
X118858172Y-89750570D01*
X118858170Y-89750570D01*
X118518133Y-89831160D01*
X118518130Y-89831161D01*
X118189745Y-89950683D01*
X118189739Y-89950685D01*
X117877461Y-90107519D01*
X117585480Y-90299557D01*
X117442819Y-90419264D01*
X117442818Y-90419265D01*
X118689874Y-91666320D01*
X118565680Y-91756554D01*
X118426554Y-91895680D01*
X118336320Y-92019873D01*
X117086148Y-90769701D01*
X117086147Y-90769702D01*
X117077976Y-90778363D01*
X117077972Y-90778368D01*
X116869289Y-91058677D01*
X116694561Y-91361316D01*
X116694555Y-91361329D01*
X116556145Y-91682199D01*
X116455916Y-92016988D01*
X116455914Y-92016997D01*
X116395236Y-92361119D01*
X116395235Y-92361130D01*
X116374916Y-92709996D01*
X115658879Y-92709996D01*
X115658919Y-92708322D01*
X115668860Y-92504494D01*
X115676193Y-92354119D01*
X115677382Y-92342010D01*
X115677571Y-92340733D01*
X115728855Y-91994208D01*
X115731221Y-91982296D01*
X115816546Y-91641211D01*
X115820069Y-91629583D01*
X115938420Y-91298517D01*
X115943072Y-91287277D01*
X115943521Y-91286328D01*
X116093319Y-90969389D01*
X116099029Y-90958701D01*
X116279731Y-90657054D01*
X116286459Y-90646981D01*
X116495851Y-90364520D01*
X116503560Y-90355122D01*
X116739634Y-90094555D01*
X116748210Y-90085976D01*
X117008695Y-89849806D01*
X117018084Y-89842099D01*
X117300448Y-89632619D01*
X117310555Y-89625863D01*
X117612122Y-89445061D01*
X117622825Y-89439340D01*
X117940657Y-89288978D01*
X117951861Y-89284336D01*
X118282905Y-89165859D01*
X118294531Y-89162332D01*
X118635590Y-89076883D01*
X118647502Y-89074513D01*
X118995281Y-89022915D01*
X119007379Y-89021722D01*
X119362343Y-89004283D01*
X119368402Y-89004135D01*
X119430523Y-89004136D01*
X119430527Y-89004135D01*
X200975108Y-89004135D01*
X201037949Y-89004135D01*
X201044032Y-89004283D01*
G37*
%TD.AperFunction*%
%TD*%
M02*
