%TF.GenerationSoftware,KiCad,Pcbnew,8.0.2*%
%TF.CreationDate,2024-05-25T15:23:05+03:00*%
%TF.ProjectId,sos_business_card,736f735f-6275-4736-996e-6573735f6361,A*%
%TF.SameCoordinates,Original*%
%TF.FileFunction,Legend,Top*%
%TF.FilePolarity,Positive*%
%FSLAX46Y46*%
G04 Gerber Fmt 4.6, Leading zero omitted, Abs format (unit mm)*
G04 Created by KiCad (PCBNEW 8.0.2) date 2024-05-25 15:23:05*
%MOMM*%
%LPD*%
G01*
G04 APERTURE LIST*
G04 Aperture macros list*
%AMRoundRect*
0 Rectangle with rounded corners*
0 $1 Rounding radius*
0 $2 $3 $4 $5 $6 $7 $8 $9 X,Y pos of 4 corners*
0 Add a 4 corners polygon primitive as box body*
4,1,4,$2,$3,$4,$5,$6,$7,$8,$9,$2,$3,0*
0 Add four circle primitives for the rounded corners*
1,1,$1+$1,$2,$3*
1,1,$1+$1,$4,$5*
1,1,$1+$1,$6,$7*
1,1,$1+$1,$8,$9*
0 Add four rect primitives between the rounded corners*
20,1,$1+$1,$2,$3,$4,$5,0*
20,1,$1+$1,$4,$5,$6,$7,0*
20,1,$1+$1,$6,$7,$8,$9,0*
20,1,$1+$1,$8,$9,$2,$3,0*%
G04 Aperture macros list end*
%ADD10C,0.300000*%
%ADD11C,0.250000*%
%ADD12C,0.120000*%
%ADD13C,2.900000*%
%ADD14C,5.000000*%
%ADD15RoundRect,0.250000X-0.250000X-0.475000X0.250000X-0.475000X0.250000X0.475000X-0.250000X0.475000X0*%
%ADD16RoundRect,0.250000X1.400000X1.000000X-1.400000X1.000000X-1.400000X-1.000000X1.400000X-1.000000X0*%
%ADD17RoundRect,0.250000X0.450000X-0.262500X0.450000X0.262500X-0.450000X0.262500X-0.450000X-0.262500X0*%
%ADD18RoundRect,0.150000X-0.825000X-0.150000X0.825000X-0.150000X0.825000X0.150000X-0.825000X0.150000X0*%
%ADD19RoundRect,0.250000X-0.450000X0.262500X-0.450000X-0.262500X0.450000X-0.262500X0.450000X0.262500X0*%
%ADD20RoundRect,0.175000X-0.425000X0.175000X-0.425000X-0.175000X0.425000X-0.175000X0.425000X0.175000X0*%
%ADD21RoundRect,0.190000X0.410000X-0.190000X0.410000X0.190000X-0.410000X0.190000X-0.410000X-0.190000X0*%
%ADD22RoundRect,0.200000X0.400000X-0.200000X0.400000X0.200000X-0.400000X0.200000X-0.400000X-0.200000X0*%
%ADD23RoundRect,0.175000X0.425000X-0.175000X0.425000X0.175000X-0.425000X0.175000X-0.425000X-0.175000X0*%
%ADD24RoundRect,0.190000X-0.410000X0.190000X-0.410000X-0.190000X0.410000X-0.190000X0.410000X0.190000X0*%
%ADD25RoundRect,0.200000X-0.400000X0.200000X-0.400000X-0.200000X0.400000X-0.200000X0.400000X0.200000X0*%
%ADD26O,1.700000X1.100000*%
%ADD27RoundRect,0.250000X0.625000X-0.375000X0.625000X0.375000X-0.625000X0.375000X-0.625000X-0.375000X0*%
%ADD28RoundRect,0.150000X0.875000X0.150000X-0.875000X0.150000X-0.875000X-0.150000X0.875000X-0.150000X0*%
%ADD29R,1.000000X0.800000*%
%ADD30C,0.900000*%
%ADD31R,0.700000X1.500000*%
%ADD32R,1.905000X2.000000*%
%ADD33O,1.905000X2.000000*%
%ADD34RoundRect,1.654167X-4.406533X-3.387733X4.406533X-3.387733X4.406533X3.387733X-4.406533X3.387733X0*%
%ADD35RoundRect,0.150000X-0.150000X0.587500X-0.150000X-0.587500X0.150000X-0.587500X0.150000X0.587500X0*%
%ADD36RoundRect,0.250000X-0.262500X-0.450000X0.262500X-0.450000X0.262500X0.450000X-0.262500X0.450000X0*%
%ADD37RoundRect,0.150000X-0.587500X-0.150000X0.587500X-0.150000X0.587500X0.150000X-0.587500X0.150000X0*%
%ADD38R,1.270000X5.080000*%
%ADD39C,17.800000*%
G04 APERTURE END LIST*
D10*
G36*
X120095896Y-100844498D02*
G01*
X120020418Y-101077694D01*
X119874840Y-101226110D01*
X119724568Y-101303494D01*
X119377708Y-101392730D01*
X119128159Y-101395014D01*
X118781914Y-101310960D01*
X118622297Y-101233511D01*
X118470847Y-101084957D01*
X118393263Y-100858799D01*
X118391499Y-100549585D01*
X120094201Y-100547167D01*
X120095896Y-100844498D01*
G37*
G36*
X120615583Y-101914875D02*
G01*
X117871139Y-101914875D01*
X117871139Y-100399796D01*
X118093361Y-100399796D01*
X118096061Y-100873331D01*
X118094539Y-100894747D01*
X118096225Y-100902163D01*
X118096243Y-100905250D01*
X118097760Y-100908912D01*
X118101059Y-100923420D01*
X118191482Y-101187002D01*
X118191482Y-101190964D01*
X118199393Y-101210064D01*
X118208286Y-101235986D01*
X118211816Y-101240056D01*
X118213879Y-101245036D01*
X118232534Y-101267767D01*
X118424063Y-101455634D01*
X118437108Y-101470676D01*
X118443499Y-101474699D01*
X118445741Y-101476898D01*
X118449400Y-101478413D01*
X118461994Y-101486341D01*
X118644455Y-101574874D01*
X118655480Y-101583043D01*
X118677513Y-101590914D01*
X118679934Y-101592089D01*
X118681016Y-101592165D01*
X118683172Y-101592936D01*
X119055907Y-101683419D01*
X119071240Y-101689771D01*
X119089462Y-101691565D01*
X119093213Y-101692476D01*
X119095400Y-101692150D01*
X119100504Y-101692653D01*
X119377658Y-101690117D01*
X119393510Y-101692476D01*
X119411557Y-101689806D01*
X119415483Y-101689771D01*
X119417527Y-101688923D01*
X119422599Y-101688174D01*
X119791994Y-101593140D01*
X119806790Y-101592089D01*
X119828756Y-101583682D01*
X119831242Y-101583043D01*
X119832112Y-101582398D01*
X119834253Y-101581579D01*
X120023351Y-101484200D01*
X120040982Y-101476898D01*
X120046792Y-101472129D01*
X120049615Y-101470676D01*
X120052211Y-101467681D01*
X120063713Y-101458243D01*
X120236679Y-101281905D01*
X120240090Y-101280200D01*
X120253359Y-101264899D01*
X120272844Y-101245036D01*
X120274906Y-101240056D01*
X120278437Y-101235986D01*
X120290426Y-101209135D01*
X120382726Y-100923965D01*
X120390479Y-100905250D01*
X120391220Y-100897723D01*
X120392184Y-100894746D01*
X120391902Y-100890791D01*
X120393361Y-100875986D01*
X120390479Y-100370532D01*
X120368081Y-100316460D01*
X120326697Y-100275076D01*
X120272625Y-100252678D01*
X120243361Y-100249796D01*
X118214097Y-100252678D01*
X118160025Y-100275076D01*
X118118641Y-100316460D01*
X118096243Y-100370532D01*
X118093361Y-100399796D01*
X117871139Y-100399796D01*
X117871139Y-99436938D01*
X118093727Y-99436938D01*
X118096243Y-99456729D01*
X118096243Y-99476679D01*
X118099902Y-99485512D01*
X118101108Y-99494998D01*
X118111006Y-99512320D01*
X118118641Y-99530751D01*
X118125401Y-99537511D01*
X118130146Y-99545814D01*
X118145917Y-99558027D01*
X118160025Y-99572135D01*
X118168860Y-99575794D01*
X118176420Y-99581649D01*
X118195664Y-99586897D01*
X118214097Y-99594533D01*
X118229063Y-99596006D01*
X118232884Y-99597049D01*
X118235835Y-99596673D01*
X118243361Y-99597415D01*
X120272625Y-99594533D01*
X120326697Y-99572135D01*
X120368081Y-99530751D01*
X120390479Y-99476679D01*
X120390479Y-99418151D01*
X120368081Y-99364079D01*
X120326697Y-99322695D01*
X120272625Y-99300297D01*
X120243361Y-99297415D01*
X118803222Y-99299460D01*
X120308610Y-98436769D01*
X120326697Y-98429278D01*
X120333426Y-98422548D01*
X120341760Y-98417773D01*
X120353973Y-98402001D01*
X120368081Y-98387894D01*
X120371740Y-98379058D01*
X120377595Y-98371499D01*
X120382842Y-98352256D01*
X120390479Y-98333822D01*
X120390479Y-98324257D01*
X120392994Y-98315036D01*
X120390479Y-98295249D01*
X120390479Y-98275294D01*
X120386819Y-98266459D01*
X120385614Y-98256975D01*
X120375715Y-98239652D01*
X120368081Y-98221222D01*
X120361320Y-98214461D01*
X120356576Y-98206159D01*
X120340804Y-98193945D01*
X120326697Y-98179838D01*
X120317861Y-98176178D01*
X120310302Y-98170324D01*
X120291060Y-98165076D01*
X120272625Y-98157440D01*
X120257653Y-98155965D01*
X120253838Y-98154925D01*
X120250891Y-98155299D01*
X120243361Y-98154558D01*
X118214097Y-98157440D01*
X118160025Y-98179838D01*
X118118641Y-98221222D01*
X118096243Y-98275294D01*
X118096243Y-98333822D01*
X118118641Y-98387894D01*
X118160025Y-98429278D01*
X118214097Y-98451676D01*
X118243361Y-98454558D01*
X119683499Y-98452512D01*
X118178111Y-99315203D01*
X118160025Y-99322695D01*
X118153295Y-99329424D01*
X118144962Y-99334200D01*
X118132748Y-99349971D01*
X118118641Y-99364079D01*
X118114981Y-99372914D01*
X118109127Y-99380474D01*
X118103878Y-99399718D01*
X118096243Y-99418151D01*
X118096243Y-99427713D01*
X118093727Y-99436938D01*
X117871139Y-99436938D01*
X117871139Y-96875987D01*
X118093361Y-96875987D01*
X118095861Y-97066619D01*
X118094539Y-97085224D01*
X118096201Y-97092533D01*
X118096243Y-97095727D01*
X118097759Y-97099388D01*
X118101059Y-97113898D01*
X118191482Y-97377478D01*
X118191482Y-97381440D01*
X118199393Y-97400539D01*
X118208286Y-97426462D01*
X118211816Y-97430532D01*
X118213879Y-97435512D01*
X118232534Y-97458243D01*
X118350503Y-97572136D01*
X118382177Y-97585255D01*
X118404574Y-97594533D01*
X118433838Y-97597415D01*
X119129768Y-97594533D01*
X119183840Y-97572135D01*
X119225224Y-97530751D01*
X119247622Y-97476679D01*
X119247622Y-97476678D01*
X119250504Y-97447415D01*
X119247622Y-97037199D01*
X119225224Y-96983127D01*
X119183840Y-96941743D01*
X119129768Y-96919345D01*
X119071240Y-96919345D01*
X119017168Y-96941743D01*
X118975784Y-96983127D01*
X118953386Y-97037199D01*
X118950504Y-97066463D01*
X118952130Y-97298029D01*
X118496986Y-97299914D01*
X118470460Y-97274304D01*
X118393130Y-97048890D01*
X118391258Y-96906134D01*
X118466303Y-96674278D01*
X118611882Y-96525862D01*
X118762155Y-96448477D01*
X119109013Y-96359242D01*
X119358563Y-96356958D01*
X119704808Y-96441012D01*
X119864425Y-96518460D01*
X120015874Y-96667014D01*
X120093519Y-96893350D01*
X120095617Y-97122605D01*
X120003449Y-97312558D01*
X119999301Y-97370939D01*
X120017809Y-97426461D01*
X120056155Y-97470676D01*
X120108504Y-97496851D01*
X120166885Y-97500999D01*
X120222407Y-97482491D01*
X120266622Y-97444145D01*
X120282287Y-97419259D01*
X120365635Y-97247482D01*
X120368081Y-97245037D01*
X120375425Y-97227306D01*
X120388035Y-97201319D01*
X120388416Y-97195943D01*
X120390479Y-97190965D01*
X120393361Y-97161701D01*
X120390758Y-96877279D01*
X120392184Y-96857227D01*
X120390507Y-96849854D01*
X120390479Y-96846723D01*
X120388963Y-96843065D01*
X120385664Y-96828553D01*
X120295241Y-96564970D01*
X120295241Y-96561009D01*
X120287329Y-96541908D01*
X120278437Y-96515987D01*
X120274906Y-96511916D01*
X120272844Y-96506937D01*
X120254189Y-96484206D01*
X120062662Y-96296340D01*
X120049615Y-96281297D01*
X120043223Y-96277273D01*
X120040982Y-96275075D01*
X120037322Y-96273559D01*
X120024729Y-96265632D01*
X119842263Y-96177096D01*
X119831242Y-96168930D01*
X119809214Y-96161060D01*
X119806790Y-96159884D01*
X119805706Y-96159807D01*
X119803551Y-96159037D01*
X119430815Y-96068553D01*
X119415483Y-96062202D01*
X119397260Y-96060407D01*
X119393510Y-96059497D01*
X119391322Y-96059822D01*
X119386219Y-96059320D01*
X119109063Y-96061855D01*
X119093213Y-96059497D01*
X119075164Y-96062166D01*
X119071240Y-96062202D01*
X119069195Y-96063048D01*
X119064123Y-96063799D01*
X118694727Y-96158832D01*
X118679934Y-96159884D01*
X118657968Y-96168289D01*
X118655480Y-96168930D01*
X118654608Y-96169575D01*
X118652470Y-96170394D01*
X118463371Y-96267772D01*
X118445741Y-96275075D01*
X118439930Y-96279843D01*
X118437108Y-96281297D01*
X118434511Y-96284290D01*
X118423010Y-96293730D01*
X118250042Y-96470068D01*
X118246634Y-96471773D01*
X118233368Y-96487067D01*
X118213879Y-96506937D01*
X118211816Y-96511916D01*
X118208286Y-96515987D01*
X118196298Y-96542838D01*
X118103999Y-96827998D01*
X118096243Y-96846723D01*
X118095501Y-96854252D01*
X118094539Y-96857226D01*
X118094819Y-96861175D01*
X118093361Y-96875987D01*
X117871139Y-96875987D01*
X117871139Y-95837098D01*
X120615583Y-95837098D01*
X120615583Y-101914875D01*
G37*
X155405666Y-102146971D02*
X155405666Y-103289828D01*
X155538999Y-103432685D02*
X156072332Y-103861257D01*
X155538999Y-102004114D02*
X156072332Y-101575542D01*
X155538999Y-101861257D02*
X155538999Y-103575542D01*
X155672332Y-103575542D02*
X155672332Y-101861257D01*
X155805666Y-101718400D02*
X155805666Y-103718400D01*
X155938999Y-103718400D02*
X155938999Y-101718400D01*
X156072332Y-101575542D02*
X156072332Y-103861257D01*
X156205666Y-103861257D02*
X156205666Y-101575542D01*
X156338999Y-101575542D02*
X156338999Y-103861257D01*
X156472332Y-103861257D02*
X156472332Y-101575542D01*
X156605666Y-103861257D02*
X157138999Y-103432685D01*
X156605666Y-101575542D02*
X156605666Y-103861257D01*
X156605666Y-101575542D02*
X157138999Y-102004114D01*
X156738999Y-103718400D02*
X156738999Y-101718400D01*
X156872332Y-101718400D02*
X156872332Y-103718400D01*
X157005666Y-103575542D02*
X157005666Y-101861257D01*
X157138999Y-101861257D02*
X157138999Y-103575542D01*
X157272332Y-103289828D02*
X157272332Y-102146971D01*
X156072332Y-101575542D02*
X156605666Y-101575542D01*
X156605666Y-101575542D02*
X157138999Y-101861257D01*
X157138999Y-101861257D02*
X157405666Y-102432685D01*
X157405666Y-102432685D02*
X157405666Y-103004114D01*
X157405666Y-103004114D02*
X157138999Y-103575542D01*
X157138999Y-103575542D02*
X156605666Y-103861257D01*
X156605666Y-103861257D02*
X156072332Y-103861257D01*
X156072332Y-103861257D02*
X155538999Y-103575542D01*
X155538999Y-103575542D02*
X155272332Y-103004114D01*
X155272332Y-103004114D02*
X155272332Y-102432685D01*
X155272332Y-102432685D02*
X155538999Y-101861257D01*
X155538999Y-101861257D02*
X156072332Y-101575542D01*
X158872333Y-102146971D02*
X158872333Y-103289828D01*
X159005666Y-103432685D02*
X159538999Y-103861257D01*
X159005666Y-102004114D02*
X159538999Y-101575542D01*
X159005666Y-101861257D02*
X159005666Y-103575542D01*
X159138999Y-103575542D02*
X159138999Y-101861257D01*
X159272333Y-101718400D02*
X159272333Y-103718400D01*
X159405666Y-103718400D02*
X159405666Y-101718400D01*
X159538999Y-101575542D02*
X159538999Y-103861257D01*
X159672333Y-103861257D02*
X159672333Y-101575542D01*
X159805666Y-101575542D02*
X159805666Y-103861257D01*
X159938999Y-103861257D02*
X159938999Y-101575542D01*
X160072333Y-103861257D02*
X160605666Y-103432685D01*
X160072333Y-101575542D02*
X160072333Y-103861257D01*
X160072333Y-101575542D02*
X160605666Y-102004114D01*
X160205666Y-103718400D02*
X160205666Y-101718400D01*
X160338999Y-101718400D02*
X160338999Y-103718400D01*
X160472333Y-103575542D02*
X160472333Y-101861257D01*
X160605666Y-101861257D02*
X160605666Y-103575542D01*
X160738999Y-103289828D02*
X160738999Y-102146971D01*
X159538999Y-101575542D02*
X160072333Y-101575542D01*
X160072333Y-101575542D02*
X160605666Y-101861257D01*
X160605666Y-101861257D02*
X160872333Y-102432685D01*
X160872333Y-102432685D02*
X160872333Y-103004114D01*
X160872333Y-103004114D02*
X160605666Y-103575542D01*
X160605666Y-103575542D02*
X160072333Y-103861257D01*
X160072333Y-103861257D02*
X159538999Y-103861257D01*
X159538999Y-103861257D02*
X159005666Y-103575542D01*
X159005666Y-103575542D02*
X158738999Y-103004114D01*
X158738999Y-103004114D02*
X158738999Y-102432685D01*
X158738999Y-102432685D02*
X159005666Y-101861257D01*
X159005666Y-101861257D02*
X159538999Y-101575542D01*
X162339000Y-102146971D02*
X162339000Y-103289828D01*
X162472333Y-103432685D02*
X163005666Y-103861257D01*
X162472333Y-102004114D02*
X163005666Y-101575542D01*
X162472333Y-101861257D02*
X162472333Y-103575542D01*
X162605666Y-103575542D02*
X162605666Y-101861257D01*
X162739000Y-101718400D02*
X162739000Y-103718400D01*
X162872333Y-103718400D02*
X162872333Y-101718400D01*
X163005666Y-101575542D02*
X163005666Y-103861257D01*
X163139000Y-103861257D02*
X163139000Y-101575542D01*
X163272333Y-101575542D02*
X163272333Y-103861257D01*
X163405666Y-103861257D02*
X163405666Y-101575542D01*
X163539000Y-103861257D02*
X164072333Y-103432685D01*
X163539000Y-101575542D02*
X163539000Y-103861257D01*
X163539000Y-101575542D02*
X164072333Y-102004114D01*
X163672333Y-103718400D02*
X163672333Y-101718400D01*
X163805666Y-101718400D02*
X163805666Y-103718400D01*
X163939000Y-103575542D02*
X163939000Y-101861257D01*
X164072333Y-101861257D02*
X164072333Y-103575542D01*
X164205666Y-103289828D02*
X164205666Y-102146971D01*
X163005666Y-101575542D02*
X163539000Y-101575542D01*
X163539000Y-101575542D02*
X164072333Y-101861257D01*
X164072333Y-101861257D02*
X164339000Y-102432685D01*
X164339000Y-102432685D02*
X164339000Y-103004114D01*
X164339000Y-103004114D02*
X164072333Y-103575542D01*
X164072333Y-103575542D02*
X163539000Y-103861257D01*
X163539000Y-103861257D02*
X163005666Y-103861257D01*
X163005666Y-103861257D02*
X162472333Y-103575542D01*
X162472333Y-103575542D02*
X162205666Y-103004114D01*
X162205666Y-103004114D02*
X162205666Y-102432685D01*
X162205666Y-102432685D02*
X162472333Y-101861257D01*
X162472333Y-101861257D02*
X163005666Y-101575542D01*
X167805666Y-102718400D02*
X169939000Y-102718400D01*
X171272333Y-102718400D02*
X173405667Y-102718400D01*
X174739000Y-102718400D02*
X176872334Y-102718400D01*
X180472334Y-102146971D02*
X180472334Y-103289828D01*
X180605667Y-103432685D02*
X181139000Y-103861257D01*
X180605667Y-102004114D02*
X181139000Y-101575542D01*
X180605667Y-101861257D02*
X180605667Y-103575542D01*
X180739000Y-103575542D02*
X180739000Y-101861257D01*
X180872334Y-101718400D02*
X180872334Y-103718400D01*
X181005667Y-103718400D02*
X181005667Y-101718400D01*
X181139000Y-101575542D02*
X181139000Y-103861257D01*
X181272334Y-103861257D02*
X181272334Y-101575542D01*
X181405667Y-101575542D02*
X181405667Y-103861257D01*
X181539000Y-103861257D02*
X181539000Y-101575542D01*
X181672334Y-103861257D02*
X182205667Y-103432685D01*
X181672334Y-101575542D02*
X181672334Y-103861257D01*
X181672334Y-101575542D02*
X182205667Y-102004114D01*
X181805667Y-103718400D02*
X181805667Y-101718400D01*
X181939000Y-101718400D02*
X181939000Y-103718400D01*
X182072334Y-103575542D02*
X182072334Y-101861257D01*
X182205667Y-101861257D02*
X182205667Y-103575542D01*
X182339000Y-103289828D02*
X182339000Y-102146971D01*
X181139000Y-101575542D02*
X181672334Y-101575542D01*
X181672334Y-101575542D02*
X182205667Y-101861257D01*
X182205667Y-101861257D02*
X182472334Y-102432685D01*
X182472334Y-102432685D02*
X182472334Y-103004114D01*
X182472334Y-103004114D02*
X182205667Y-103575542D01*
X182205667Y-103575542D02*
X181672334Y-103861257D01*
X181672334Y-103861257D02*
X181139000Y-103861257D01*
X181139000Y-103861257D02*
X180605667Y-103575542D01*
X180605667Y-103575542D02*
X180339000Y-103004114D01*
X180339000Y-103004114D02*
X180339000Y-102432685D01*
X180339000Y-102432685D02*
X180605667Y-101861257D01*
X180605667Y-101861257D02*
X181139000Y-101575542D01*
X183939001Y-102146971D02*
X183939001Y-103289828D01*
X184072334Y-103432685D02*
X184605667Y-103861257D01*
X184072334Y-102004114D02*
X184605667Y-101575542D01*
X184072334Y-101861257D02*
X184072334Y-103575542D01*
X184205667Y-103575542D02*
X184205667Y-101861257D01*
X184339001Y-101718400D02*
X184339001Y-103718400D01*
X184472334Y-103718400D02*
X184472334Y-101718400D01*
X184605667Y-101575542D02*
X184605667Y-103861257D01*
X184739001Y-103861257D02*
X184739001Y-101575542D01*
X184872334Y-101575542D02*
X184872334Y-103861257D01*
X185005667Y-103861257D02*
X185005667Y-101575542D01*
X185139001Y-103861257D02*
X185672334Y-103432685D01*
X185139001Y-101575542D02*
X185139001Y-103861257D01*
X185139001Y-101575542D02*
X185672334Y-102004114D01*
X185272334Y-103718400D02*
X185272334Y-101718400D01*
X185405667Y-101718400D02*
X185405667Y-103718400D01*
X185539001Y-103575542D02*
X185539001Y-101861257D01*
X185672334Y-101861257D02*
X185672334Y-103575542D01*
X185805667Y-103289828D02*
X185805667Y-102146971D01*
X184605667Y-101575542D02*
X185139001Y-101575542D01*
X185139001Y-101575542D02*
X185672334Y-101861257D01*
X185672334Y-101861257D02*
X185939001Y-102432685D01*
X185939001Y-102432685D02*
X185939001Y-103004114D01*
X185939001Y-103004114D02*
X185672334Y-103575542D01*
X185672334Y-103575542D02*
X185139001Y-103861257D01*
X185139001Y-103861257D02*
X184605667Y-103861257D01*
X184605667Y-103861257D02*
X184072334Y-103575542D01*
X184072334Y-103575542D02*
X183805667Y-103004114D01*
X183805667Y-103004114D02*
X183805667Y-102432685D01*
X183805667Y-102432685D02*
X184072334Y-101861257D01*
X184072334Y-101861257D02*
X184605667Y-101575542D01*
X187405668Y-102146971D02*
X187405668Y-103289828D01*
X187539001Y-103432685D02*
X188072334Y-103861257D01*
X187539001Y-102004114D02*
X188072334Y-101575542D01*
X187539001Y-101861257D02*
X187539001Y-103575542D01*
X187672334Y-103575542D02*
X187672334Y-101861257D01*
X187805668Y-101718400D02*
X187805668Y-103718400D01*
X187939001Y-103718400D02*
X187939001Y-101718400D01*
X188072334Y-101575542D02*
X188072334Y-103861257D01*
X188205668Y-103861257D02*
X188205668Y-101575542D01*
X188339001Y-101575542D02*
X188339001Y-103861257D01*
X188472334Y-103861257D02*
X188472334Y-101575542D01*
X188605668Y-103861257D02*
X189139001Y-103432685D01*
X188605668Y-101575542D02*
X188605668Y-103861257D01*
X188605668Y-101575542D02*
X189139001Y-102004114D01*
X188739001Y-103718400D02*
X188739001Y-101718400D01*
X188872334Y-101718400D02*
X188872334Y-103718400D01*
X189005668Y-103575542D02*
X189005668Y-101861257D01*
X189139001Y-101861257D02*
X189139001Y-103575542D01*
X189272334Y-103289828D02*
X189272334Y-102146971D01*
X188072334Y-101575542D02*
X188605668Y-101575542D01*
X188605668Y-101575542D02*
X189139001Y-101861257D01*
X189139001Y-101861257D02*
X189405668Y-102432685D01*
X189405668Y-102432685D02*
X189405668Y-103004114D01*
X189405668Y-103004114D02*
X189139001Y-103575542D01*
X189139001Y-103575542D02*
X188605668Y-103861257D01*
X188605668Y-103861257D02*
X188072334Y-103861257D01*
X188072334Y-103861257D02*
X187539001Y-103575542D01*
X187539001Y-103575542D02*
X187272334Y-103004114D01*
X187272334Y-103004114D02*
X187272334Y-102432685D01*
X187272334Y-102432685D02*
X187539001Y-101861257D01*
X187539001Y-101861257D02*
X188072334Y-101575542D01*
G36*
X159663767Y-100141683D02*
G01*
X159075569Y-100118740D01*
X158454573Y-100038079D01*
X157876700Y-99899342D01*
X157515407Y-99774586D01*
X156969009Y-99515012D01*
X156502181Y-99197906D01*
X156114922Y-98823270D01*
X156047019Y-98741439D01*
X155791995Y-98343660D01*
X155620434Y-97899628D01*
X155532335Y-97409345D01*
X155519455Y-97116980D01*
X157395240Y-97116980D01*
X157450217Y-97559846D01*
X157647687Y-97991789D01*
X157682469Y-98040218D01*
X158050322Y-98401465D01*
X158473816Y-98649115D01*
X159041068Y-98825779D01*
X159599287Y-98875528D01*
X160211070Y-98863048D01*
X160933174Y-98807578D01*
X161548299Y-98707732D01*
X162166768Y-98520521D01*
X162688287Y-98204343D01*
X162969106Y-97788320D01*
X163022595Y-97455501D01*
X162935080Y-97004746D01*
X162620739Y-96577439D01*
X162158158Y-96280407D01*
X161622351Y-96082905D01*
X161193704Y-95980518D01*
X160588227Y-95884010D01*
X159984828Y-95784905D01*
X159438087Y-95692556D01*
X158835884Y-95588539D01*
X158230218Y-95485042D01*
X157676607Y-95391404D01*
X157109201Y-95181954D01*
X156637965Y-94919052D01*
X156199427Y-94533013D01*
X155899374Y-94070003D01*
X155755118Y-93625364D01*
X155707033Y-93127273D01*
X155773932Y-92641942D01*
X155974628Y-92195740D01*
X156309121Y-91788668D01*
X156777412Y-91420725D01*
X157105079Y-91228041D01*
X157662027Y-90973654D01*
X158253196Y-90781749D01*
X158878586Y-90652324D01*
X159538196Y-90585380D01*
X159930480Y-90575180D01*
X160606251Y-90594731D01*
X161231119Y-90653387D01*
X161805086Y-90751146D01*
X162410380Y-90914621D01*
X162946391Y-91131321D01*
X163418520Y-91403707D01*
X163845878Y-91789080D01*
X164140281Y-92247243D01*
X164286803Y-92697888D01*
X164335644Y-93202011D01*
X162459859Y-93202011D01*
X162378286Y-92723777D01*
X162100121Y-92321194D01*
X161624549Y-92047964D01*
X161037207Y-91914179D01*
X160450451Y-91857679D01*
X159822037Y-91841334D01*
X159176949Y-91874447D01*
X158547169Y-92001598D01*
X158011419Y-92270470D01*
X157689968Y-92669142D01*
X157585005Y-93114172D01*
X157582818Y-93197615D01*
X157727718Y-93657933D01*
X158162418Y-94029920D01*
X158700873Y-94258175D01*
X159301940Y-94411293D01*
X159414639Y-94432995D01*
X160020117Y-94545607D01*
X160623516Y-94659778D01*
X161170257Y-94764921D01*
X161772806Y-94882067D01*
X162379511Y-95000771D01*
X162934667Y-95110036D01*
X163500385Y-95338774D01*
X163970219Y-95614202D01*
X164407452Y-96006347D01*
X164706611Y-96465725D01*
X164850438Y-96899898D01*
X164898380Y-97380762D01*
X164856234Y-97825186D01*
X164694392Y-98309474D01*
X164411170Y-98740284D01*
X164006566Y-99117617D01*
X163480582Y-99441471D01*
X163172071Y-99583344D01*
X162628124Y-99773092D01*
X162031625Y-99923582D01*
X161382577Y-100034814D01*
X160801560Y-100097518D01*
X160184050Y-100132959D01*
X159663767Y-100141683D01*
G37*
G36*
X173149499Y-90595822D02*
G01*
X173769708Y-90657749D01*
X174350074Y-90760961D01*
X175019505Y-90948032D01*
X175626682Y-91199610D01*
X176171606Y-91515696D01*
X176654277Y-91896289D01*
X177043524Y-92303415D01*
X177366798Y-92749932D01*
X177624097Y-93235841D01*
X177815422Y-93761140D01*
X177920981Y-94209742D01*
X177984316Y-94683554D01*
X178005428Y-95182577D01*
X177984362Y-95692281D01*
X177921164Y-96179454D01*
X177815835Y-96644095D01*
X177668373Y-97086205D01*
X177478779Y-97505784D01*
X177182540Y-97998573D01*
X176820469Y-98456156D01*
X176657208Y-98629332D01*
X176265106Y-98983789D01*
X175836185Y-99290986D01*
X175248256Y-99608520D01*
X174602797Y-99852210D01*
X174045007Y-99993993D01*
X173450398Y-100088515D01*
X172818969Y-100135776D01*
X172489448Y-100141683D01*
X171830725Y-100118053D01*
X171210104Y-100047161D01*
X170627584Y-99929009D01*
X170083167Y-99763595D01*
X169456226Y-99490368D01*
X168888820Y-99143295D01*
X168477759Y-98812468D01*
X168286517Y-98629332D01*
X167898113Y-98185831D01*
X167575541Y-97707124D01*
X167318800Y-97193212D01*
X167160805Y-96756735D01*
X167044942Y-96297726D01*
X166971212Y-95816186D01*
X166939613Y-95312115D01*
X166938363Y-95189171D01*
X168814081Y-95189171D01*
X168832900Y-95673899D01*
X168889358Y-96126534D01*
X169006789Y-96627334D01*
X169178419Y-97081921D01*
X169404248Y-97490294D01*
X169584912Y-97736868D01*
X169970109Y-98123835D01*
X170428878Y-98430739D01*
X170961216Y-98657582D01*
X171567126Y-98804362D01*
X172246605Y-98871081D01*
X172489448Y-98875528D01*
X173084589Y-98847783D01*
X173728108Y-98741239D01*
X174294553Y-98554789D01*
X174783924Y-98288430D01*
X175196221Y-97942165D01*
X175373467Y-97739066D01*
X175668110Y-97297734D01*
X175863061Y-96867542D01*
X176004844Y-96389436D01*
X176093459Y-95863417D01*
X176126689Y-95388468D01*
X176129643Y-95189171D01*
X176097649Y-94590876D01*
X176001667Y-94051430D01*
X175841698Y-93570832D01*
X175617740Y-93149083D01*
X175219594Y-92678294D01*
X174707692Y-92312124D01*
X174082033Y-92050574D01*
X173342618Y-91893644D01*
X172713405Y-91844604D01*
X172489448Y-91841334D01*
X171832619Y-91870759D01*
X171240397Y-91959032D01*
X170551266Y-92168272D01*
X169976990Y-92482131D01*
X169517569Y-92900611D01*
X169173004Y-93423710D01*
X168989953Y-93884692D01*
X168871509Y-94404522D01*
X168817670Y-94983201D01*
X168814081Y-95189171D01*
X166938363Y-95189171D01*
X166938296Y-95182577D01*
X166959408Y-94683554D01*
X167022743Y-94209742D01*
X167128302Y-93761140D01*
X167319627Y-93235841D01*
X167576926Y-92749932D01*
X167900200Y-92303415D01*
X168289448Y-91896289D01*
X168781478Y-91515696D01*
X169334330Y-91199610D01*
X169948004Y-90948032D01*
X170622501Y-90760961D01*
X171205890Y-90657749D01*
X171828206Y-90595822D01*
X172489448Y-90575180D01*
X173149499Y-90595822D01*
G37*
G36*
X184388959Y-100141683D02*
G01*
X183800761Y-100118740D01*
X183179765Y-100038079D01*
X182601891Y-99899342D01*
X182240599Y-99774586D01*
X181694201Y-99515012D01*
X181227373Y-99197906D01*
X180840114Y-98823270D01*
X180772211Y-98741439D01*
X180517187Y-98343660D01*
X180345626Y-97899628D01*
X180257526Y-97409345D01*
X180244646Y-97116980D01*
X182120432Y-97116980D01*
X182175409Y-97559846D01*
X182372879Y-97991789D01*
X182407661Y-98040218D01*
X182775514Y-98401465D01*
X183199008Y-98649115D01*
X183766260Y-98825779D01*
X184324479Y-98875528D01*
X184936262Y-98863048D01*
X185658365Y-98807578D01*
X186273491Y-98707732D01*
X186891960Y-98520521D01*
X187413479Y-98204343D01*
X187694298Y-97788320D01*
X187747787Y-97455501D01*
X187660271Y-97004746D01*
X187345931Y-96577439D01*
X186883350Y-96280407D01*
X186347542Y-96082905D01*
X185918896Y-95980518D01*
X185313419Y-95884010D01*
X184710020Y-95784905D01*
X184163279Y-95692556D01*
X183561076Y-95588539D01*
X182955410Y-95485042D01*
X182401799Y-95391404D01*
X181834393Y-95181954D01*
X181363157Y-94919052D01*
X180924619Y-94533013D01*
X180624566Y-94070003D01*
X180480310Y-93625364D01*
X180432225Y-93127273D01*
X180499124Y-92641942D01*
X180699820Y-92195740D01*
X181034313Y-91788668D01*
X181502604Y-91420725D01*
X181830271Y-91228041D01*
X182387219Y-90973654D01*
X182978388Y-90781749D01*
X183603777Y-90652324D01*
X184263388Y-90585380D01*
X184655672Y-90575180D01*
X185331443Y-90594731D01*
X185956311Y-90653387D01*
X186530278Y-90751146D01*
X187135572Y-90914621D01*
X187671583Y-91131321D01*
X188143712Y-91403707D01*
X188571070Y-91789080D01*
X188865473Y-92247243D01*
X189011995Y-92697888D01*
X189060836Y-93202011D01*
X187185051Y-93202011D01*
X187103478Y-92723777D01*
X186825313Y-92321194D01*
X186349741Y-92047964D01*
X185762399Y-91914179D01*
X185175643Y-91857679D01*
X184547228Y-91841334D01*
X183902141Y-91874447D01*
X183272361Y-92001598D01*
X182736610Y-92270470D01*
X182415160Y-92669142D01*
X182310197Y-93114172D01*
X182308010Y-93197615D01*
X182452910Y-93657933D01*
X182887610Y-94029920D01*
X183426065Y-94258175D01*
X184027131Y-94411293D01*
X184139831Y-94432995D01*
X184745308Y-94545607D01*
X185348708Y-94659778D01*
X185895449Y-94764921D01*
X186497998Y-94882067D01*
X187104703Y-95000771D01*
X187659859Y-95110036D01*
X188225577Y-95338774D01*
X188695411Y-95614202D01*
X189132644Y-96006347D01*
X189431803Y-96465725D01*
X189575630Y-96899898D01*
X189623572Y-97380762D01*
X189581426Y-97825186D01*
X189419584Y-98309474D01*
X189136362Y-98740284D01*
X188731758Y-99117617D01*
X188205774Y-99441471D01*
X187897263Y-99583344D01*
X187353315Y-99773092D01*
X186756817Y-99923582D01*
X186107769Y-100034814D01*
X185526752Y-100097518D01*
X184909242Y-100132959D01*
X184388959Y-100141683D01*
G37*
G36*
X201512084Y-125638038D02*
G01*
X201671701Y-125715486D01*
X201823151Y-125864040D01*
X201900735Y-126090199D01*
X201902499Y-126399413D01*
X200199797Y-126401831D01*
X200198102Y-126104500D01*
X200273581Y-125871303D01*
X200419158Y-125722888D01*
X200569431Y-125645503D01*
X200916289Y-125556268D01*
X201165839Y-125553984D01*
X201512084Y-125638038D01*
G37*
G36*
X202422860Y-131111901D02*
G01*
X199678416Y-131111901D01*
X199678416Y-129787298D01*
X199900638Y-129787298D01*
X199903240Y-130071728D01*
X199901816Y-130091772D01*
X199903491Y-130099140D01*
X199903520Y-130102276D01*
X199905036Y-130105936D01*
X199908335Y-130120446D01*
X199998758Y-130384028D01*
X199998758Y-130387990D01*
X200006669Y-130407090D01*
X200015562Y-130433012D01*
X200019092Y-130437082D01*
X200021155Y-130442062D01*
X200039810Y-130464793D01*
X200231339Y-130652660D01*
X200244384Y-130667702D01*
X200250775Y-130671725D01*
X200253017Y-130673924D01*
X200256676Y-130675439D01*
X200269270Y-130683367D01*
X200451731Y-130771900D01*
X200462756Y-130780069D01*
X200484789Y-130787940D01*
X200487210Y-130789115D01*
X200488292Y-130789191D01*
X200490448Y-130789962D01*
X200863183Y-130880445D01*
X200878516Y-130886797D01*
X200896738Y-130888591D01*
X200900489Y-130889502D01*
X200902676Y-130889176D01*
X200907780Y-130889679D01*
X201184934Y-130887143D01*
X201200786Y-130889502D01*
X201218833Y-130886832D01*
X201222759Y-130886797D01*
X201224803Y-130885949D01*
X201229875Y-130885200D01*
X201599270Y-130790166D01*
X201614066Y-130789115D01*
X201636032Y-130780708D01*
X201638518Y-130780069D01*
X201639388Y-130779424D01*
X201641529Y-130778605D01*
X201830627Y-130681226D01*
X201848258Y-130673924D01*
X201854068Y-130669155D01*
X201856891Y-130667702D01*
X201859487Y-130664707D01*
X201870989Y-130655269D01*
X202043956Y-130478931D01*
X202047367Y-130477226D01*
X202060637Y-130461924D01*
X202080120Y-130442063D01*
X202082182Y-130437083D01*
X202085714Y-130433012D01*
X202097703Y-130406161D01*
X202190003Y-130120991D01*
X202197756Y-130102276D01*
X202198497Y-130094749D01*
X202199461Y-130091772D01*
X202199179Y-130087817D01*
X202200638Y-130073012D01*
X202198137Y-129882380D01*
X202199460Y-129863775D01*
X202197797Y-129856465D01*
X202197756Y-129853272D01*
X202196238Y-129849609D01*
X202192940Y-129835102D01*
X202102518Y-129571520D01*
X202102518Y-129567559D01*
X202094605Y-129548456D01*
X202085714Y-129522537D01*
X202082184Y-129518467D01*
X202080121Y-129513486D01*
X202061466Y-129490756D01*
X201943496Y-129376863D01*
X201921098Y-129367586D01*
X201889425Y-129354466D01*
X201860161Y-129351584D01*
X201164231Y-129354466D01*
X201110159Y-129376864D01*
X201068775Y-129418248D01*
X201046377Y-129472320D01*
X201043495Y-129501584D01*
X201046377Y-129911800D01*
X201068775Y-129965872D01*
X201110159Y-130007256D01*
X201164231Y-130029654D01*
X201222759Y-130029654D01*
X201276831Y-130007256D01*
X201318215Y-129965872D01*
X201340613Y-129911800D01*
X201343495Y-129882536D01*
X201341868Y-129650969D01*
X201797012Y-129649084D01*
X201823540Y-129674695D01*
X201900868Y-129900107D01*
X201902740Y-130042862D01*
X201827696Y-130274720D01*
X201682115Y-130423137D01*
X201531844Y-130500520D01*
X201184984Y-130589756D01*
X200935435Y-130592040D01*
X200589190Y-130507986D01*
X200429573Y-130430537D01*
X200278124Y-130281984D01*
X200200479Y-130055648D01*
X200198381Y-129826393D01*
X200290550Y-129636440D01*
X200294698Y-129578060D01*
X200276191Y-129522538D01*
X200237844Y-129478323D01*
X200185495Y-129452148D01*
X200127115Y-129448000D01*
X200071592Y-129466507D01*
X200027377Y-129504854D01*
X200011712Y-129529740D01*
X199928362Y-129701517D01*
X199925918Y-129703962D01*
X199918576Y-129721686D01*
X199905964Y-129747679D01*
X199905581Y-129753056D01*
X199903520Y-129758034D01*
X199900638Y-129787298D01*
X199678416Y-129787298D01*
X199678416Y-128633964D01*
X199901004Y-128633964D01*
X199903520Y-128653755D01*
X199903520Y-128673705D01*
X199907179Y-128682538D01*
X199908385Y-128692024D01*
X199918283Y-128709346D01*
X199925918Y-128727777D01*
X199932678Y-128734537D01*
X199937423Y-128742840D01*
X199953194Y-128755053D01*
X199967302Y-128769161D01*
X199976137Y-128772820D01*
X199983697Y-128778675D01*
X200002941Y-128783923D01*
X200021374Y-128791559D01*
X200036340Y-128793032D01*
X200040161Y-128794075D01*
X200043112Y-128793699D01*
X200050638Y-128794441D01*
X202079902Y-128791559D01*
X202133974Y-128769161D01*
X202175358Y-128727777D01*
X202197756Y-128673705D01*
X202197756Y-128615177D01*
X202175358Y-128561105D01*
X202133974Y-128519721D01*
X202079902Y-128497323D01*
X202050638Y-128494441D01*
X200610499Y-128496486D01*
X202115887Y-127633795D01*
X202133974Y-127626304D01*
X202140703Y-127619574D01*
X202149037Y-127614799D01*
X202161250Y-127599027D01*
X202175358Y-127584920D01*
X202179017Y-127576084D01*
X202184872Y-127568525D01*
X202190119Y-127549282D01*
X202197756Y-127530848D01*
X202197756Y-127521283D01*
X202200271Y-127512062D01*
X202197756Y-127492275D01*
X202197756Y-127472320D01*
X202194096Y-127463485D01*
X202192891Y-127454001D01*
X202182992Y-127436678D01*
X202175358Y-127418248D01*
X202168597Y-127411487D01*
X202163853Y-127403185D01*
X202148081Y-127390971D01*
X202133974Y-127376864D01*
X202125138Y-127373204D01*
X202117579Y-127367350D01*
X202098337Y-127362102D01*
X202079902Y-127354466D01*
X202064930Y-127352991D01*
X202061115Y-127351951D01*
X202058168Y-127352325D01*
X202050638Y-127351584D01*
X200021374Y-127354466D01*
X199967302Y-127376864D01*
X199925918Y-127418248D01*
X199903520Y-127472320D01*
X199903520Y-127530848D01*
X199925918Y-127584920D01*
X199967302Y-127626304D01*
X200021374Y-127648702D01*
X200050638Y-127651584D01*
X201490776Y-127649538D01*
X199985388Y-128512229D01*
X199967302Y-128519721D01*
X199960572Y-128526450D01*
X199952239Y-128531226D01*
X199940025Y-128546997D01*
X199925918Y-128561105D01*
X199922258Y-128569940D01*
X199916404Y-128577500D01*
X199911155Y-128596744D01*
X199903520Y-128615177D01*
X199903520Y-128624739D01*
X199901004Y-128633964D01*
X199678416Y-128633964D01*
X199678416Y-126073013D01*
X199900638Y-126073013D01*
X199903520Y-126578467D01*
X199925918Y-126632539D01*
X199967302Y-126673923D01*
X200021374Y-126696321D01*
X200050638Y-126699203D01*
X202079902Y-126696321D01*
X202133974Y-126673923D01*
X202175358Y-126632539D01*
X202197756Y-126578467D01*
X202200638Y-126549203D01*
X202197938Y-126075677D01*
X202199461Y-126054253D01*
X202197773Y-126046831D01*
X202197756Y-126043749D01*
X202196240Y-126040091D01*
X202192941Y-126025579D01*
X202102517Y-125761993D01*
X202102517Y-125758034D01*
X202094609Y-125738943D01*
X202085714Y-125713013D01*
X202082182Y-125708941D01*
X202080120Y-125703962D01*
X202061465Y-125681231D01*
X201869937Y-125493366D01*
X201856891Y-125478323D01*
X201850499Y-125474299D01*
X201848258Y-125472101D01*
X201844598Y-125470585D01*
X201832005Y-125462658D01*
X201649539Y-125374122D01*
X201638518Y-125365956D01*
X201616490Y-125358086D01*
X201614066Y-125356910D01*
X201612982Y-125356833D01*
X201610827Y-125356063D01*
X201238091Y-125265579D01*
X201222759Y-125259228D01*
X201204536Y-125257433D01*
X201200786Y-125256523D01*
X201198598Y-125256848D01*
X201193495Y-125256346D01*
X200916339Y-125258881D01*
X200900489Y-125256523D01*
X200882440Y-125259192D01*
X200878516Y-125259228D01*
X200876471Y-125260074D01*
X200871399Y-125260825D01*
X200502003Y-125355858D01*
X200487210Y-125356910D01*
X200465244Y-125365315D01*
X200462756Y-125365956D01*
X200461884Y-125366601D01*
X200459746Y-125367420D01*
X200270647Y-125464798D01*
X200253017Y-125472101D01*
X200247206Y-125476869D01*
X200244384Y-125478323D01*
X200241787Y-125481316D01*
X200230286Y-125490756D01*
X200057319Y-125667093D01*
X200053909Y-125668799D01*
X200040639Y-125684099D01*
X200021155Y-125703963D01*
X200019092Y-125708942D01*
X200015562Y-125713013D01*
X200003573Y-125739864D01*
X199911276Y-126025023D01*
X199903520Y-126043749D01*
X199902778Y-126051279D01*
X199901816Y-126054253D01*
X199902096Y-126058201D01*
X199900638Y-126073013D01*
X199678416Y-126073013D01*
X199678416Y-125034124D01*
X202422860Y-125034124D01*
X202422860Y-131111901D01*
G37*
G36*
X201558653Y-99788933D02*
G01*
X201702333Y-99929866D01*
X201773857Y-100068758D01*
X201776037Y-100379098D01*
X201709734Y-100515743D01*
X201564969Y-100663328D01*
X201248628Y-100744713D01*
X200619114Y-100747320D01*
X200288622Y-100667091D01*
X200144942Y-100526158D01*
X200073418Y-100387266D01*
X200071238Y-100076926D01*
X200137540Y-99940281D01*
X200282305Y-99792695D01*
X200598645Y-99711311D01*
X201228160Y-99708704D01*
X201558653Y-99788933D01*
G37*
G36*
X202295860Y-101266901D02*
G01*
X199551416Y-101266901D01*
X199551416Y-100037536D01*
X199773638Y-100037536D01*
X199776154Y-100395711D01*
X199774816Y-100399727D01*
X199776332Y-100421071D01*
X199776520Y-100447753D01*
X199778581Y-100452730D01*
X199778964Y-100458108D01*
X199789474Y-100485571D01*
X199886852Y-100674669D01*
X199894155Y-100692300D01*
X199898923Y-100698110D01*
X199900377Y-100700933D01*
X199903371Y-100703529D01*
X199912810Y-100715031D01*
X200093451Y-100892218D01*
X200098255Y-100900225D01*
X200111985Y-100910399D01*
X200126017Y-100924162D01*
X200136318Y-100928429D01*
X200145280Y-100935069D01*
X200172972Y-100944962D01*
X200545707Y-101035445D01*
X200561040Y-101041797D01*
X200579262Y-101043591D01*
X200583013Y-101044502D01*
X200585200Y-101044176D01*
X200590304Y-101044679D01*
X201247172Y-101041958D01*
X201264262Y-101044502D01*
X201282446Y-101041812D01*
X201286235Y-101041797D01*
X201288279Y-101040949D01*
X201293351Y-101040200D01*
X201657333Y-100946559D01*
X201667186Y-100946559D01*
X201683338Y-100939868D01*
X201701994Y-100935069D01*
X201710954Y-100928429D01*
X201721258Y-100924162D01*
X201743989Y-100905507D01*
X201931856Y-100713978D01*
X201946899Y-100700933D01*
X201950922Y-100694541D01*
X201953120Y-100692301D01*
X201954635Y-100688643D01*
X201962564Y-100676047D01*
X202045912Y-100504270D01*
X202048358Y-100501825D01*
X202055702Y-100484094D01*
X202068312Y-100458107D01*
X202068693Y-100452731D01*
X202070756Y-100447753D01*
X202073638Y-100418489D01*
X202071121Y-100060313D01*
X202072460Y-100056298D01*
X202070943Y-100034953D01*
X202070756Y-100008272D01*
X202068693Y-100003293D01*
X202068312Y-99997918D01*
X202057802Y-99970454D01*
X201960420Y-99781349D01*
X201953120Y-99763724D01*
X201948352Y-99757915D01*
X201946899Y-99755092D01*
X201943904Y-99752495D01*
X201934465Y-99740993D01*
X201753823Y-99563805D01*
X201749020Y-99555800D01*
X201735290Y-99545626D01*
X201721258Y-99531863D01*
X201710954Y-99527595D01*
X201701994Y-99520956D01*
X201674303Y-99511063D01*
X201301567Y-99420579D01*
X201286235Y-99414228D01*
X201268012Y-99412433D01*
X201264262Y-99411523D01*
X201262074Y-99411848D01*
X201256971Y-99411346D01*
X200600102Y-99414066D01*
X200583013Y-99411523D01*
X200564827Y-99414212D01*
X200561040Y-99414228D01*
X200558995Y-99415074D01*
X200553923Y-99415825D01*
X200189941Y-99509466D01*
X200180089Y-99509466D01*
X200163937Y-99516155D01*
X200145280Y-99520956D01*
X200136318Y-99527595D01*
X200126017Y-99531863D01*
X200103286Y-99550518D01*
X199915420Y-99742044D01*
X199900377Y-99755092D01*
X199896353Y-99761483D01*
X199894155Y-99763725D01*
X199892639Y-99767384D01*
X199884712Y-99779978D01*
X199801362Y-99951755D01*
X199798918Y-99954200D01*
X199791576Y-99971924D01*
X199778964Y-99997917D01*
X199778581Y-100003294D01*
X199776520Y-100008272D01*
X199773638Y-100037536D01*
X199551416Y-100037536D01*
X199551416Y-97532082D01*
X199776520Y-97532082D01*
X199776520Y-97590610D01*
X199798918Y-97644682D01*
X199840302Y-97686066D01*
X199894374Y-97708464D01*
X199923638Y-97711346D01*
X201502550Y-97708585D01*
X201640351Y-97775448D01*
X201703009Y-97835940D01*
X201773857Y-97973520D01*
X201776037Y-98283860D01*
X201709534Y-98420918D01*
X201649043Y-98483573D01*
X201511783Y-98554257D01*
X199894374Y-98557085D01*
X199840302Y-98579483D01*
X199798918Y-98620867D01*
X199776520Y-98674939D01*
X199776520Y-98733467D01*
X199798918Y-98787539D01*
X199840302Y-98828923D01*
X199894374Y-98851321D01*
X199923638Y-98854203D01*
X201519088Y-98851413D01*
X201523923Y-98853025D01*
X201547299Y-98851364D01*
X201571949Y-98851321D01*
X201576926Y-98849259D01*
X201582304Y-98848877D01*
X201609767Y-98838367D01*
X201798866Y-98740987D01*
X201816496Y-98733686D01*
X201822306Y-98728917D01*
X201825129Y-98727464D01*
X201827725Y-98724470D01*
X201839226Y-98715032D01*
X201933917Y-98616953D01*
X201946899Y-98605695D01*
X201950855Y-98599409D01*
X201953121Y-98597063D01*
X201954637Y-98593400D01*
X201962564Y-98580809D01*
X202045912Y-98409032D01*
X202048358Y-98406587D01*
X202055702Y-98388856D01*
X202068312Y-98362869D01*
X202068693Y-98357493D01*
X202070756Y-98352515D01*
X202073638Y-98323251D01*
X202071121Y-97965075D01*
X202072460Y-97961060D01*
X202070943Y-97939715D01*
X202070756Y-97913034D01*
X202068693Y-97908055D01*
X202068312Y-97902680D01*
X202057802Y-97875216D01*
X201960425Y-97686120D01*
X201953121Y-97668486D01*
X201948351Y-97662674D01*
X201946899Y-97659854D01*
X201943906Y-97657258D01*
X201934466Y-97645756D01*
X201836391Y-97551070D01*
X201825129Y-97538085D01*
X201818840Y-97534126D01*
X201816496Y-97531863D01*
X201812836Y-97530347D01*
X201800243Y-97522420D01*
X201628465Y-97439070D01*
X201626021Y-97436626D01*
X201608296Y-97429284D01*
X201582304Y-97416672D01*
X201576926Y-97416289D01*
X201571949Y-97414228D01*
X201542685Y-97411346D01*
X199894374Y-97414228D01*
X199840302Y-97436626D01*
X199798918Y-97478010D01*
X199776520Y-97532082D01*
X199551416Y-97532082D01*
X199551416Y-95751822D01*
X199773638Y-95751822D01*
X199776520Y-96923943D01*
X199798918Y-96978015D01*
X199840302Y-97019399D01*
X199894374Y-97041797D01*
X199952902Y-97041797D01*
X200006974Y-97019399D01*
X200048358Y-96978015D01*
X200070756Y-96923943D01*
X200073638Y-96894679D01*
X200072601Y-96473039D01*
X201952902Y-96470369D01*
X202006974Y-96447971D01*
X202048358Y-96406587D01*
X202070756Y-96352515D01*
X202070756Y-96293987D01*
X202048358Y-96239915D01*
X202006974Y-96198531D01*
X201952902Y-96176133D01*
X201923638Y-96173251D01*
X200071870Y-96175880D01*
X200070756Y-95722558D01*
X200048358Y-95668486D01*
X200006974Y-95627102D01*
X199952902Y-95604704D01*
X199894374Y-95604704D01*
X199840302Y-95627102D01*
X199798918Y-95668486D01*
X199776520Y-95722558D01*
X199773638Y-95751822D01*
X199551416Y-95751822D01*
X199551416Y-95382482D01*
X202295860Y-95382482D01*
X202295860Y-101266901D01*
G37*
G36*
X120095991Y-130268311D02*
G01*
X120029257Y-130405844D01*
X119968767Y-130468499D01*
X119831055Y-130539415D01*
X119615790Y-130541385D01*
X119479027Y-130475025D01*
X119416370Y-130414534D01*
X119345629Y-130277161D01*
X119344709Y-130024855D01*
X119345706Y-130019211D01*
X119344672Y-130014545D01*
X119343507Y-129694709D01*
X120093897Y-129693643D01*
X120095991Y-130268311D01*
G37*
G36*
X120095991Y-125982597D02*
G01*
X120029257Y-126120130D01*
X119968767Y-126182785D01*
X119831055Y-126253701D01*
X119615790Y-126255671D01*
X119479027Y-126189311D01*
X119416370Y-126128820D01*
X119345629Y-125991447D01*
X119343507Y-125408995D01*
X120093897Y-125407929D01*
X120095991Y-125982597D01*
G37*
G36*
X120615583Y-131061351D02*
G01*
X117871174Y-131061351D01*
X117871174Y-130692380D01*
X118093396Y-130692380D01*
X118106055Y-130749522D01*
X118139619Y-130797470D01*
X118188976Y-130828923D01*
X118246612Y-130839094D01*
X118303754Y-130826435D01*
X118329380Y-130812014D01*
X119048119Y-130306301D01*
X119048531Y-130312098D01*
X119048624Y-130337441D01*
X119050685Y-130342418D01*
X119051068Y-130347796D01*
X119061578Y-130375259D01*
X119158957Y-130564360D01*
X119166260Y-130581989D01*
X119171027Y-130587797D01*
X119172481Y-130590621D01*
X119175475Y-130593218D01*
X119184915Y-130604720D01*
X119282990Y-130699406D01*
X119294251Y-130712390D01*
X119300539Y-130716348D01*
X119302885Y-130718613D01*
X119306546Y-130720129D01*
X119319137Y-130728055D01*
X119490913Y-130811403D01*
X119493359Y-130813849D01*
X119511089Y-130821193D01*
X119537077Y-130833803D01*
X119542452Y-130834184D01*
X119547431Y-130836247D01*
X119576695Y-130839129D01*
X119839954Y-130836720D01*
X119843647Y-130837951D01*
X119864076Y-130836499D01*
X119891673Y-130836247D01*
X119896650Y-130834185D01*
X119902028Y-130833803D01*
X119929491Y-130823293D01*
X120118589Y-130725914D01*
X120136220Y-130718612D01*
X120142030Y-130713843D01*
X120144853Y-130712390D01*
X120147449Y-130709395D01*
X120158951Y-130699957D01*
X120253636Y-130601882D01*
X120266622Y-130590621D01*
X120270580Y-130584332D01*
X120272844Y-130581988D01*
X120274359Y-130578328D01*
X120282287Y-130565735D01*
X120365635Y-130393958D01*
X120368081Y-130391513D01*
X120375425Y-130373782D01*
X120388035Y-130347795D01*
X120388416Y-130342419D01*
X120390479Y-130337441D01*
X120393361Y-130308177D01*
X120390479Y-129517008D01*
X120368081Y-129462936D01*
X120326697Y-129421552D01*
X120272625Y-129399154D01*
X120243361Y-129396272D01*
X118214097Y-129399154D01*
X118160025Y-129421552D01*
X118118641Y-129462936D01*
X118096243Y-129517008D01*
X118096243Y-129575536D01*
X118118641Y-129629608D01*
X118160025Y-129670992D01*
X118214097Y-129693390D01*
X118243361Y-129696272D01*
X119046284Y-129695131D01*
X119047189Y-129943575D01*
X118135020Y-130585387D01*
X118103567Y-130634744D01*
X118093396Y-130692380D01*
X117871174Y-130692380D01*
X117871174Y-127551879D01*
X118093466Y-127551879D01*
X118098510Y-127573068D01*
X118101380Y-127594658D01*
X118105237Y-127601321D01*
X118107022Y-127608816D01*
X118119792Y-127626461D01*
X118130703Y-127645308D01*
X118136819Y-127649990D01*
X118141335Y-127656229D01*
X118159881Y-127667642D01*
X118177178Y-127680882D01*
X118187972Y-127684930D01*
X118191179Y-127686903D01*
X118194769Y-127687478D01*
X118204712Y-127691207D01*
X119095260Y-127926864D01*
X118212014Y-128164205D01*
X118191179Y-128167546D01*
X118184663Y-128171555D01*
X118177178Y-128173567D01*
X118159885Y-128186803D01*
X118141335Y-128198219D01*
X118136818Y-128204459D01*
X118130703Y-128209141D01*
X118119792Y-128227987D01*
X118107022Y-128245633D01*
X118105237Y-128253126D01*
X118101380Y-128259790D01*
X118098510Y-128281381D01*
X118093466Y-128302570D01*
X118094684Y-128310172D01*
X118093670Y-128317808D01*
X118099282Y-128338855D01*
X118102730Y-128360359D01*
X118106766Y-128366918D01*
X118108751Y-128374360D01*
X118121987Y-128391652D01*
X118133403Y-128410203D01*
X118139643Y-128414719D01*
X118144325Y-128420835D01*
X118163171Y-128431745D01*
X118180817Y-128444516D01*
X118191718Y-128448273D01*
X118194974Y-128450158D01*
X118198574Y-128450636D01*
X118208618Y-128454098D01*
X120237754Y-128934263D01*
X120295543Y-128924999D01*
X120345387Y-128894326D01*
X120379700Y-128846912D01*
X120393256Y-128789975D01*
X120383992Y-128732186D01*
X120353318Y-128682342D01*
X120305905Y-128648029D01*
X120278104Y-128638447D01*
X118849955Y-128300496D01*
X119701252Y-128071740D01*
X119720320Y-128069207D01*
X119728669Y-128064373D01*
X119738115Y-128061835D01*
X119753830Y-128049806D01*
X119770970Y-128039883D01*
X119776877Y-128032164D01*
X119784591Y-128026261D01*
X119794506Y-128009134D01*
X119806544Y-127993408D01*
X119809048Y-127984016D01*
X119813914Y-127975612D01*
X119816521Y-127955991D01*
X119821624Y-127936856D01*
X119820344Y-127927224D01*
X119821624Y-127917594D01*
X119816522Y-127898465D01*
X119813915Y-127878839D01*
X119809046Y-127870429D01*
X119806543Y-127861042D01*
X119794510Y-127845321D01*
X119784591Y-127828189D01*
X119776875Y-127822282D01*
X119770969Y-127814567D01*
X119753837Y-127804649D01*
X119738116Y-127792615D01*
X119723737Y-127787222D01*
X119720319Y-127785244D01*
X119717439Y-127784861D01*
X119710583Y-127782290D01*
X118851249Y-127554892D01*
X120305905Y-127206421D01*
X120353319Y-127172108D01*
X120383992Y-127122264D01*
X120393257Y-127064475D01*
X120379700Y-127007538D01*
X120345387Y-126960124D01*
X120295543Y-126929451D01*
X120237754Y-126920187D01*
X120208618Y-126924161D01*
X118216072Y-127401487D01*
X118194975Y-127404291D01*
X118188344Y-127408129D01*
X118180817Y-127409933D01*
X118163171Y-127422703D01*
X118144325Y-127433614D01*
X118139642Y-127439730D01*
X118133404Y-127444246D01*
X118121990Y-127462792D01*
X118108751Y-127480089D01*
X118106766Y-127487531D01*
X118102730Y-127494090D01*
X118099282Y-127515593D01*
X118093670Y-127536641D01*
X118094684Y-127544276D01*
X118093466Y-127551879D01*
X117871174Y-127551879D01*
X117871174Y-125231294D01*
X118096243Y-125231294D01*
X118096243Y-125289822D01*
X118118641Y-125343894D01*
X118160025Y-125385278D01*
X118214097Y-125407676D01*
X118243361Y-125410558D01*
X119046284Y-125409417D01*
X119048432Y-125999163D01*
X119046920Y-126003701D01*
X119048531Y-126026384D01*
X119048624Y-126051727D01*
X119050685Y-126056704D01*
X119051068Y-126062082D01*
X119061578Y-126089545D01*
X119158957Y-126278646D01*
X119166260Y-126296275D01*
X119171027Y-126302083D01*
X119172481Y-126304907D01*
X119175475Y-126307504D01*
X119184915Y-126319006D01*
X119282990Y-126413692D01*
X119294251Y-126426676D01*
X119300539Y-126430634D01*
X119302885Y-126432899D01*
X119306546Y-126434415D01*
X119319137Y-126442341D01*
X119490913Y-126525689D01*
X119493359Y-126528135D01*
X119511089Y-126535479D01*
X119537077Y-126548089D01*
X119542452Y-126548470D01*
X119547431Y-126550533D01*
X119576695Y-126553415D01*
X119839954Y-126551006D01*
X119843647Y-126552237D01*
X119864076Y-126550785D01*
X119891673Y-126550533D01*
X119896650Y-126548471D01*
X119902028Y-126548089D01*
X119929491Y-126537579D01*
X120118589Y-126440200D01*
X120136220Y-126432898D01*
X120142030Y-126428129D01*
X120144853Y-126426676D01*
X120147449Y-126423681D01*
X120158951Y-126414243D01*
X120253636Y-126316168D01*
X120266622Y-126304907D01*
X120270580Y-126298618D01*
X120272844Y-126296274D01*
X120274359Y-126292614D01*
X120282287Y-126280021D01*
X120365635Y-126108244D01*
X120368081Y-126105799D01*
X120375425Y-126088068D01*
X120388035Y-126062081D01*
X120388416Y-126056705D01*
X120390479Y-126051727D01*
X120393361Y-126022463D01*
X120390479Y-125231294D01*
X120368081Y-125177222D01*
X120326697Y-125135838D01*
X120272625Y-125113440D01*
X120243361Y-125110558D01*
X118214097Y-125113440D01*
X118160025Y-125135838D01*
X118118641Y-125177222D01*
X118096243Y-125231294D01*
X117871174Y-125231294D01*
X117871174Y-124888336D01*
X120615583Y-124888336D01*
X120615583Y-131061351D01*
G37*
D11*
X176503380Y-119927666D02*
X176551000Y-119975285D01*
X176551000Y-119975285D02*
X176598619Y-120118142D01*
X176598619Y-120118142D02*
X176598619Y-120213380D01*
X176598619Y-120213380D02*
X176551000Y-120356237D01*
X176551000Y-120356237D02*
X176455761Y-120451475D01*
X176455761Y-120451475D02*
X176360523Y-120499094D01*
X176360523Y-120499094D02*
X176170047Y-120546713D01*
X176170047Y-120546713D02*
X176027190Y-120546713D01*
X176027190Y-120546713D02*
X175836714Y-120499094D01*
X175836714Y-120499094D02*
X175741476Y-120451475D01*
X175741476Y-120451475D02*
X175646238Y-120356237D01*
X175646238Y-120356237D02*
X175598619Y-120213380D01*
X175598619Y-120213380D02*
X175598619Y-120118142D01*
X175598619Y-120118142D02*
X175646238Y-119975285D01*
X175646238Y-119975285D02*
X175693857Y-119927666D01*
X175598619Y-119594332D02*
X175598619Y-118975285D01*
X175598619Y-118975285D02*
X175979571Y-119308618D01*
X175979571Y-119308618D02*
X175979571Y-119165761D01*
X175979571Y-119165761D02*
X176027190Y-119070523D01*
X176027190Y-119070523D02*
X176074809Y-119022904D01*
X176074809Y-119022904D02*
X176170047Y-118975285D01*
X176170047Y-118975285D02*
X176408142Y-118975285D01*
X176408142Y-118975285D02*
X176503380Y-119022904D01*
X176503380Y-119022904D02*
X176551000Y-119070523D01*
X176551000Y-119070523D02*
X176598619Y-119165761D01*
X176598619Y-119165761D02*
X176598619Y-119451475D01*
X176598619Y-119451475D02*
X176551000Y-119546713D01*
X176551000Y-119546713D02*
X176503380Y-119594332D01*
X125889619Y-131548094D02*
X124889619Y-131548094D01*
X124889619Y-131548094D02*
X124889619Y-131309999D01*
X124889619Y-131309999D02*
X124937238Y-131167142D01*
X124937238Y-131167142D02*
X125032476Y-131071904D01*
X125032476Y-131071904D02*
X125127714Y-131024285D01*
X125127714Y-131024285D02*
X125318190Y-130976666D01*
X125318190Y-130976666D02*
X125461047Y-130976666D01*
X125461047Y-130976666D02*
X125651523Y-131024285D01*
X125651523Y-131024285D02*
X125746761Y-131071904D01*
X125746761Y-131071904D02*
X125842000Y-131167142D01*
X125842000Y-131167142D02*
X125889619Y-131309999D01*
X125889619Y-131309999D02*
X125889619Y-131548094D01*
X124984857Y-130595713D02*
X124937238Y-130548094D01*
X124937238Y-130548094D02*
X124889619Y-130452856D01*
X124889619Y-130452856D02*
X124889619Y-130214761D01*
X124889619Y-130214761D02*
X124937238Y-130119523D01*
X124937238Y-130119523D02*
X124984857Y-130071904D01*
X124984857Y-130071904D02*
X125080095Y-130024285D01*
X125080095Y-130024285D02*
X125175333Y-130024285D01*
X125175333Y-130024285D02*
X125318190Y-130071904D01*
X125318190Y-130071904D02*
X125889619Y-130643332D01*
X125889619Y-130643332D02*
X125889619Y-130024285D01*
X188249380Y-113577666D02*
X188297000Y-113625285D01*
X188297000Y-113625285D02*
X188344619Y-113768142D01*
X188344619Y-113768142D02*
X188344619Y-113863380D01*
X188344619Y-113863380D02*
X188297000Y-114006237D01*
X188297000Y-114006237D02*
X188201761Y-114101475D01*
X188201761Y-114101475D02*
X188106523Y-114149094D01*
X188106523Y-114149094D02*
X187916047Y-114196713D01*
X187916047Y-114196713D02*
X187773190Y-114196713D01*
X187773190Y-114196713D02*
X187582714Y-114149094D01*
X187582714Y-114149094D02*
X187487476Y-114101475D01*
X187487476Y-114101475D02*
X187392238Y-114006237D01*
X187392238Y-114006237D02*
X187344619Y-113863380D01*
X187344619Y-113863380D02*
X187344619Y-113768142D01*
X187344619Y-113768142D02*
X187392238Y-113625285D01*
X187392238Y-113625285D02*
X187439857Y-113577666D01*
X187439857Y-113196713D02*
X187392238Y-113149094D01*
X187392238Y-113149094D02*
X187344619Y-113053856D01*
X187344619Y-113053856D02*
X187344619Y-112815761D01*
X187344619Y-112815761D02*
X187392238Y-112720523D01*
X187392238Y-112720523D02*
X187439857Y-112672904D01*
X187439857Y-112672904D02*
X187535095Y-112625285D01*
X187535095Y-112625285D02*
X187630333Y-112625285D01*
X187630333Y-112625285D02*
X187773190Y-112672904D01*
X187773190Y-112672904D02*
X188344619Y-113244332D01*
X188344619Y-113244332D02*
X188344619Y-112625285D01*
X139533333Y-119861380D02*
X139485714Y-119909000D01*
X139485714Y-119909000D02*
X139342857Y-119956619D01*
X139342857Y-119956619D02*
X139247619Y-119956619D01*
X139247619Y-119956619D02*
X139104762Y-119909000D01*
X139104762Y-119909000D02*
X139009524Y-119813761D01*
X139009524Y-119813761D02*
X138961905Y-119718523D01*
X138961905Y-119718523D02*
X138914286Y-119528047D01*
X138914286Y-119528047D02*
X138914286Y-119385190D01*
X138914286Y-119385190D02*
X138961905Y-119194714D01*
X138961905Y-119194714D02*
X139009524Y-119099476D01*
X139009524Y-119099476D02*
X139104762Y-119004238D01*
X139104762Y-119004238D02*
X139247619Y-118956619D01*
X139247619Y-118956619D02*
X139342857Y-118956619D01*
X139342857Y-118956619D02*
X139485714Y-119004238D01*
X139485714Y-119004238D02*
X139533333Y-119051857D01*
X140390476Y-118956619D02*
X140200000Y-118956619D01*
X140200000Y-118956619D02*
X140104762Y-119004238D01*
X140104762Y-119004238D02*
X140057143Y-119051857D01*
X140057143Y-119051857D02*
X139961905Y-119194714D01*
X139961905Y-119194714D02*
X139914286Y-119385190D01*
X139914286Y-119385190D02*
X139914286Y-119766142D01*
X139914286Y-119766142D02*
X139961905Y-119861380D01*
X139961905Y-119861380D02*
X140009524Y-119909000D01*
X140009524Y-119909000D02*
X140104762Y-119956619D01*
X140104762Y-119956619D02*
X140295238Y-119956619D01*
X140295238Y-119956619D02*
X140390476Y-119909000D01*
X140390476Y-119909000D02*
X140438095Y-119861380D01*
X140438095Y-119861380D02*
X140485714Y-119766142D01*
X140485714Y-119766142D02*
X140485714Y-119528047D01*
X140485714Y-119528047D02*
X140438095Y-119432809D01*
X140438095Y-119432809D02*
X140390476Y-119385190D01*
X140390476Y-119385190D02*
X140295238Y-119337571D01*
X140295238Y-119337571D02*
X140104762Y-119337571D01*
X140104762Y-119337571D02*
X140009524Y-119385190D01*
X140009524Y-119385190D02*
X139961905Y-119432809D01*
X139961905Y-119432809D02*
X139914286Y-119528047D01*
X128211619Y-110021666D02*
X127735428Y-110354999D01*
X128211619Y-110593094D02*
X127211619Y-110593094D01*
X127211619Y-110593094D02*
X127211619Y-110212142D01*
X127211619Y-110212142D02*
X127259238Y-110116904D01*
X127259238Y-110116904D02*
X127306857Y-110069285D01*
X127306857Y-110069285D02*
X127402095Y-110021666D01*
X127402095Y-110021666D02*
X127544952Y-110021666D01*
X127544952Y-110021666D02*
X127640190Y-110069285D01*
X127640190Y-110069285D02*
X127687809Y-110116904D01*
X127687809Y-110116904D02*
X127735428Y-110212142D01*
X127735428Y-110212142D02*
X127735428Y-110593094D01*
X127544952Y-109164523D02*
X128211619Y-109164523D01*
X127164000Y-109402618D02*
X127878285Y-109640713D01*
X127878285Y-109640713D02*
X127878285Y-109021666D01*
X156972095Y-119591619D02*
X156972095Y-120401142D01*
X156972095Y-120401142D02*
X157019714Y-120496380D01*
X157019714Y-120496380D02*
X157067333Y-120544000D01*
X157067333Y-120544000D02*
X157162571Y-120591619D01*
X157162571Y-120591619D02*
X157353047Y-120591619D01*
X157353047Y-120591619D02*
X157448285Y-120544000D01*
X157448285Y-120544000D02*
X157495904Y-120496380D01*
X157495904Y-120496380D02*
X157543523Y-120401142D01*
X157543523Y-120401142D02*
X157543523Y-119591619D01*
X157972095Y-119686857D02*
X158019714Y-119639238D01*
X158019714Y-119639238D02*
X158114952Y-119591619D01*
X158114952Y-119591619D02*
X158353047Y-119591619D01*
X158353047Y-119591619D02*
X158448285Y-119639238D01*
X158448285Y-119639238D02*
X158495904Y-119686857D01*
X158495904Y-119686857D02*
X158543523Y-119782095D01*
X158543523Y-119782095D02*
X158543523Y-119877333D01*
X158543523Y-119877333D02*
X158495904Y-120020190D01*
X158495904Y-120020190D02*
X157924476Y-120591619D01*
X157924476Y-120591619D02*
X158543523Y-120591619D01*
X154246619Y-128587166D02*
X153770428Y-128920499D01*
X154246619Y-129158594D02*
X153246619Y-129158594D01*
X153246619Y-129158594D02*
X153246619Y-128777642D01*
X153246619Y-128777642D02*
X153294238Y-128682404D01*
X153294238Y-128682404D02*
X153341857Y-128634785D01*
X153341857Y-128634785D02*
X153437095Y-128587166D01*
X153437095Y-128587166D02*
X153579952Y-128587166D01*
X153579952Y-128587166D02*
X153675190Y-128634785D01*
X153675190Y-128634785D02*
X153722809Y-128682404D01*
X153722809Y-128682404D02*
X153770428Y-128777642D01*
X153770428Y-128777642D02*
X153770428Y-129158594D01*
X153341857Y-128206213D02*
X153294238Y-128158594D01*
X153294238Y-128158594D02*
X153246619Y-128063356D01*
X153246619Y-128063356D02*
X153246619Y-127825261D01*
X153246619Y-127825261D02*
X153294238Y-127730023D01*
X153294238Y-127730023D02*
X153341857Y-127682404D01*
X153341857Y-127682404D02*
X153437095Y-127634785D01*
X153437095Y-127634785D02*
X153532333Y-127634785D01*
X153532333Y-127634785D02*
X153675190Y-127682404D01*
X153675190Y-127682404D02*
X154246619Y-128253832D01*
X154246619Y-128253832D02*
X154246619Y-127634785D01*
X148677333Y-131164380D02*
X148629714Y-131212000D01*
X148629714Y-131212000D02*
X148486857Y-131259619D01*
X148486857Y-131259619D02*
X148391619Y-131259619D01*
X148391619Y-131259619D02*
X148248762Y-131212000D01*
X148248762Y-131212000D02*
X148153524Y-131116761D01*
X148153524Y-131116761D02*
X148105905Y-131021523D01*
X148105905Y-131021523D02*
X148058286Y-130831047D01*
X148058286Y-130831047D02*
X148058286Y-130688190D01*
X148058286Y-130688190D02*
X148105905Y-130497714D01*
X148105905Y-130497714D02*
X148153524Y-130402476D01*
X148153524Y-130402476D02*
X148248762Y-130307238D01*
X148248762Y-130307238D02*
X148391619Y-130259619D01*
X148391619Y-130259619D02*
X148486857Y-130259619D01*
X148486857Y-130259619D02*
X148629714Y-130307238D01*
X148629714Y-130307238D02*
X148677333Y-130354857D01*
X149248762Y-130688190D02*
X149153524Y-130640571D01*
X149153524Y-130640571D02*
X149105905Y-130592952D01*
X149105905Y-130592952D02*
X149058286Y-130497714D01*
X149058286Y-130497714D02*
X149058286Y-130450095D01*
X149058286Y-130450095D02*
X149105905Y-130354857D01*
X149105905Y-130354857D02*
X149153524Y-130307238D01*
X149153524Y-130307238D02*
X149248762Y-130259619D01*
X149248762Y-130259619D02*
X149439238Y-130259619D01*
X149439238Y-130259619D02*
X149534476Y-130307238D01*
X149534476Y-130307238D02*
X149582095Y-130354857D01*
X149582095Y-130354857D02*
X149629714Y-130450095D01*
X149629714Y-130450095D02*
X149629714Y-130497714D01*
X149629714Y-130497714D02*
X149582095Y-130592952D01*
X149582095Y-130592952D02*
X149534476Y-130640571D01*
X149534476Y-130640571D02*
X149439238Y-130688190D01*
X149439238Y-130688190D02*
X149248762Y-130688190D01*
X149248762Y-130688190D02*
X149153524Y-130735809D01*
X149153524Y-130735809D02*
X149105905Y-130783428D01*
X149105905Y-130783428D02*
X149058286Y-130878666D01*
X149058286Y-130878666D02*
X149058286Y-131069142D01*
X149058286Y-131069142D02*
X149105905Y-131164380D01*
X149105905Y-131164380D02*
X149153524Y-131212000D01*
X149153524Y-131212000D02*
X149248762Y-131259619D01*
X149248762Y-131259619D02*
X149439238Y-131259619D01*
X149439238Y-131259619D02*
X149534476Y-131212000D01*
X149534476Y-131212000D02*
X149582095Y-131164380D01*
X149582095Y-131164380D02*
X149629714Y-131069142D01*
X149629714Y-131069142D02*
X149629714Y-130878666D01*
X149629714Y-130878666D02*
X149582095Y-130783428D01*
X149582095Y-130783428D02*
X149534476Y-130735809D01*
X149534476Y-130735809D02*
X149439238Y-130688190D01*
X168021095Y-119591619D02*
X168021095Y-120401142D01*
X168021095Y-120401142D02*
X168068714Y-120496380D01*
X168068714Y-120496380D02*
X168116333Y-120544000D01*
X168116333Y-120544000D02*
X168211571Y-120591619D01*
X168211571Y-120591619D02*
X168402047Y-120591619D01*
X168402047Y-120591619D02*
X168497285Y-120544000D01*
X168497285Y-120544000D02*
X168544904Y-120496380D01*
X168544904Y-120496380D02*
X168592523Y-120401142D01*
X168592523Y-120401142D02*
X168592523Y-119591619D01*
X169497285Y-119924952D02*
X169497285Y-120591619D01*
X169259190Y-119544000D02*
X169021095Y-120258285D01*
X169021095Y-120258285D02*
X169640142Y-120258285D01*
X118284666Y-112987619D02*
X118284666Y-113701904D01*
X118284666Y-113701904D02*
X118237047Y-113844761D01*
X118237047Y-113844761D02*
X118141809Y-113940000D01*
X118141809Y-113940000D02*
X117998952Y-113987619D01*
X117998952Y-113987619D02*
X117903714Y-113987619D01*
X119284666Y-113987619D02*
X118713238Y-113987619D01*
X118998952Y-113987619D02*
X118998952Y-112987619D01*
X118998952Y-112987619D02*
X118903714Y-113130476D01*
X118903714Y-113130476D02*
X118808476Y-113225714D01*
X118808476Y-113225714D02*
X118713238Y-113273333D01*
X165454380Y-119927666D02*
X165502000Y-119975285D01*
X165502000Y-119975285D02*
X165549619Y-120118142D01*
X165549619Y-120118142D02*
X165549619Y-120213380D01*
X165549619Y-120213380D02*
X165502000Y-120356237D01*
X165502000Y-120356237D02*
X165406761Y-120451475D01*
X165406761Y-120451475D02*
X165311523Y-120499094D01*
X165311523Y-120499094D02*
X165121047Y-120546713D01*
X165121047Y-120546713D02*
X164978190Y-120546713D01*
X164978190Y-120546713D02*
X164787714Y-120499094D01*
X164787714Y-120499094D02*
X164692476Y-120451475D01*
X164692476Y-120451475D02*
X164597238Y-120356237D01*
X164597238Y-120356237D02*
X164549619Y-120213380D01*
X164549619Y-120213380D02*
X164549619Y-120118142D01*
X164549619Y-120118142D02*
X164597238Y-119975285D01*
X164597238Y-119975285D02*
X164644857Y-119927666D01*
X164882952Y-119070523D02*
X165549619Y-119070523D01*
X164502000Y-119308618D02*
X165216285Y-119546713D01*
X165216285Y-119546713D02*
X165216285Y-118927666D01*
X154246619Y-125031166D02*
X153770428Y-125364499D01*
X154246619Y-125602594D02*
X153246619Y-125602594D01*
X153246619Y-125602594D02*
X153246619Y-125221642D01*
X153246619Y-125221642D02*
X153294238Y-125126404D01*
X153294238Y-125126404D02*
X153341857Y-125078785D01*
X153341857Y-125078785D02*
X153437095Y-125031166D01*
X153437095Y-125031166D02*
X153579952Y-125031166D01*
X153579952Y-125031166D02*
X153675190Y-125078785D01*
X153675190Y-125078785D02*
X153722809Y-125126404D01*
X153722809Y-125126404D02*
X153770428Y-125221642D01*
X153770428Y-125221642D02*
X153770428Y-125602594D01*
X154246619Y-124078785D02*
X154246619Y-124650213D01*
X154246619Y-124364499D02*
X153246619Y-124364499D01*
X153246619Y-124364499D02*
X153389476Y-124459737D01*
X153389476Y-124459737D02*
X153484714Y-124554975D01*
X153484714Y-124554975D02*
X153532333Y-124650213D01*
X188282619Y-127293666D02*
X187806428Y-127626999D01*
X188282619Y-127865094D02*
X187282619Y-127865094D01*
X187282619Y-127865094D02*
X187282619Y-127484142D01*
X187282619Y-127484142D02*
X187330238Y-127388904D01*
X187330238Y-127388904D02*
X187377857Y-127341285D01*
X187377857Y-127341285D02*
X187473095Y-127293666D01*
X187473095Y-127293666D02*
X187615952Y-127293666D01*
X187615952Y-127293666D02*
X187711190Y-127341285D01*
X187711190Y-127341285D02*
X187758809Y-127388904D01*
X187758809Y-127388904D02*
X187806428Y-127484142D01*
X187806428Y-127484142D02*
X187806428Y-127865094D01*
X187282619Y-126960332D02*
X187282619Y-126293666D01*
X187282619Y-126293666D02*
X188282619Y-126722237D01*
X147001095Y-106383619D02*
X147001095Y-107193142D01*
X147001095Y-107193142D02*
X147048714Y-107288380D01*
X147048714Y-107288380D02*
X147096333Y-107336000D01*
X147096333Y-107336000D02*
X147191571Y-107383619D01*
X147191571Y-107383619D02*
X147382047Y-107383619D01*
X147382047Y-107383619D02*
X147477285Y-107336000D01*
X147477285Y-107336000D02*
X147524904Y-107288380D01*
X147524904Y-107288380D02*
X147572523Y-107193142D01*
X147572523Y-107193142D02*
X147572523Y-106383619D01*
X147953476Y-106383619D02*
X148620142Y-106383619D01*
X148620142Y-106383619D02*
X148191571Y-107383619D01*
X176692380Y-107862666D02*
X176740000Y-107910285D01*
X176740000Y-107910285D02*
X176787619Y-108053142D01*
X176787619Y-108053142D02*
X176787619Y-108148380D01*
X176787619Y-108148380D02*
X176740000Y-108291237D01*
X176740000Y-108291237D02*
X176644761Y-108386475D01*
X176644761Y-108386475D02*
X176549523Y-108434094D01*
X176549523Y-108434094D02*
X176359047Y-108481713D01*
X176359047Y-108481713D02*
X176216190Y-108481713D01*
X176216190Y-108481713D02*
X176025714Y-108434094D01*
X176025714Y-108434094D02*
X175930476Y-108386475D01*
X175930476Y-108386475D02*
X175835238Y-108291237D01*
X175835238Y-108291237D02*
X175787619Y-108148380D01*
X175787619Y-108148380D02*
X175787619Y-108053142D01*
X175787619Y-108053142D02*
X175835238Y-107910285D01*
X175835238Y-107910285D02*
X175882857Y-107862666D01*
X175787619Y-106957904D02*
X175787619Y-107434094D01*
X175787619Y-107434094D02*
X176263809Y-107481713D01*
X176263809Y-107481713D02*
X176216190Y-107434094D01*
X176216190Y-107434094D02*
X176168571Y-107338856D01*
X176168571Y-107338856D02*
X176168571Y-107100761D01*
X176168571Y-107100761D02*
X176216190Y-107005523D01*
X176216190Y-107005523D02*
X176263809Y-106957904D01*
X176263809Y-106957904D02*
X176359047Y-106910285D01*
X176359047Y-106910285D02*
X176597142Y-106910285D01*
X176597142Y-106910285D02*
X176692380Y-106957904D01*
X176692380Y-106957904D02*
X176740000Y-107005523D01*
X176740000Y-107005523D02*
X176787619Y-107100761D01*
X176787619Y-107100761D02*
X176787619Y-107338856D01*
X176787619Y-107338856D02*
X176740000Y-107434094D01*
X176740000Y-107434094D02*
X176692380Y-107481713D01*
X168148095Y-107653619D02*
X168148095Y-108463142D01*
X168148095Y-108463142D02*
X168195714Y-108558380D01*
X168195714Y-108558380D02*
X168243333Y-108606000D01*
X168243333Y-108606000D02*
X168338571Y-108653619D01*
X168338571Y-108653619D02*
X168529047Y-108653619D01*
X168529047Y-108653619D02*
X168624285Y-108606000D01*
X168624285Y-108606000D02*
X168671904Y-108558380D01*
X168671904Y-108558380D02*
X168719523Y-108463142D01*
X168719523Y-108463142D02*
X168719523Y-107653619D01*
X169100476Y-107653619D02*
X169719523Y-107653619D01*
X169719523Y-107653619D02*
X169386190Y-108034571D01*
X169386190Y-108034571D02*
X169529047Y-108034571D01*
X169529047Y-108034571D02*
X169624285Y-108082190D01*
X169624285Y-108082190D02*
X169671904Y-108129809D01*
X169671904Y-108129809D02*
X169719523Y-108225047D01*
X169719523Y-108225047D02*
X169719523Y-108463142D01*
X169719523Y-108463142D02*
X169671904Y-108558380D01*
X169671904Y-108558380D02*
X169624285Y-108606000D01*
X169624285Y-108606000D02*
X169529047Y-108653619D01*
X169529047Y-108653619D02*
X169243333Y-108653619D01*
X169243333Y-108653619D02*
X169148095Y-108606000D01*
X169148095Y-108606000D02*
X169100476Y-108558380D01*
X128211619Y-117387666D02*
X127735428Y-117720999D01*
X128211619Y-117959094D02*
X127211619Y-117959094D01*
X127211619Y-117959094D02*
X127211619Y-117578142D01*
X127211619Y-117578142D02*
X127259238Y-117482904D01*
X127259238Y-117482904D02*
X127306857Y-117435285D01*
X127306857Y-117435285D02*
X127402095Y-117387666D01*
X127402095Y-117387666D02*
X127544952Y-117387666D01*
X127544952Y-117387666D02*
X127640190Y-117435285D01*
X127640190Y-117435285D02*
X127687809Y-117482904D01*
X127687809Y-117482904D02*
X127735428Y-117578142D01*
X127735428Y-117578142D02*
X127735428Y-117959094D01*
X127211619Y-117054332D02*
X127211619Y-116435285D01*
X127211619Y-116435285D02*
X127592571Y-116768618D01*
X127592571Y-116768618D02*
X127592571Y-116625761D01*
X127592571Y-116625761D02*
X127640190Y-116530523D01*
X127640190Y-116530523D02*
X127687809Y-116482904D01*
X127687809Y-116482904D02*
X127783047Y-116435285D01*
X127783047Y-116435285D02*
X128021142Y-116435285D01*
X128021142Y-116435285D02*
X128116380Y-116482904D01*
X128116380Y-116482904D02*
X128164000Y-116530523D01*
X128164000Y-116530523D02*
X128211619Y-116625761D01*
X128211619Y-116625761D02*
X128211619Y-116911475D01*
X128211619Y-116911475D02*
X128164000Y-117006713D01*
X128164000Y-117006713D02*
X128116380Y-117054332D01*
X183456619Y-111545666D02*
X182980428Y-111878999D01*
X183456619Y-112117094D02*
X182456619Y-112117094D01*
X182456619Y-112117094D02*
X182456619Y-111736142D01*
X182456619Y-111736142D02*
X182504238Y-111640904D01*
X182504238Y-111640904D02*
X182551857Y-111593285D01*
X182551857Y-111593285D02*
X182647095Y-111545666D01*
X182647095Y-111545666D02*
X182789952Y-111545666D01*
X182789952Y-111545666D02*
X182885190Y-111593285D01*
X182885190Y-111593285D02*
X182932809Y-111640904D01*
X182932809Y-111640904D02*
X182980428Y-111736142D01*
X182980428Y-111736142D02*
X182980428Y-112117094D01*
X182456619Y-110640904D02*
X182456619Y-111117094D01*
X182456619Y-111117094D02*
X182932809Y-111164713D01*
X182932809Y-111164713D02*
X182885190Y-111117094D01*
X182885190Y-111117094D02*
X182837571Y-111021856D01*
X182837571Y-111021856D02*
X182837571Y-110783761D01*
X182837571Y-110783761D02*
X182885190Y-110688523D01*
X182885190Y-110688523D02*
X182932809Y-110640904D01*
X182932809Y-110640904D02*
X183028047Y-110593285D01*
X183028047Y-110593285D02*
X183266142Y-110593285D01*
X183266142Y-110593285D02*
X183361380Y-110640904D01*
X183361380Y-110640904D02*
X183409000Y-110688523D01*
X183409000Y-110688523D02*
X183456619Y-110783761D01*
X183456619Y-110783761D02*
X183456619Y-111021856D01*
X183456619Y-111021856D02*
X183409000Y-111117094D01*
X183409000Y-111117094D02*
X183361380Y-111164713D01*
X190658761Y-115733857D02*
X190563523Y-115686238D01*
X190563523Y-115686238D02*
X190468285Y-115591000D01*
X190468285Y-115591000D02*
X190325428Y-115448142D01*
X190325428Y-115448142D02*
X190230190Y-115400523D01*
X190230190Y-115400523D02*
X190134952Y-115400523D01*
X190182571Y-115638619D02*
X190087333Y-115591000D01*
X190087333Y-115591000D02*
X189992095Y-115495761D01*
X189992095Y-115495761D02*
X189944476Y-115305285D01*
X189944476Y-115305285D02*
X189944476Y-114971952D01*
X189944476Y-114971952D02*
X189992095Y-114781476D01*
X189992095Y-114781476D02*
X190087333Y-114686238D01*
X190087333Y-114686238D02*
X190182571Y-114638619D01*
X190182571Y-114638619D02*
X190373047Y-114638619D01*
X190373047Y-114638619D02*
X190468285Y-114686238D01*
X190468285Y-114686238D02*
X190563523Y-114781476D01*
X190563523Y-114781476D02*
X190611142Y-114971952D01*
X190611142Y-114971952D02*
X190611142Y-115305285D01*
X190611142Y-115305285D02*
X190563523Y-115495761D01*
X190563523Y-115495761D02*
X190468285Y-115591000D01*
X190468285Y-115591000D02*
X190373047Y-115638619D01*
X190373047Y-115638619D02*
X190182571Y-115638619D01*
X190992095Y-114733857D02*
X191039714Y-114686238D01*
X191039714Y-114686238D02*
X191134952Y-114638619D01*
X191134952Y-114638619D02*
X191373047Y-114638619D01*
X191373047Y-114638619D02*
X191468285Y-114686238D01*
X191468285Y-114686238D02*
X191515904Y-114733857D01*
X191515904Y-114733857D02*
X191563523Y-114829095D01*
X191563523Y-114829095D02*
X191563523Y-114924333D01*
X191563523Y-114924333D02*
X191515904Y-115067190D01*
X191515904Y-115067190D02*
X190944476Y-115638619D01*
X190944476Y-115638619D02*
X191563523Y-115638619D01*
X144740333Y-131164380D02*
X144692714Y-131212000D01*
X144692714Y-131212000D02*
X144549857Y-131259619D01*
X144549857Y-131259619D02*
X144454619Y-131259619D01*
X144454619Y-131259619D02*
X144311762Y-131212000D01*
X144311762Y-131212000D02*
X144216524Y-131116761D01*
X144216524Y-131116761D02*
X144168905Y-131021523D01*
X144168905Y-131021523D02*
X144121286Y-130831047D01*
X144121286Y-130831047D02*
X144121286Y-130688190D01*
X144121286Y-130688190D02*
X144168905Y-130497714D01*
X144168905Y-130497714D02*
X144216524Y-130402476D01*
X144216524Y-130402476D02*
X144311762Y-130307238D01*
X144311762Y-130307238D02*
X144454619Y-130259619D01*
X144454619Y-130259619D02*
X144549857Y-130259619D01*
X144549857Y-130259619D02*
X144692714Y-130307238D01*
X144692714Y-130307238D02*
X144740333Y-130354857D01*
X145216524Y-131259619D02*
X145407000Y-131259619D01*
X145407000Y-131259619D02*
X145502238Y-131212000D01*
X145502238Y-131212000D02*
X145549857Y-131164380D01*
X145549857Y-131164380D02*
X145645095Y-131021523D01*
X145645095Y-131021523D02*
X145692714Y-130831047D01*
X145692714Y-130831047D02*
X145692714Y-130450095D01*
X145692714Y-130450095D02*
X145645095Y-130354857D01*
X145645095Y-130354857D02*
X145597476Y-130307238D01*
X145597476Y-130307238D02*
X145502238Y-130259619D01*
X145502238Y-130259619D02*
X145311762Y-130259619D01*
X145311762Y-130259619D02*
X145216524Y-130307238D01*
X145216524Y-130307238D02*
X145168905Y-130354857D01*
X145168905Y-130354857D02*
X145121286Y-130450095D01*
X145121286Y-130450095D02*
X145121286Y-130688190D01*
X145121286Y-130688190D02*
X145168905Y-130783428D01*
X145168905Y-130783428D02*
X145216524Y-130831047D01*
X145216524Y-130831047D02*
X145311762Y-130878666D01*
X145311762Y-130878666D02*
X145502238Y-130878666D01*
X145502238Y-130878666D02*
X145597476Y-130831047D01*
X145597476Y-130831047D02*
X145645095Y-130783428D01*
X145645095Y-130783428D02*
X145692714Y-130688190D01*
X188377857Y-111093238D02*
X188330238Y-111188476D01*
X188330238Y-111188476D02*
X188235000Y-111283714D01*
X188235000Y-111283714D02*
X188092142Y-111426571D01*
X188092142Y-111426571D02*
X188044523Y-111521809D01*
X188044523Y-111521809D02*
X188044523Y-111617047D01*
X188282619Y-111569428D02*
X188235000Y-111664666D01*
X188235000Y-111664666D02*
X188139761Y-111759904D01*
X188139761Y-111759904D02*
X187949285Y-111807523D01*
X187949285Y-111807523D02*
X187615952Y-111807523D01*
X187615952Y-111807523D02*
X187425476Y-111759904D01*
X187425476Y-111759904D02*
X187330238Y-111664666D01*
X187330238Y-111664666D02*
X187282619Y-111569428D01*
X187282619Y-111569428D02*
X187282619Y-111378952D01*
X187282619Y-111378952D02*
X187330238Y-111283714D01*
X187330238Y-111283714D02*
X187425476Y-111188476D01*
X187425476Y-111188476D02*
X187615952Y-111140857D01*
X187615952Y-111140857D02*
X187949285Y-111140857D01*
X187949285Y-111140857D02*
X188139761Y-111188476D01*
X188139761Y-111188476D02*
X188235000Y-111283714D01*
X188235000Y-111283714D02*
X188282619Y-111378952D01*
X188282619Y-111378952D02*
X188282619Y-111569428D01*
X188282619Y-110188476D02*
X188282619Y-110759904D01*
X188282619Y-110474190D02*
X187282619Y-110474190D01*
X187282619Y-110474190D02*
X187425476Y-110569428D01*
X187425476Y-110569428D02*
X187520714Y-110664666D01*
X187520714Y-110664666D02*
X187568333Y-110759904D01*
X165516380Y-107989666D02*
X165564000Y-108037285D01*
X165564000Y-108037285D02*
X165611619Y-108180142D01*
X165611619Y-108180142D02*
X165611619Y-108275380D01*
X165611619Y-108275380D02*
X165564000Y-108418237D01*
X165564000Y-108418237D02*
X165468761Y-108513475D01*
X165468761Y-108513475D02*
X165373523Y-108561094D01*
X165373523Y-108561094D02*
X165183047Y-108608713D01*
X165183047Y-108608713D02*
X165040190Y-108608713D01*
X165040190Y-108608713D02*
X164849714Y-108561094D01*
X164849714Y-108561094D02*
X164754476Y-108513475D01*
X164754476Y-108513475D02*
X164659238Y-108418237D01*
X164659238Y-108418237D02*
X164611619Y-108275380D01*
X164611619Y-108275380D02*
X164611619Y-108180142D01*
X164611619Y-108180142D02*
X164659238Y-108037285D01*
X164659238Y-108037285D02*
X164706857Y-107989666D01*
X164611619Y-107656332D02*
X164611619Y-106989666D01*
X164611619Y-106989666D02*
X165611619Y-107418237D01*
X157099095Y-107780619D02*
X157099095Y-108590142D01*
X157099095Y-108590142D02*
X157146714Y-108685380D01*
X157146714Y-108685380D02*
X157194333Y-108733000D01*
X157194333Y-108733000D02*
X157289571Y-108780619D01*
X157289571Y-108780619D02*
X157480047Y-108780619D01*
X157480047Y-108780619D02*
X157575285Y-108733000D01*
X157575285Y-108733000D02*
X157622904Y-108685380D01*
X157622904Y-108685380D02*
X157670523Y-108590142D01*
X157670523Y-108590142D02*
X157670523Y-107780619D01*
X158670523Y-108780619D02*
X158099095Y-108780619D01*
X158384809Y-108780619D02*
X158384809Y-107780619D01*
X158384809Y-107780619D02*
X158289571Y-107923476D01*
X158289571Y-107923476D02*
X158194333Y-108018714D01*
X158194333Y-108018714D02*
X158099095Y-108066333D01*
X190841333Y-132656619D02*
X190508000Y-132180428D01*
X190269905Y-132656619D02*
X190269905Y-131656619D01*
X190269905Y-131656619D02*
X190650857Y-131656619D01*
X190650857Y-131656619D02*
X190746095Y-131704238D01*
X190746095Y-131704238D02*
X190793714Y-131751857D01*
X190793714Y-131751857D02*
X190841333Y-131847095D01*
X190841333Y-131847095D02*
X190841333Y-131989952D01*
X190841333Y-131989952D02*
X190793714Y-132085190D01*
X190793714Y-132085190D02*
X190746095Y-132132809D01*
X190746095Y-132132809D02*
X190650857Y-132180428D01*
X190650857Y-132180428D02*
X190269905Y-132180428D01*
X191698476Y-131656619D02*
X191508000Y-131656619D01*
X191508000Y-131656619D02*
X191412762Y-131704238D01*
X191412762Y-131704238D02*
X191365143Y-131751857D01*
X191365143Y-131751857D02*
X191269905Y-131894714D01*
X191269905Y-131894714D02*
X191222286Y-132085190D01*
X191222286Y-132085190D02*
X191222286Y-132466142D01*
X191222286Y-132466142D02*
X191269905Y-132561380D01*
X191269905Y-132561380D02*
X191317524Y-132609000D01*
X191317524Y-132609000D02*
X191412762Y-132656619D01*
X191412762Y-132656619D02*
X191603238Y-132656619D01*
X191603238Y-132656619D02*
X191698476Y-132609000D01*
X191698476Y-132609000D02*
X191746095Y-132561380D01*
X191746095Y-132561380D02*
X191793714Y-132466142D01*
X191793714Y-132466142D02*
X191793714Y-132228047D01*
X191793714Y-132228047D02*
X191746095Y-132132809D01*
X191746095Y-132132809D02*
X191698476Y-132085190D01*
X191698476Y-132085190D02*
X191603238Y-132037571D01*
X191603238Y-132037571D02*
X191412762Y-132037571D01*
X191412762Y-132037571D02*
X191317524Y-132085190D01*
X191317524Y-132085190D02*
X191269905Y-132132809D01*
X191269905Y-132132809D02*
X191222286Y-132228047D01*
X192182761Y-124877857D02*
X192087523Y-124830238D01*
X192087523Y-124830238D02*
X191992285Y-124735000D01*
X191992285Y-124735000D02*
X191849428Y-124592142D01*
X191849428Y-124592142D02*
X191754190Y-124544523D01*
X191754190Y-124544523D02*
X191658952Y-124544523D01*
X191706571Y-124782619D02*
X191611333Y-124735000D01*
X191611333Y-124735000D02*
X191516095Y-124639761D01*
X191516095Y-124639761D02*
X191468476Y-124449285D01*
X191468476Y-124449285D02*
X191468476Y-124115952D01*
X191468476Y-124115952D02*
X191516095Y-123925476D01*
X191516095Y-123925476D02*
X191611333Y-123830238D01*
X191611333Y-123830238D02*
X191706571Y-123782619D01*
X191706571Y-123782619D02*
X191897047Y-123782619D01*
X191897047Y-123782619D02*
X191992285Y-123830238D01*
X191992285Y-123830238D02*
X192087523Y-123925476D01*
X192087523Y-123925476D02*
X192135142Y-124115952D01*
X192135142Y-124115952D02*
X192135142Y-124449285D01*
X192135142Y-124449285D02*
X192087523Y-124639761D01*
X192087523Y-124639761D02*
X191992285Y-124735000D01*
X191992285Y-124735000D02*
X191897047Y-124782619D01*
X191897047Y-124782619D02*
X191706571Y-124782619D01*
X192468476Y-123782619D02*
X193087523Y-123782619D01*
X193087523Y-123782619D02*
X192754190Y-124163571D01*
X192754190Y-124163571D02*
X192897047Y-124163571D01*
X192897047Y-124163571D02*
X192992285Y-124211190D01*
X192992285Y-124211190D02*
X193039904Y-124258809D01*
X193039904Y-124258809D02*
X193087523Y-124354047D01*
X193087523Y-124354047D02*
X193087523Y-124592142D01*
X193087523Y-124592142D02*
X193039904Y-124687380D01*
X193039904Y-124687380D02*
X192992285Y-124735000D01*
X192992285Y-124735000D02*
X192897047Y-124782619D01*
X192897047Y-124782619D02*
X192611333Y-124782619D01*
X192611333Y-124782619D02*
X192516095Y-124735000D01*
X192516095Y-124735000D02*
X192468476Y-124687380D01*
X151357380Y-121197666D02*
X151405000Y-121245285D01*
X151405000Y-121245285D02*
X151452619Y-121388142D01*
X151452619Y-121388142D02*
X151452619Y-121483380D01*
X151452619Y-121483380D02*
X151405000Y-121626237D01*
X151405000Y-121626237D02*
X151309761Y-121721475D01*
X151309761Y-121721475D02*
X151214523Y-121769094D01*
X151214523Y-121769094D02*
X151024047Y-121816713D01*
X151024047Y-121816713D02*
X150881190Y-121816713D01*
X150881190Y-121816713D02*
X150690714Y-121769094D01*
X150690714Y-121769094D02*
X150595476Y-121721475D01*
X150595476Y-121721475D02*
X150500238Y-121626237D01*
X150500238Y-121626237D02*
X150452619Y-121483380D01*
X150452619Y-121483380D02*
X150452619Y-121388142D01*
X150452619Y-121388142D02*
X150500238Y-121245285D01*
X150500238Y-121245285D02*
X150547857Y-121197666D01*
X151452619Y-120245285D02*
X151452619Y-120816713D01*
X151452619Y-120530999D02*
X150452619Y-120530999D01*
X150452619Y-120530999D02*
X150595476Y-120626237D01*
X150595476Y-120626237D02*
X150690714Y-120721475D01*
X150690714Y-120721475D02*
X150738333Y-120816713D01*
X143129095Y-120734619D02*
X143129095Y-121544142D01*
X143129095Y-121544142D02*
X143176714Y-121639380D01*
X143176714Y-121639380D02*
X143224333Y-121687000D01*
X143224333Y-121687000D02*
X143319571Y-121734619D01*
X143319571Y-121734619D02*
X143510047Y-121734619D01*
X143510047Y-121734619D02*
X143605285Y-121687000D01*
X143605285Y-121687000D02*
X143652904Y-121639380D01*
X143652904Y-121639380D02*
X143700523Y-121544142D01*
X143700523Y-121544142D02*
X143700523Y-120734619D01*
X144605285Y-120734619D02*
X144414809Y-120734619D01*
X144414809Y-120734619D02*
X144319571Y-120782238D01*
X144319571Y-120782238D02*
X144271952Y-120829857D01*
X144271952Y-120829857D02*
X144176714Y-120972714D01*
X144176714Y-120972714D02*
X144129095Y-121163190D01*
X144129095Y-121163190D02*
X144129095Y-121544142D01*
X144129095Y-121544142D02*
X144176714Y-121639380D01*
X144176714Y-121639380D02*
X144224333Y-121687000D01*
X144224333Y-121687000D02*
X144319571Y-121734619D01*
X144319571Y-121734619D02*
X144510047Y-121734619D01*
X144510047Y-121734619D02*
X144605285Y-121687000D01*
X144605285Y-121687000D02*
X144652904Y-121639380D01*
X144652904Y-121639380D02*
X144700523Y-121544142D01*
X144700523Y-121544142D02*
X144700523Y-121306047D01*
X144700523Y-121306047D02*
X144652904Y-121210809D01*
X144652904Y-121210809D02*
X144605285Y-121163190D01*
X144605285Y-121163190D02*
X144510047Y-121115571D01*
X144510047Y-121115571D02*
X144319571Y-121115571D01*
X144319571Y-121115571D02*
X144224333Y-121163190D01*
X144224333Y-121163190D02*
X144176714Y-121210809D01*
X144176714Y-121210809D02*
X144129095Y-121306047D01*
X179578095Y-113495619D02*
X179578095Y-114305142D01*
X179578095Y-114305142D02*
X179625714Y-114400380D01*
X179625714Y-114400380D02*
X179673333Y-114448000D01*
X179673333Y-114448000D02*
X179768571Y-114495619D01*
X179768571Y-114495619D02*
X179959047Y-114495619D01*
X179959047Y-114495619D02*
X180054285Y-114448000D01*
X180054285Y-114448000D02*
X180101904Y-114400380D01*
X180101904Y-114400380D02*
X180149523Y-114305142D01*
X180149523Y-114305142D02*
X180149523Y-113495619D01*
X181101904Y-113495619D02*
X180625714Y-113495619D01*
X180625714Y-113495619D02*
X180578095Y-113971809D01*
X180578095Y-113971809D02*
X180625714Y-113924190D01*
X180625714Y-113924190D02*
X180720952Y-113876571D01*
X180720952Y-113876571D02*
X180959047Y-113876571D01*
X180959047Y-113876571D02*
X181054285Y-113924190D01*
X181054285Y-113924190D02*
X181101904Y-113971809D01*
X181101904Y-113971809D02*
X181149523Y-114067047D01*
X181149523Y-114067047D02*
X181149523Y-114305142D01*
X181149523Y-114305142D02*
X181101904Y-114400380D01*
X181101904Y-114400380D02*
X181054285Y-114448000D01*
X181054285Y-114448000D02*
X180959047Y-114495619D01*
X180959047Y-114495619D02*
X180720952Y-114495619D01*
X180720952Y-114495619D02*
X180625714Y-114448000D01*
X180625714Y-114448000D02*
X180578095Y-114400380D01*
D12*
%TO.C,C3*%
X173220748Y-119026000D02*
X173743252Y-119026000D01*
X173220748Y-120496000D02*
X173743252Y-120496000D01*
%TO.C,D2*%
X126290000Y-135720000D02*
X126290000Y-127210000D01*
X132790000Y-135720000D02*
X126290000Y-135720000D01*
X132790000Y-135720000D02*
X132790000Y-127210000D01*
%TO.C,C2*%
X185031748Y-112676000D02*
X185554252Y-112676000D01*
X185031748Y-114146000D02*
X185554252Y-114146000D01*
%TO.C,C6*%
X139438748Y-116994000D02*
X139961252Y-116994000D01*
X139438748Y-118464000D02*
X139961252Y-118464000D01*
%TO.C,R4*%
X125122000Y-110082064D02*
X125122000Y-109627936D01*
X126592000Y-110082064D02*
X126592000Y-109627936D01*
%TO.C,U2*%
X160528000Y-121295000D02*
X158578000Y-121295000D01*
X160528000Y-121295000D02*
X162478000Y-121295000D01*
X160528000Y-130165000D02*
X158578000Y-130165000D01*
X160528000Y-130165000D02*
X162478000Y-130165000D01*
X157828000Y-121360000D02*
X157588000Y-121030000D01*
X158068000Y-121030000D01*
X157828000Y-121360000D01*
G36*
X157828000Y-121360000D02*
G01*
X157588000Y-121030000D01*
X158068000Y-121030000D01*
X157828000Y-121360000D01*
G37*
%TO.C,R2*%
X151157000Y-128193436D02*
X151157000Y-128647564D01*
X152627000Y-128193436D02*
X152627000Y-128647564D01*
%TO.C,C8*%
X148582748Y-128297000D02*
X149105252Y-128297000D01*
X148582748Y-129767000D02*
X149105252Y-129767000D01*
%TO.C,U4*%
X171704000Y-121295000D02*
X169754000Y-121295000D01*
X171704000Y-121295000D02*
X173654000Y-121295000D01*
X171704000Y-130165000D02*
X169754000Y-130165000D01*
X171704000Y-130165000D02*
X173654000Y-130165000D01*
X169004000Y-121360000D02*
X168764000Y-121030000D01*
X169244000Y-121030000D01*
X169004000Y-121360000D01*
G36*
X169004000Y-121360000D02*
G01*
X168764000Y-121030000D01*
X169244000Y-121030000D01*
X169004000Y-121360000D01*
G37*
%TO.C,J1*%
X118770000Y-108868000D02*
X120470000Y-108868000D01*
X118770000Y-118208000D02*
X120470000Y-118208000D01*
%TO.C,C4*%
X162171748Y-119026000D02*
X162694252Y-119026000D01*
X162171748Y-120496000D02*
X162694252Y-120496000D01*
%TO.C,R1*%
X151157000Y-124637436D02*
X151157000Y-125091564D01*
X152627000Y-124637436D02*
X152627000Y-125091564D01*
%TO.C,R7*%
X188749000Y-126899936D02*
X188749000Y-127354064D01*
X190219000Y-126899936D02*
X190219000Y-127354064D01*
%TO.C,D1*%
X171458000Y-93650000D02*
X171458000Y-97535000D01*
X171458000Y-97535000D02*
X173728000Y-97535000D01*
X173728000Y-97535000D02*
X173728000Y-93650000D01*
%TO.C,U7*%
X143841000Y-108024000D02*
X143841000Y-108279000D01*
X143841000Y-118544000D02*
X143841000Y-118289000D01*
X147701000Y-108024000D02*
X143841000Y-108024000D01*
X147701000Y-108024000D02*
X151561000Y-108024000D01*
X147701000Y-118544000D02*
X143841000Y-118544000D01*
X147701000Y-118544000D02*
X151561000Y-118544000D01*
X151561000Y-108024000D02*
X151561000Y-108279000D01*
X151561000Y-118544000D02*
X151561000Y-118289000D01*
X152753500Y-118759000D02*
X152073500Y-118759000D01*
X152413500Y-118289000D01*
X152753500Y-118759000D01*
G36*
X152753500Y-118759000D02*
G01*
X152073500Y-118759000D01*
X152413500Y-118289000D01*
X152753500Y-118759000D01*
G37*
%TO.C,C5*%
X173347748Y-106961000D02*
X173870252Y-106961000D01*
X173347748Y-108431000D02*
X173870252Y-108431000D01*
%TO.C,U3*%
X171704000Y-109357000D02*
X169754000Y-109357000D01*
X171704000Y-109357000D02*
X173654000Y-109357000D01*
X171704000Y-118227000D02*
X169754000Y-118227000D01*
X171704000Y-118227000D02*
X173654000Y-118227000D01*
X169004000Y-109422000D02*
X168764000Y-109092000D01*
X169244000Y-109092000D01*
X169004000Y-109422000D01*
G36*
X169004000Y-109422000D02*
G01*
X168764000Y-109092000D01*
X169244000Y-109092000D01*
X169004000Y-109422000D01*
G37*
%TO.C,SW1*%
X146664000Y-90179000D02*
X146664000Y-90969000D01*
X148714000Y-92019000D02*
X148514000Y-92019000D01*
X150214000Y-87879000D02*
X150214000Y-89169000D01*
X150214000Y-87879000D02*
X150414000Y-87669000D01*
X151314000Y-87669000D02*
X150414000Y-87669000D01*
X151514000Y-87879000D02*
X151314000Y-87669000D01*
X151514000Y-89169000D02*
X151514000Y-87879000D01*
X151714000Y-92019000D02*
X150014000Y-92019000D01*
X152964000Y-89169000D02*
X147264000Y-89169000D01*
X153564000Y-90969000D02*
X153564000Y-90179000D01*
%TO.C,R3*%
X125122000Y-116993936D02*
X125122000Y-117448064D01*
X126592000Y-116993936D02*
X126592000Y-117448064D01*
%TO.C,R5*%
X180494000Y-111151936D02*
X180494000Y-111606064D01*
X181964000Y-111151936D02*
X181964000Y-111606064D01*
%TO.C,Q2*%
X192455800Y-112525850D02*
X192466600Y-119427650D01*
X192466600Y-119427650D02*
X202706600Y-119427650D01*
X195046600Y-119427650D02*
X195046600Y-121967650D01*
X197586600Y-119427650D02*
X197586600Y-121967650D01*
X200126600Y-119427650D02*
X200126600Y-121967650D01*
X202717400Y-112525850D02*
X202706600Y-119427650D01*
%TO.C,C9*%
X144518748Y-128297000D02*
X145041252Y-128297000D01*
X144518748Y-129767000D02*
X145041252Y-129767000D01*
%TO.C,Q1*%
X183733000Y-109982000D02*
X183733000Y-109332000D01*
X183733000Y-109982000D02*
X183733000Y-110632000D01*
X186853000Y-109982000D02*
X186853000Y-109332000D01*
X186853000Y-109982000D02*
X186853000Y-110632000D01*
X187133000Y-109059500D02*
X186803000Y-108819500D01*
X187133000Y-108579500D01*
X187133000Y-109059500D01*
G36*
X187133000Y-109059500D02*
G01*
X186803000Y-108819500D01*
X187133000Y-108579500D01*
X187133000Y-109059500D01*
G37*
%TO.C,C7*%
X162171748Y-107088000D02*
X162694252Y-107088000D01*
X162171748Y-108558000D02*
X162694252Y-108558000D01*
%TO.C,U1*%
X160528000Y-109357000D02*
X158578000Y-109357000D01*
X160528000Y-109357000D02*
X162478000Y-109357000D01*
X160528000Y-118227000D02*
X158578000Y-118227000D01*
X160528000Y-118227000D02*
X162478000Y-118227000D01*
X157828000Y-109422000D02*
X157588000Y-109092000D01*
X158068000Y-109092000D01*
X157828000Y-109422000D01*
G36*
X157828000Y-109422000D02*
G01*
X157588000Y-109092000D01*
X158068000Y-109092000D01*
X157828000Y-109422000D01*
G37*
%TO.C,R6*%
X190780936Y-129694000D02*
X191235064Y-129694000D01*
X190780936Y-131164000D02*
X191235064Y-131164000D01*
%TO.C,Q3*%
X193167000Y-125633000D02*
X192517000Y-125633000D01*
X193167000Y-125633000D02*
X193817000Y-125633000D01*
X193167000Y-128753000D02*
X192517000Y-128753000D01*
X193167000Y-128753000D02*
X193817000Y-128753000D01*
X192004500Y-125683000D02*
X191764500Y-125353000D01*
X192244500Y-125353000D01*
X192004500Y-125683000D01*
G36*
X192004500Y-125683000D02*
G01*
X191764500Y-125353000D01*
X192244500Y-125353000D01*
X192004500Y-125683000D01*
G37*
%TO.C,C1*%
X148074748Y-120296000D02*
X148597252Y-120296000D01*
X148074748Y-121766000D02*
X148597252Y-121766000D01*
%TO.C,U6*%
X146812000Y-122408000D02*
X144862000Y-122408000D01*
X146812000Y-122408000D02*
X148762000Y-122408000D01*
X146812000Y-127528000D02*
X144862000Y-127528000D01*
X146812000Y-127528000D02*
X148762000Y-127528000D01*
X144112000Y-122503000D02*
X143872000Y-122173000D01*
X144352000Y-122173000D01*
X144112000Y-122503000D01*
G36*
X144112000Y-122503000D02*
G01*
X143872000Y-122173000D01*
X144352000Y-122173000D01*
X144112000Y-122503000D01*
G37*
%TO.C,U5*%
X183323000Y-115199000D02*
X181373000Y-115199000D01*
X183323000Y-115199000D02*
X185273000Y-115199000D01*
X183323000Y-124069000D02*
X181373000Y-124069000D01*
X183323000Y-124069000D02*
X185273000Y-124069000D01*
X180623000Y-115264000D02*
X180383000Y-114934000D01*
X180863000Y-114934000D01*
X180623000Y-115264000D01*
G36*
X180623000Y-115264000D02*
G01*
X180383000Y-114934000D01*
X180863000Y-114934000D01*
X180623000Y-115264000D01*
G37*
%TO.C,BT1*%
X122570000Y-92711000D02*
X122570000Y-95171000D01*
X122570000Y-101171000D02*
X122570000Y-101801000D01*
X122570000Y-101801000D02*
X124010000Y-105751000D01*
X124650000Y-90631000D02*
X122570000Y-92711000D01*
X128150000Y-90631000D02*
X124650000Y-90631000D01*
X142050000Y-90631000D02*
X138550000Y-90631000D01*
X142050000Y-90631000D02*
X144130000Y-92711000D01*
X144130000Y-92711000D02*
X144130000Y-95171000D01*
X144130000Y-101171000D02*
X144130000Y-101801000D01*
X144130000Y-101801000D02*
X142690000Y-105751000D01*
X127346646Y-106737530D02*
G75*
G02*
X124010000Y-105751000I-1306646J1716531D01*
G01*
X142675243Y-105759169D02*
G75*
G02*
X139350000Y-106721000I-2015243J738169D01*
G01*
%TD*%
%LPC*%
D13*
%TO.C,J5*%
X119380000Y-92710000D03*
D14*
X119380000Y-92710000D03*
%TD*%
D15*
%TO.C,C3*%
X172532000Y-119761000D03*
X174432000Y-119761000D03*
%TD*%
D16*
%TO.C,D2*%
X129540000Y-134210000D03*
X129540000Y-127410000D03*
%TD*%
D15*
%TO.C,C2*%
X184343000Y-113411000D03*
X186243000Y-113411000D03*
%TD*%
%TO.C,C6*%
X138750000Y-117729000D03*
X140650000Y-117729000D03*
%TD*%
D17*
%TO.C,R4*%
X125857000Y-110767500D03*
X125857000Y-108942500D03*
%TD*%
D18*
%TO.C,U2*%
X158053000Y-121920000D03*
X158053000Y-123190000D03*
X158053000Y-124460000D03*
X158053000Y-125730000D03*
X158053000Y-127000000D03*
X158053000Y-128270000D03*
X158053000Y-129540000D03*
X163003000Y-129540000D03*
X163003000Y-128270000D03*
X163003000Y-127000000D03*
X163003000Y-125730000D03*
X163003000Y-124460000D03*
X163003000Y-123190000D03*
X163003000Y-121920000D03*
%TD*%
D19*
%TO.C,R2*%
X151892000Y-127508000D03*
X151892000Y-129333000D03*
%TD*%
D15*
%TO.C,C8*%
X147894000Y-129032000D03*
X149794000Y-129032000D03*
%TD*%
D18*
%TO.C,U4*%
X169229000Y-121920000D03*
X169229000Y-123190000D03*
X169229000Y-124460000D03*
X169229000Y-125730000D03*
X169229000Y-127000000D03*
X169229000Y-128270000D03*
X169229000Y-129540000D03*
X174179000Y-129540000D03*
X174179000Y-128270000D03*
X174179000Y-127000000D03*
X174179000Y-125730000D03*
X174179000Y-124460000D03*
X174179000Y-123190000D03*
X174179000Y-121920000D03*
%TD*%
D20*
%TO.C,J1*%
X121600000Y-113038000D03*
D21*
X121600000Y-115058000D03*
D22*
X121600000Y-116288000D03*
D23*
X121600000Y-114038000D03*
D24*
X121600000Y-112018000D03*
D25*
X121600000Y-110788000D03*
D26*
X121520000Y-109218000D03*
X117720000Y-109218000D03*
X121520000Y-117858000D03*
X117720000Y-117858000D03*
%TD*%
D15*
%TO.C,C4*%
X161483000Y-119761000D03*
X163383000Y-119761000D03*
%TD*%
D19*
%TO.C,R1*%
X151892000Y-123952000D03*
X151892000Y-125777000D03*
%TD*%
%TO.C,R7*%
X189484000Y-126214500D03*
X189484000Y-128039500D03*
%TD*%
D13*
%TO.C,J4*%
X119380000Y-134366000D03*
D14*
X119380000Y-134366000D03*
%TD*%
D27*
%TO.C,D1*%
X172593000Y-96650000D03*
X172593000Y-93850000D03*
%TD*%
D28*
%TO.C,U7*%
X152351000Y-117729000D03*
X152351000Y-116459000D03*
X152351000Y-115189000D03*
X152351000Y-113919000D03*
X152351000Y-112649000D03*
X152351000Y-111379000D03*
X152351000Y-110109000D03*
X152351000Y-108839000D03*
X143051000Y-108839000D03*
X143051000Y-110109000D03*
X143051000Y-111379000D03*
X143051000Y-112649000D03*
X143051000Y-113919000D03*
X143051000Y-115189000D03*
X143051000Y-116459000D03*
X143051000Y-117729000D03*
%TD*%
D15*
%TO.C,C5*%
X172659000Y-107696000D03*
X174559000Y-107696000D03*
%TD*%
D18*
%TO.C,U3*%
X169229000Y-109982000D03*
X169229000Y-111252000D03*
X169229000Y-112522000D03*
X169229000Y-113792000D03*
X169229000Y-115062000D03*
X169229000Y-116332000D03*
X169229000Y-117602000D03*
X174179000Y-117602000D03*
X174179000Y-116332000D03*
X174179000Y-115062000D03*
X174179000Y-113792000D03*
X174179000Y-112522000D03*
X174179000Y-111252000D03*
X174179000Y-109982000D03*
%TD*%
D29*
%TO.C,SW1*%
X153764000Y-91679000D03*
X153764000Y-89469000D03*
D30*
X151614000Y-90569000D03*
X148614000Y-90569000D03*
D29*
X146464000Y-91679000D03*
X146464000Y-89469000D03*
D31*
X152364000Y-92329000D03*
X149364000Y-92329000D03*
X147864000Y-92329000D03*
%TD*%
D19*
%TO.C,R3*%
X125857000Y-116308500D03*
X125857000Y-118133500D03*
%TD*%
%TO.C,R5*%
X181229000Y-110466500D03*
X181229000Y-112291500D03*
%TD*%
D32*
%TO.C,Q2*%
X195046600Y-123117650D03*
D33*
X197586600Y-123117650D03*
X200126600Y-123117650D03*
D34*
X197485000Y-106455250D03*
%TD*%
D15*
%TO.C,C9*%
X143830000Y-129032000D03*
X145730000Y-129032000D03*
%TD*%
D35*
%TO.C,Q1*%
X186243000Y-109044500D03*
X184343000Y-109044500D03*
X185293000Y-110919500D03*
%TD*%
D15*
%TO.C,C7*%
X161483000Y-107823000D03*
X163383000Y-107823000D03*
%TD*%
D18*
%TO.C,U1*%
X158053000Y-109982000D03*
X158053000Y-111252000D03*
X158053000Y-112522000D03*
X158053000Y-113792000D03*
X158053000Y-115062000D03*
X158053000Y-116332000D03*
X158053000Y-117602000D03*
X163003000Y-117602000D03*
X163003000Y-116332000D03*
X163003000Y-115062000D03*
X163003000Y-113792000D03*
X163003000Y-112522000D03*
X163003000Y-111252000D03*
X163003000Y-109982000D03*
%TD*%
D36*
%TO.C,R6*%
X190095500Y-130429000D03*
X191920500Y-130429000D03*
%TD*%
D37*
%TO.C,Q3*%
X192229500Y-126243000D03*
X192229500Y-128143000D03*
X194104500Y-127193000D03*
%TD*%
D15*
%TO.C,C1*%
X147386000Y-121031000D03*
X149286000Y-121031000D03*
%TD*%
D18*
%TO.C,U6*%
X144337000Y-123063000D03*
X144337000Y-124333000D03*
X144337000Y-125603000D03*
X144337000Y-126873000D03*
X149287000Y-126873000D03*
X149287000Y-125603000D03*
X149287000Y-124333000D03*
X149287000Y-123063000D03*
%TD*%
%TO.C,U5*%
X180848000Y-115824000D03*
X180848000Y-117094000D03*
X180848000Y-118364000D03*
X180848000Y-119634000D03*
X180848000Y-120904000D03*
X180848000Y-122174000D03*
X180848000Y-123444000D03*
X185798000Y-123444000D03*
X185798000Y-122174000D03*
X185798000Y-120904000D03*
X185798000Y-119634000D03*
X185798000Y-118364000D03*
X185798000Y-117094000D03*
X185798000Y-115824000D03*
%TD*%
D13*
%TO.C,J2*%
X201041000Y-134366000D03*
D14*
X201041000Y-134366000D03*
%TD*%
D13*
%TO.C,J3*%
X201041000Y-92710000D03*
D14*
X201041000Y-92710000D03*
%TD*%
D38*
%TO.C,BT1*%
X122365000Y-98171000D03*
X144335000Y-98171000D03*
D39*
X133350000Y-98171000D03*
%TD*%
%LPD*%
M02*
