M48
; DRILL file {KiCad 8.0.2} date 2024-05-25T11:28:46+0300
; FORMAT={-:-/ absolute / metric / decimal}
; #@! TF.CreationDate,2024-05-25T11:28:46+03:00
; #@! TF.GenerationSoftware,Kicad,Pcbnew,8.0.2
; #@! TF.FileFunction,Plated,1,2,PTH
FMAT,2
METRIC
; #@! TA.AperFunction,Plated,PTH,ViaDrill
T1C0.300
; #@! TA.AperFunction,Plated,PTH,ComponentDrill
T2C0.600
; #@! TA.AperFunction,Plated,PTH,ComponentDrill
T3C1.100
; #@! TA.AperFunction,Plated,PTH,ComponentDrill
T4C2.500
%
G90
G05
T1
X138.811Y-114.427
X138.938Y-121.031
X138.938Y-122.174
X138.938Y-123.444
X140.335Y-121.031
X140.335Y-122.174
X140.335Y-123.444
X146.431Y-112.522
X146.431Y-113.665
X146.431Y-114.681
X147.32Y-110.617
X147.701Y-112.522
X147.701Y-113.665
X147.701Y-114.681
X154.118Y-118.678
X154.966Y-117.83
X156.845Y-107.569
X156.845Y-108.458
X157.861Y-118.872
X157.861Y-119.888
X157.988Y-107.569
X157.988Y-108.458
X159.131Y-107.569
X159.131Y-108.458
X159.131Y-118.872
X159.131Y-119.888
X164.846Y-108.966
X164.846Y-119.761
X165.735Y-128.524
X165.735Y-129.54
X166.243Y-113.03
X166.243Y-116.205
X167.005Y-128.27
X167.005Y-131.064
X167.386Y-107.569
X167.386Y-108.458
X168.656Y-107.569
X168.656Y-108.458
X169.418Y-118.872
X170.053Y-107.569
X170.053Y-108.458
X170.307Y-118.872
X171.196Y-118.872
X172.593Y-129.54
X172.593Y-131.664
X176.784Y-114.173
X176.784Y-117.602
X182.88Y-127.889
X182.88Y-129.032
X182.88Y-130.302
X184.404Y-127.889
X184.404Y-129.032
X184.404Y-130.302
X192.278Y-93.091
X192.278Y-94.234
X192.278Y-95.377
X193.421Y-93.091
X193.421Y-94.234
X193.421Y-95.377
T3
X195.047Y-123.118
X197.587Y-123.118
X200.127Y-123.118
T4
X119.38Y-92.71
X119.38Y-134.366
X201.041Y-92.71
X201.041Y-134.366
T2
X118.02Y-109.218G85X117.42Y-109.218
G05
X118.02Y-117.858G85X117.42Y-117.858
G05
X121.82Y-109.218G85X121.22Y-109.218
G05
X121.82Y-117.858G85X121.22Y-117.858
G05
M30
