%TF.GenerationSoftware,KiCad,Pcbnew,8.0.2*%
%TF.CreationDate,2024-05-25T11:29:21+03:00*%
%TF.ProjectId,sos_business_card,736f735f-6275-4736-996e-6573735f6361,A*%
%TF.SameCoordinates,Original*%
%TF.FileFunction,Drillmap*%
%TF.FilePolarity,Positive*%
%FSLAX45Y45*%
G04 Gerber Fmt 4.5, Leading zero omitted, Abs format (unit mm)*
G04 Created by KiCad (PCBNEW 8.0.2) date 2024-05-25 11:29:21*
%MOMM*%
%LPD*%
G01*
G04 APERTURE LIST*
%ADD10C,0.050000*%
%ADD11C,0.200000*%
%ADD12C,0.100000*%
G04 APERTURE END LIST*
D10*
X11938000Y-13857236D02*
X20104100Y-13857236D01*
X20524737Y-13436600D02*
G75*
G02*
X20104100Y-13857236I-420637J0D01*
G01*
X11936463Y-8850364D02*
X20104100Y-8850364D01*
X20104100Y-8850364D02*
G75*
G02*
X20524737Y-9271000I0J-420637D01*
G01*
X11938000Y-13857236D02*
G75*
G02*
X11517363Y-13436755I0J420637D01*
G01*
X11515827Y-9271155D02*
X11517364Y-13436755D01*
X11515827Y-9271155D02*
G75*
G02*
X11936463Y-8850367I420633J155D01*
G01*
X20524737Y-9271000D02*
X20524737Y-13436600D01*
D11*
D12*
X14816400Y-9011900D02*
X14906400Y-9101900D01*
X14906400Y-9011900D02*
X14816400Y-9101900D01*
X15116400Y-9011900D02*
X15206400Y-9101900D01*
X15206400Y-9011900D02*
X15116400Y-9101900D01*
D11*
X11774104Y-14171220D02*
X11774104Y-13971220D01*
X11774104Y-13971220D02*
X11821723Y-13971220D01*
X11821723Y-13971220D02*
X11850294Y-13980744D01*
X11850294Y-13980744D02*
X11869342Y-13999792D01*
X11869342Y-13999792D02*
X11878866Y-14018839D01*
X11878866Y-14018839D02*
X11888390Y-14056934D01*
X11888390Y-14056934D02*
X11888390Y-14085506D01*
X11888390Y-14085506D02*
X11878866Y-14123601D01*
X11878866Y-14123601D02*
X11869342Y-14142649D01*
X11869342Y-14142649D02*
X11850294Y-14161696D01*
X11850294Y-14161696D02*
X11821723Y-14171220D01*
X11821723Y-14171220D02*
X11774104Y-14171220D01*
X11974104Y-14171220D02*
X11974104Y-14037887D01*
X11974104Y-14075982D02*
X11983628Y-14056934D01*
X11983628Y-14056934D02*
X11993151Y-14047411D01*
X11993151Y-14047411D02*
X12012199Y-14037887D01*
X12012199Y-14037887D02*
X12031247Y-14037887D01*
X12097913Y-14171220D02*
X12097913Y-14037887D01*
X12097913Y-13971220D02*
X12088390Y-13980744D01*
X12088390Y-13980744D02*
X12097913Y-13990268D01*
X12097913Y-13990268D02*
X12107437Y-13980744D01*
X12107437Y-13980744D02*
X12097913Y-13971220D01*
X12097913Y-13971220D02*
X12097913Y-13990268D01*
X12221723Y-14171220D02*
X12202675Y-14161696D01*
X12202675Y-14161696D02*
X12193151Y-14142649D01*
X12193151Y-14142649D02*
X12193151Y-13971220D01*
X12326485Y-14171220D02*
X12307437Y-14161696D01*
X12307437Y-14161696D02*
X12297913Y-14142649D01*
X12297913Y-14142649D02*
X12297913Y-13971220D01*
X12555056Y-14171220D02*
X12555056Y-13971220D01*
X12555056Y-13971220D02*
X12621723Y-14114077D01*
X12621723Y-14114077D02*
X12688390Y-13971220D01*
X12688390Y-13971220D02*
X12688390Y-14171220D01*
X12869342Y-14171220D02*
X12869342Y-14066458D01*
X12869342Y-14066458D02*
X12859818Y-14047411D01*
X12859818Y-14047411D02*
X12840771Y-14037887D01*
X12840771Y-14037887D02*
X12802675Y-14037887D01*
X12802675Y-14037887D02*
X12783628Y-14047411D01*
X12869342Y-14161696D02*
X12850294Y-14171220D01*
X12850294Y-14171220D02*
X12802675Y-14171220D01*
X12802675Y-14171220D02*
X12783628Y-14161696D01*
X12783628Y-14161696D02*
X12774104Y-14142649D01*
X12774104Y-14142649D02*
X12774104Y-14123601D01*
X12774104Y-14123601D02*
X12783628Y-14104554D01*
X12783628Y-14104554D02*
X12802675Y-14095030D01*
X12802675Y-14095030D02*
X12850294Y-14095030D01*
X12850294Y-14095030D02*
X12869342Y-14085506D01*
X12964580Y-14037887D02*
X12964580Y-14237887D01*
X12964580Y-14047411D02*
X12983628Y-14037887D01*
X12983628Y-14037887D02*
X13021723Y-14037887D01*
X13021723Y-14037887D02*
X13040771Y-14047411D01*
X13040771Y-14047411D02*
X13050294Y-14056934D01*
X13050294Y-14056934D02*
X13059818Y-14075982D01*
X13059818Y-14075982D02*
X13059818Y-14133125D01*
X13059818Y-14133125D02*
X13050294Y-14152173D01*
X13050294Y-14152173D02*
X13040771Y-14161696D01*
X13040771Y-14161696D02*
X13021723Y-14171220D01*
X13021723Y-14171220D02*
X12983628Y-14171220D01*
X12983628Y-14171220D02*
X12964580Y-14161696D01*
X13145532Y-14152173D02*
X13155056Y-14161696D01*
X13155056Y-14161696D02*
X13145532Y-14171220D01*
X13145532Y-14171220D02*
X13136009Y-14161696D01*
X13136009Y-14161696D02*
X13145532Y-14152173D01*
X13145532Y-14152173D02*
X13145532Y-14171220D01*
X13145532Y-14047411D02*
X13155056Y-14056934D01*
X13155056Y-14056934D02*
X13145532Y-14066458D01*
X13145532Y-14066458D02*
X13136009Y-14056934D01*
X13136009Y-14056934D02*
X13145532Y-14047411D01*
X13145532Y-14047411D02*
X13145532Y-14066458D01*
D12*
X11423327Y-14454736D02*
X11513327Y-14544736D01*
X11513327Y-14454736D02*
X11423327Y-14544736D01*
D11*
X11812199Y-14391220D02*
X11831247Y-14391220D01*
X11831247Y-14391220D02*
X11850294Y-14400744D01*
X11850294Y-14400744D02*
X11859818Y-14410268D01*
X11859818Y-14410268D02*
X11869342Y-14429315D01*
X11869342Y-14429315D02*
X11878866Y-14467411D01*
X11878866Y-14467411D02*
X11878866Y-14515030D01*
X11878866Y-14515030D02*
X11869342Y-14553125D01*
X11869342Y-14553125D02*
X11859818Y-14572173D01*
X11859818Y-14572173D02*
X11850294Y-14581696D01*
X11850294Y-14581696D02*
X11831247Y-14591220D01*
X11831247Y-14591220D02*
X11812199Y-14591220D01*
X11812199Y-14591220D02*
X11793151Y-14581696D01*
X11793151Y-14581696D02*
X11783628Y-14572173D01*
X11783628Y-14572173D02*
X11774104Y-14553125D01*
X11774104Y-14553125D02*
X11764580Y-14515030D01*
X11764580Y-14515030D02*
X11764580Y-14467411D01*
X11764580Y-14467411D02*
X11774104Y-14429315D01*
X11774104Y-14429315D02*
X11783628Y-14410268D01*
X11783628Y-14410268D02*
X11793151Y-14400744D01*
X11793151Y-14400744D02*
X11812199Y-14391220D01*
X11964580Y-14572173D02*
X11974104Y-14581696D01*
X11974104Y-14581696D02*
X11964580Y-14591220D01*
X11964580Y-14591220D02*
X11955056Y-14581696D01*
X11955056Y-14581696D02*
X11964580Y-14572173D01*
X11964580Y-14572173D02*
X11964580Y-14591220D01*
X12069342Y-14591220D02*
X12107437Y-14591220D01*
X12107437Y-14591220D02*
X12126485Y-14581696D01*
X12126485Y-14581696D02*
X12136009Y-14572173D01*
X12136009Y-14572173D02*
X12155056Y-14543601D01*
X12155056Y-14543601D02*
X12164580Y-14505506D01*
X12164580Y-14505506D02*
X12164580Y-14429315D01*
X12164580Y-14429315D02*
X12155056Y-14410268D01*
X12155056Y-14410268D02*
X12145532Y-14400744D01*
X12145532Y-14400744D02*
X12126485Y-14391220D01*
X12126485Y-14391220D02*
X12088390Y-14391220D01*
X12088390Y-14391220D02*
X12069342Y-14400744D01*
X12069342Y-14400744D02*
X12059818Y-14410268D01*
X12059818Y-14410268D02*
X12050294Y-14429315D01*
X12050294Y-14429315D02*
X12050294Y-14476934D01*
X12050294Y-14476934D02*
X12059818Y-14495982D01*
X12059818Y-14495982D02*
X12069342Y-14505506D01*
X12069342Y-14505506D02*
X12088390Y-14515030D01*
X12088390Y-14515030D02*
X12126485Y-14515030D01*
X12126485Y-14515030D02*
X12145532Y-14505506D01*
X12145532Y-14505506D02*
X12155056Y-14495982D01*
X12155056Y-14495982D02*
X12164580Y-14476934D01*
X12288390Y-14391220D02*
X12307437Y-14391220D01*
X12307437Y-14391220D02*
X12326485Y-14400744D01*
X12326485Y-14400744D02*
X12336009Y-14410268D01*
X12336009Y-14410268D02*
X12345532Y-14429315D01*
X12345532Y-14429315D02*
X12355056Y-14467411D01*
X12355056Y-14467411D02*
X12355056Y-14515030D01*
X12355056Y-14515030D02*
X12345532Y-14553125D01*
X12345532Y-14553125D02*
X12336009Y-14572173D01*
X12336009Y-14572173D02*
X12326485Y-14581696D01*
X12326485Y-14581696D02*
X12307437Y-14591220D01*
X12307437Y-14591220D02*
X12288390Y-14591220D01*
X12288390Y-14591220D02*
X12269342Y-14581696D01*
X12269342Y-14581696D02*
X12259818Y-14572173D01*
X12259818Y-14572173D02*
X12250294Y-14553125D01*
X12250294Y-14553125D02*
X12240771Y-14515030D01*
X12240771Y-14515030D02*
X12240771Y-14467411D01*
X12240771Y-14467411D02*
X12250294Y-14429315D01*
X12250294Y-14429315D02*
X12259818Y-14410268D01*
X12259818Y-14410268D02*
X12269342Y-14400744D01*
X12269342Y-14400744D02*
X12288390Y-14391220D01*
X12478866Y-14391220D02*
X12497913Y-14391220D01*
X12497913Y-14391220D02*
X12516961Y-14400744D01*
X12516961Y-14400744D02*
X12526485Y-14410268D01*
X12526485Y-14410268D02*
X12536009Y-14429315D01*
X12536009Y-14429315D02*
X12545532Y-14467411D01*
X12545532Y-14467411D02*
X12545532Y-14515030D01*
X12545532Y-14515030D02*
X12536009Y-14553125D01*
X12536009Y-14553125D02*
X12526485Y-14572173D01*
X12526485Y-14572173D02*
X12516961Y-14581696D01*
X12516961Y-14581696D02*
X12497913Y-14591220D01*
X12497913Y-14591220D02*
X12478866Y-14591220D01*
X12478866Y-14591220D02*
X12459818Y-14581696D01*
X12459818Y-14581696D02*
X12450294Y-14572173D01*
X12450294Y-14572173D02*
X12440771Y-14553125D01*
X12440771Y-14553125D02*
X12431247Y-14515030D01*
X12431247Y-14515030D02*
X12431247Y-14467411D01*
X12431247Y-14467411D02*
X12440771Y-14429315D01*
X12440771Y-14429315D02*
X12450294Y-14410268D01*
X12450294Y-14410268D02*
X12459818Y-14400744D01*
X12459818Y-14400744D02*
X12478866Y-14391220D01*
X12631247Y-14591220D02*
X12631247Y-14457887D01*
X12631247Y-14476934D02*
X12640771Y-14467411D01*
X12640771Y-14467411D02*
X12659818Y-14457887D01*
X12659818Y-14457887D02*
X12688390Y-14457887D01*
X12688390Y-14457887D02*
X12707437Y-14467411D01*
X12707437Y-14467411D02*
X12716961Y-14486458D01*
X12716961Y-14486458D02*
X12716961Y-14591220D01*
X12716961Y-14486458D02*
X12726485Y-14467411D01*
X12726485Y-14467411D02*
X12745532Y-14457887D01*
X12745532Y-14457887D02*
X12774104Y-14457887D01*
X12774104Y-14457887D02*
X12793152Y-14467411D01*
X12793152Y-14467411D02*
X12802675Y-14486458D01*
X12802675Y-14486458D02*
X12802675Y-14591220D01*
X12897913Y-14591220D02*
X12897913Y-14457887D01*
X12897913Y-14476934D02*
X12907437Y-14467411D01*
X12907437Y-14467411D02*
X12926485Y-14457887D01*
X12926485Y-14457887D02*
X12955056Y-14457887D01*
X12955056Y-14457887D02*
X12974104Y-14467411D01*
X12974104Y-14467411D02*
X12983628Y-14486458D01*
X12983628Y-14486458D02*
X12983628Y-14591220D01*
X12983628Y-14486458D02*
X12993152Y-14467411D01*
X12993152Y-14467411D02*
X13012199Y-14457887D01*
X13012199Y-14457887D02*
X13040771Y-14457887D01*
X13040771Y-14457887D02*
X13059818Y-14467411D01*
X13059818Y-14467411D02*
X13069342Y-14486458D01*
X13069342Y-14486458D02*
X13069342Y-14591220D01*
X13459818Y-14381696D02*
X13288390Y-14638839D01*
X13716961Y-14391220D02*
X13736009Y-14391220D01*
X13736009Y-14391220D02*
X13755056Y-14400744D01*
X13755056Y-14400744D02*
X13764580Y-14410268D01*
X13764580Y-14410268D02*
X13774104Y-14429315D01*
X13774104Y-14429315D02*
X13783628Y-14467411D01*
X13783628Y-14467411D02*
X13783628Y-14515030D01*
X13783628Y-14515030D02*
X13774104Y-14553125D01*
X13774104Y-14553125D02*
X13764580Y-14572173D01*
X13764580Y-14572173D02*
X13755056Y-14581696D01*
X13755056Y-14581696D02*
X13736009Y-14591220D01*
X13736009Y-14591220D02*
X13716961Y-14591220D01*
X13716961Y-14591220D02*
X13697914Y-14581696D01*
X13697914Y-14581696D02*
X13688390Y-14572173D01*
X13688390Y-14572173D02*
X13678866Y-14553125D01*
X13678866Y-14553125D02*
X13669342Y-14515030D01*
X13669342Y-14515030D02*
X13669342Y-14467411D01*
X13669342Y-14467411D02*
X13678866Y-14429315D01*
X13678866Y-14429315D02*
X13688390Y-14410268D01*
X13688390Y-14410268D02*
X13697914Y-14400744D01*
X13697914Y-14400744D02*
X13716961Y-14391220D01*
X13869342Y-14572173D02*
X13878866Y-14581696D01*
X13878866Y-14581696D02*
X13869342Y-14591220D01*
X13869342Y-14591220D02*
X13859818Y-14581696D01*
X13859818Y-14581696D02*
X13869342Y-14572173D01*
X13869342Y-14572173D02*
X13869342Y-14591220D01*
X14002675Y-14391220D02*
X14021723Y-14391220D01*
X14021723Y-14391220D02*
X14040771Y-14400744D01*
X14040771Y-14400744D02*
X14050295Y-14410268D01*
X14050295Y-14410268D02*
X14059818Y-14429315D01*
X14059818Y-14429315D02*
X14069342Y-14467411D01*
X14069342Y-14467411D02*
X14069342Y-14515030D01*
X14069342Y-14515030D02*
X14059818Y-14553125D01*
X14059818Y-14553125D02*
X14050295Y-14572173D01*
X14050295Y-14572173D02*
X14040771Y-14581696D01*
X14040771Y-14581696D02*
X14021723Y-14591220D01*
X14021723Y-14591220D02*
X14002675Y-14591220D01*
X14002675Y-14591220D02*
X13983628Y-14581696D01*
X13983628Y-14581696D02*
X13974104Y-14572173D01*
X13974104Y-14572173D02*
X13964580Y-14553125D01*
X13964580Y-14553125D02*
X13955056Y-14515030D01*
X13955056Y-14515030D02*
X13955056Y-14467411D01*
X13955056Y-14467411D02*
X13964580Y-14429315D01*
X13964580Y-14429315D02*
X13974104Y-14410268D01*
X13974104Y-14410268D02*
X13983628Y-14400744D01*
X13983628Y-14400744D02*
X14002675Y-14391220D01*
X14136009Y-14391220D02*
X14259818Y-14391220D01*
X14259818Y-14391220D02*
X14193152Y-14467411D01*
X14193152Y-14467411D02*
X14221723Y-14467411D01*
X14221723Y-14467411D02*
X14240771Y-14476934D01*
X14240771Y-14476934D02*
X14250295Y-14486458D01*
X14250295Y-14486458D02*
X14259818Y-14505506D01*
X14259818Y-14505506D02*
X14259818Y-14553125D01*
X14259818Y-14553125D02*
X14250295Y-14572173D01*
X14250295Y-14572173D02*
X14240771Y-14581696D01*
X14240771Y-14581696D02*
X14221723Y-14591220D01*
X14221723Y-14591220D02*
X14164580Y-14591220D01*
X14164580Y-14591220D02*
X14145533Y-14581696D01*
X14145533Y-14581696D02*
X14136009Y-14572173D01*
X14440771Y-14391220D02*
X14345533Y-14391220D01*
X14345533Y-14391220D02*
X14336009Y-14486458D01*
X14336009Y-14486458D02*
X14345533Y-14476934D01*
X14345533Y-14476934D02*
X14364580Y-14467411D01*
X14364580Y-14467411D02*
X14412199Y-14467411D01*
X14412199Y-14467411D02*
X14431247Y-14476934D01*
X14431247Y-14476934D02*
X14440771Y-14486458D01*
X14440771Y-14486458D02*
X14450295Y-14505506D01*
X14450295Y-14505506D02*
X14450295Y-14553125D01*
X14450295Y-14553125D02*
X14440771Y-14572173D01*
X14440771Y-14572173D02*
X14431247Y-14581696D01*
X14431247Y-14581696D02*
X14412199Y-14591220D01*
X14412199Y-14591220D02*
X14364580Y-14591220D01*
X14364580Y-14591220D02*
X14345533Y-14581696D01*
X14345533Y-14581696D02*
X14336009Y-14572173D01*
X14621723Y-14457887D02*
X14621723Y-14591220D01*
X14574104Y-14381696D02*
X14526485Y-14524554D01*
X14526485Y-14524554D02*
X14650295Y-14524554D01*
X14716961Y-14391220D02*
X14716961Y-14429315D01*
X14793152Y-14391220D02*
X14793152Y-14429315D01*
X15088390Y-14667411D02*
X15078866Y-14657887D01*
X15078866Y-14657887D02*
X15059818Y-14629315D01*
X15059818Y-14629315D02*
X15050295Y-14610268D01*
X15050295Y-14610268D02*
X15040771Y-14581696D01*
X15040771Y-14581696D02*
X15031247Y-14534077D01*
X15031247Y-14534077D02*
X15031247Y-14495982D01*
X15031247Y-14495982D02*
X15040771Y-14448363D01*
X15040771Y-14448363D02*
X15050295Y-14419792D01*
X15050295Y-14419792D02*
X15059818Y-14400744D01*
X15059818Y-14400744D02*
X15078866Y-14372173D01*
X15078866Y-14372173D02*
X15088390Y-14362649D01*
X15155057Y-14410268D02*
X15164580Y-14400744D01*
X15164580Y-14400744D02*
X15183628Y-14391220D01*
X15183628Y-14391220D02*
X15231247Y-14391220D01*
X15231247Y-14391220D02*
X15250295Y-14400744D01*
X15250295Y-14400744D02*
X15259818Y-14410268D01*
X15259818Y-14410268D02*
X15269342Y-14429315D01*
X15269342Y-14429315D02*
X15269342Y-14448363D01*
X15269342Y-14448363D02*
X15259818Y-14476934D01*
X15259818Y-14476934D02*
X15145533Y-14591220D01*
X15145533Y-14591220D02*
X15269342Y-14591220D01*
X15507438Y-14591220D02*
X15507438Y-14391220D01*
X15593152Y-14591220D02*
X15593152Y-14486458D01*
X15593152Y-14486458D02*
X15583628Y-14467411D01*
X15583628Y-14467411D02*
X15564580Y-14457887D01*
X15564580Y-14457887D02*
X15536009Y-14457887D01*
X15536009Y-14457887D02*
X15516961Y-14467411D01*
X15516961Y-14467411D02*
X15507438Y-14476934D01*
X15716961Y-14591220D02*
X15697914Y-14581696D01*
X15697914Y-14581696D02*
X15688390Y-14572173D01*
X15688390Y-14572173D02*
X15678866Y-14553125D01*
X15678866Y-14553125D02*
X15678866Y-14495982D01*
X15678866Y-14495982D02*
X15688390Y-14476934D01*
X15688390Y-14476934D02*
X15697914Y-14467411D01*
X15697914Y-14467411D02*
X15716961Y-14457887D01*
X15716961Y-14457887D02*
X15745533Y-14457887D01*
X15745533Y-14457887D02*
X15764580Y-14467411D01*
X15764580Y-14467411D02*
X15774104Y-14476934D01*
X15774104Y-14476934D02*
X15783628Y-14495982D01*
X15783628Y-14495982D02*
X15783628Y-14553125D01*
X15783628Y-14553125D02*
X15774104Y-14572173D01*
X15774104Y-14572173D02*
X15764580Y-14581696D01*
X15764580Y-14581696D02*
X15745533Y-14591220D01*
X15745533Y-14591220D02*
X15716961Y-14591220D01*
X15897914Y-14591220D02*
X15878866Y-14581696D01*
X15878866Y-14581696D02*
X15869342Y-14562649D01*
X15869342Y-14562649D02*
X15869342Y-14391220D01*
X16050295Y-14581696D02*
X16031247Y-14591220D01*
X16031247Y-14591220D02*
X15993152Y-14591220D01*
X15993152Y-14591220D02*
X15974104Y-14581696D01*
X15974104Y-14581696D02*
X15964580Y-14562649D01*
X15964580Y-14562649D02*
X15964580Y-14486458D01*
X15964580Y-14486458D02*
X15974104Y-14467411D01*
X15974104Y-14467411D02*
X15993152Y-14457887D01*
X15993152Y-14457887D02*
X16031247Y-14457887D01*
X16031247Y-14457887D02*
X16050295Y-14467411D01*
X16050295Y-14467411D02*
X16059819Y-14486458D01*
X16059819Y-14486458D02*
X16059819Y-14505506D01*
X16059819Y-14505506D02*
X15964580Y-14524554D01*
X16136009Y-14581696D02*
X16155057Y-14591220D01*
X16155057Y-14591220D02*
X16193152Y-14591220D01*
X16193152Y-14591220D02*
X16212200Y-14581696D01*
X16212200Y-14581696D02*
X16221723Y-14562649D01*
X16221723Y-14562649D02*
X16221723Y-14553125D01*
X16221723Y-14553125D02*
X16212200Y-14534077D01*
X16212200Y-14534077D02*
X16193152Y-14524554D01*
X16193152Y-14524554D02*
X16164580Y-14524554D01*
X16164580Y-14524554D02*
X16145533Y-14515030D01*
X16145533Y-14515030D02*
X16136009Y-14495982D01*
X16136009Y-14495982D02*
X16136009Y-14486458D01*
X16136009Y-14486458D02*
X16145533Y-14467411D01*
X16145533Y-14467411D02*
X16164580Y-14457887D01*
X16164580Y-14457887D02*
X16193152Y-14457887D01*
X16193152Y-14457887D02*
X16212200Y-14467411D01*
X16288390Y-14667411D02*
X16297914Y-14657887D01*
X16297914Y-14657887D02*
X16316961Y-14629315D01*
X16316961Y-14629315D02*
X16326485Y-14610268D01*
X16326485Y-14610268D02*
X16336009Y-14581696D01*
X16336009Y-14581696D02*
X16345533Y-14534077D01*
X16345533Y-14534077D02*
X16345533Y-14495982D01*
X16345533Y-14495982D02*
X16336009Y-14448363D01*
X16336009Y-14448363D02*
X16326485Y-14419792D01*
X16326485Y-14419792D02*
X16316961Y-14400744D01*
X16316961Y-14400744D02*
X16297914Y-14372173D01*
X16297914Y-14372173D02*
X16288390Y-14362649D01*
X16650295Y-14667411D02*
X16640771Y-14657887D01*
X16640771Y-14657887D02*
X16621723Y-14629315D01*
X16621723Y-14629315D02*
X16612200Y-14610268D01*
X16612200Y-14610268D02*
X16602676Y-14581696D01*
X16602676Y-14581696D02*
X16593152Y-14534077D01*
X16593152Y-14534077D02*
X16593152Y-14495982D01*
X16593152Y-14495982D02*
X16602676Y-14448363D01*
X16602676Y-14448363D02*
X16612200Y-14419792D01*
X16612200Y-14419792D02*
X16621723Y-14400744D01*
X16621723Y-14400744D02*
X16640771Y-14372173D01*
X16640771Y-14372173D02*
X16650295Y-14362649D01*
X16726485Y-14457887D02*
X16726485Y-14591220D01*
X16726485Y-14476934D02*
X16736009Y-14467411D01*
X16736009Y-14467411D02*
X16755057Y-14457887D01*
X16755057Y-14457887D02*
X16783628Y-14457887D01*
X16783628Y-14457887D02*
X16802676Y-14467411D01*
X16802676Y-14467411D02*
X16812200Y-14486458D01*
X16812200Y-14486458D02*
X16812200Y-14591220D01*
X16936009Y-14591220D02*
X16916962Y-14581696D01*
X16916962Y-14581696D02*
X16907438Y-14572173D01*
X16907438Y-14572173D02*
X16897914Y-14553125D01*
X16897914Y-14553125D02*
X16897914Y-14495982D01*
X16897914Y-14495982D02*
X16907438Y-14476934D01*
X16907438Y-14476934D02*
X16916962Y-14467411D01*
X16916962Y-14467411D02*
X16936009Y-14457887D01*
X16936009Y-14457887D02*
X16964581Y-14457887D01*
X16964581Y-14457887D02*
X16983628Y-14467411D01*
X16983628Y-14467411D02*
X16993152Y-14476934D01*
X16993152Y-14476934D02*
X17002676Y-14495982D01*
X17002676Y-14495982D02*
X17002676Y-14553125D01*
X17002676Y-14553125D02*
X16993152Y-14572173D01*
X16993152Y-14572173D02*
X16983628Y-14581696D01*
X16983628Y-14581696D02*
X16964581Y-14591220D01*
X16964581Y-14591220D02*
X16936009Y-14591220D01*
X17059819Y-14457887D02*
X17136009Y-14457887D01*
X17088390Y-14391220D02*
X17088390Y-14562649D01*
X17088390Y-14562649D02*
X17097914Y-14581696D01*
X17097914Y-14581696D02*
X17116962Y-14591220D01*
X17116962Y-14591220D02*
X17136009Y-14591220D01*
X17355057Y-14457887D02*
X17355057Y-14657887D01*
X17355057Y-14467411D02*
X17374104Y-14457887D01*
X17374104Y-14457887D02*
X17412200Y-14457887D01*
X17412200Y-14457887D02*
X17431247Y-14467411D01*
X17431247Y-14467411D02*
X17440771Y-14476934D01*
X17440771Y-14476934D02*
X17450295Y-14495982D01*
X17450295Y-14495982D02*
X17450295Y-14553125D01*
X17450295Y-14553125D02*
X17440771Y-14572173D01*
X17440771Y-14572173D02*
X17431247Y-14581696D01*
X17431247Y-14581696D02*
X17412200Y-14591220D01*
X17412200Y-14591220D02*
X17374104Y-14591220D01*
X17374104Y-14591220D02*
X17355057Y-14581696D01*
X17564581Y-14591220D02*
X17545533Y-14581696D01*
X17545533Y-14581696D02*
X17536009Y-14562649D01*
X17536009Y-14562649D02*
X17536009Y-14391220D01*
X17726485Y-14591220D02*
X17726485Y-14486458D01*
X17726485Y-14486458D02*
X17716962Y-14467411D01*
X17716962Y-14467411D02*
X17697914Y-14457887D01*
X17697914Y-14457887D02*
X17659819Y-14457887D01*
X17659819Y-14457887D02*
X17640771Y-14467411D01*
X17726485Y-14581696D02*
X17707438Y-14591220D01*
X17707438Y-14591220D02*
X17659819Y-14591220D01*
X17659819Y-14591220D02*
X17640771Y-14581696D01*
X17640771Y-14581696D02*
X17631247Y-14562649D01*
X17631247Y-14562649D02*
X17631247Y-14543601D01*
X17631247Y-14543601D02*
X17640771Y-14524554D01*
X17640771Y-14524554D02*
X17659819Y-14515030D01*
X17659819Y-14515030D02*
X17707438Y-14515030D01*
X17707438Y-14515030D02*
X17726485Y-14505506D01*
X17793152Y-14457887D02*
X17869343Y-14457887D01*
X17821724Y-14391220D02*
X17821724Y-14562649D01*
X17821724Y-14562649D02*
X17831247Y-14581696D01*
X17831247Y-14581696D02*
X17850295Y-14591220D01*
X17850295Y-14591220D02*
X17869343Y-14591220D01*
X18012200Y-14581696D02*
X17993152Y-14591220D01*
X17993152Y-14591220D02*
X17955057Y-14591220D01*
X17955057Y-14591220D02*
X17936009Y-14581696D01*
X17936009Y-14581696D02*
X17926485Y-14562649D01*
X17926485Y-14562649D02*
X17926485Y-14486458D01*
X17926485Y-14486458D02*
X17936009Y-14467411D01*
X17936009Y-14467411D02*
X17955057Y-14457887D01*
X17955057Y-14457887D02*
X17993152Y-14457887D01*
X17993152Y-14457887D02*
X18012200Y-14467411D01*
X18012200Y-14467411D02*
X18021724Y-14486458D01*
X18021724Y-14486458D02*
X18021724Y-14505506D01*
X18021724Y-14505506D02*
X17926485Y-14524554D01*
X18193152Y-14591220D02*
X18193152Y-14391220D01*
X18193152Y-14581696D02*
X18174105Y-14591220D01*
X18174105Y-14591220D02*
X18136009Y-14591220D01*
X18136009Y-14591220D02*
X18116962Y-14581696D01*
X18116962Y-14581696D02*
X18107438Y-14572173D01*
X18107438Y-14572173D02*
X18097914Y-14553125D01*
X18097914Y-14553125D02*
X18097914Y-14495982D01*
X18097914Y-14495982D02*
X18107438Y-14476934D01*
X18107438Y-14476934D02*
X18116962Y-14467411D01*
X18116962Y-14467411D02*
X18136009Y-14457887D01*
X18136009Y-14457887D02*
X18174105Y-14457887D01*
X18174105Y-14457887D02*
X18193152Y-14467411D01*
X18269343Y-14667411D02*
X18278866Y-14657887D01*
X18278866Y-14657887D02*
X18297914Y-14629315D01*
X18297914Y-14629315D02*
X18307438Y-14610268D01*
X18307438Y-14610268D02*
X18316962Y-14581696D01*
X18316962Y-14581696D02*
X18326485Y-14534077D01*
X18326485Y-14534077D02*
X18326485Y-14495982D01*
X18326485Y-14495982D02*
X18316962Y-14448363D01*
X18316962Y-14448363D02*
X18307438Y-14419792D01*
X18307438Y-14419792D02*
X18297914Y-14400744D01*
X18297914Y-14400744D02*
X18278866Y-14372173D01*
X18278866Y-14372173D02*
X18269343Y-14362649D01*
M02*
