%TF.GenerationSoftware,KiCad,Pcbnew,8.0.2*%
%TF.CreationDate,2024-05-25T11:29:21+03:00*%
%TF.ProjectId,sos_business_card,736f735f-6275-4736-996e-6573735f6361,A*%
%TF.SameCoordinates,Original*%
%TF.FileFunction,Drillmap*%
%TF.FilePolarity,Positive*%
%FSLAX45Y45*%
G04 Gerber Fmt 4.5, Leading zero omitted, Abs format (unit mm)*
G04 Created by KiCad (PCBNEW 8.0.2) date 2024-05-25 11:29:21*
%MOMM*%
%LPD*%
G01*
G04 APERTURE LIST*
%ADD10C,0.050000*%
%ADD11C,0.200000*%
%ADD12C,0.100000*%
%ADD13C,0.110000*%
%ADD14C,0.250000*%
G04 APERTURE END LIST*
D10*
X11938000Y-13857236D02*
X20104100Y-13857236D01*
X20524737Y-13436600D02*
G75*
G02*
X20104100Y-13857236I-420637J0D01*
G01*
X11936463Y-8850364D02*
X20104100Y-8850364D01*
X20104100Y-8850364D02*
G75*
G02*
X20524737Y-9271000I0J-420637D01*
G01*
X11938000Y-13857236D02*
G75*
G02*
X11517363Y-13436755I0J420637D01*
G01*
X11515827Y-9271155D02*
X11517364Y-13436755D01*
X11515827Y-9271155D02*
G75*
G02*
X11936463Y-8850367I420633J155D01*
G01*
X20524737Y-9271000D02*
X20524737Y-13436600D01*
D11*
D12*
X13866100Y-11427700D02*
X13896100Y-11457700D01*
X13896100Y-11427700D02*
X13866100Y-11457700D01*
X13878800Y-12088100D02*
X13908800Y-12118100D01*
X13908800Y-12088100D02*
X13878800Y-12118100D01*
X13878800Y-12202400D02*
X13908800Y-12232400D01*
X13908800Y-12202400D02*
X13878800Y-12232400D01*
X13878800Y-12329400D02*
X13908800Y-12359400D01*
X13908800Y-12329400D02*
X13878800Y-12359400D01*
X14018500Y-12088100D02*
X14048500Y-12118100D01*
X14048500Y-12088100D02*
X14018500Y-12118100D01*
X14018500Y-12202400D02*
X14048500Y-12232400D01*
X14048500Y-12202400D02*
X14018500Y-12232400D01*
X14018500Y-12329400D02*
X14048500Y-12359400D01*
X14048500Y-12329400D02*
X14018500Y-12359400D01*
X14628100Y-11237200D02*
X14658100Y-11267200D01*
X14658100Y-11237200D02*
X14628100Y-11267200D01*
X14628100Y-11351500D02*
X14658100Y-11381500D01*
X14658100Y-11351500D02*
X14628100Y-11381500D01*
X14628100Y-11453100D02*
X14658100Y-11483100D01*
X14658100Y-11453100D02*
X14628100Y-11483100D01*
X14717000Y-11046700D02*
X14747000Y-11076700D01*
X14747000Y-11046700D02*
X14717000Y-11076700D01*
X14755100Y-11237200D02*
X14785100Y-11267200D01*
X14785100Y-11237200D02*
X14755100Y-11267200D01*
X14755100Y-11351500D02*
X14785100Y-11381500D01*
X14785100Y-11351500D02*
X14755100Y-11381500D01*
X14755100Y-11453100D02*
X14785100Y-11483100D01*
X14785100Y-11453100D02*
X14755100Y-11483100D01*
X15396751Y-11852849D02*
X15426751Y-11882849D01*
X15426751Y-11852849D02*
X15396751Y-11882849D01*
X15481604Y-11767996D02*
X15511604Y-11797996D01*
X15511604Y-11767996D02*
X15481604Y-11797996D01*
X15669500Y-10741900D02*
X15699500Y-10771900D01*
X15699500Y-10741900D02*
X15669500Y-10771900D01*
X15669500Y-10830800D02*
X15699500Y-10860800D01*
X15699500Y-10830800D02*
X15669500Y-10860800D01*
X15771100Y-11872200D02*
X15801100Y-11902200D01*
X15801100Y-11872200D02*
X15771100Y-11902200D01*
X15771100Y-11973800D02*
X15801100Y-12003800D01*
X15801100Y-11973800D02*
X15771100Y-12003800D01*
X15783800Y-10741900D02*
X15813800Y-10771900D01*
X15813800Y-10741900D02*
X15783800Y-10771900D01*
X15783800Y-10830800D02*
X15813800Y-10860800D01*
X15813800Y-10830800D02*
X15783800Y-10860800D01*
X15898100Y-10741900D02*
X15928100Y-10771900D01*
X15928100Y-10741900D02*
X15898100Y-10771900D01*
X15898100Y-10830800D02*
X15928100Y-10860800D01*
X15928100Y-10830800D02*
X15898100Y-10860800D01*
X15898100Y-11872200D02*
X15928100Y-11902200D01*
X15928100Y-11872200D02*
X15898100Y-11902200D01*
X15898100Y-11973800D02*
X15928100Y-12003800D01*
X15928100Y-11973800D02*
X15898100Y-12003800D01*
X16469600Y-10881600D02*
X16499600Y-10911600D01*
X16499600Y-10881600D02*
X16469600Y-10911600D01*
X16469600Y-11961100D02*
X16499600Y-11991100D01*
X16499600Y-11961100D02*
X16469600Y-11991100D01*
X16558500Y-12837400D02*
X16588500Y-12867400D01*
X16588500Y-12837400D02*
X16558500Y-12867400D01*
X16558500Y-12939000D02*
X16588500Y-12969000D01*
X16588500Y-12939000D02*
X16558500Y-12969000D01*
X16609300Y-11288000D02*
X16639300Y-11318000D01*
X16639300Y-11288000D02*
X16609300Y-11318000D01*
X16609300Y-11605500D02*
X16639300Y-11635500D01*
X16639300Y-11605500D02*
X16609300Y-11635500D01*
X16685500Y-12812000D02*
X16715500Y-12842000D01*
X16715500Y-12812000D02*
X16685500Y-12842000D01*
X16685500Y-13091400D02*
X16715500Y-13121400D01*
X16715500Y-13091400D02*
X16685500Y-13121400D01*
X16723600Y-10741900D02*
X16753600Y-10771900D01*
X16753600Y-10741900D02*
X16723600Y-10771900D01*
X16723600Y-10830800D02*
X16753600Y-10860800D01*
X16753600Y-10830800D02*
X16723600Y-10860800D01*
X16850600Y-10741900D02*
X16880600Y-10771900D01*
X16880600Y-10741900D02*
X16850600Y-10771900D01*
X16850600Y-10830800D02*
X16880600Y-10860800D01*
X16880600Y-10830800D02*
X16850600Y-10860800D01*
X16926800Y-11872200D02*
X16956800Y-11902200D01*
X16956800Y-11872200D02*
X16926800Y-11902200D01*
X16990300Y-10741900D02*
X17020300Y-10771900D01*
X17020300Y-10741900D02*
X16990300Y-10771900D01*
X16990300Y-10830800D02*
X17020300Y-10860800D01*
X17020300Y-10830800D02*
X16990300Y-10860800D01*
X17015700Y-11872200D02*
X17045700Y-11902200D01*
X17045700Y-11872200D02*
X17015700Y-11902200D01*
X17104600Y-11872200D02*
X17134600Y-11902200D01*
X17134600Y-11872200D02*
X17104600Y-11902200D01*
X17244300Y-12939000D02*
X17274300Y-12969000D01*
X17274300Y-12939000D02*
X17244300Y-12969000D01*
X17244300Y-13151400D02*
X17274300Y-13181400D01*
X17274300Y-13151400D02*
X17244300Y-13181400D01*
X17663400Y-11402300D02*
X17693400Y-11432300D01*
X17693400Y-11402300D02*
X17663400Y-11432300D01*
X17663400Y-11745200D02*
X17693400Y-11775200D01*
X17693400Y-11745200D02*
X17663400Y-11775200D01*
X18273000Y-12773900D02*
X18303000Y-12803900D01*
X18303000Y-12773900D02*
X18273000Y-12803900D01*
X18273000Y-12888200D02*
X18303000Y-12918200D01*
X18303000Y-12888200D02*
X18273000Y-12918200D01*
X18273000Y-13015200D02*
X18303000Y-13045200D01*
X18303000Y-13015200D02*
X18273000Y-13045200D01*
X18425400Y-12773900D02*
X18455400Y-12803900D01*
X18455400Y-12773900D02*
X18425400Y-12803900D01*
X18425400Y-12888200D02*
X18455400Y-12918200D01*
X18455400Y-12888200D02*
X18425400Y-12918200D01*
X18425400Y-13015200D02*
X18455400Y-13045200D01*
X18455400Y-13015200D02*
X18425400Y-13045200D01*
X19212800Y-9294100D02*
X19242800Y-9324100D01*
X19242800Y-9294100D02*
X19212800Y-9324100D01*
X19212800Y-9408400D02*
X19242800Y-9438400D01*
X19242800Y-9408400D02*
X19212800Y-9438400D01*
X19212800Y-9522700D02*
X19242800Y-9552700D01*
X19242800Y-9522700D02*
X19212800Y-9552700D01*
X19327100Y-9294100D02*
X19357100Y-9324100D01*
X19357100Y-9294100D02*
X19327100Y-9324100D01*
X19327100Y-9408400D02*
X19357100Y-9438400D01*
X19357100Y-9408400D02*
X19327100Y-9438400D01*
X19327100Y-9522700D02*
X19357100Y-9552700D01*
X19357100Y-9522700D02*
X19327100Y-9552700D01*
X11802000Y-10921800D02*
G75*
G02*
X11742000Y-10921800I-30000J0D01*
G01*
X11742000Y-10921800D02*
G75*
G02*
X11802000Y-10921800I30000J0D01*
G01*
X11802000Y-10891800D02*
X11742000Y-10891800D01*
X11742000Y-10951800D02*
G75*
G02*
X11742000Y-10891800I0J30000D01*
G01*
X11742000Y-10951800D02*
X11802000Y-10951800D01*
X11802000Y-10951800D02*
G75*
G03*
X11802000Y-10891800I0J30000D01*
G01*
X11802000Y-11785800D02*
G75*
G02*
X11742000Y-11785800I-30000J0D01*
G01*
X11742000Y-11785800D02*
G75*
G02*
X11802000Y-11785800I30000J0D01*
G01*
X11802000Y-11755800D02*
X11742000Y-11755800D01*
X11742000Y-11815800D02*
G75*
G02*
X11742000Y-11755800I0J30000D01*
G01*
X11742000Y-11815800D02*
X11802000Y-11815800D01*
X11802000Y-11815800D02*
G75*
G03*
X11802000Y-11755800I0J30000D01*
G01*
X12182000Y-10921800D02*
G75*
G02*
X12122000Y-10921800I-30000J0D01*
G01*
X12122000Y-10921800D02*
G75*
G02*
X12182000Y-10921800I30000J0D01*
G01*
X12182000Y-10891800D02*
X12122000Y-10891800D01*
X12122000Y-10951800D02*
G75*
G02*
X12122000Y-10891800I0J30000D01*
G01*
X12122000Y-10951800D02*
X12182000Y-10951800D01*
X12182000Y-10951800D02*
G75*
G03*
X12182000Y-10891800I0J30000D01*
G01*
X12182000Y-11785800D02*
G75*
G02*
X12122000Y-11785800I-30000J0D01*
G01*
X12122000Y-11785800D02*
G75*
G02*
X12182000Y-11785800I30000J0D01*
G01*
X12182000Y-11755800D02*
X12122000Y-11755800D01*
X12122000Y-11815800D02*
G75*
G02*
X12122000Y-11755800I0J30000D01*
G01*
X12122000Y-11815800D02*
X12182000Y-11815800D01*
X12182000Y-11815800D02*
G75*
G03*
X12182000Y-11755800I0J30000D01*
G01*
D13*
X19504660Y-12256765D02*
X19504660Y-12366765D01*
X19449660Y-12311765D02*
X19559660Y-12311765D01*
X19758660Y-12256765D02*
X19758660Y-12366765D01*
X19703660Y-12311765D02*
X19813660Y-12311765D01*
X20012660Y-12256765D02*
X20012660Y-12366765D01*
X19957660Y-12311765D02*
X20067660Y-12311765D01*
D14*
X12026389Y-9359389D02*
X12026389Y-9182611D01*
X11849611Y-9182611D01*
X11849611Y-9359389D01*
X12026389Y-9359389D01*
X12026389Y-13524989D02*
X12026389Y-13348211D01*
X11849611Y-13348211D01*
X11849611Y-13524989D01*
X12026389Y-13524989D01*
X20192489Y-9359389D02*
X20192489Y-9182611D01*
X20015711Y-9182611D01*
X20015711Y-9359389D01*
X20192489Y-9359389D01*
X20192489Y-13524989D02*
X20192489Y-13348211D01*
X20015711Y-13348211D01*
X20015711Y-13524989D01*
X20192489Y-13524989D01*
D11*
X11774104Y-14171220D02*
X11774104Y-13971220D01*
X11774104Y-13971220D02*
X11821723Y-13971220D01*
X11821723Y-13971220D02*
X11850294Y-13980744D01*
X11850294Y-13980744D02*
X11869342Y-13999792D01*
X11869342Y-13999792D02*
X11878866Y-14018839D01*
X11878866Y-14018839D02*
X11888390Y-14056934D01*
X11888390Y-14056934D02*
X11888390Y-14085506D01*
X11888390Y-14085506D02*
X11878866Y-14123601D01*
X11878866Y-14123601D02*
X11869342Y-14142649D01*
X11869342Y-14142649D02*
X11850294Y-14161696D01*
X11850294Y-14161696D02*
X11821723Y-14171220D01*
X11821723Y-14171220D02*
X11774104Y-14171220D01*
X11974104Y-14171220D02*
X11974104Y-14037887D01*
X11974104Y-14075982D02*
X11983628Y-14056934D01*
X11983628Y-14056934D02*
X11993151Y-14047411D01*
X11993151Y-14047411D02*
X12012199Y-14037887D01*
X12012199Y-14037887D02*
X12031247Y-14037887D01*
X12097913Y-14171220D02*
X12097913Y-14037887D01*
X12097913Y-13971220D02*
X12088390Y-13980744D01*
X12088390Y-13980744D02*
X12097913Y-13990268D01*
X12097913Y-13990268D02*
X12107437Y-13980744D01*
X12107437Y-13980744D02*
X12097913Y-13971220D01*
X12097913Y-13971220D02*
X12097913Y-13990268D01*
X12221723Y-14171220D02*
X12202675Y-14161696D01*
X12202675Y-14161696D02*
X12193151Y-14142649D01*
X12193151Y-14142649D02*
X12193151Y-13971220D01*
X12326485Y-14171220D02*
X12307437Y-14161696D01*
X12307437Y-14161696D02*
X12297913Y-14142649D01*
X12297913Y-14142649D02*
X12297913Y-13971220D01*
X12555056Y-14171220D02*
X12555056Y-13971220D01*
X12555056Y-13971220D02*
X12621723Y-14114077D01*
X12621723Y-14114077D02*
X12688390Y-13971220D01*
X12688390Y-13971220D02*
X12688390Y-14171220D01*
X12869342Y-14171220D02*
X12869342Y-14066458D01*
X12869342Y-14066458D02*
X12859818Y-14047411D01*
X12859818Y-14047411D02*
X12840771Y-14037887D01*
X12840771Y-14037887D02*
X12802675Y-14037887D01*
X12802675Y-14037887D02*
X12783628Y-14047411D01*
X12869342Y-14161696D02*
X12850294Y-14171220D01*
X12850294Y-14171220D02*
X12802675Y-14171220D01*
X12802675Y-14171220D02*
X12783628Y-14161696D01*
X12783628Y-14161696D02*
X12774104Y-14142649D01*
X12774104Y-14142649D02*
X12774104Y-14123601D01*
X12774104Y-14123601D02*
X12783628Y-14104554D01*
X12783628Y-14104554D02*
X12802675Y-14095030D01*
X12802675Y-14095030D02*
X12850294Y-14095030D01*
X12850294Y-14095030D02*
X12869342Y-14085506D01*
X12964580Y-14037887D02*
X12964580Y-14237887D01*
X12964580Y-14047411D02*
X12983628Y-14037887D01*
X12983628Y-14037887D02*
X13021723Y-14037887D01*
X13021723Y-14037887D02*
X13040771Y-14047411D01*
X13040771Y-14047411D02*
X13050294Y-14056934D01*
X13050294Y-14056934D02*
X13059818Y-14075982D01*
X13059818Y-14075982D02*
X13059818Y-14133125D01*
X13059818Y-14133125D02*
X13050294Y-14152173D01*
X13050294Y-14152173D02*
X13040771Y-14161696D01*
X13040771Y-14161696D02*
X13021723Y-14171220D01*
X13021723Y-14171220D02*
X12983628Y-14171220D01*
X12983628Y-14171220D02*
X12964580Y-14161696D01*
X13145532Y-14152173D02*
X13155056Y-14161696D01*
X13155056Y-14161696D02*
X13145532Y-14171220D01*
X13145532Y-14171220D02*
X13136009Y-14161696D01*
X13136009Y-14161696D02*
X13145532Y-14152173D01*
X13145532Y-14152173D02*
X13145532Y-14171220D01*
X13145532Y-14047411D02*
X13155056Y-14056934D01*
X13155056Y-14056934D02*
X13145532Y-14066458D01*
X13145532Y-14066458D02*
X13136009Y-14056934D01*
X13136009Y-14056934D02*
X13145532Y-14047411D01*
X13145532Y-14047411D02*
X13145532Y-14066458D01*
D12*
X11483327Y-14484736D02*
X11513327Y-14514736D01*
X11513327Y-14484736D02*
X11483327Y-14514736D01*
D11*
X11812199Y-14391220D02*
X11831247Y-14391220D01*
X11831247Y-14391220D02*
X11850294Y-14400744D01*
X11850294Y-14400744D02*
X11859818Y-14410268D01*
X11859818Y-14410268D02*
X11869342Y-14429315D01*
X11869342Y-14429315D02*
X11878866Y-14467411D01*
X11878866Y-14467411D02*
X11878866Y-14515030D01*
X11878866Y-14515030D02*
X11869342Y-14553125D01*
X11869342Y-14553125D02*
X11859818Y-14572173D01*
X11859818Y-14572173D02*
X11850294Y-14581696D01*
X11850294Y-14581696D02*
X11831247Y-14591220D01*
X11831247Y-14591220D02*
X11812199Y-14591220D01*
X11812199Y-14591220D02*
X11793151Y-14581696D01*
X11793151Y-14581696D02*
X11783628Y-14572173D01*
X11783628Y-14572173D02*
X11774104Y-14553125D01*
X11774104Y-14553125D02*
X11764580Y-14515030D01*
X11764580Y-14515030D02*
X11764580Y-14467411D01*
X11764580Y-14467411D02*
X11774104Y-14429315D01*
X11774104Y-14429315D02*
X11783628Y-14410268D01*
X11783628Y-14410268D02*
X11793151Y-14400744D01*
X11793151Y-14400744D02*
X11812199Y-14391220D01*
X11964580Y-14572173D02*
X11974104Y-14581696D01*
X11974104Y-14581696D02*
X11964580Y-14591220D01*
X11964580Y-14591220D02*
X11955056Y-14581696D01*
X11955056Y-14581696D02*
X11964580Y-14572173D01*
X11964580Y-14572173D02*
X11964580Y-14591220D01*
X12040771Y-14391220D02*
X12164580Y-14391220D01*
X12164580Y-14391220D02*
X12097913Y-14467411D01*
X12097913Y-14467411D02*
X12126485Y-14467411D01*
X12126485Y-14467411D02*
X12145532Y-14476934D01*
X12145532Y-14476934D02*
X12155056Y-14486458D01*
X12155056Y-14486458D02*
X12164580Y-14505506D01*
X12164580Y-14505506D02*
X12164580Y-14553125D01*
X12164580Y-14553125D02*
X12155056Y-14572173D01*
X12155056Y-14572173D02*
X12145532Y-14581696D01*
X12145532Y-14581696D02*
X12126485Y-14591220D01*
X12126485Y-14591220D02*
X12069342Y-14591220D01*
X12069342Y-14591220D02*
X12050294Y-14581696D01*
X12050294Y-14581696D02*
X12040771Y-14572173D01*
X12288390Y-14391220D02*
X12307437Y-14391220D01*
X12307437Y-14391220D02*
X12326485Y-14400744D01*
X12326485Y-14400744D02*
X12336009Y-14410268D01*
X12336009Y-14410268D02*
X12345532Y-14429315D01*
X12345532Y-14429315D02*
X12355056Y-14467411D01*
X12355056Y-14467411D02*
X12355056Y-14515030D01*
X12355056Y-14515030D02*
X12345532Y-14553125D01*
X12345532Y-14553125D02*
X12336009Y-14572173D01*
X12336009Y-14572173D02*
X12326485Y-14581696D01*
X12326485Y-14581696D02*
X12307437Y-14591220D01*
X12307437Y-14591220D02*
X12288390Y-14591220D01*
X12288390Y-14591220D02*
X12269342Y-14581696D01*
X12269342Y-14581696D02*
X12259818Y-14572173D01*
X12259818Y-14572173D02*
X12250294Y-14553125D01*
X12250294Y-14553125D02*
X12240771Y-14515030D01*
X12240771Y-14515030D02*
X12240771Y-14467411D01*
X12240771Y-14467411D02*
X12250294Y-14429315D01*
X12250294Y-14429315D02*
X12259818Y-14410268D01*
X12259818Y-14410268D02*
X12269342Y-14400744D01*
X12269342Y-14400744D02*
X12288390Y-14391220D01*
X12478866Y-14391220D02*
X12497913Y-14391220D01*
X12497913Y-14391220D02*
X12516961Y-14400744D01*
X12516961Y-14400744D02*
X12526485Y-14410268D01*
X12526485Y-14410268D02*
X12536009Y-14429315D01*
X12536009Y-14429315D02*
X12545532Y-14467411D01*
X12545532Y-14467411D02*
X12545532Y-14515030D01*
X12545532Y-14515030D02*
X12536009Y-14553125D01*
X12536009Y-14553125D02*
X12526485Y-14572173D01*
X12526485Y-14572173D02*
X12516961Y-14581696D01*
X12516961Y-14581696D02*
X12497913Y-14591220D01*
X12497913Y-14591220D02*
X12478866Y-14591220D01*
X12478866Y-14591220D02*
X12459818Y-14581696D01*
X12459818Y-14581696D02*
X12450294Y-14572173D01*
X12450294Y-14572173D02*
X12440771Y-14553125D01*
X12440771Y-14553125D02*
X12431247Y-14515030D01*
X12431247Y-14515030D02*
X12431247Y-14467411D01*
X12431247Y-14467411D02*
X12440771Y-14429315D01*
X12440771Y-14429315D02*
X12450294Y-14410268D01*
X12450294Y-14410268D02*
X12459818Y-14400744D01*
X12459818Y-14400744D02*
X12478866Y-14391220D01*
X12631247Y-14591220D02*
X12631247Y-14457887D01*
X12631247Y-14476934D02*
X12640771Y-14467411D01*
X12640771Y-14467411D02*
X12659818Y-14457887D01*
X12659818Y-14457887D02*
X12688390Y-14457887D01*
X12688390Y-14457887D02*
X12707437Y-14467411D01*
X12707437Y-14467411D02*
X12716961Y-14486458D01*
X12716961Y-14486458D02*
X12716961Y-14591220D01*
X12716961Y-14486458D02*
X12726485Y-14467411D01*
X12726485Y-14467411D02*
X12745532Y-14457887D01*
X12745532Y-14457887D02*
X12774104Y-14457887D01*
X12774104Y-14457887D02*
X12793152Y-14467411D01*
X12793152Y-14467411D02*
X12802675Y-14486458D01*
X12802675Y-14486458D02*
X12802675Y-14591220D01*
X12897913Y-14591220D02*
X12897913Y-14457887D01*
X12897913Y-14476934D02*
X12907437Y-14467411D01*
X12907437Y-14467411D02*
X12926485Y-14457887D01*
X12926485Y-14457887D02*
X12955056Y-14457887D01*
X12955056Y-14457887D02*
X12974104Y-14467411D01*
X12974104Y-14467411D02*
X12983628Y-14486458D01*
X12983628Y-14486458D02*
X12983628Y-14591220D01*
X12983628Y-14486458D02*
X12993152Y-14467411D01*
X12993152Y-14467411D02*
X13012199Y-14457887D01*
X13012199Y-14457887D02*
X13040771Y-14457887D01*
X13040771Y-14457887D02*
X13059818Y-14467411D01*
X13059818Y-14467411D02*
X13069342Y-14486458D01*
X13069342Y-14486458D02*
X13069342Y-14591220D01*
X13459818Y-14381696D02*
X13288390Y-14638839D01*
X13716961Y-14391220D02*
X13736009Y-14391220D01*
X13736009Y-14391220D02*
X13755056Y-14400744D01*
X13755056Y-14400744D02*
X13764580Y-14410268D01*
X13764580Y-14410268D02*
X13774104Y-14429315D01*
X13774104Y-14429315D02*
X13783628Y-14467411D01*
X13783628Y-14467411D02*
X13783628Y-14515030D01*
X13783628Y-14515030D02*
X13774104Y-14553125D01*
X13774104Y-14553125D02*
X13764580Y-14572173D01*
X13764580Y-14572173D02*
X13755056Y-14581696D01*
X13755056Y-14581696D02*
X13736009Y-14591220D01*
X13736009Y-14591220D02*
X13716961Y-14591220D01*
X13716961Y-14591220D02*
X13697914Y-14581696D01*
X13697914Y-14581696D02*
X13688390Y-14572173D01*
X13688390Y-14572173D02*
X13678866Y-14553125D01*
X13678866Y-14553125D02*
X13669342Y-14515030D01*
X13669342Y-14515030D02*
X13669342Y-14467411D01*
X13669342Y-14467411D02*
X13678866Y-14429315D01*
X13678866Y-14429315D02*
X13688390Y-14410268D01*
X13688390Y-14410268D02*
X13697914Y-14400744D01*
X13697914Y-14400744D02*
X13716961Y-14391220D01*
X13869342Y-14572173D02*
X13878866Y-14581696D01*
X13878866Y-14581696D02*
X13869342Y-14591220D01*
X13869342Y-14591220D02*
X13859818Y-14581696D01*
X13859818Y-14581696D02*
X13869342Y-14572173D01*
X13869342Y-14572173D02*
X13869342Y-14591220D01*
X14002675Y-14391220D02*
X14021723Y-14391220D01*
X14021723Y-14391220D02*
X14040771Y-14400744D01*
X14040771Y-14400744D02*
X14050295Y-14410268D01*
X14050295Y-14410268D02*
X14059818Y-14429315D01*
X14059818Y-14429315D02*
X14069342Y-14467411D01*
X14069342Y-14467411D02*
X14069342Y-14515030D01*
X14069342Y-14515030D02*
X14059818Y-14553125D01*
X14059818Y-14553125D02*
X14050295Y-14572173D01*
X14050295Y-14572173D02*
X14040771Y-14581696D01*
X14040771Y-14581696D02*
X14021723Y-14591220D01*
X14021723Y-14591220D02*
X14002675Y-14591220D01*
X14002675Y-14591220D02*
X13983628Y-14581696D01*
X13983628Y-14581696D02*
X13974104Y-14572173D01*
X13974104Y-14572173D02*
X13964580Y-14553125D01*
X13964580Y-14553125D02*
X13955056Y-14515030D01*
X13955056Y-14515030D02*
X13955056Y-14467411D01*
X13955056Y-14467411D02*
X13964580Y-14429315D01*
X13964580Y-14429315D02*
X13974104Y-14410268D01*
X13974104Y-14410268D02*
X13983628Y-14400744D01*
X13983628Y-14400744D02*
X14002675Y-14391220D01*
X14259818Y-14591220D02*
X14145533Y-14591220D01*
X14202675Y-14591220D02*
X14202675Y-14391220D01*
X14202675Y-14391220D02*
X14183628Y-14419792D01*
X14183628Y-14419792D02*
X14164580Y-14438839D01*
X14164580Y-14438839D02*
X14145533Y-14448363D01*
X14450295Y-14591220D02*
X14336009Y-14591220D01*
X14393152Y-14591220D02*
X14393152Y-14391220D01*
X14393152Y-14391220D02*
X14374104Y-14419792D01*
X14374104Y-14419792D02*
X14355056Y-14438839D01*
X14355056Y-14438839D02*
X14336009Y-14448363D01*
X14564580Y-14476934D02*
X14545533Y-14467411D01*
X14545533Y-14467411D02*
X14536009Y-14457887D01*
X14536009Y-14457887D02*
X14526485Y-14438839D01*
X14526485Y-14438839D02*
X14526485Y-14429315D01*
X14526485Y-14429315D02*
X14536009Y-14410268D01*
X14536009Y-14410268D02*
X14545533Y-14400744D01*
X14545533Y-14400744D02*
X14564580Y-14391220D01*
X14564580Y-14391220D02*
X14602676Y-14391220D01*
X14602676Y-14391220D02*
X14621723Y-14400744D01*
X14621723Y-14400744D02*
X14631247Y-14410268D01*
X14631247Y-14410268D02*
X14640771Y-14429315D01*
X14640771Y-14429315D02*
X14640771Y-14438839D01*
X14640771Y-14438839D02*
X14631247Y-14457887D01*
X14631247Y-14457887D02*
X14621723Y-14467411D01*
X14621723Y-14467411D02*
X14602676Y-14476934D01*
X14602676Y-14476934D02*
X14564580Y-14476934D01*
X14564580Y-14476934D02*
X14545533Y-14486458D01*
X14545533Y-14486458D02*
X14536009Y-14495982D01*
X14536009Y-14495982D02*
X14526485Y-14515030D01*
X14526485Y-14515030D02*
X14526485Y-14553125D01*
X14526485Y-14553125D02*
X14536009Y-14572173D01*
X14536009Y-14572173D02*
X14545533Y-14581696D01*
X14545533Y-14581696D02*
X14564580Y-14591220D01*
X14564580Y-14591220D02*
X14602676Y-14591220D01*
X14602676Y-14591220D02*
X14621723Y-14581696D01*
X14621723Y-14581696D02*
X14631247Y-14572173D01*
X14631247Y-14572173D02*
X14640771Y-14553125D01*
X14640771Y-14553125D02*
X14640771Y-14515030D01*
X14640771Y-14515030D02*
X14631247Y-14495982D01*
X14631247Y-14495982D02*
X14621723Y-14486458D01*
X14621723Y-14486458D02*
X14602676Y-14476934D01*
X14716961Y-14391220D02*
X14716961Y-14429315D01*
X14793152Y-14391220D02*
X14793152Y-14429315D01*
X15088390Y-14667411D02*
X15078866Y-14657887D01*
X15078866Y-14657887D02*
X15059818Y-14629315D01*
X15059818Y-14629315D02*
X15050295Y-14610268D01*
X15050295Y-14610268D02*
X15040771Y-14581696D01*
X15040771Y-14581696D02*
X15031247Y-14534077D01*
X15031247Y-14534077D02*
X15031247Y-14495982D01*
X15031247Y-14495982D02*
X15040771Y-14448363D01*
X15040771Y-14448363D02*
X15050295Y-14419792D01*
X15050295Y-14419792D02*
X15059818Y-14400744D01*
X15059818Y-14400744D02*
X15078866Y-14372173D01*
X15078866Y-14372173D02*
X15088390Y-14362649D01*
X15259818Y-14391220D02*
X15164580Y-14391220D01*
X15164580Y-14391220D02*
X15155057Y-14486458D01*
X15155057Y-14486458D02*
X15164580Y-14476934D01*
X15164580Y-14476934D02*
X15183628Y-14467411D01*
X15183628Y-14467411D02*
X15231247Y-14467411D01*
X15231247Y-14467411D02*
X15250295Y-14476934D01*
X15250295Y-14476934D02*
X15259818Y-14486458D01*
X15259818Y-14486458D02*
X15269342Y-14505506D01*
X15269342Y-14505506D02*
X15269342Y-14553125D01*
X15269342Y-14553125D02*
X15259818Y-14572173D01*
X15259818Y-14572173D02*
X15250295Y-14581696D01*
X15250295Y-14581696D02*
X15231247Y-14591220D01*
X15231247Y-14591220D02*
X15183628Y-14591220D01*
X15183628Y-14591220D02*
X15164580Y-14581696D01*
X15164580Y-14581696D02*
X15155057Y-14572173D01*
X15364580Y-14591220D02*
X15402676Y-14591220D01*
X15402676Y-14591220D02*
X15421723Y-14581696D01*
X15421723Y-14581696D02*
X15431247Y-14572173D01*
X15431247Y-14572173D02*
X15450295Y-14543601D01*
X15450295Y-14543601D02*
X15459818Y-14505506D01*
X15459818Y-14505506D02*
X15459818Y-14429315D01*
X15459818Y-14429315D02*
X15450295Y-14410268D01*
X15450295Y-14410268D02*
X15440771Y-14400744D01*
X15440771Y-14400744D02*
X15421723Y-14391220D01*
X15421723Y-14391220D02*
X15383628Y-14391220D01*
X15383628Y-14391220D02*
X15364580Y-14400744D01*
X15364580Y-14400744D02*
X15355057Y-14410268D01*
X15355057Y-14410268D02*
X15345533Y-14429315D01*
X15345533Y-14429315D02*
X15345533Y-14476934D01*
X15345533Y-14476934D02*
X15355057Y-14495982D01*
X15355057Y-14495982D02*
X15364580Y-14505506D01*
X15364580Y-14505506D02*
X15383628Y-14515030D01*
X15383628Y-14515030D02*
X15421723Y-14515030D01*
X15421723Y-14515030D02*
X15440771Y-14505506D01*
X15440771Y-14505506D02*
X15450295Y-14495982D01*
X15450295Y-14495982D02*
X15459818Y-14476934D01*
X15697914Y-14591220D02*
X15697914Y-14391220D01*
X15783628Y-14591220D02*
X15783628Y-14486458D01*
X15783628Y-14486458D02*
X15774104Y-14467411D01*
X15774104Y-14467411D02*
X15755057Y-14457887D01*
X15755057Y-14457887D02*
X15726485Y-14457887D01*
X15726485Y-14457887D02*
X15707438Y-14467411D01*
X15707438Y-14467411D02*
X15697914Y-14476934D01*
X15907438Y-14591220D02*
X15888390Y-14581696D01*
X15888390Y-14581696D02*
X15878866Y-14572173D01*
X15878866Y-14572173D02*
X15869342Y-14553125D01*
X15869342Y-14553125D02*
X15869342Y-14495982D01*
X15869342Y-14495982D02*
X15878866Y-14476934D01*
X15878866Y-14476934D02*
X15888390Y-14467411D01*
X15888390Y-14467411D02*
X15907438Y-14457887D01*
X15907438Y-14457887D02*
X15936009Y-14457887D01*
X15936009Y-14457887D02*
X15955057Y-14467411D01*
X15955057Y-14467411D02*
X15964580Y-14476934D01*
X15964580Y-14476934D02*
X15974104Y-14495982D01*
X15974104Y-14495982D02*
X15974104Y-14553125D01*
X15974104Y-14553125D02*
X15964580Y-14572173D01*
X15964580Y-14572173D02*
X15955057Y-14581696D01*
X15955057Y-14581696D02*
X15936009Y-14591220D01*
X15936009Y-14591220D02*
X15907438Y-14591220D01*
X16088390Y-14591220D02*
X16069342Y-14581696D01*
X16069342Y-14581696D02*
X16059819Y-14562649D01*
X16059819Y-14562649D02*
X16059819Y-14391220D01*
X16240771Y-14581696D02*
X16221723Y-14591220D01*
X16221723Y-14591220D02*
X16183628Y-14591220D01*
X16183628Y-14591220D02*
X16164580Y-14581696D01*
X16164580Y-14581696D02*
X16155057Y-14562649D01*
X16155057Y-14562649D02*
X16155057Y-14486458D01*
X16155057Y-14486458D02*
X16164580Y-14467411D01*
X16164580Y-14467411D02*
X16183628Y-14457887D01*
X16183628Y-14457887D02*
X16221723Y-14457887D01*
X16221723Y-14457887D02*
X16240771Y-14467411D01*
X16240771Y-14467411D02*
X16250295Y-14486458D01*
X16250295Y-14486458D02*
X16250295Y-14505506D01*
X16250295Y-14505506D02*
X16155057Y-14524554D01*
X16326485Y-14581696D02*
X16345533Y-14591220D01*
X16345533Y-14591220D02*
X16383628Y-14591220D01*
X16383628Y-14591220D02*
X16402676Y-14581696D01*
X16402676Y-14581696D02*
X16412200Y-14562649D01*
X16412200Y-14562649D02*
X16412200Y-14553125D01*
X16412200Y-14553125D02*
X16402676Y-14534077D01*
X16402676Y-14534077D02*
X16383628Y-14524554D01*
X16383628Y-14524554D02*
X16355057Y-14524554D01*
X16355057Y-14524554D02*
X16336009Y-14515030D01*
X16336009Y-14515030D02*
X16326485Y-14495982D01*
X16326485Y-14495982D02*
X16326485Y-14486458D01*
X16326485Y-14486458D02*
X16336009Y-14467411D01*
X16336009Y-14467411D02*
X16355057Y-14457887D01*
X16355057Y-14457887D02*
X16383628Y-14457887D01*
X16383628Y-14457887D02*
X16402676Y-14467411D01*
X16478866Y-14667411D02*
X16488390Y-14657887D01*
X16488390Y-14657887D02*
X16507438Y-14629315D01*
X16507438Y-14629315D02*
X16516961Y-14610268D01*
X16516961Y-14610268D02*
X16526485Y-14581696D01*
X16526485Y-14581696D02*
X16536009Y-14534077D01*
X16536009Y-14534077D02*
X16536009Y-14495982D01*
X16536009Y-14495982D02*
X16526485Y-14448363D01*
X16526485Y-14448363D02*
X16516961Y-14419792D01*
X16516961Y-14419792D02*
X16507438Y-14400744D01*
X16507438Y-14400744D02*
X16488390Y-14372173D01*
X16488390Y-14372173D02*
X16478866Y-14362649D01*
D12*
X11513327Y-14763736D02*
G75*
G02*
X11453327Y-14763736I-30000J0D01*
G01*
X11453327Y-14763736D02*
G75*
G02*
X11513327Y-14763736I30000J0D01*
G01*
D11*
X11812199Y-14655220D02*
X11831247Y-14655220D01*
X11831247Y-14655220D02*
X11850294Y-14664744D01*
X11850294Y-14664744D02*
X11859818Y-14674268D01*
X11859818Y-14674268D02*
X11869342Y-14693315D01*
X11869342Y-14693315D02*
X11878866Y-14731411D01*
X11878866Y-14731411D02*
X11878866Y-14779030D01*
X11878866Y-14779030D02*
X11869342Y-14817125D01*
X11869342Y-14817125D02*
X11859818Y-14836173D01*
X11859818Y-14836173D02*
X11850294Y-14845696D01*
X11850294Y-14845696D02*
X11831247Y-14855220D01*
X11831247Y-14855220D02*
X11812199Y-14855220D01*
X11812199Y-14855220D02*
X11793151Y-14845696D01*
X11793151Y-14845696D02*
X11783628Y-14836173D01*
X11783628Y-14836173D02*
X11774104Y-14817125D01*
X11774104Y-14817125D02*
X11764580Y-14779030D01*
X11764580Y-14779030D02*
X11764580Y-14731411D01*
X11764580Y-14731411D02*
X11774104Y-14693315D01*
X11774104Y-14693315D02*
X11783628Y-14674268D01*
X11783628Y-14674268D02*
X11793151Y-14664744D01*
X11793151Y-14664744D02*
X11812199Y-14655220D01*
X11964580Y-14836173D02*
X11974104Y-14845696D01*
X11974104Y-14845696D02*
X11964580Y-14855220D01*
X11964580Y-14855220D02*
X11955056Y-14845696D01*
X11955056Y-14845696D02*
X11964580Y-14836173D01*
X11964580Y-14836173D02*
X11964580Y-14855220D01*
X12145532Y-14655220D02*
X12107437Y-14655220D01*
X12107437Y-14655220D02*
X12088390Y-14664744D01*
X12088390Y-14664744D02*
X12078866Y-14674268D01*
X12078866Y-14674268D02*
X12059818Y-14702839D01*
X12059818Y-14702839D02*
X12050294Y-14740934D01*
X12050294Y-14740934D02*
X12050294Y-14817125D01*
X12050294Y-14817125D02*
X12059818Y-14836173D01*
X12059818Y-14836173D02*
X12069342Y-14845696D01*
X12069342Y-14845696D02*
X12088390Y-14855220D01*
X12088390Y-14855220D02*
X12126485Y-14855220D01*
X12126485Y-14855220D02*
X12145532Y-14845696D01*
X12145532Y-14845696D02*
X12155056Y-14836173D01*
X12155056Y-14836173D02*
X12164580Y-14817125D01*
X12164580Y-14817125D02*
X12164580Y-14769506D01*
X12164580Y-14769506D02*
X12155056Y-14750458D01*
X12155056Y-14750458D02*
X12145532Y-14740934D01*
X12145532Y-14740934D02*
X12126485Y-14731411D01*
X12126485Y-14731411D02*
X12088390Y-14731411D01*
X12088390Y-14731411D02*
X12069342Y-14740934D01*
X12069342Y-14740934D02*
X12059818Y-14750458D01*
X12059818Y-14750458D02*
X12050294Y-14769506D01*
X12288390Y-14655220D02*
X12307437Y-14655220D01*
X12307437Y-14655220D02*
X12326485Y-14664744D01*
X12326485Y-14664744D02*
X12336009Y-14674268D01*
X12336009Y-14674268D02*
X12345532Y-14693315D01*
X12345532Y-14693315D02*
X12355056Y-14731411D01*
X12355056Y-14731411D02*
X12355056Y-14779030D01*
X12355056Y-14779030D02*
X12345532Y-14817125D01*
X12345532Y-14817125D02*
X12336009Y-14836173D01*
X12336009Y-14836173D02*
X12326485Y-14845696D01*
X12326485Y-14845696D02*
X12307437Y-14855220D01*
X12307437Y-14855220D02*
X12288390Y-14855220D01*
X12288390Y-14855220D02*
X12269342Y-14845696D01*
X12269342Y-14845696D02*
X12259818Y-14836173D01*
X12259818Y-14836173D02*
X12250294Y-14817125D01*
X12250294Y-14817125D02*
X12240771Y-14779030D01*
X12240771Y-14779030D02*
X12240771Y-14731411D01*
X12240771Y-14731411D02*
X12250294Y-14693315D01*
X12250294Y-14693315D02*
X12259818Y-14674268D01*
X12259818Y-14674268D02*
X12269342Y-14664744D01*
X12269342Y-14664744D02*
X12288390Y-14655220D01*
X12478866Y-14655220D02*
X12497913Y-14655220D01*
X12497913Y-14655220D02*
X12516961Y-14664744D01*
X12516961Y-14664744D02*
X12526485Y-14674268D01*
X12526485Y-14674268D02*
X12536009Y-14693315D01*
X12536009Y-14693315D02*
X12545532Y-14731411D01*
X12545532Y-14731411D02*
X12545532Y-14779030D01*
X12545532Y-14779030D02*
X12536009Y-14817125D01*
X12536009Y-14817125D02*
X12526485Y-14836173D01*
X12526485Y-14836173D02*
X12516961Y-14845696D01*
X12516961Y-14845696D02*
X12497913Y-14855220D01*
X12497913Y-14855220D02*
X12478866Y-14855220D01*
X12478866Y-14855220D02*
X12459818Y-14845696D01*
X12459818Y-14845696D02*
X12450294Y-14836173D01*
X12450294Y-14836173D02*
X12440771Y-14817125D01*
X12440771Y-14817125D02*
X12431247Y-14779030D01*
X12431247Y-14779030D02*
X12431247Y-14731411D01*
X12431247Y-14731411D02*
X12440771Y-14693315D01*
X12440771Y-14693315D02*
X12450294Y-14674268D01*
X12450294Y-14674268D02*
X12459818Y-14664744D01*
X12459818Y-14664744D02*
X12478866Y-14655220D01*
X12631247Y-14855220D02*
X12631247Y-14721887D01*
X12631247Y-14740934D02*
X12640771Y-14731411D01*
X12640771Y-14731411D02*
X12659818Y-14721887D01*
X12659818Y-14721887D02*
X12688390Y-14721887D01*
X12688390Y-14721887D02*
X12707437Y-14731411D01*
X12707437Y-14731411D02*
X12716961Y-14750458D01*
X12716961Y-14750458D02*
X12716961Y-14855220D01*
X12716961Y-14750458D02*
X12726485Y-14731411D01*
X12726485Y-14731411D02*
X12745532Y-14721887D01*
X12745532Y-14721887D02*
X12774104Y-14721887D01*
X12774104Y-14721887D02*
X12793152Y-14731411D01*
X12793152Y-14731411D02*
X12802675Y-14750458D01*
X12802675Y-14750458D02*
X12802675Y-14855220D01*
X12897913Y-14855220D02*
X12897913Y-14721887D01*
X12897913Y-14740934D02*
X12907437Y-14731411D01*
X12907437Y-14731411D02*
X12926485Y-14721887D01*
X12926485Y-14721887D02*
X12955056Y-14721887D01*
X12955056Y-14721887D02*
X12974104Y-14731411D01*
X12974104Y-14731411D02*
X12983628Y-14750458D01*
X12983628Y-14750458D02*
X12983628Y-14855220D01*
X12983628Y-14750458D02*
X12993152Y-14731411D01*
X12993152Y-14731411D02*
X13012199Y-14721887D01*
X13012199Y-14721887D02*
X13040771Y-14721887D01*
X13040771Y-14721887D02*
X13059818Y-14731411D01*
X13059818Y-14731411D02*
X13069342Y-14750458D01*
X13069342Y-14750458D02*
X13069342Y-14855220D01*
X13459818Y-14645696D02*
X13288390Y-14902839D01*
X13716961Y-14655220D02*
X13736009Y-14655220D01*
X13736009Y-14655220D02*
X13755056Y-14664744D01*
X13755056Y-14664744D02*
X13764580Y-14674268D01*
X13764580Y-14674268D02*
X13774104Y-14693315D01*
X13774104Y-14693315D02*
X13783628Y-14731411D01*
X13783628Y-14731411D02*
X13783628Y-14779030D01*
X13783628Y-14779030D02*
X13774104Y-14817125D01*
X13774104Y-14817125D02*
X13764580Y-14836173D01*
X13764580Y-14836173D02*
X13755056Y-14845696D01*
X13755056Y-14845696D02*
X13736009Y-14855220D01*
X13736009Y-14855220D02*
X13716961Y-14855220D01*
X13716961Y-14855220D02*
X13697914Y-14845696D01*
X13697914Y-14845696D02*
X13688390Y-14836173D01*
X13688390Y-14836173D02*
X13678866Y-14817125D01*
X13678866Y-14817125D02*
X13669342Y-14779030D01*
X13669342Y-14779030D02*
X13669342Y-14731411D01*
X13669342Y-14731411D02*
X13678866Y-14693315D01*
X13678866Y-14693315D02*
X13688390Y-14674268D01*
X13688390Y-14674268D02*
X13697914Y-14664744D01*
X13697914Y-14664744D02*
X13716961Y-14655220D01*
X13869342Y-14836173D02*
X13878866Y-14845696D01*
X13878866Y-14845696D02*
X13869342Y-14855220D01*
X13869342Y-14855220D02*
X13859818Y-14845696D01*
X13859818Y-14845696D02*
X13869342Y-14836173D01*
X13869342Y-14836173D02*
X13869342Y-14855220D01*
X14002675Y-14655220D02*
X14021723Y-14655220D01*
X14021723Y-14655220D02*
X14040771Y-14664744D01*
X14040771Y-14664744D02*
X14050295Y-14674268D01*
X14050295Y-14674268D02*
X14059818Y-14693315D01*
X14059818Y-14693315D02*
X14069342Y-14731411D01*
X14069342Y-14731411D02*
X14069342Y-14779030D01*
X14069342Y-14779030D02*
X14059818Y-14817125D01*
X14059818Y-14817125D02*
X14050295Y-14836173D01*
X14050295Y-14836173D02*
X14040771Y-14845696D01*
X14040771Y-14845696D02*
X14021723Y-14855220D01*
X14021723Y-14855220D02*
X14002675Y-14855220D01*
X14002675Y-14855220D02*
X13983628Y-14845696D01*
X13983628Y-14845696D02*
X13974104Y-14836173D01*
X13974104Y-14836173D02*
X13964580Y-14817125D01*
X13964580Y-14817125D02*
X13955056Y-14779030D01*
X13955056Y-14779030D02*
X13955056Y-14731411D01*
X13955056Y-14731411D02*
X13964580Y-14693315D01*
X13964580Y-14693315D02*
X13974104Y-14674268D01*
X13974104Y-14674268D02*
X13983628Y-14664744D01*
X13983628Y-14664744D02*
X14002675Y-14655220D01*
X14145533Y-14674268D02*
X14155056Y-14664744D01*
X14155056Y-14664744D02*
X14174104Y-14655220D01*
X14174104Y-14655220D02*
X14221723Y-14655220D01*
X14221723Y-14655220D02*
X14240771Y-14664744D01*
X14240771Y-14664744D02*
X14250295Y-14674268D01*
X14250295Y-14674268D02*
X14259818Y-14693315D01*
X14259818Y-14693315D02*
X14259818Y-14712363D01*
X14259818Y-14712363D02*
X14250295Y-14740934D01*
X14250295Y-14740934D02*
X14136009Y-14855220D01*
X14136009Y-14855220D02*
X14259818Y-14855220D01*
X14326485Y-14655220D02*
X14450295Y-14655220D01*
X14450295Y-14655220D02*
X14383628Y-14731411D01*
X14383628Y-14731411D02*
X14412199Y-14731411D01*
X14412199Y-14731411D02*
X14431247Y-14740934D01*
X14431247Y-14740934D02*
X14440771Y-14750458D01*
X14440771Y-14750458D02*
X14450295Y-14769506D01*
X14450295Y-14769506D02*
X14450295Y-14817125D01*
X14450295Y-14817125D02*
X14440771Y-14836173D01*
X14440771Y-14836173D02*
X14431247Y-14845696D01*
X14431247Y-14845696D02*
X14412199Y-14855220D01*
X14412199Y-14855220D02*
X14355056Y-14855220D01*
X14355056Y-14855220D02*
X14336009Y-14845696D01*
X14336009Y-14845696D02*
X14326485Y-14836173D01*
X14621723Y-14655220D02*
X14583628Y-14655220D01*
X14583628Y-14655220D02*
X14564580Y-14664744D01*
X14564580Y-14664744D02*
X14555056Y-14674268D01*
X14555056Y-14674268D02*
X14536009Y-14702839D01*
X14536009Y-14702839D02*
X14526485Y-14740934D01*
X14526485Y-14740934D02*
X14526485Y-14817125D01*
X14526485Y-14817125D02*
X14536009Y-14836173D01*
X14536009Y-14836173D02*
X14545533Y-14845696D01*
X14545533Y-14845696D02*
X14564580Y-14855220D01*
X14564580Y-14855220D02*
X14602676Y-14855220D01*
X14602676Y-14855220D02*
X14621723Y-14845696D01*
X14621723Y-14845696D02*
X14631247Y-14836173D01*
X14631247Y-14836173D02*
X14640771Y-14817125D01*
X14640771Y-14817125D02*
X14640771Y-14769506D01*
X14640771Y-14769506D02*
X14631247Y-14750458D01*
X14631247Y-14750458D02*
X14621723Y-14740934D01*
X14621723Y-14740934D02*
X14602676Y-14731411D01*
X14602676Y-14731411D02*
X14564580Y-14731411D01*
X14564580Y-14731411D02*
X14545533Y-14740934D01*
X14545533Y-14740934D02*
X14536009Y-14750458D01*
X14536009Y-14750458D02*
X14526485Y-14769506D01*
X14716961Y-14655220D02*
X14716961Y-14693315D01*
X14793152Y-14655220D02*
X14793152Y-14693315D01*
X15088390Y-14931411D02*
X15078866Y-14921887D01*
X15078866Y-14921887D02*
X15059818Y-14893315D01*
X15059818Y-14893315D02*
X15050295Y-14874268D01*
X15050295Y-14874268D02*
X15040771Y-14845696D01*
X15040771Y-14845696D02*
X15031247Y-14798077D01*
X15031247Y-14798077D02*
X15031247Y-14759982D01*
X15031247Y-14759982D02*
X15040771Y-14712363D01*
X15040771Y-14712363D02*
X15050295Y-14683792D01*
X15050295Y-14683792D02*
X15059818Y-14664744D01*
X15059818Y-14664744D02*
X15078866Y-14636173D01*
X15078866Y-14636173D02*
X15088390Y-14626649D01*
X15202676Y-14655220D02*
X15221723Y-14655220D01*
X15221723Y-14655220D02*
X15240771Y-14664744D01*
X15240771Y-14664744D02*
X15250295Y-14674268D01*
X15250295Y-14674268D02*
X15259818Y-14693315D01*
X15259818Y-14693315D02*
X15269342Y-14731411D01*
X15269342Y-14731411D02*
X15269342Y-14779030D01*
X15269342Y-14779030D02*
X15259818Y-14817125D01*
X15259818Y-14817125D02*
X15250295Y-14836173D01*
X15250295Y-14836173D02*
X15240771Y-14845696D01*
X15240771Y-14845696D02*
X15221723Y-14855220D01*
X15221723Y-14855220D02*
X15202676Y-14855220D01*
X15202676Y-14855220D02*
X15183628Y-14845696D01*
X15183628Y-14845696D02*
X15174104Y-14836173D01*
X15174104Y-14836173D02*
X15164580Y-14817125D01*
X15164580Y-14817125D02*
X15155057Y-14779030D01*
X15155057Y-14779030D02*
X15155057Y-14731411D01*
X15155057Y-14731411D02*
X15164580Y-14693315D01*
X15164580Y-14693315D02*
X15174104Y-14674268D01*
X15174104Y-14674268D02*
X15183628Y-14664744D01*
X15183628Y-14664744D02*
X15202676Y-14655220D01*
X15507438Y-14855220D02*
X15507438Y-14655220D01*
X15593152Y-14855220D02*
X15593152Y-14750458D01*
X15593152Y-14750458D02*
X15583628Y-14731411D01*
X15583628Y-14731411D02*
X15564580Y-14721887D01*
X15564580Y-14721887D02*
X15536009Y-14721887D01*
X15536009Y-14721887D02*
X15516961Y-14731411D01*
X15516961Y-14731411D02*
X15507438Y-14740934D01*
X15716961Y-14855220D02*
X15697914Y-14845696D01*
X15697914Y-14845696D02*
X15688390Y-14836173D01*
X15688390Y-14836173D02*
X15678866Y-14817125D01*
X15678866Y-14817125D02*
X15678866Y-14759982D01*
X15678866Y-14759982D02*
X15688390Y-14740934D01*
X15688390Y-14740934D02*
X15697914Y-14731411D01*
X15697914Y-14731411D02*
X15716961Y-14721887D01*
X15716961Y-14721887D02*
X15745533Y-14721887D01*
X15745533Y-14721887D02*
X15764580Y-14731411D01*
X15764580Y-14731411D02*
X15774104Y-14740934D01*
X15774104Y-14740934D02*
X15783628Y-14759982D01*
X15783628Y-14759982D02*
X15783628Y-14817125D01*
X15783628Y-14817125D02*
X15774104Y-14836173D01*
X15774104Y-14836173D02*
X15764580Y-14845696D01*
X15764580Y-14845696D02*
X15745533Y-14855220D01*
X15745533Y-14855220D02*
X15716961Y-14855220D01*
X15897914Y-14855220D02*
X15878866Y-14845696D01*
X15878866Y-14845696D02*
X15869342Y-14826649D01*
X15869342Y-14826649D02*
X15869342Y-14655220D01*
X16050295Y-14845696D02*
X16031247Y-14855220D01*
X16031247Y-14855220D02*
X15993152Y-14855220D01*
X15993152Y-14855220D02*
X15974104Y-14845696D01*
X15974104Y-14845696D02*
X15964580Y-14826649D01*
X15964580Y-14826649D02*
X15964580Y-14750458D01*
X15964580Y-14750458D02*
X15974104Y-14731411D01*
X15974104Y-14731411D02*
X15993152Y-14721887D01*
X15993152Y-14721887D02*
X16031247Y-14721887D01*
X16031247Y-14721887D02*
X16050295Y-14731411D01*
X16050295Y-14731411D02*
X16059819Y-14750458D01*
X16059819Y-14750458D02*
X16059819Y-14769506D01*
X16059819Y-14769506D02*
X15964580Y-14788554D01*
X16136009Y-14845696D02*
X16155057Y-14855220D01*
X16155057Y-14855220D02*
X16193152Y-14855220D01*
X16193152Y-14855220D02*
X16212200Y-14845696D01*
X16212200Y-14845696D02*
X16221723Y-14826649D01*
X16221723Y-14826649D02*
X16221723Y-14817125D01*
X16221723Y-14817125D02*
X16212200Y-14798077D01*
X16212200Y-14798077D02*
X16193152Y-14788554D01*
X16193152Y-14788554D02*
X16164580Y-14788554D01*
X16164580Y-14788554D02*
X16145533Y-14779030D01*
X16145533Y-14779030D02*
X16136009Y-14759982D01*
X16136009Y-14759982D02*
X16136009Y-14750458D01*
X16136009Y-14750458D02*
X16145533Y-14731411D01*
X16145533Y-14731411D02*
X16164580Y-14721887D01*
X16164580Y-14721887D02*
X16193152Y-14721887D01*
X16193152Y-14721887D02*
X16212200Y-14731411D01*
X16459819Y-14779030D02*
X16612200Y-14779030D01*
X16536009Y-14855220D02*
X16536009Y-14702839D01*
X16945533Y-14721887D02*
X16945533Y-14855220D01*
X16897914Y-14645696D02*
X16850295Y-14788554D01*
X16850295Y-14788554D02*
X16974104Y-14788554D01*
X17193152Y-14845696D02*
X17212200Y-14855220D01*
X17212200Y-14855220D02*
X17250295Y-14855220D01*
X17250295Y-14855220D02*
X17269343Y-14845696D01*
X17269343Y-14845696D02*
X17278866Y-14826649D01*
X17278866Y-14826649D02*
X17278866Y-14817125D01*
X17278866Y-14817125D02*
X17269343Y-14798077D01*
X17269343Y-14798077D02*
X17250295Y-14788554D01*
X17250295Y-14788554D02*
X17221724Y-14788554D01*
X17221724Y-14788554D02*
X17202676Y-14779030D01*
X17202676Y-14779030D02*
X17193152Y-14759982D01*
X17193152Y-14759982D02*
X17193152Y-14750458D01*
X17193152Y-14750458D02*
X17202676Y-14731411D01*
X17202676Y-14731411D02*
X17221724Y-14721887D01*
X17221724Y-14721887D02*
X17250295Y-14721887D01*
X17250295Y-14721887D02*
X17269343Y-14731411D01*
X17393152Y-14855220D02*
X17374105Y-14845696D01*
X17374105Y-14845696D02*
X17364581Y-14826649D01*
X17364581Y-14826649D02*
X17364581Y-14655220D01*
X17497914Y-14855220D02*
X17478866Y-14845696D01*
X17478866Y-14845696D02*
X17469343Y-14836173D01*
X17469343Y-14836173D02*
X17459819Y-14817125D01*
X17459819Y-14817125D02*
X17459819Y-14759982D01*
X17459819Y-14759982D02*
X17469343Y-14740934D01*
X17469343Y-14740934D02*
X17478866Y-14731411D01*
X17478866Y-14731411D02*
X17497914Y-14721887D01*
X17497914Y-14721887D02*
X17526486Y-14721887D01*
X17526486Y-14721887D02*
X17545533Y-14731411D01*
X17545533Y-14731411D02*
X17555057Y-14740934D01*
X17555057Y-14740934D02*
X17564581Y-14759982D01*
X17564581Y-14759982D02*
X17564581Y-14817125D01*
X17564581Y-14817125D02*
X17555057Y-14836173D01*
X17555057Y-14836173D02*
X17545533Y-14845696D01*
X17545533Y-14845696D02*
X17526486Y-14855220D01*
X17526486Y-14855220D02*
X17497914Y-14855220D01*
X17621724Y-14721887D02*
X17697914Y-14721887D01*
X17650295Y-14655220D02*
X17650295Y-14826649D01*
X17650295Y-14826649D02*
X17659819Y-14845696D01*
X17659819Y-14845696D02*
X17678866Y-14855220D01*
X17678866Y-14855220D02*
X17697914Y-14855220D01*
X17755057Y-14845696D02*
X17774105Y-14855220D01*
X17774105Y-14855220D02*
X17812200Y-14855220D01*
X17812200Y-14855220D02*
X17831247Y-14845696D01*
X17831247Y-14845696D02*
X17840771Y-14826649D01*
X17840771Y-14826649D02*
X17840771Y-14817125D01*
X17840771Y-14817125D02*
X17831247Y-14798077D01*
X17831247Y-14798077D02*
X17812200Y-14788554D01*
X17812200Y-14788554D02*
X17783628Y-14788554D01*
X17783628Y-14788554D02*
X17764581Y-14779030D01*
X17764581Y-14779030D02*
X17755057Y-14759982D01*
X17755057Y-14759982D02*
X17755057Y-14750458D01*
X17755057Y-14750458D02*
X17764581Y-14731411D01*
X17764581Y-14731411D02*
X17783628Y-14721887D01*
X17783628Y-14721887D02*
X17812200Y-14721887D01*
X17812200Y-14721887D02*
X17831247Y-14731411D01*
X17907438Y-14931411D02*
X17916962Y-14921887D01*
X17916962Y-14921887D02*
X17936009Y-14893315D01*
X17936009Y-14893315D02*
X17945533Y-14874268D01*
X17945533Y-14874268D02*
X17955057Y-14845696D01*
X17955057Y-14845696D02*
X17964581Y-14798077D01*
X17964581Y-14798077D02*
X17964581Y-14759982D01*
X17964581Y-14759982D02*
X17955057Y-14712363D01*
X17955057Y-14712363D02*
X17945533Y-14683792D01*
X17945533Y-14683792D02*
X17936009Y-14664744D01*
X17936009Y-14664744D02*
X17916962Y-14636173D01*
X17916962Y-14636173D02*
X17907438Y-14626649D01*
D13*
X11458327Y-14972736D02*
X11458327Y-15082736D01*
X11403327Y-15027736D02*
X11513327Y-15027736D01*
D11*
X11878866Y-15119220D02*
X11764580Y-15119220D01*
X11821723Y-15119220D02*
X11821723Y-14919220D01*
X11821723Y-14919220D02*
X11802675Y-14947792D01*
X11802675Y-14947792D02*
X11783628Y-14966839D01*
X11783628Y-14966839D02*
X11764580Y-14976363D01*
X11964580Y-15100173D02*
X11974104Y-15109696D01*
X11974104Y-15109696D02*
X11964580Y-15119220D01*
X11964580Y-15119220D02*
X11955056Y-15109696D01*
X11955056Y-15109696D02*
X11964580Y-15100173D01*
X11964580Y-15100173D02*
X11964580Y-15119220D01*
X12164580Y-15119220D02*
X12050294Y-15119220D01*
X12107437Y-15119220D02*
X12107437Y-14919220D01*
X12107437Y-14919220D02*
X12088390Y-14947792D01*
X12088390Y-14947792D02*
X12069342Y-14966839D01*
X12069342Y-14966839D02*
X12050294Y-14976363D01*
X12288390Y-14919220D02*
X12307437Y-14919220D01*
X12307437Y-14919220D02*
X12326485Y-14928744D01*
X12326485Y-14928744D02*
X12336009Y-14938268D01*
X12336009Y-14938268D02*
X12345532Y-14957315D01*
X12345532Y-14957315D02*
X12355056Y-14995411D01*
X12355056Y-14995411D02*
X12355056Y-15043030D01*
X12355056Y-15043030D02*
X12345532Y-15081125D01*
X12345532Y-15081125D02*
X12336009Y-15100173D01*
X12336009Y-15100173D02*
X12326485Y-15109696D01*
X12326485Y-15109696D02*
X12307437Y-15119220D01*
X12307437Y-15119220D02*
X12288390Y-15119220D01*
X12288390Y-15119220D02*
X12269342Y-15109696D01*
X12269342Y-15109696D02*
X12259818Y-15100173D01*
X12259818Y-15100173D02*
X12250294Y-15081125D01*
X12250294Y-15081125D02*
X12240771Y-15043030D01*
X12240771Y-15043030D02*
X12240771Y-14995411D01*
X12240771Y-14995411D02*
X12250294Y-14957315D01*
X12250294Y-14957315D02*
X12259818Y-14938268D01*
X12259818Y-14938268D02*
X12269342Y-14928744D01*
X12269342Y-14928744D02*
X12288390Y-14919220D01*
X12478866Y-14919220D02*
X12497913Y-14919220D01*
X12497913Y-14919220D02*
X12516961Y-14928744D01*
X12516961Y-14928744D02*
X12526485Y-14938268D01*
X12526485Y-14938268D02*
X12536009Y-14957315D01*
X12536009Y-14957315D02*
X12545532Y-14995411D01*
X12545532Y-14995411D02*
X12545532Y-15043030D01*
X12545532Y-15043030D02*
X12536009Y-15081125D01*
X12536009Y-15081125D02*
X12526485Y-15100173D01*
X12526485Y-15100173D02*
X12516961Y-15109696D01*
X12516961Y-15109696D02*
X12497913Y-15119220D01*
X12497913Y-15119220D02*
X12478866Y-15119220D01*
X12478866Y-15119220D02*
X12459818Y-15109696D01*
X12459818Y-15109696D02*
X12450294Y-15100173D01*
X12450294Y-15100173D02*
X12440771Y-15081125D01*
X12440771Y-15081125D02*
X12431247Y-15043030D01*
X12431247Y-15043030D02*
X12431247Y-14995411D01*
X12431247Y-14995411D02*
X12440771Y-14957315D01*
X12440771Y-14957315D02*
X12450294Y-14938268D01*
X12450294Y-14938268D02*
X12459818Y-14928744D01*
X12459818Y-14928744D02*
X12478866Y-14919220D01*
X12631247Y-15119220D02*
X12631247Y-14985887D01*
X12631247Y-15004934D02*
X12640771Y-14995411D01*
X12640771Y-14995411D02*
X12659818Y-14985887D01*
X12659818Y-14985887D02*
X12688390Y-14985887D01*
X12688390Y-14985887D02*
X12707437Y-14995411D01*
X12707437Y-14995411D02*
X12716961Y-15014458D01*
X12716961Y-15014458D02*
X12716961Y-15119220D01*
X12716961Y-15014458D02*
X12726485Y-14995411D01*
X12726485Y-14995411D02*
X12745532Y-14985887D01*
X12745532Y-14985887D02*
X12774104Y-14985887D01*
X12774104Y-14985887D02*
X12793152Y-14995411D01*
X12793152Y-14995411D02*
X12802675Y-15014458D01*
X12802675Y-15014458D02*
X12802675Y-15119220D01*
X12897913Y-15119220D02*
X12897913Y-14985887D01*
X12897913Y-15004934D02*
X12907437Y-14995411D01*
X12907437Y-14995411D02*
X12926485Y-14985887D01*
X12926485Y-14985887D02*
X12955056Y-14985887D01*
X12955056Y-14985887D02*
X12974104Y-14995411D01*
X12974104Y-14995411D02*
X12983628Y-15014458D01*
X12983628Y-15014458D02*
X12983628Y-15119220D01*
X12983628Y-15014458D02*
X12993152Y-14995411D01*
X12993152Y-14995411D02*
X13012199Y-14985887D01*
X13012199Y-14985887D02*
X13040771Y-14985887D01*
X13040771Y-14985887D02*
X13059818Y-14995411D01*
X13059818Y-14995411D02*
X13069342Y-15014458D01*
X13069342Y-15014458D02*
X13069342Y-15119220D01*
X13459818Y-14909696D02*
X13288390Y-15166839D01*
X13716961Y-14919220D02*
X13736009Y-14919220D01*
X13736009Y-14919220D02*
X13755056Y-14928744D01*
X13755056Y-14928744D02*
X13764580Y-14938268D01*
X13764580Y-14938268D02*
X13774104Y-14957315D01*
X13774104Y-14957315D02*
X13783628Y-14995411D01*
X13783628Y-14995411D02*
X13783628Y-15043030D01*
X13783628Y-15043030D02*
X13774104Y-15081125D01*
X13774104Y-15081125D02*
X13764580Y-15100173D01*
X13764580Y-15100173D02*
X13755056Y-15109696D01*
X13755056Y-15109696D02*
X13736009Y-15119220D01*
X13736009Y-15119220D02*
X13716961Y-15119220D01*
X13716961Y-15119220D02*
X13697914Y-15109696D01*
X13697914Y-15109696D02*
X13688390Y-15100173D01*
X13688390Y-15100173D02*
X13678866Y-15081125D01*
X13678866Y-15081125D02*
X13669342Y-15043030D01*
X13669342Y-15043030D02*
X13669342Y-14995411D01*
X13669342Y-14995411D02*
X13678866Y-14957315D01*
X13678866Y-14957315D02*
X13688390Y-14938268D01*
X13688390Y-14938268D02*
X13697914Y-14928744D01*
X13697914Y-14928744D02*
X13716961Y-14919220D01*
X13869342Y-15100173D02*
X13878866Y-15109696D01*
X13878866Y-15109696D02*
X13869342Y-15119220D01*
X13869342Y-15119220D02*
X13859818Y-15109696D01*
X13859818Y-15109696D02*
X13869342Y-15100173D01*
X13869342Y-15100173D02*
X13869342Y-15119220D01*
X14002675Y-14919220D02*
X14021723Y-14919220D01*
X14021723Y-14919220D02*
X14040771Y-14928744D01*
X14040771Y-14928744D02*
X14050295Y-14938268D01*
X14050295Y-14938268D02*
X14059818Y-14957315D01*
X14059818Y-14957315D02*
X14069342Y-14995411D01*
X14069342Y-14995411D02*
X14069342Y-15043030D01*
X14069342Y-15043030D02*
X14059818Y-15081125D01*
X14059818Y-15081125D02*
X14050295Y-15100173D01*
X14050295Y-15100173D02*
X14040771Y-15109696D01*
X14040771Y-15109696D02*
X14021723Y-15119220D01*
X14021723Y-15119220D02*
X14002675Y-15119220D01*
X14002675Y-15119220D02*
X13983628Y-15109696D01*
X13983628Y-15109696D02*
X13974104Y-15100173D01*
X13974104Y-15100173D02*
X13964580Y-15081125D01*
X13964580Y-15081125D02*
X13955056Y-15043030D01*
X13955056Y-15043030D02*
X13955056Y-14995411D01*
X13955056Y-14995411D02*
X13964580Y-14957315D01*
X13964580Y-14957315D02*
X13974104Y-14938268D01*
X13974104Y-14938268D02*
X13983628Y-14928744D01*
X13983628Y-14928744D02*
X14002675Y-14919220D01*
X14240771Y-14985887D02*
X14240771Y-15119220D01*
X14193152Y-14909696D02*
X14145533Y-15052554D01*
X14145533Y-15052554D02*
X14269342Y-15052554D01*
X14326485Y-14919220D02*
X14450295Y-14919220D01*
X14450295Y-14919220D02*
X14383628Y-14995411D01*
X14383628Y-14995411D02*
X14412199Y-14995411D01*
X14412199Y-14995411D02*
X14431247Y-15004934D01*
X14431247Y-15004934D02*
X14440771Y-15014458D01*
X14440771Y-15014458D02*
X14450295Y-15033506D01*
X14450295Y-15033506D02*
X14450295Y-15081125D01*
X14450295Y-15081125D02*
X14440771Y-15100173D01*
X14440771Y-15100173D02*
X14431247Y-15109696D01*
X14431247Y-15109696D02*
X14412199Y-15119220D01*
X14412199Y-15119220D02*
X14355056Y-15119220D01*
X14355056Y-15119220D02*
X14336009Y-15109696D01*
X14336009Y-15109696D02*
X14326485Y-15100173D01*
X14516961Y-14919220D02*
X14640771Y-14919220D01*
X14640771Y-14919220D02*
X14574104Y-14995411D01*
X14574104Y-14995411D02*
X14602676Y-14995411D01*
X14602676Y-14995411D02*
X14621723Y-15004934D01*
X14621723Y-15004934D02*
X14631247Y-15014458D01*
X14631247Y-15014458D02*
X14640771Y-15033506D01*
X14640771Y-15033506D02*
X14640771Y-15081125D01*
X14640771Y-15081125D02*
X14631247Y-15100173D01*
X14631247Y-15100173D02*
X14621723Y-15109696D01*
X14621723Y-15109696D02*
X14602676Y-15119220D01*
X14602676Y-15119220D02*
X14545533Y-15119220D01*
X14545533Y-15119220D02*
X14526485Y-15109696D01*
X14526485Y-15109696D02*
X14516961Y-15100173D01*
X14716961Y-14919220D02*
X14716961Y-14957315D01*
X14793152Y-14919220D02*
X14793152Y-14957315D01*
X15088390Y-15195411D02*
X15078866Y-15185887D01*
X15078866Y-15185887D02*
X15059818Y-15157315D01*
X15059818Y-15157315D02*
X15050295Y-15138268D01*
X15050295Y-15138268D02*
X15040771Y-15109696D01*
X15040771Y-15109696D02*
X15031247Y-15062077D01*
X15031247Y-15062077D02*
X15031247Y-15023982D01*
X15031247Y-15023982D02*
X15040771Y-14976363D01*
X15040771Y-14976363D02*
X15050295Y-14947792D01*
X15050295Y-14947792D02*
X15059818Y-14928744D01*
X15059818Y-14928744D02*
X15078866Y-14900173D01*
X15078866Y-14900173D02*
X15088390Y-14890649D01*
X15145533Y-14919220D02*
X15269342Y-14919220D01*
X15269342Y-14919220D02*
X15202676Y-14995411D01*
X15202676Y-14995411D02*
X15231247Y-14995411D01*
X15231247Y-14995411D02*
X15250295Y-15004934D01*
X15250295Y-15004934D02*
X15259818Y-15014458D01*
X15259818Y-15014458D02*
X15269342Y-15033506D01*
X15269342Y-15033506D02*
X15269342Y-15081125D01*
X15269342Y-15081125D02*
X15259818Y-15100173D01*
X15259818Y-15100173D02*
X15250295Y-15109696D01*
X15250295Y-15109696D02*
X15231247Y-15119220D01*
X15231247Y-15119220D02*
X15174104Y-15119220D01*
X15174104Y-15119220D02*
X15155057Y-15109696D01*
X15155057Y-15109696D02*
X15145533Y-15100173D01*
X15507438Y-15119220D02*
X15507438Y-14919220D01*
X15593152Y-15119220D02*
X15593152Y-15014458D01*
X15593152Y-15014458D02*
X15583628Y-14995411D01*
X15583628Y-14995411D02*
X15564580Y-14985887D01*
X15564580Y-14985887D02*
X15536009Y-14985887D01*
X15536009Y-14985887D02*
X15516961Y-14995411D01*
X15516961Y-14995411D02*
X15507438Y-15004934D01*
X15716961Y-15119220D02*
X15697914Y-15109696D01*
X15697914Y-15109696D02*
X15688390Y-15100173D01*
X15688390Y-15100173D02*
X15678866Y-15081125D01*
X15678866Y-15081125D02*
X15678866Y-15023982D01*
X15678866Y-15023982D02*
X15688390Y-15004934D01*
X15688390Y-15004934D02*
X15697914Y-14995411D01*
X15697914Y-14995411D02*
X15716961Y-14985887D01*
X15716961Y-14985887D02*
X15745533Y-14985887D01*
X15745533Y-14985887D02*
X15764580Y-14995411D01*
X15764580Y-14995411D02*
X15774104Y-15004934D01*
X15774104Y-15004934D02*
X15783628Y-15023982D01*
X15783628Y-15023982D02*
X15783628Y-15081125D01*
X15783628Y-15081125D02*
X15774104Y-15100173D01*
X15774104Y-15100173D02*
X15764580Y-15109696D01*
X15764580Y-15109696D02*
X15745533Y-15119220D01*
X15745533Y-15119220D02*
X15716961Y-15119220D01*
X15897914Y-15119220D02*
X15878866Y-15109696D01*
X15878866Y-15109696D02*
X15869342Y-15090649D01*
X15869342Y-15090649D02*
X15869342Y-14919220D01*
X16050295Y-15109696D02*
X16031247Y-15119220D01*
X16031247Y-15119220D02*
X15993152Y-15119220D01*
X15993152Y-15119220D02*
X15974104Y-15109696D01*
X15974104Y-15109696D02*
X15964580Y-15090649D01*
X15964580Y-15090649D02*
X15964580Y-15014458D01*
X15964580Y-15014458D02*
X15974104Y-14995411D01*
X15974104Y-14995411D02*
X15993152Y-14985887D01*
X15993152Y-14985887D02*
X16031247Y-14985887D01*
X16031247Y-14985887D02*
X16050295Y-14995411D01*
X16050295Y-14995411D02*
X16059819Y-15014458D01*
X16059819Y-15014458D02*
X16059819Y-15033506D01*
X16059819Y-15033506D02*
X15964580Y-15052554D01*
X16136009Y-15109696D02*
X16155057Y-15119220D01*
X16155057Y-15119220D02*
X16193152Y-15119220D01*
X16193152Y-15119220D02*
X16212200Y-15109696D01*
X16212200Y-15109696D02*
X16221723Y-15090649D01*
X16221723Y-15090649D02*
X16221723Y-15081125D01*
X16221723Y-15081125D02*
X16212200Y-15062077D01*
X16212200Y-15062077D02*
X16193152Y-15052554D01*
X16193152Y-15052554D02*
X16164580Y-15052554D01*
X16164580Y-15052554D02*
X16145533Y-15043030D01*
X16145533Y-15043030D02*
X16136009Y-15023982D01*
X16136009Y-15023982D02*
X16136009Y-15014458D01*
X16136009Y-15014458D02*
X16145533Y-14995411D01*
X16145533Y-14995411D02*
X16164580Y-14985887D01*
X16164580Y-14985887D02*
X16193152Y-14985887D01*
X16193152Y-14985887D02*
X16212200Y-14995411D01*
X16288390Y-15195411D02*
X16297914Y-15185887D01*
X16297914Y-15185887D02*
X16316961Y-15157315D01*
X16316961Y-15157315D02*
X16326485Y-15138268D01*
X16326485Y-15138268D02*
X16336009Y-15109696D01*
X16336009Y-15109696D02*
X16345533Y-15062077D01*
X16345533Y-15062077D02*
X16345533Y-15023982D01*
X16345533Y-15023982D02*
X16336009Y-14976363D01*
X16336009Y-14976363D02*
X16326485Y-14947792D01*
X16326485Y-14947792D02*
X16316961Y-14928744D01*
X16316961Y-14928744D02*
X16297914Y-14900173D01*
X16297914Y-14900173D02*
X16288390Y-14890649D01*
X11484038Y-15362448D02*
X11484038Y-15221025D01*
X11342616Y-15221025D01*
X11342616Y-15362448D01*
X11484038Y-15362448D01*
X11764580Y-15202268D02*
X11774104Y-15192744D01*
X11774104Y-15192744D02*
X11793151Y-15183220D01*
X11793151Y-15183220D02*
X11840771Y-15183220D01*
X11840771Y-15183220D02*
X11859818Y-15192744D01*
X11859818Y-15192744D02*
X11869342Y-15202268D01*
X11869342Y-15202268D02*
X11878866Y-15221315D01*
X11878866Y-15221315D02*
X11878866Y-15240363D01*
X11878866Y-15240363D02*
X11869342Y-15268934D01*
X11869342Y-15268934D02*
X11755056Y-15383220D01*
X11755056Y-15383220D02*
X11878866Y-15383220D01*
X11964580Y-15364173D02*
X11974104Y-15373696D01*
X11974104Y-15373696D02*
X11964580Y-15383220D01*
X11964580Y-15383220D02*
X11955056Y-15373696D01*
X11955056Y-15373696D02*
X11964580Y-15364173D01*
X11964580Y-15364173D02*
X11964580Y-15383220D01*
X12155056Y-15183220D02*
X12059818Y-15183220D01*
X12059818Y-15183220D02*
X12050294Y-15278458D01*
X12050294Y-15278458D02*
X12059818Y-15268934D01*
X12059818Y-15268934D02*
X12078866Y-15259411D01*
X12078866Y-15259411D02*
X12126485Y-15259411D01*
X12126485Y-15259411D02*
X12145532Y-15268934D01*
X12145532Y-15268934D02*
X12155056Y-15278458D01*
X12155056Y-15278458D02*
X12164580Y-15297506D01*
X12164580Y-15297506D02*
X12164580Y-15345125D01*
X12164580Y-15345125D02*
X12155056Y-15364173D01*
X12155056Y-15364173D02*
X12145532Y-15373696D01*
X12145532Y-15373696D02*
X12126485Y-15383220D01*
X12126485Y-15383220D02*
X12078866Y-15383220D01*
X12078866Y-15383220D02*
X12059818Y-15373696D01*
X12059818Y-15373696D02*
X12050294Y-15364173D01*
X12288390Y-15183220D02*
X12307437Y-15183220D01*
X12307437Y-15183220D02*
X12326485Y-15192744D01*
X12326485Y-15192744D02*
X12336009Y-15202268D01*
X12336009Y-15202268D02*
X12345532Y-15221315D01*
X12345532Y-15221315D02*
X12355056Y-15259411D01*
X12355056Y-15259411D02*
X12355056Y-15307030D01*
X12355056Y-15307030D02*
X12345532Y-15345125D01*
X12345532Y-15345125D02*
X12336009Y-15364173D01*
X12336009Y-15364173D02*
X12326485Y-15373696D01*
X12326485Y-15373696D02*
X12307437Y-15383220D01*
X12307437Y-15383220D02*
X12288390Y-15383220D01*
X12288390Y-15383220D02*
X12269342Y-15373696D01*
X12269342Y-15373696D02*
X12259818Y-15364173D01*
X12259818Y-15364173D02*
X12250294Y-15345125D01*
X12250294Y-15345125D02*
X12240771Y-15307030D01*
X12240771Y-15307030D02*
X12240771Y-15259411D01*
X12240771Y-15259411D02*
X12250294Y-15221315D01*
X12250294Y-15221315D02*
X12259818Y-15202268D01*
X12259818Y-15202268D02*
X12269342Y-15192744D01*
X12269342Y-15192744D02*
X12288390Y-15183220D01*
X12478866Y-15183220D02*
X12497913Y-15183220D01*
X12497913Y-15183220D02*
X12516961Y-15192744D01*
X12516961Y-15192744D02*
X12526485Y-15202268D01*
X12526485Y-15202268D02*
X12536009Y-15221315D01*
X12536009Y-15221315D02*
X12545532Y-15259411D01*
X12545532Y-15259411D02*
X12545532Y-15307030D01*
X12545532Y-15307030D02*
X12536009Y-15345125D01*
X12536009Y-15345125D02*
X12526485Y-15364173D01*
X12526485Y-15364173D02*
X12516961Y-15373696D01*
X12516961Y-15373696D02*
X12497913Y-15383220D01*
X12497913Y-15383220D02*
X12478866Y-15383220D01*
X12478866Y-15383220D02*
X12459818Y-15373696D01*
X12459818Y-15373696D02*
X12450294Y-15364173D01*
X12450294Y-15364173D02*
X12440771Y-15345125D01*
X12440771Y-15345125D02*
X12431247Y-15307030D01*
X12431247Y-15307030D02*
X12431247Y-15259411D01*
X12431247Y-15259411D02*
X12440771Y-15221315D01*
X12440771Y-15221315D02*
X12450294Y-15202268D01*
X12450294Y-15202268D02*
X12459818Y-15192744D01*
X12459818Y-15192744D02*
X12478866Y-15183220D01*
X12631247Y-15383220D02*
X12631247Y-15249887D01*
X12631247Y-15268934D02*
X12640771Y-15259411D01*
X12640771Y-15259411D02*
X12659818Y-15249887D01*
X12659818Y-15249887D02*
X12688390Y-15249887D01*
X12688390Y-15249887D02*
X12707437Y-15259411D01*
X12707437Y-15259411D02*
X12716961Y-15278458D01*
X12716961Y-15278458D02*
X12716961Y-15383220D01*
X12716961Y-15278458D02*
X12726485Y-15259411D01*
X12726485Y-15259411D02*
X12745532Y-15249887D01*
X12745532Y-15249887D02*
X12774104Y-15249887D01*
X12774104Y-15249887D02*
X12793152Y-15259411D01*
X12793152Y-15259411D02*
X12802675Y-15278458D01*
X12802675Y-15278458D02*
X12802675Y-15383220D01*
X12897913Y-15383220D02*
X12897913Y-15249887D01*
X12897913Y-15268934D02*
X12907437Y-15259411D01*
X12907437Y-15259411D02*
X12926485Y-15249887D01*
X12926485Y-15249887D02*
X12955056Y-15249887D01*
X12955056Y-15249887D02*
X12974104Y-15259411D01*
X12974104Y-15259411D02*
X12983628Y-15278458D01*
X12983628Y-15278458D02*
X12983628Y-15383220D01*
X12983628Y-15278458D02*
X12993152Y-15259411D01*
X12993152Y-15259411D02*
X13012199Y-15249887D01*
X13012199Y-15249887D02*
X13040771Y-15249887D01*
X13040771Y-15249887D02*
X13059818Y-15259411D01*
X13059818Y-15259411D02*
X13069342Y-15278458D01*
X13069342Y-15278458D02*
X13069342Y-15383220D01*
X13459818Y-15173696D02*
X13288390Y-15430839D01*
X13716961Y-15183220D02*
X13736009Y-15183220D01*
X13736009Y-15183220D02*
X13755056Y-15192744D01*
X13755056Y-15192744D02*
X13764580Y-15202268D01*
X13764580Y-15202268D02*
X13774104Y-15221315D01*
X13774104Y-15221315D02*
X13783628Y-15259411D01*
X13783628Y-15259411D02*
X13783628Y-15307030D01*
X13783628Y-15307030D02*
X13774104Y-15345125D01*
X13774104Y-15345125D02*
X13764580Y-15364173D01*
X13764580Y-15364173D02*
X13755056Y-15373696D01*
X13755056Y-15373696D02*
X13736009Y-15383220D01*
X13736009Y-15383220D02*
X13716961Y-15383220D01*
X13716961Y-15383220D02*
X13697914Y-15373696D01*
X13697914Y-15373696D02*
X13688390Y-15364173D01*
X13688390Y-15364173D02*
X13678866Y-15345125D01*
X13678866Y-15345125D02*
X13669342Y-15307030D01*
X13669342Y-15307030D02*
X13669342Y-15259411D01*
X13669342Y-15259411D02*
X13678866Y-15221315D01*
X13678866Y-15221315D02*
X13688390Y-15202268D01*
X13688390Y-15202268D02*
X13697914Y-15192744D01*
X13697914Y-15192744D02*
X13716961Y-15183220D01*
X13869342Y-15364173D02*
X13878866Y-15373696D01*
X13878866Y-15373696D02*
X13869342Y-15383220D01*
X13869342Y-15383220D02*
X13859818Y-15373696D01*
X13859818Y-15373696D02*
X13869342Y-15364173D01*
X13869342Y-15364173D02*
X13869342Y-15383220D01*
X14002675Y-15183220D02*
X14021723Y-15183220D01*
X14021723Y-15183220D02*
X14040771Y-15192744D01*
X14040771Y-15192744D02*
X14050295Y-15202268D01*
X14050295Y-15202268D02*
X14059818Y-15221315D01*
X14059818Y-15221315D02*
X14069342Y-15259411D01*
X14069342Y-15259411D02*
X14069342Y-15307030D01*
X14069342Y-15307030D02*
X14059818Y-15345125D01*
X14059818Y-15345125D02*
X14050295Y-15364173D01*
X14050295Y-15364173D02*
X14040771Y-15373696D01*
X14040771Y-15373696D02*
X14021723Y-15383220D01*
X14021723Y-15383220D02*
X14002675Y-15383220D01*
X14002675Y-15383220D02*
X13983628Y-15373696D01*
X13983628Y-15373696D02*
X13974104Y-15364173D01*
X13974104Y-15364173D02*
X13964580Y-15345125D01*
X13964580Y-15345125D02*
X13955056Y-15307030D01*
X13955056Y-15307030D02*
X13955056Y-15259411D01*
X13955056Y-15259411D02*
X13964580Y-15221315D01*
X13964580Y-15221315D02*
X13974104Y-15202268D01*
X13974104Y-15202268D02*
X13983628Y-15192744D01*
X13983628Y-15192744D02*
X14002675Y-15183220D01*
X14164580Y-15383220D02*
X14202675Y-15383220D01*
X14202675Y-15383220D02*
X14221723Y-15373696D01*
X14221723Y-15373696D02*
X14231247Y-15364173D01*
X14231247Y-15364173D02*
X14250295Y-15335601D01*
X14250295Y-15335601D02*
X14259818Y-15297506D01*
X14259818Y-15297506D02*
X14259818Y-15221315D01*
X14259818Y-15221315D02*
X14250295Y-15202268D01*
X14250295Y-15202268D02*
X14240771Y-15192744D01*
X14240771Y-15192744D02*
X14221723Y-15183220D01*
X14221723Y-15183220D02*
X14183628Y-15183220D01*
X14183628Y-15183220D02*
X14164580Y-15192744D01*
X14164580Y-15192744D02*
X14155056Y-15202268D01*
X14155056Y-15202268D02*
X14145533Y-15221315D01*
X14145533Y-15221315D02*
X14145533Y-15268934D01*
X14145533Y-15268934D02*
X14155056Y-15287982D01*
X14155056Y-15287982D02*
X14164580Y-15297506D01*
X14164580Y-15297506D02*
X14183628Y-15307030D01*
X14183628Y-15307030D02*
X14221723Y-15307030D01*
X14221723Y-15307030D02*
X14240771Y-15297506D01*
X14240771Y-15297506D02*
X14250295Y-15287982D01*
X14250295Y-15287982D02*
X14259818Y-15268934D01*
X14374104Y-15268934D02*
X14355056Y-15259411D01*
X14355056Y-15259411D02*
X14345533Y-15249887D01*
X14345533Y-15249887D02*
X14336009Y-15230839D01*
X14336009Y-15230839D02*
X14336009Y-15221315D01*
X14336009Y-15221315D02*
X14345533Y-15202268D01*
X14345533Y-15202268D02*
X14355056Y-15192744D01*
X14355056Y-15192744D02*
X14374104Y-15183220D01*
X14374104Y-15183220D02*
X14412199Y-15183220D01*
X14412199Y-15183220D02*
X14431247Y-15192744D01*
X14431247Y-15192744D02*
X14440771Y-15202268D01*
X14440771Y-15202268D02*
X14450295Y-15221315D01*
X14450295Y-15221315D02*
X14450295Y-15230839D01*
X14450295Y-15230839D02*
X14440771Y-15249887D01*
X14440771Y-15249887D02*
X14431247Y-15259411D01*
X14431247Y-15259411D02*
X14412199Y-15268934D01*
X14412199Y-15268934D02*
X14374104Y-15268934D01*
X14374104Y-15268934D02*
X14355056Y-15278458D01*
X14355056Y-15278458D02*
X14345533Y-15287982D01*
X14345533Y-15287982D02*
X14336009Y-15307030D01*
X14336009Y-15307030D02*
X14336009Y-15345125D01*
X14336009Y-15345125D02*
X14345533Y-15364173D01*
X14345533Y-15364173D02*
X14355056Y-15373696D01*
X14355056Y-15373696D02*
X14374104Y-15383220D01*
X14374104Y-15383220D02*
X14412199Y-15383220D01*
X14412199Y-15383220D02*
X14431247Y-15373696D01*
X14431247Y-15373696D02*
X14440771Y-15364173D01*
X14440771Y-15364173D02*
X14450295Y-15345125D01*
X14450295Y-15345125D02*
X14450295Y-15307030D01*
X14450295Y-15307030D02*
X14440771Y-15287982D01*
X14440771Y-15287982D02*
X14431247Y-15278458D01*
X14431247Y-15278458D02*
X14412199Y-15268934D01*
X14621723Y-15249887D02*
X14621723Y-15383220D01*
X14574104Y-15173696D02*
X14526485Y-15316554D01*
X14526485Y-15316554D02*
X14650295Y-15316554D01*
X14716961Y-15183220D02*
X14716961Y-15221315D01*
X14793152Y-15183220D02*
X14793152Y-15221315D01*
X15088390Y-15459411D02*
X15078866Y-15449887D01*
X15078866Y-15449887D02*
X15059818Y-15421315D01*
X15059818Y-15421315D02*
X15050295Y-15402268D01*
X15050295Y-15402268D02*
X15040771Y-15373696D01*
X15040771Y-15373696D02*
X15031247Y-15326077D01*
X15031247Y-15326077D02*
X15031247Y-15287982D01*
X15031247Y-15287982D02*
X15040771Y-15240363D01*
X15040771Y-15240363D02*
X15050295Y-15211792D01*
X15050295Y-15211792D02*
X15059818Y-15192744D01*
X15059818Y-15192744D02*
X15078866Y-15164173D01*
X15078866Y-15164173D02*
X15088390Y-15154649D01*
X15250295Y-15249887D02*
X15250295Y-15383220D01*
X15202676Y-15173696D02*
X15155057Y-15316554D01*
X15155057Y-15316554D02*
X15278866Y-15316554D01*
X15507438Y-15383220D02*
X15507438Y-15183220D01*
X15593152Y-15383220D02*
X15593152Y-15278458D01*
X15593152Y-15278458D02*
X15583628Y-15259411D01*
X15583628Y-15259411D02*
X15564580Y-15249887D01*
X15564580Y-15249887D02*
X15536009Y-15249887D01*
X15536009Y-15249887D02*
X15516961Y-15259411D01*
X15516961Y-15259411D02*
X15507438Y-15268934D01*
X15716961Y-15383220D02*
X15697914Y-15373696D01*
X15697914Y-15373696D02*
X15688390Y-15364173D01*
X15688390Y-15364173D02*
X15678866Y-15345125D01*
X15678866Y-15345125D02*
X15678866Y-15287982D01*
X15678866Y-15287982D02*
X15688390Y-15268934D01*
X15688390Y-15268934D02*
X15697914Y-15259411D01*
X15697914Y-15259411D02*
X15716961Y-15249887D01*
X15716961Y-15249887D02*
X15745533Y-15249887D01*
X15745533Y-15249887D02*
X15764580Y-15259411D01*
X15764580Y-15259411D02*
X15774104Y-15268934D01*
X15774104Y-15268934D02*
X15783628Y-15287982D01*
X15783628Y-15287982D02*
X15783628Y-15345125D01*
X15783628Y-15345125D02*
X15774104Y-15364173D01*
X15774104Y-15364173D02*
X15764580Y-15373696D01*
X15764580Y-15373696D02*
X15745533Y-15383220D01*
X15745533Y-15383220D02*
X15716961Y-15383220D01*
X15897914Y-15383220D02*
X15878866Y-15373696D01*
X15878866Y-15373696D02*
X15869342Y-15354649D01*
X15869342Y-15354649D02*
X15869342Y-15183220D01*
X16050295Y-15373696D02*
X16031247Y-15383220D01*
X16031247Y-15383220D02*
X15993152Y-15383220D01*
X15993152Y-15383220D02*
X15974104Y-15373696D01*
X15974104Y-15373696D02*
X15964580Y-15354649D01*
X15964580Y-15354649D02*
X15964580Y-15278458D01*
X15964580Y-15278458D02*
X15974104Y-15259411D01*
X15974104Y-15259411D02*
X15993152Y-15249887D01*
X15993152Y-15249887D02*
X16031247Y-15249887D01*
X16031247Y-15249887D02*
X16050295Y-15259411D01*
X16050295Y-15259411D02*
X16059819Y-15278458D01*
X16059819Y-15278458D02*
X16059819Y-15297506D01*
X16059819Y-15297506D02*
X15964580Y-15316554D01*
X16136009Y-15373696D02*
X16155057Y-15383220D01*
X16155057Y-15383220D02*
X16193152Y-15383220D01*
X16193152Y-15383220D02*
X16212200Y-15373696D01*
X16212200Y-15373696D02*
X16221723Y-15354649D01*
X16221723Y-15354649D02*
X16221723Y-15345125D01*
X16221723Y-15345125D02*
X16212200Y-15326077D01*
X16212200Y-15326077D02*
X16193152Y-15316554D01*
X16193152Y-15316554D02*
X16164580Y-15316554D01*
X16164580Y-15316554D02*
X16145533Y-15307030D01*
X16145533Y-15307030D02*
X16136009Y-15287982D01*
X16136009Y-15287982D02*
X16136009Y-15278458D01*
X16136009Y-15278458D02*
X16145533Y-15259411D01*
X16145533Y-15259411D02*
X16164580Y-15249887D01*
X16164580Y-15249887D02*
X16193152Y-15249887D01*
X16193152Y-15249887D02*
X16212200Y-15259411D01*
X16288390Y-15459411D02*
X16297914Y-15449887D01*
X16297914Y-15449887D02*
X16316961Y-15421315D01*
X16316961Y-15421315D02*
X16326485Y-15402268D01*
X16326485Y-15402268D02*
X16336009Y-15373696D01*
X16336009Y-15373696D02*
X16345533Y-15326077D01*
X16345533Y-15326077D02*
X16345533Y-15287982D01*
X16345533Y-15287982D02*
X16336009Y-15240363D01*
X16336009Y-15240363D02*
X16326485Y-15211792D01*
X16326485Y-15211792D02*
X16316961Y-15192744D01*
X16316961Y-15192744D02*
X16297914Y-15164173D01*
X16297914Y-15164173D02*
X16288390Y-15154649D01*
M02*
